# MagicaVoxel @ Ephtracy

# material
mtllib Scene_ButtonRoom_Walls_01.mtl
usemtl palette

# normals
vn -1 0 0
vn 1 0 0
vn 0 0 1
vn 0 0 -1
vn 0 -1 0
vn 0 1 0

# texcoords
vt 0.00195313 0.5
vt 0.0136719 0.5
vt 0.0214844 0.5
vt 0.0292969 0.5

# verts
v -63 0 63
v -63 0 -63
v -63 18 5
v -63 18 -5
v -63 19 4
v -63 19 -4
v -63 29 5
v -63 29 4
v -63 29 -4
v -63 29 -5
v -63 30 4
v -63 30 -4
v -63 33 63
v -63 33 -63
v 4 19 63
v 4 19 60
v 4 19 -60
v 4 19 -63
v 4 28 63
v 4 28 60
v 4 28 -60
v 4 28 -63
v 60 0 60
v 60 0 -60
v 60 18 60
v 60 18 -60
v 60 19 4
v 60 19 -4
v 60 21 60
v 60 21 46
v 60 21 34
v 60 21 5
v 60 21 -5
v 60 21 -34
v 60 21 -46
v 60 21 -60
v 60 22 57
v 60 22 46
v 60 22 34
v 60 22 -34
v 60 22 -46
v 60 22 -57
v 60 23 57
v 60 23 46
v 60 23 -46
v 60 23 -57
v 60 24 34
v 60 24 10
v 60 24 -10
v 60 24 -34
v 60 25 58
v 60 25 34
v 60 25 10
v 60 25 -10
v 60 25 -34
v 60 25 -58
v 60 26 58
v 60 26 34
v 60 26 -34
v 60 26 -58
v 60 29 58
v 60 29 52
v 60 29 38
v 60 29 22
v 60 29 5
v 60 29 4
v 60 29 -4
v 60 29 -5
v 60 29 -22
v 60 29 -38
v 60 29 -52
v 60 29 -58
v 60 30 58
v 60 30 52
v 60 30 46
v 60 30 38
v 60 30 22
v 60 30 5
v 60 30 4
v 60 30 -4
v 60 30 -5
v 60 30 -22
v 60 30 -38
v 60 30 -46
v 60 30 -52
v 60 30 -58
v 60 31 52
v 60 31 46
v 60 31 22
v 60 31 5
v 60 31 -5
v 60 31 -22
v 60 31 -46
v 60 31 -52
v 60 33 60
v 60 33 -60
v -60 0 60
v -60 0 -60
v -60 18 60
v -60 18 -60
v -60 19 4
v -60 19 -4
v -60 21 60
v -60 21 46
v -60 21 34
v -60 21 5
v -60 21 -5
v -60 21 -34
v -60 21 -46
v -60 21 -60
v -60 22 57
v -60 22 46
v -60 22 34
v -60 22 -34
v -60 22 -46
v -60 22 -57
v -60 23 57
v -60 23 46
v -60 23 -46
v -60 23 -57
v -60 24 34
v -60 24 10
v -60 24 -10
v -60 24 -34
v -60 25 58
v -60 25 34
v -60 25 10
v -60 25 -10
v -60 25 -34
v -60 25 -58
v -60 26 58
v -60 26 34
v -60 26 -34
v -60 26 -58
v -60 29 58
v -60 29 52
v -60 29 38
v -60 29 22
v -60 29 5
v -60 29 4
v -60 29 -4
v -60 29 -5
v -60 29 -22
v -60 29 -38
v -60 29 -52
v -60 29 -58
v -60 30 58
v -60 30 52
v -60 30 46
v -60 30 38
v -60 30 22
v -60 30 5
v -60 30 4
v -60 30 -4
v -60 30 -5
v -60 30 -22
v -60 30 -38
v -60 30 -46
v -60 30 -52
v -60 30 -58
v -60 31 52
v -60 31 46
v -60 31 22
v -60 31 5
v -60 31 -5
v -60 31 -22
v -60 31 -46
v -60 31 -52
v -60 33 60
v -60 33 -60
v -4 19 63
v -4 19 60
v -4 19 -60
v -4 19 -63
v -4 28 63
v -4 28 60
v -4 28 -60
v -4 28 -63
v 63 0 63
v 63 0 -63
v 63 18 5
v 63 18 -5
v 63 19 4
v 63 19 -4
v 63 29 5
v 63 29 4
v 63 29 -4
v 63 29 -5
v 63 30 4
v 63 30 -4
v 63 33 63
v 63 33 -63
v -63 0 63
v -63 33 63
v -5 18 63
v -5 28 63
v -4 19 63
v -4 28 63
v -4 29 63
v 4 19 63
v 4 28 63
v 4 29 63
v 5 18 63
v 5 28 63
v 63 0 63
v 63 33 63
v -63 19 -4
v -63 29 -4
v -60 19 -4
v -60 29 -4
v 60 19 -4
v 60 29 -4
v 63 19 -4
v 63 29 -4
v -60 0 -60
v -60 18 -60
v -60 21 -60
v -60 33 -60
v -58 29 -60
v -58 30 -60
v -57 22 -60
v -57 23 -60
v -49 26 -60
v -49 27 -60
v -34 29 -60
v -34 30 -60
v -34 31 -60
v -32 22 -60
v -32 23 -60
v -30 25 -60
v -30 26 -60
v -30 27 -60
v -11 25 -60
v -11 26 -60
v -10 30 -60
v -10 31 -60
v -5 21 -60
v -5 28 -60
v -4 19 -60
v -4 28 -60
v -4 29 -60
v 4 19 -60
v 4 28 -60
v 4 29 -60
v 5 21 -60
v 5 28 -60
v 10 30 -60
v 10 31 -60
v 11 25 -60
v 11 26 -60
v 30 25 -60
v 30 26 -60
v 30 27 -60
v 32 22 -60
v 32 23 -60
v 34 29 -60
v 34 30 -60
v 34 31 -60
v 49 26 -60
v 49 27 -60
v 57 22 -60
v 57 23 -60
v 58 29 -60
v 58 30 -60
v 60 0 -60
v 60 18 -60
v 60 21 -60
v 60 33 -60
v -60 0 60
v -60 18 60
v -60 21 60
v -60 33 60
v -58 29 60
v -58 30 60
v -57 22 60
v -57 23 60
v -49 26 60
v -49 27 60
v -34 29 60
v -34 30 60
v -34 31 60
v -32 22 60
v -32 23 60
v -30 25 60
v -30 26 60
v -30 27 60
v -11 25 60
v -11 26 60
v -10 30 60
v -10 31 60
v -5 21 60
v -5 28 60
v -4 19 60
v -4 28 60
v -4 29 60
v 4 19 60
v 4 28 60
v 4 29 60
v 5 21 60
v 5 28 60
v 10 30 60
v 10 31 60
v 11 25 60
v 11 26 60
v 30 25 60
v 30 26 60
v 30 27 60
v 32 22 60
v 32 23 60
v 34 29 60
v 34 30 60
v 34 31 60
v 49 26 60
v 49 27 60
v 57 22 60
v 57 23 60
v 58 29 60
v 58 30 60
v 60 0 60
v 60 18 60
v 60 21 60
v 60 33 60
v -63 19 4
v -63 29 4
v -60 19 4
v -60 29 4
v 60 19 4
v 60 29 4
v 63 19 4
v 63 29 4
v -63 0 -63
v -63 33 -63
v -5 18 -63
v -5 28 -63
v -4 19 -63
v -4 28 -63
v -4 29 -63
v 4 19 -63
v 4 28 -63
v 4 29 -63
v 5 18 -63
v 5 28 -63
v 63 0 -63
v 63 33 -63
v -63 0 63
v 63 0 63
v -62 0 62
v 62 0 62
v -60 0 61
v 60 0 61
v -61 0 60
v -60 0 60
v 60 0 60
v 61 0 60
v -61 0 -60
v -60 0 -60
v 60 0 -60
v 61 0 -60
v -60 0 -61
v 60 0 -61
v -62 0 -62
v 62 0 -62
v -63 0 -63
v 63 0 -63
v -4 28 63
v 4 28 63
v -4 28 60
v 4 28 60
v -4 28 -60
v 4 28 -60
v -4 28 -63
v 4 28 -63
v -63 29 4
v -60 29 4
v 60 29 4
v 63 29 4
v -63 29 -4
v -60 29 -4
v 60 29 -4
v 63 29 -4
v -4 19 63
v 4 19 63
v -4 19 60
v 4 19 60
v -63 19 4
v -60 19 4
v 60 19 4
v 63 19 4
v -63 19 -4
v -60 19 -4
v 60 19 -4
v 63 19 -4
v -4 19 -60
v 4 19 -60
v -4 19 -63
v 4 19 -63
v -63 33 63
v 63 33 63
v -60 33 60
v 60 33 60
v -60 33 -60
v 60 33 -60
v -63 33 -63
v 63 33 -63

# faces
f 3/3/1 2/3/1 1/3/1
f 4/3/1 2/3/1 3/3/1
f 5/2/1 4/2/1 3/2/1
f 6/2/1 4/2/1 5/2/1
f 7/3/1 3/3/1 1/3/1
f 7/2/1 5/2/1 3/2/1
f 8/2/1 5/2/1 7/2/1
f 9/2/1 4/2/1 6/2/1
f 10/3/1 2/3/1 4/3/1
f 10/2/1 4/2/1 9/2/1
f 11/3/1 8/3/1 7/3/1
f 11/2/1 9/2/1 8/2/1
f 12/3/1 10/3/1 9/3/1
f 12/2/1 9/2/1 11/2/1
f 13/3/1 11/3/1 7/3/1
f 13/3/1 7/3/1 1/3/1
f 13/3/1 12/3/1 11/3/1
f 14/3/1 2/3/1 10/3/1
f 14/3/1 12/3/1 13/3/1
f 14/3/1 10/3/1 12/3/1
f 19/2/1 16/2/1 15/2/1
f 20/2/1 16/2/1 19/2/1
f 21/2/1 18/2/1 17/2/1
f 22/2/1 18/2/1 21/2/1
f 25/3/1 24/3/1 23/3/1
f 26/3/1 24/3/1 25/3/1
f 27/2/1 26/2/1 25/2/1
f 28/2/1 26/2/1 27/2/1
f 29/2/1 27/2/1 25/2/1
f 30/2/1 27/2/1 29/2/1
f 31/2/1 27/2/1 30/2/1
f 32/2/1 27/2/1 31/2/1
f 33/2/1 26/2/1 28/2/1
f 34/2/1 26/2/1 33/2/1
f 35/2/1 26/2/1 34/2/1
f 36/2/1 26/2/1 35/2/1
f 37/3/1 30/3/1 29/3/1
f 38/2/1 31/2/1 30/2/1
f 38/3/1 30/3/1 37/3/1
f 39/3/1 32/3/1 31/3/1
f 39/2/1 31/2/1 38/2/1
f 40/3/1 34/3/1 33/3/1
f 40/2/1 35/2/1 34/2/1
f 41/3/1 36/3/1 35/3/1
f 41/2/1 35/2/1 40/2/1
f 42/3/1 36/3/1 41/3/1
f 43/3/1 37/3/1 29/3/1
f 43/2/1 38/2/1 37/2/1
f 44/3/1 39/3/1 38/3/1
f 44/2/1 38/2/1 43/2/1
f 45/2/1 42/2/1 41/2/1
f 45/3/1 41/3/1 40/3/1
f 46/3/1 36/3/1 42/3/1
f 46/2/1 42/2/1 45/2/1
f 47/3/1 39/3/1 44/3/1
f 47/3/1 32/3/1 39/3/1
f 47/3/1 44/3/1 43/3/1
f 48/3/1 32/3/1 47/3/1
f 49/3/1 45/3/1 40/3/1
f 49/3/1 46/3/1 45/3/1
f 49/3/1 40/3/1 33/3/1
f 50/3/1 46/3/1 49/3/1
f 51/3/1 43/3/1 29/3/1
f 51/3/1 47/3/1 43/3/1
f 52/2/1 48/2/1 47/2/1
f 52/3/1 47/3/1 51/3/1
f 53/3/1 32/3/1 48/3/1
f 53/2/1 48/2/1 52/2/1
f 54/2/1 50/2/1 49/2/1
f 54/3/1 49/3/1 33/3/1
f 55/3/1 46/3/1 50/3/1
f 55/2/1 50/2/1 54/2/1
f 56/3/1 36/3/1 46/3/1
f 56/3/1 46/3/1 55/3/1
f 57/2/1 52/2/1 51/2/1
f 57/3/1 51/3/1 29/3/1
f 58/3/1 53/3/1 52/3/1
f 58/2/1 52/2/1 57/2/1
f 59/3/1 55/3/1 54/3/1
f 59/2/1 56/2/1 55/2/1
f 60/3/1 36/3/1 56/3/1
f 60/2/1 56/2/1 59/2/1
f 61/3/1 58/3/1 57/3/1
f 61/3/1 57/3/1 29/3/1
f 62/3/1 58/3/1 61/3/1
f 63/3/1 58/3/1 62/3/1
f 64/3/1 53/3/1 58/3/1
f 64/3/1 58/3/1 63/3/1
f 65/2/1 27/2/1 32/2/1
f 65/3/1 53/3/1 64/3/1
f 65/3/1 32/3/1 53/3/1
f 66/2/1 27/2/1 65/2/1
f 67/2/1 33/2/1 28/2/1
f 68/3/1 59/3/1 54/3/1
f 68/3/1 54/3/1 33/3/1
f 68/2/1 33/2/1 67/2/1
f 68/3/1 60/3/1 59/3/1
f 69/3/1 60/3/1 68/3/1
f 70/3/1 60/3/1 69/3/1
f 71/3/1 60/3/1 70/3/1
f 72/3/1 36/3/1 60/3/1
f 72/3/1 60/3/1 71/3/1
f 73/2/1 62/2/1 61/2/1
f 73/3/1 61/3/1 29/3/1
f 74/3/1 63/3/1 62/3/1
f 74/2/1 62/2/1 73/2/1
f 75/3/1 63/3/1 74/3/1
f 76/2/1 64/2/1 63/2/1
f 76/3/1 63/3/1 75/3/1
f 77/3/1 66/3/1 65/3/1
f 77/2/1 64/2/1 76/2/1
f 77/3/1 65/3/1 64/3/1
f 78/3/1 66/3/1 77/3/1
f 79/2/1 67/2/1 66/2/1
f 79/3/1 66/3/1 78/3/1
f 80/3/1 68/3/1 67/3/1
f 80/2/1 67/2/1 79/2/1
f 80/3/1 69/3/1 68/3/1
f 81/3/1 69/3/1 80/3/1
f 82/2/1 70/2/1 69/2/1
f 82/3/1 69/3/1 81/3/1
f 83/3/1 71/3/1 70/3/1
f 83/2/1 70/2/1 82/2/1
f 84/3/1 71/3/1 83/3/1
f 85/2/1 72/2/1 71/2/1
f 85/3/1 71/3/1 84/3/1
f 86/3/1 36/3/1 72/3/1
f 86/2/1 72/2/1 85/2/1
f 87/2/1 75/2/1 74/2/1
f 87/3/1 74/3/1 73/3/1
f 88/3/1 76/3/1 75/3/1
f 88/2/1 75/2/1 87/2/1
f 88/3/1 77/3/1 76/3/1
f 89/2/1 78/2/1 77/2/1
f 89/3/1 77/3/1 88/3/1
f 90/3/1 79/3/1 78/3/1
f 90/2/1 78/2/1 89/2/1
f 90/3/1 81/3/1 80/3/1
f 90/3/1 80/3/1 79/3/1
f 91/2/1 82/2/1 81/2/1
f 91/3/1 81/3/1 90/3/1
f 92/3/1 84/3/1 83/3/1
f 92/2/1 82/2/1 91/2/1
f 92/3/1 83/3/1 82/3/1
f 93/2/1 85/2/1 84/2/1
f 93/3/1 84/3/1 92/3/1
f 94/3/1 86/3/1 85/3/1
f 94/2/1 85/2/1 93/2/1
f 95/3/1 88/3/1 87/3/1
f 95/3/1 73/3/1 29/3/1
f 95/3/1 94/3/1 93/3/1
f 95/3/1 89/3/1 88/3/1
f 95/3/1 91/3/1 90/3/1
f 95/3/1 93/3/1 92/3/1
f 95/3/1 92/3/1 91/3/1
f 95/3/1 87/3/1 73/3/1
f 95/3/1 90/3/1 89/3/1
f 96/3/1 36/3/1 86/3/1
f 96/3/1 94/3/1 95/3/1
f 96/3/1 86/3/1 94/3/1
f 97/3/2 98/3/2 99/3/2
f 99/3/2 98/3/2 100/3/2
f 99/2/2 100/2/2 101/2/2
f 101/2/2 100/2/2 102/2/2
f 99/2/2 101/2/2 103/2/2
f 103/2/2 101/2/2 104/2/2
f 104/2/2 101/2/2 105/2/2
f 105/2/2 101/2/2 106/2/2
f 102/2/2 100/2/2 107/2/2
f 107/2/2 100/2/2 108/2/2
f 108/2/2 100/2/2 109/2/2
f 109/2/2 100/2/2 110/2/2
f 103/3/2 104/3/2 111/3/2
f 104/2/2 105/2/2 112/2/2
f 111/3/2 104/3/2 112/3/2
f 105/3/2 106/3/2 113/3/2
f 112/2/2 105/2/2 113/2/2
f 107/3/2 108/3/2 114/3/2
f 108/2/2 109/2/2 114/2/2
f 109/3/2 110/3/2 115/3/2
f 114/2/2 109/2/2 115/2/2
f 115/3/2 110/3/2 116/3/2
f 103/3/2 111/3/2 117/3/2
f 111/2/2 112/2/2 117/2/2
f 112/3/2 113/3/2 118/3/2
f 117/2/2 112/2/2 118/2/2
f 115/2/2 116/2/2 119/2/2
f 114/3/2 115/3/2 119/3/2
f 116/3/2 110/3/2 120/3/2
f 119/2/2 116/2/2 120/2/2
f 118/3/2 113/3/2 121/3/2
f 113/3/2 106/3/2 121/3/2
f 117/3/2 118/3/2 121/3/2
f 121/3/2 106/3/2 122/3/2
f 114/3/2 119/3/2 123/3/2
f 119/3/2 120/3/2 123/3/2
f 107/3/2 114/3/2 123/3/2
f 123/3/2 120/3/2 124/3/2
f 103/3/2 117/3/2 125/3/2
f 117/3/2 121/3/2 125/3/2
f 121/2/2 122/2/2 126/2/2
f 125/3/2 121/3/2 126/3/2
f 122/3/2 106/3/2 127/3/2
f 126/2/2 122/2/2 127/2/2
f 123/2/2 124/2/2 128/2/2
f 107/3/2 123/3/2 128/3/2
f 124/3/2 120/3/2 129/3/2
f 128/2/2 124/2/2 129/2/2
f 120/3/2 110/3/2 130/3/2
f 129/3/2 120/3/2 130/3/2
f 125/2/2 126/2/2 131/2/2
f 103/3/2 125/3/2 131/3/2
f 126/3/2 127/3/2 132/3/2
f 131/2/2 126/2/2 132/2/2
f 128/3/2 129/3/2 133/3/2
f 129/2/2 130/2/2 133/2/2
f 130/3/2 110/3/2 134/3/2
f 133/2/2 130/2/2 134/2/2
f 131/3/2 132/3/2 135/3/2
f 103/3/2 131/3/2 135/3/2
f 135/3/2 132/3/2 136/3/2
f 136/3/2 132/3/2 137/3/2
f 132/3/2 127/3/2 138/3/2
f 137/3/2 132/3/2 138/3/2
f 106/2/2 101/2/2 139/2/2
f 138/3/2 127/3/2 139/3/2
f 127/3/2 106/3/2 139/3/2
f 139/2/2 101/2/2 140/2/2
f 102/2/2 107/2/2 141/2/2
f 128/3/2 133/3/2 142/3/2
f 107/3/2 128/3/2 142/3/2
f 141/2/2 107/2/2 142/2/2
f 133/3/2 134/3/2 142/3/2
f 142/3/2 134/3/2 143/3/2
f 143/3/2 134/3/2 144/3/2
f 144/3/2 134/3/2 145/3/2
f 134/3/2 110/3/2 146/3/2
f 145/3/2 134/3/2 146/3/2
f 135/2/2 136/2/2 147/2/2
f 103/3/2 135/3/2 147/3/2
f 136/3/2 137/3/2 148/3/2
f 147/2/2 136/2/2 148/2/2
f 148/3/2 137/3/2 149/3/2
f 137/2/2 138/2/2 150/2/2
f 149/3/2 137/3/2 150/3/2
f 139/3/2 140/3/2 151/3/2
f 150/2/2 138/2/2 151/2/2
f 138/3/2 139/3/2 151/3/2
f 151/3/2 140/3/2 152/3/2
f 140/2/2 141/2/2 153/2/2
f 152/3/2 140/3/2 153/3/2
f 141/3/2 142/3/2 154/3/2
f 153/2/2 141/2/2 154/2/2
f 142/3/2 143/3/2 154/3/2
f 154/3/2 143/3/2 155/3/2
f 143/2/2 144/2/2 156/2/2
f 155/3/2 143/3/2 156/3/2
f 144/3/2 145/3/2 157/3/2
f 156/2/2 144/2/2 157/2/2
f 157/3/2 145/3/2 158/3/2
f 145/2/2 146/2/2 159/2/2
f 158/3/2 145/3/2 159/3/2
f 146/3/2 110/3/2 160/3/2
f 159/2/2 146/2/2 160/2/2
f 148/2/2 149/2/2 161/2/2
f 147/3/2 148/3/2 161/3/2
f 149/3/2 150/3/2 162/3/2
f 161/2/2 149/2/2 162/2/2
f 150/3/2 151/3/2 162/3/2
f 151/2/2 152/2/2 163/2/2
f 162/3/2 151/3/2 163/3/2
f 152/3/2 153/3/2 164/3/2
f 163/2/2 152/2/2 164/2/2
f 154/3/2 155/3/2 164/3/2
f 153/3/2 154/3/2 164/3/2
f 155/2/2 156/2/2 165/2/2
f 164/3/2 155/3/2 165/3/2
f 157/3/2 158/3/2 166/3/2
f 165/2/2 156/2/2 166/2/2
f 156/3/2 157/3/2 166/3/2
f 158/2/2 159/2/2 167/2/2
f 166/3/2 158/3/2 167/3/2
f 159/3/2 160/3/2 168/3/2
f 167/2/2 159/2/2 168/2/2
f 161/3/2 162/3/2 169/3/2
f 103/3/2 147/3/2 169/3/2
f 167/3/2 168/3/2 169/3/2
f 162/3/2 163/3/2 169/3/2
f 164/3/2 165/3/2 169/3/2
f 166/3/2 167/3/2 169/3/2
f 165/3/2 166/3/2 169/3/2
f 147/3/2 161/3/2 169/3/2
f 163/3/2 164/3/2 169/3/2
f 160/3/2 110/3/2 170/3/2
f 169/3/2 168/3/2 170/3/2
f 168/3/2 160/3/2 170/3/2
f 171/2/2 172/2/2 175/2/2
f 175/2/2 172/2/2 176/2/2
f 173/2/2 174/2/2 177/2/2
f 177/2/2 174/2/2 178/2/2
f 179/3/2 180/3/2 181/3/2
f 181/3/2 180/3/2 182/3/2
f 181/2/2 182/2/2 183/2/2
f 183/2/2 182/2/2 184/2/2
f 179/3/2 181/3/2 185/3/2
f 181/2/2 183/2/2 185/2/2
f 185/2/2 183/2/2 186/2/2
f 184/2/2 182/2/2 187/2/2
f 182/3/2 180/3/2 188/3/2
f 187/2/2 182/2/2 188/2/2
f 185/3/2 186/3/2 189/3/2
f 186/2/2 187/2/2 189/2/2
f 187/3/2 188/3/2 190/3/2
f 189/2/2 187/2/2 190/2/2
f 185/3/2 189/3/2 191/3/2
f 179/3/2 185/3/2 191/3/2
f 189/3/2 190/3/2 191/3/2
f 188/3/2 180/3/2 192/3/2
f 191/3/2 190/3/2 192/3/2
f 190/3/2 188/3/2 192/3/2
f 195/3/3 194/3/3 193/3/3
f 196/3/3 194/3/3 195/3/3
f 197/2/3 196/2/3 195/2/3
f 198/3/3 194/3/3 196/3/3
f 198/2/3 196/2/3 197/2/3
f 199/3/3 194/3/3 198/3/3
f 200/2/3 197/2/3 195/2/3
f 201/2/3 199/2/3 198/2/3
f 202/3/3 194/3/3 199/3/3
f 202/2/3 199/2/3 201/2/3
f 203/3/3 195/3/3 193/3/3
f 203/2/3 201/2/3 200/2/3
f 203/2/3 200/2/3 195/2/3
f 204/3/3 202/3/3 201/3/3
f 204/2/3 201/2/3 203/2/3
f 205/3/3 203/3/3 193/3/3
f 205/3/3 204/3/3 203/3/3
f 206/3/3 194/3/3 202/3/3
f 206/3/3 204/3/3 205/3/3
f 206/3/3 202/3/3 204/3/3
f 209/2/3 208/2/3 207/2/3
f 210/2/3 208/2/3 209/2/3
f 213/2/3 212/2/3 211/2/3
f 214/2/3 212/2/3 213/2/3
f 219/3/3 218/3/3 217/3/3
f 220/3/3 218/3/3 219/3/3
f 221/3/3 219/3/3 217/3/3
f 222/3/3 219/3/3 221/3/3
f 223/3/3 219/3/3 222/3/3
f 224/3/3 219/3/3 223/3/3
f 225/2/3 220/2/3 219/2/3
f 225/3/3 219/3/3 224/3/3
f 226/3/3 218/3/3 220/3/3
f 226/2/3 220/2/3 225/2/3
f 227/3/3 218/3/3 226/3/3
f 228/3/3 221/3/3 217/3/3
f 228/2/3 222/2/3 221/2/3
f 229/3/3 223/3/3 222/3/3
f 229/2/3 222/2/3 228/2/3
f 230/3/3 229/3/3 228/3/3
f 230/3/3 223/3/3 229/3/3
f 231/2/3 224/2/3 223/2/3
f 231/3/3 223/3/3 230/3/3
f 232/3/3 225/3/3 224/3/3
f 232/2/3 224/2/3 231/2/3
f 232/3/3 226/3/3 225/3/3
f 233/2/3 231/2/3 230/2/3
f 233/3/3 230/3/3 228/3/3
f 234/3/3 232/3/3 231/3/3
f 234/2/3 231/2/3 233/2/3
f 235/3/3 226/3/3 232/3/3
f 235/3/3 232/3/3 234/3/3
f 235/3/3 234/3/3 233/3/3
f 235/2/3 227/2/3 226/2/3
f 236/3/3 218/3/3 227/3/3
f 236/2/3 227/2/3 235/2/3
f 237/2/3 217/2/3 216/2/3
f 237/3/3 228/3/3 217/3/3
f 237/3/3 236/3/3 235/3/3
f 237/3/3 235/3/3 233/3/3
f 237/3/3 233/3/3 228/3/3
f 238/3/3 236/3/3 237/3/3
f 239/2/3 237/2/3 216/2/3
f 239/2/3 238/2/3 237/2/3
f 240/3/3 236/3/3 238/3/3
f 240/2/3 238/2/3 239/2/3
f 241/3/3 236/3/3 240/3/3
f 242/2/3 239/2/3 216/2/3
f 243/2/3 241/2/3 240/2/3
f 244/3/3 236/3/3 241/3/3
f 244/2/3 241/2/3 243/2/3
f 245/2/3 243/2/3 242/2/3
f 246/3/3 244/3/3 243/3/3
f 246/2/3 243/2/3 245/2/3
f 247/3/3 236/3/3 244/3/3
f 247/3/3 244/3/3 246/3/3
f 247/3/3 246/3/3 245/3/3
f 248/3/3 218/3/3 236/3/3
f 248/3/3 236/3/3 247/3/3
f 249/3/3 247/3/3 245/3/3
f 250/3/3 247/3/3 249/3/3
f 251/3/3 249/3/3 245/3/3
f 251/2/3 250/2/3 249/2/3
f 252/3/3 247/3/3 250/3/3
f 252/2/3 250/2/3 251/2/3
f 253/3/3 247/3/3 252/3/3
f 254/3/3 251/3/3 245/3/3
f 254/3/3 252/3/3 251/3/3
f 255/3/3 252/3/3 254/3/3
f 256/3/3 247/3/3 253/3/3
f 257/2/3 248/2/3 247/2/3
f 257/3/3 247/3/3 256/3/3
f 258/3/3 218/3/3 248/3/3
f 258/2/3 248/2/3 257/2/3
f 259/3/3 252/3/3 255/3/3
f 259/2/3 253/2/3 252/2/3
f 260/3/3 256/3/3 253/3/3
f 260/2/3 253/2/3 259/2/3
f 261/3/3 254/3/3 245/3/3
f 261/2/3 255/2/3 254/2/3
f 262/3/3 259/3/3 255/3/3
f 262/2/3 255/2/3 261/2/3
f 262/3/3 260/3/3 259/3/3
f 263/2/3 257/2/3 256/2/3
f 263/3/3 260/3/3 262/3/3
f 263/3/3 262/3/3 261/3/3
f 263/3/3 256/3/3 260/3/3
f 264/3/3 258/3/3 257/3/3
f 264/2/3 257/2/3 263/2/3
f 265/3/3 216/3/3 215/3/3
f 266/2/3 245/2/3 242/2/3
f 266/3/3 216/3/3 265/3/3
f 266/2/3 242/2/3 216/2/3
f 267/3/3 263/3/3 261/3/3
f 267/2/3 245/2/3 266/2/3
f 267/3/3 264/3/3 263/3/3
f 267/3/3 261/3/3 245/3/3
f 268/3/3 258/3/3 264/3/3
f 268/3/3 264/3/3 267/3/3
f 268/3/3 218/3/3 258/3/3
f 271/3/4 272/3/4 273/3/4
f 273/3/4 272/3/4 274/3/4
f 271/3/4 273/3/4 275/3/4
f 275/3/4 273/3/4 276/3/4
f 276/3/4 273/3/4 277/3/4
f 277/3/4 273/3/4 278/3/4
f 273/2/4 274/2/4 279/2/4
f 278/3/4 273/3/4 279/3/4
f 274/3/4 272/3/4 280/3/4
f 279/2/4 274/2/4 280/2/4
f 280/3/4 272/3/4 281/3/4
f 271/3/4 275/3/4 282/3/4
f 275/2/4 276/2/4 282/2/4
f 276/3/4 277/3/4 283/3/4
f 282/2/4 276/2/4 283/2/4
f 282/3/4 283/3/4 284/3/4
f 283/3/4 277/3/4 284/3/4
f 277/2/4 278/2/4 285/2/4
f 284/3/4 277/3/4 285/3/4
f 278/3/4 279/3/4 286/3/4
f 285/2/4 278/2/4 286/2/4
f 279/3/4 280/3/4 286/3/4
f 284/2/4 285/2/4 287/2/4
f 282/3/4 284/3/4 287/3/4
f 285/3/4 286/3/4 288/3/4
f 287/2/4 285/2/4 288/2/4
f 286/3/4 280/3/4 289/3/4
f 288/3/4 286/3/4 289/3/4
f 287/3/4 288/3/4 289/3/4
f 280/2/4 281/2/4 289/2/4
f 281/3/4 272/3/4 290/3/4
f 289/2/4 281/2/4 290/2/4
f 270/2/4 271/2/4 291/2/4
f 271/3/4 282/3/4 291/3/4
f 289/3/4 290/3/4 291/3/4
f 287/3/4 289/3/4 291/3/4
f 282/3/4 287/3/4 291/3/4
f 291/3/4 290/3/4 292/3/4
f 270/2/4 291/2/4 293/2/4
f 291/2/4 292/2/4 293/2/4
f 292/3/4 290/3/4 294/3/4
f 293/2/4 292/2/4 294/2/4
f 294/3/4 290/3/4 295/3/4
f 270/2/4 293/2/4 296/2/4
f 294/2/4 295/2/4 297/2/4
f 295/3/4 290/3/4 298/3/4
f 297/2/4 295/2/4 298/2/4
f 296/2/4 297/2/4 299/2/4
f 297/3/4 298/3/4 300/3/4
f 299/2/4 297/2/4 300/2/4
f 298/3/4 290/3/4 301/3/4
f 300/3/4 298/3/4 301/3/4
f 299/3/4 300/3/4 301/3/4
f 290/3/4 272/3/4 302/3/4
f 301/3/4 290/3/4 302/3/4
f 299/3/4 301/3/4 303/3/4
f 303/3/4 301/3/4 304/3/4
f 299/3/4 303/3/4 305/3/4
f 303/2/4 304/2/4 305/2/4
f 304/3/4 301/3/4 306/3/4
f 305/2/4 304/2/4 306/2/4
f 306/3/4 301/3/4 307/3/4
f 299/3/4 305/3/4 308/3/4
f 305/3/4 306/3/4 308/3/4
f 308/3/4 306/3/4 309/3/4
f 307/3/4 301/3/4 310/3/4
f 301/2/4 302/2/4 311/2/4
f 310/3/4 301/3/4 311/3/4
f 302/3/4 272/3/4 312/3/4
f 311/2/4 302/2/4 312/2/4
f 309/3/4 306/3/4 313/3/4
f 306/2/4 307/2/4 313/2/4
f 307/3/4 310/3/4 314/3/4
f 313/2/4 307/2/4 314/2/4
f 299/3/4 308/3/4 315/3/4
f 308/2/4 309/2/4 315/2/4
f 309/3/4 313/3/4 316/3/4
f 315/2/4 309/2/4 316/2/4
f 313/3/4 314/3/4 316/3/4
f 310/2/4 311/2/4 317/2/4
f 316/3/4 314/3/4 317/3/4
f 315/3/4 316/3/4 317/3/4
f 314/3/4 310/3/4 317/3/4
f 311/3/4 312/3/4 318/3/4
f 317/2/4 311/2/4 318/2/4
f 269/3/4 270/3/4 319/3/4
f 296/2/4 299/2/4 320/2/4
f 319/3/4 270/3/4 320/3/4
f 270/2/4 296/2/4 320/2/4
f 315/3/4 317/3/4 321/3/4
f 320/2/4 299/2/4 321/2/4
f 317/3/4 318/3/4 321/3/4
f 299/3/4 315/3/4 321/3/4
f 318/3/4 312/3/4 322/3/4
f 321/3/4 318/3/4 322/3/4
f 312/3/4 272/3/4 322/3/4
f 323/2/4 324/2/4 325/2/4
f 325/2/4 324/2/4 326/2/4
f 327/2/4 328/2/4 329/2/4
f 329/2/4 328/2/4 330/2/4
f 331/3/4 332/3/4 333/3/4
f 333/3/4 332/3/4 334/3/4
f 333/2/4 334/2/4 335/2/4
f 334/3/4 332/3/4 336/3/4
f 335/2/4 334/2/4 336/2/4
f 336/3/4 332/3/4 337/3/4
f 333/2/4 335/2/4 338/2/4
f 336/2/4 337/2/4 339/2/4
f 337/3/4 332/3/4 340/3/4
f 339/2/4 337/2/4 340/2/4
f 331/3/4 333/3/4 341/3/4
f 338/2/4 339/2/4 341/2/4
f 333/2/4 338/2/4 341/2/4
f 339/3/4 340/3/4 342/3/4
f 341/2/4 339/2/4 342/2/4
f 331/3/4 341/3/4 343/3/4
f 341/3/4 342/3/4 343/3/4
f 340/3/4 332/3/4 344/3/4
f 343/3/4 342/3/4 344/3/4
f 342/3/4 340/3/4 344/3/4
f 347/3/5 346/3/5 345/3/5
f 348/3/5 346/3/5 347/3/5
f 349/1/5 348/1/5 347/1/5
f 350/1/5 348/1/5 349/1/5
f 351/1/5 349/1/5 347/1/5
f 352/3/5 350/3/5 349/3/5
f 352/1/5 349/1/5 351/1/5
f 353/1/5 348/1/5 350/1/5
f 353/3/5 350/3/5 352/3/5
f 354/1/5 348/1/5 353/1/5
f 355/3/5 352/3/5 351/3/5
f 355/1/5 351/1/5 347/1/5
f 356/3/5 352/3/5 355/3/5
f 357/3/5 354/3/5 353/3/5
f 358/1/5 348/1/5 354/1/5
f 358/3/5 354/3/5 357/3/5
f 359/3/5 357/3/5 356/3/5
f 359/1/5 356/1/5 355/1/5
f 360/1/5 358/1/5 357/1/5
f 360/3/5 357/3/5 359/3/5
f 361/3/5 347/3/5 345/3/5
f 361/1/5 359/1/5 355/1/5
f 361/1/5 360/1/5 359/1/5
f 361/1/5 355/1/5 347/1/5
f 362/1/5 358/1/5 360/1/5
f 362/1/5 360/1/5 361/1/5
f 362/3/5 346/3/5 348/3/5
f 362/1/5 348/1/5 358/1/5
f 363/3/5 361/3/5 345/3/5
f 363/3/5 362/3/5 361/3/5
f 364/3/5 346/3/5 362/3/5
f 364/3/5 362/3/5 363/3/5
f 367/2/5 366/2/5 365/2/5
f 368/2/5 366/2/5 367/2/5
f 371/2/5 370/2/5 369/2/5
f 372/2/5 370/2/5 371/2/5
f 377/2/5 374/2/5 373/2/5
f 378/2/5 374/2/5 377/2/5
f 379/2/5 376/2/5 375/2/5
f 380/2/5 376/2/5 379/2/5
f 381/2/6 382/2/6 383/2/6
f 383/2/6 382/2/6 384/2/6
f 385/2/6 386/2/6 389/2/6
f 389/2/6 386/2/6 390/2/6
f 387/2/6 388/2/6 391/2/6
f 391/2/6 388/2/6 392/2/6
f 393/2/6 394/2/6 395/2/6
f 395/2/6 394/2/6 396/2/6
f 397/3/6 398/3/6 399/3/6
f 399/3/6 398/3/6 400/3/6
f 397/3/6 399/3/6 401/3/6
f 400/3/6 398/3/6 402/3/6
f 397/3/6 401/3/6 403/3/6
f 401/3/6 402/3/6 403/3/6
f 402/3/6 398/3/6 404/3/6
f 403/3/6 402/3/6 404/3/6
