# MagicaVoxel @ Ephtracy

# material
mtllib Art_Foxroom_Tree2.mtl
usemtl palette

# normals
vn -1 0 0
vn 1 0 0
vn 0 0 1
vn 0 0 -1
vn 0 -1 0
vn 0 1 0

# texcoords
vt 0.0449219 0.5
vt 0.0488281 0.5
vt 0.0527344 0.5
vt 0.0605469 0.5
vt 0.0839844 0.5

# verts
v -10 20 39
v -10 20 33
v -10 22 39
v -10 22 33
v -9 22 38
v -9 22 34
v -9 24 38
v -9 24 34
v -8 19 38
v -8 19 34
v -8 20 38
v -8 20 34
v -8 24 37
v -8 24 35
v -8 25 37
v -8 25 35
v -7 10 37
v -7 10 35
v -7 19 37
v -7 19 35
v -5 10 37
v -5 10 35
v -5 19 37
v -5 19 35
v -4 19 38
v -4 19 34
v -4 20 38
v -4 20 34
v -4 24 37
v -4 24 35
v -4 25 37
v -4 25 35
v -3 22 38
v -3 22 34
v -3 24 38
v -3 24 34
v -2 20 39
v -2 20 33
v -2 22 39
v -2 22 33
v -10 20 39
v -10 22 39
v -2 20 39
v -2 22 39
v -9 22 38
v -9 24 38
v -8 19 38
v -8 20 38
v -4 19 38
v -4 20 38
v -3 22 38
v -3 24 38
v -8 24 37
v -8 25 37
v -7 10 37
v -7 19 37
v -5 10 37
v -5 19 37
v -4 24 37
v -4 25 37
v -8 24 35
v -8 25 35
v -7 10 35
v -7 19 35
v -5 10 35
v -5 19 35
v -4 24 35
v -4 25 35
v -9 22 34
v -9 24 34
v -8 19 34
v -8 20 34
v -4 19 34
v -4 20 34
v -3 22 34
v -3 24 34
v -10 20 33
v -10 22 33
v -2 20 33
v -2 22 33
v -7 10 37
v -5 10 37
v -7 10 35
v -5 10 35
v -8 19 38
v -4 19 38
v -7 19 37
v -5 19 37
v -7 19 35
v -5 19 35
v -8 19 34
v -4 19 34
v -10 20 39
v -2 20 39
v -8 20 38
v -4 20 38
v -8 20 34
v -4 20 34
v -10 20 33
v -2 20 33
v -10 22 39
v -2 22 39
v -9 22 38
v -3 22 38
v -9 22 34
v -3 22 34
v -10 22 33
v -2 22 33
v -9 24 38
v -3 24 38
v -8 24 37
v -4 24 37
v -8 24 35
v -4 24 35
v -9 24 34
v -3 24 34
v -8 25 37
v -4 25 37
v -8 25 35
v -4 25 35

# faces
f 3/1/1 2/1/1 1/1/1
f 4/1/1 2/1/1 3/1/1
f 7/2/1 6/2/1 5/2/1
f 8/2/1 6/2/1 7/2/1
f 11/1/1 10/1/1 9/1/1
f 12/1/1 10/1/1 11/1/1
f 15/3/1 14/3/1 13/3/1
f 16/3/1 14/3/1 15/3/1
f 19/4/1 18/4/1 17/4/1
f 20/4/1 18/4/1 19/4/1
f 21/4/2 22/4/2 23/4/2
f 23/4/2 22/4/2 24/4/2
f 25/1/2 26/1/2 27/1/2
f 27/1/2 26/1/2 28/1/2
f 29/3/2 30/3/2 31/3/2
f 31/3/2 30/3/2 32/3/2
f 33/2/2 34/2/2 35/2/2
f 35/2/2 34/2/2 36/2/2
f 37/1/2 38/1/2 39/1/2
f 39/1/2 38/1/2 40/1/2
f 43/1/3 42/1/3 41/1/3
f 44/1/3 42/1/3 43/1/3
f 49/1/3 48/1/3 47/1/3
f 50/1/3 48/1/3 49/1/3
f 51/2/3 46/2/3 45/2/3
f 52/2/3 46/2/3 51/2/3
f 57/4/3 56/4/3 55/4/3
f 58/4/3 56/4/3 57/4/3
f 59/3/3 54/3/3 53/3/3
f 60/3/3 54/3/3 59/3/3
f 63/4/4 64/4/4 65/4/4
f 65/4/4 64/4/4 66/4/4
f 61/3/4 62/3/4 67/3/4
f 67/3/4 62/3/4 68/3/4
f 71/1/4 72/1/4 73/1/4
f 73/1/4 72/1/4 74/1/4
f 69/2/4 70/2/4 75/2/4
f 75/2/4 70/2/4 76/2/4
f 77/1/4 78/1/4 79/1/4
f 79/1/4 78/1/4 80/1/4
f 83/4/5 82/4/5 81/4/5
f 84/4/5 82/4/5 83/4/5
f 87/1/5 86/1/5 85/1/5
f 88/1/5 86/1/5 87/1/5
f 89/1/5 87/1/5 85/1/5
f 90/1/5 86/1/5 88/1/5
f 91/1/5 89/1/5 85/1/5
f 91/1/5 90/1/5 89/1/5
f 92/1/5 86/1/5 90/1/5
f 92/1/5 90/1/5 91/1/5
f 95/1/5 94/1/5 93/1/5
f 96/1/5 94/1/5 95/1/5
f 97/1/5 95/1/5 93/1/5
f 98/1/5 94/1/5 96/1/5
f 99/1/5 97/1/5 93/1/5
f 99/1/5 98/1/5 97/1/5
f 100/1/5 94/1/5 98/1/5
f 100/1/5 98/1/5 99/1/5
f 101/1/6 102/1/6 103/1/6
f 103/1/6 102/1/6 104/1/6
f 101/1/6 103/1/6 105/1/6
f 104/1/6 102/1/6 106/1/6
f 101/1/6 105/1/6 107/1/6
f 105/1/6 106/1/6 107/1/6
f 106/1/6 102/1/6 108/1/6
f 107/1/6 106/1/6 108/1/6
f 109/2/6 110/2/6 111/2/6
f 111/2/6 110/2/6 112/2/6
f 109/2/6 111/2/6 113/2/6
f 112/2/6 110/2/6 114/2/6
f 109/2/6 113/2/6 115/2/6
f 113/2/6 114/2/6 115/2/6
f 114/2/6 110/2/6 116/2/6
f 115/2/6 114/2/6 116/2/6
f 117/3/6 118/3/6 119/3/6
f 119/3/6 118/3/6 120/3/6
