# MagicaVoxel @ Ephtracy

# material
mtllib Art_Foxroom_Bush1.mtl
usemtl palette

# normals
vn -1 0 0
vn 1 0 0
vn 0 0 1
vn 0 0 -1
vn 0 -1 0
vn 0 1 0

# texcoords
vt 0.0449219 0.5
vt 0.0488281 0.5
vt 0.0527344 0.5

# verts
v -12 10 -29
v -12 10 -36
v -12 12 -29
v -12 12 -36
v -11 12 -30
v -11 12 -35
v -11 13 -30
v -11 13 -35
v -10 13 -31
v -10 13 -34
v -10 14 -31
v -10 14 -34
v 3 12 -34
v 3 12 -35
v 3 13 -31
v 3 13 -34
v 3 13 -35
v 3 14 -31
v 3 14 -34
v 4 12 -30
v 4 12 -34
v 4 13 -30
v 4 13 -34
v 5 10 -29
v 5 10 -36
v 5 12 -29
v 5 12 -36
v -12 10 -29
v -12 12 -29
v 5 10 -29
v 5 12 -29
v -11 12 -30
v -11 13 -30
v 4 12 -30
v 4 13 -30
v -10 13 -31
v -10 14 -31
v 3 13 -31
v 3 14 -31
v -10 13 -34
v -10 14 -34
v 3 12 -34
v 3 13 -34
v 3 14 -34
v 4 12 -34
v 4 13 -34
v -11 12 -35
v -11 13 -35
v 3 12 -35
v 3 13 -35
v -12 10 -36
v -12 12 -36
v 5 10 -36
v 5 12 -36
v -12 10 -29
v 5 10 -29
v -12 10 -36
v 5 10 -36
v -12 12 -29
v 5 12 -29
v -11 12 -30
v 4 12 -30
v 3 12 -34
v 4 12 -34
v -11 12 -35
v 3 12 -35
v 4 12 -35
v -12 12 -36
v 5 12 -36
v -11 13 -30
v 4 13 -30
v -10 13 -31
v 3 13 -31
v -10 13 -34
v 3 13 -34
v 4 13 -34
v -11 13 -35
v 3 13 -35
v -10 14 -31
v 3 14 -31
v -10 14 -34
v 3 14 -34

# faces
f 3/1/1 2/1/1 1/1/1
f 4/1/1 2/1/1 3/1/1
f 7/2/1 6/2/1 5/2/1
f 8/2/1 6/2/1 7/2/1
f 11/3/1 10/3/1 9/3/1
f 12/3/1 10/3/1 11/3/1
f 13/2/2 14/2/2 16/2/2
f 16/2/2 14/2/2 17/2/2
f 15/3/2 16/3/2 18/3/2
f 18/3/2 16/3/2 19/3/2
f 20/2/2 21/2/2 22/2/2
f 22/2/2 21/2/2 23/2/2
f 24/1/2 25/1/2 26/1/2
f 26/1/2 25/1/2 27/1/2
f 30/1/3 29/1/3 28/1/3
f 31/1/3 29/1/3 30/1/3
f 34/2/3 33/2/3 32/2/3
f 35/2/3 33/2/3 34/2/3
f 38/3/3 37/3/3 36/3/3
f 39/3/3 37/3/3 38/3/3
f 40/3/4 41/3/4 43/3/4
f 43/3/4 41/3/4 44/3/4
f 42/2/4 43/2/4 45/2/4
f 45/2/4 43/2/4 46/2/4
f 47/2/4 48/2/4 49/2/4
f 49/2/4 48/2/4 50/2/4
f 51/1/4 52/1/4 53/1/4
f 53/1/4 52/1/4 54/1/4
f 57/1/5 56/1/5 55/1/5
f 58/1/5 56/1/5 57/1/5
f 59/1/6 60/1/6 61/1/6
f 61/1/6 60/1/6 62/1/6
f 62/1/6 60/1/6 64/1/6
f 59/1/6 61/1/6 65/1/6
f 63/2/6 64/2/6 66/2/6
f 64/1/6 60/1/6 67/1/6
f 66/2/6 64/2/6 67/2/6
f 59/1/6 65/1/6 68/1/6
f 65/1/6 66/1/6 68/1/6
f 66/1/6 67/1/6 68/1/6
f 67/1/6 60/1/6 69/1/6
f 68/1/6 67/1/6 69/1/6
f 70/2/6 71/2/6 72/2/6
f 72/2/6 71/2/6 73/2/6
f 70/2/6 72/2/6 74/2/6
f 73/2/6 71/2/6 75/2/6
f 75/2/6 71/2/6 76/2/6
f 70/2/6 74/2/6 77/2/6
f 74/2/6 75/2/6 77/2/6
f 77/2/6 75/2/6 78/2/6
f 79/3/6 80/3/6 81/3/6
f 81/3/6 80/3/6 82/3/6
