# MagicaVoxel @ Ephtracy

# material
mtllib Art_Foxroom_Tree3.mtl
usemtl palette

# normals
vn -1 0 0
vn 1 0 0
vn 0 0 1
vn 0 0 -1
vn 0 -1 0
vn 0 1 0

# texcoords
vt 0.0449219 0.5
vt 0.0488281 0.5
vt 0.0527344 0.5
vt 0.0605469 0.5
vt 0.0839844 0.5

# verts
v 4 18 43
v 4 18 36
v 4 20 43
v 4 20 36
v 5 17 42
v 5 17 37
v 5 18 42
v 5 18 37
v 5 20 42
v 5 20 37
v 5 22 42
v 5 22 37
v 6 10 40
v 6 10 38
v 6 17 40
v 6 17 38
v 6 22 41
v 6 22 38
v 6 23 41
v 6 23 38
v 8 10 40
v 8 10 38
v 8 17 40
v 8 17 38
v 8 22 41
v 8 22 38
v 8 23 41
v 8 23 38
v 9 17 42
v 9 17 37
v 9 18 42
v 9 18 37
v 9 20 42
v 9 20 37
v 9 22 42
v 9 22 37
v 10 18 43
v 10 18 36
v 10 20 43
v 10 20 36
v 4 18 43
v 4 20 43
v 10 18 43
v 10 20 43
v 5 17 42
v 5 18 42
v 5 20 42
v 5 22 42
v 9 17 42
v 9 18 42
v 9 20 42
v 9 22 42
v 6 22 41
v 6 23 41
v 8 22 41
v 8 23 41
v 6 10 40
v 6 17 40
v 8 10 40
v 8 17 40
v 6 10 38
v 6 17 38
v 6 22 38
v 6 23 38
v 8 10 38
v 8 17 38
v 8 22 38
v 8 23 38
v 5 17 37
v 5 18 37
v 5 20 37
v 5 22 37
v 9 17 37
v 9 18 37
v 9 20 37
v 9 22 37
v 4 18 36
v 4 20 36
v 10 18 36
v 10 20 36
v 6 10 40
v 8 10 40
v 6 10 38
v 8 10 38
v 5 17 42
v 9 17 42
v 6 17 40
v 8 17 40
v 6 17 38
v 8 17 38
v 5 17 37
v 9 17 37
v 4 18 43
v 10 18 43
v 5 18 42
v 9 18 42
v 5 18 37
v 9 18 37
v 4 18 36
v 10 18 36
v 4 20 43
v 10 20 43
v 5 20 42
v 9 20 42
v 5 20 37
v 9 20 37
v 4 20 36
v 10 20 36
v 5 22 42
v 9 22 42
v 6 22 41
v 8 22 41
v 6 22 38
v 8 22 38
v 5 22 37
v 9 22 37
v 6 23 41
v 8 23 41
v 6 23 38
v 8 23 38

# faces
f 3/1/1 2/1/1 1/1/1
f 4/1/1 2/1/1 3/1/1
f 7/1/1 6/1/1 5/1/1
f 8/1/1 6/1/1 7/1/1
f 11/2/1 10/2/1 9/2/1
f 12/2/1 10/2/1 11/2/1
f 15/4/1 14/4/1 13/4/1
f 16/4/1 14/4/1 15/4/1
f 19/3/1 18/3/1 17/3/1
f 20/3/1 18/3/1 19/3/1
f 21/4/2 22/4/2 23/4/2
f 23/4/2 22/4/2 24/4/2
f 25/3/2 26/3/2 27/3/2
f 27/3/2 26/3/2 28/3/2
f 29/1/2 30/1/2 31/1/2
f 31/1/2 30/1/2 32/1/2
f 33/2/2 34/2/2 35/2/2
f 35/2/2 34/2/2 36/2/2
f 37/1/2 38/1/2 39/1/2
f 39/1/2 38/1/2 40/1/2
f 43/1/3 42/1/3 41/1/3
f 44/1/3 42/1/3 43/1/3
f 49/1/3 46/1/3 45/1/3
f 50/1/3 46/1/3 49/1/3
f 51/2/3 48/2/3 47/2/3
f 52/2/3 48/2/3 51/2/3
f 55/3/3 54/3/3 53/3/3
f 56/3/3 54/3/3 55/3/3
f 59/4/3 58/4/3 57/4/3
f 60/4/3 58/4/3 59/4/3
f 61/4/4 62/4/4 65/4/4
f 65/4/4 62/4/4 66/4/4
f 63/3/4 64/3/4 67/3/4
f 67/3/4 64/3/4 68/3/4
f 69/1/4 70/1/4 73/1/4
f 73/1/4 70/1/4 74/1/4
f 71/2/4 72/2/4 75/2/4
f 75/2/4 72/2/4 76/2/4
f 77/1/4 78/1/4 79/1/4
f 79/1/4 78/1/4 80/1/4
f 83/4/5 82/4/5 81/4/5
f 84/4/5 82/4/5 83/4/5
f 87/1/5 86/1/5 85/1/5
f 88/1/5 86/1/5 87/1/5
f 89/1/5 87/1/5 85/1/5
f 90/1/5 86/1/5 88/1/5
f 91/1/5 89/1/5 85/1/5
f 91/1/5 90/1/5 89/1/5
f 92/1/5 86/1/5 90/1/5
f 92/1/5 90/1/5 91/1/5
f 95/1/5 94/1/5 93/1/5
f 96/1/5 94/1/5 95/1/5
f 97/1/5 95/1/5 93/1/5
f 98/1/5 94/1/5 96/1/5
f 99/1/5 97/1/5 93/1/5
f 99/1/5 98/1/5 97/1/5
f 100/1/5 94/1/5 98/1/5
f 100/1/5 98/1/5 99/1/5
f 101/1/6 102/1/6 103/1/6
f 103/1/6 102/1/6 104/1/6
f 101/1/6 103/1/6 105/1/6
f 104/1/6 102/1/6 106/1/6
f 101/1/6 105/1/6 107/1/6
f 105/1/6 106/1/6 107/1/6
f 106/1/6 102/1/6 108/1/6
f 107/1/6 106/1/6 108/1/6
f 109/2/6 110/2/6 111/2/6
f 111/2/6 110/2/6 112/2/6
f 109/2/6 111/2/6 113/2/6
f 112/2/6 110/2/6 114/2/6
f 109/2/6 113/2/6 115/2/6
f 113/2/6 114/2/6 115/2/6
f 114/2/6 110/2/6 116/2/6
f 115/2/6 114/2/6 116/2/6
f 117/3/6 118/3/6 119/3/6
f 119/3/6 118/3/6 120/3/6
