# MagicaVoxel @ Ephtracy

# material
mtllib Art_Foxroom_Chickmodel.mtl
usemtl palette

# normals
vn -1 0 0
vn 1 0 0
vn 0 0 1
vn 0 0 -1
vn 0 -1 0
vn 0 1 0

# texcoords
vt 0.970703 0.5
vt 0.982422 0.5
vt 0.986328 0.5
vt 0.990234 0.5
vt 0.994141 0.5

# verts
v -5 6 1
v -5 6 -1
v -5 7 1
v -5 7 -1
v -4 5 2
v -4 5 -2
v -4 6 1
v -4 6 -1
v -4 7 2
v -4 7 1
v -4 7 -1
v -4 7 -2
v -4 8 2
v -4 8 1
v -4 8 -1
v -4 8 -2
v -4 9 2
v -4 9 1
v -4 9 -1
v -4 9 -2
v -4 10 1
v -4 10 -1
v -3 3 3
v -3 3 -3
v -3 5 3
v -3 5 2
v -3 5 -2
v -3 5 -3
v -2 0 4
v -2 0 3
v -2 0 2
v -2 0 1
v -2 0 -1
v -2 0 -2
v -2 0 -3
v -2 0 -4
v -2 1 4
v -2 1 3
v -2 1 2
v -2 1 1
v -2 1 -1
v -2 1 -2
v -2 1 -3
v -2 1 -4
v -2 2 2
v -2 2 -2
v -2 3 2
v -2 3 -2
v -2 5 3
v -2 5 2
v -2 5 -2
v -2 5 -3
v -2 6 3
v -2 6 2
v -2 6 -2
v -2 6 -3
v -1 0 3
v -1 0 2
v -1 0 -2
v -1 0 -3
v -1 1 3
v -1 1 2
v -1 1 -2
v -1 1 -3
v -1 4 4
v -1 4 3
v -1 4 -3
v -1 4 -4
v -1 5 4
v -1 5 3
v -1 5 -3
v -1 5 -4
v 0 2 4
v 0 2 3
v 0 2 -3
v 0 2 -4
v 0 3 3
v 0 3 -3
v 0 4 4
v 0 4 3
v 0 4 -3
v 0 4 -4
v 1 1 2
v 1 1 1
v 1 1 -1
v 1 1 -2
v 1 2 2
v 1 2 1
v 1 2 -1
v 1 2 -2
v 4 5 4
v 4 5 3
v 4 5 -3
v 4 5 -4
v 4 6 4
v 4 6 3
v 4 6 2
v 4 6 1
v 4 6 -1
v 4 6 -2
v 4 6 -3
v 4 6 -4
v 4 7 4
v 4 7 3
v 4 7 2
v 4 7 1
v 4 7 -1
v 4 7 -2
v 4 7 -3
v 4 7 -4
v 4 8 3
v 4 8 2
v 4 8 1
v 4 8 -0
v 4 8 -1
v 4 8 -2
v 4 8 -3
v 4 9 3
v 4 9 2
v 4 9 1
v 4 9 -0
v 4 9 -1
v 4 9 -2
v 4 9 -3
v -2 9 1
v -2 9 -1
v -2 10 1
v -2 10 -1
v -1 0 4
v -1 0 3
v -1 0 -3
v -1 0 -4
v -1 1 4
v -1 1 3
v -1 1 -3
v -1 1 -4
v 0 6 2
v 0 6 -2
v 0 9 2
v 0 9 -2
v 1 4 4
v 1 4 3
v 1 4 -3
v 1 4 -4
v 1 5 4
v 1 5 3
v 1 5 -3
v 1 5 -4
v 2 0 3
v 2 0 1
v 2 0 -1
v 2 0 -3
v 2 1 3
v 2 1 2
v 2 1 -2
v 2 1 -3
v 2 2 2
v 2 2 1
v 2 2 -1
v 2 2 -2
v 2 3 4
v 2 3 3
v 2 3 -3
v 2 3 -4
v 2 4 4
v 2 4 3
v 2 4 -3
v 2 4 -4
v 3 2 4
v 3 2 3
v 3 2 -3
v 3 2 -4
v 3 3 4
v 3 3 3
v 3 3 -3
v 3 3 -4
v 4 2 2
v 4 2 -2
v 4 3 2
v 4 3 -2
v 5 3 3
v 5 3 -3
v 5 5 4
v 5 5 3
v 5 5 -3
v 5 5 -4
v 5 6 4
v 5 6 3
v 5 6 2
v 5 6 1
v 5 6 -1
v 5 6 -2
v 5 6 -3
v 5 6 -4
v 5 7 4
v 5 7 3
v 5 7 2
v 5 7 1
v 5 7 -1
v 5 7 -2
v 5 7 -3
v 5 7 -4
v 5 8 3
v 5 8 2
v 5 8 1
v 5 8 -0
v 5 8 -1
v 5 8 -2
v 5 8 -3
v 5 9 3
v 5 9 2
v 5 9 1
v 5 9 -0
v 5 9 -1
v 5 9 -2
v 5 9 -3
v -2 0 4
v -2 1 4
v -1 0 4
v -1 1 4
v -1 4 4
v -1 5 4
v 0 2 4
v 0 4 4
v 1 2 4
v 1 3 4
v 1 4 4
v 1 5 4
v 2 3 4
v 2 4 4
v 3 2 4
v 3 3 4
v 4 5 4
v 4 6 4
v 4 7 4
v 5 5 4
v 5 6 4
v 5 7 4
v -3 3 3
v -3 5 3
v -2 5 3
v -2 6 3
v -1 0 3
v -1 1 3
v -1 4 3
v -1 5 3
v 0 3 3
v 0 4 3
v 1 4 3
v 1 5 3
v 2 0 3
v 2 1 3
v 2 3 3
v 2 4 3
v 3 3 3
v 4 5 3
v 4 6 3
v 4 7 3
v 4 8 3
v 4 9 3
v 5 3 3
v 5 5 3
v 5 7 3
v 5 8 3
v 5 9 3
v -4 5 2
v -4 7 2
v -4 8 2
v -4 9 2
v -3 5 2
v -3 7 2
v -3 8 2
v -2 0 2
v -2 1 2
v -2 2 2
v -2 3 2
v -2 5 2
v -2 6 2
v -1 0 2
v -1 1 2
v 0 6 2
v 0 9 2
v 1 1 2
v 1 2 2
v 2 1 2
v 2 2 2
v 4 2 2
v 4 3 2
v 4 6 2
v 4 7 2
v 5 6 2
v 5 7 2
v -5 6 1
v -5 7 1
v -4 6 1
v -4 7 1
v -4 9 1
v -4 10 1
v -2 9 1
v -2 10 1
v 4 8 1
v 4 9 1
v 5 8 1
v 5 9 1
v -2 0 -1
v -2 1 -1
v 1 1 -1
v 1 2 -1
v 2 0 -1
v 2 2 -1
v 4 8 -2
v 4 9 -2
v 5 8 -2
v 5 9 -2
v -2 0 -3
v -2 1 -3
v -1 0 -3
v -1 1 -3
v 0 2 -3
v 0 3 -3
v 1 2 -3
v 1 3 -3
v 3 2 -3
v 3 3 -3
v 4 6 -3
v 4 7 -3
v 5 6 -3
v 5 7 -3
v -2 0 3
v -2 1 3
v -1 0 3
v -1 1 3
v 0 2 3
v 0 3 3
v 1 2 3
v 1 3 3
v 3 2 3
v 3 3 3
v 4 6 3
v 4 7 3
v 5 6 3
v 5 7 3
v 4 8 2
v 4 9 2
v 5 8 2
v 5 9 2
v -2 0 1
v -2 1 1
v 1 1 1
v 1 2 1
v 2 0 1
v 2 2 1
v -5 6 -1
v -5 7 -1
v -4 6 -1
v -4 7 -1
v -4 9 -1
v -4 10 -1
v -2 9 -1
v -2 10 -1
v 4 8 -1
v 4 9 -1
v 5 8 -1
v 5 9 -1
v -4 5 -2
v -4 7 -2
v -4 8 -2
v -4 9 -2
v -3 5 -2
v -3 7 -2
v -3 8 -2
v -2 0 -2
v -2 1 -2
v -2 2 -2
v -2 3 -2
v -2 5 -2
v -2 6 -2
v -1 0 -2
v -1 1 -2
v 0 6 -2
v 0 9 -2
v 1 1 -2
v 1 2 -2
v 2 1 -2
v 2 2 -2
v 4 2 -2
v 4 3 -2
v 4 6 -2
v 4 7 -2
v 5 6 -2
v 5 7 -2
v -3 3 -3
v -3 5 -3
v -2 5 -3
v -2 6 -3
v -1 0 -3
v -1 1 -3
v -1 4 -3
v -1 5 -3
v 0 3 -3
v 0 4 -3
v 1 4 -3
v 1 5 -3
v 2 0 -3
v 2 1 -3
v 2 3 -3
v 2 4 -3
v 3 3 -3
v 4 5 -3
v 4 6 -3
v 4 7 -3
v 4 8 -3
v 4 9 -3
v 5 3 -3
v 5 5 -3
v 5 7 -3
v 5 8 -3
v 5 9 -3
v -2 0 -4
v -2 1 -4
v -1 0 -4
v -1 1 -4
v -1 4 -4
v -1 5 -4
v 0 2 -4
v 0 4 -4
v 1 2 -4
v 1 3 -4
v 1 4 -4
v 1 5 -4
v 2 3 -4
v 2 4 -4
v 3 2 -4
v 3 3 -4
v 4 5 -4
v 4 6 -4
v 4 7 -4
v 5 5 -4
v 5 6 -4
v 5 7 -4
v -2 0 4
v -1 0 4
v -2 0 3
v -1 0 3
v 2 0 3
v -2 0 2
v -1 0 2
v -2 0 1
v 2 0 1
v -2 0 -1
v 2 0 -1
v -2 0 -2
v -1 0 -2
v -2 0 -3
v -1 0 -3
v 2 0 -3
v -2 0 -4
v -1 0 -4
v 0 2 4
v 1 2 4
v 3 2 4
v 0 2 3
v 1 2 3
v 3 2 3
v -2 2 2
v 1 2 2
v 2 2 2
v 4 2 2
v 1 2 1
v 2 2 1
v 1 2 -1
v 2 2 -1
v -2 2 -2
v 1 2 -2
v 2 2 -2
v 4 2 -2
v 0 2 -3
v 1 2 -3
v 3 2 -3
v 0 2 -4
v 1 2 -4
v 3 2 -4
v -3 3 3
v 0 3 3
v 1 3 3
v 3 3 3
v 5 3 3
v -2 3 2
v 4 3 2
v -2 3 -2
v 4 3 -2
v -3 3 -3
v 0 3 -3
v 1 3 -3
v 3 3 -3
v 5 3 -3
v -1 4 4
v 0 4 4
v -1 4 3
v 0 4 3
v -1 4 -3
v 0 4 -3
v -1 4 -4
v 0 4 -4
v 4 5 4
v 5 5 4
v 4 5 3
v 5 5 3
v -4 5 2
v -3 5 2
v -4 5 -2
v -3 5 -2
v 4 5 -3
v 5 5 -3
v 4 5 -4
v 5 5 -4
v -5 6 1
v -4 6 1
v -5 6 -1
v -4 6 -1
v 4 7 3
v 5 7 3
v 4 7 2
v 5 7 2
v 4 7 -2
v 5 7 -2
v 4 7 -3
v 5 7 -3
v -2 1 4
v -1 1 4
v -2 1 3
v -1 1 3
v 2 1 3
v -2 1 2
v -1 1 2
v 1 1 2
v 2 1 2
v -2 1 1
v 1 1 1
v -2 1 -1
v 1 1 -1
v -2 1 -2
v -1 1 -2
v 1 1 -2
v 2 1 -2
v -2 1 -3
v -1 1 -3
v 2 1 -3
v -2 1 -4
v -1 1 -4
v 2 3 4
v 3 3 4
v 2 3 3
v 3 3 3
v 2 3 -3
v 3 3 -3
v 2 3 -4
v 3 3 -4
v 1 4 4
v 2 4 4
v 1 4 3
v 2 4 3
v 1 4 -3
v 2 4 -3
v 1 4 -4
v 2 4 -4
v -1 5 4
v 1 5 4
v -3 5 3
v -2 5 3
v -1 5 3
v 1 5 3
v -3 5 2
v -2 5 2
v -3 5 -2
v -2 5 -2
v -3 5 -3
v -2 5 -3
v -1 5 -3
v 1 5 -3
v -1 5 -4
v 1 5 -4
v -2 6 3
v 4 6 3
v 5 6 3
v -2 6 2
v 0 6 2
v 4 6 2
v 5 6 2
v 4 6 1
v 4 6 -1
v -2 6 -2
v 0 6 -2
v 4 6 -2
v 5 6 -2
v -2 6 -3
v 4 6 -3
v 5 6 -3
v 4 7 4
v 5 7 4
v 4 7 3
v 5 7 3
v -5 7 1
v -4 7 1
v -5 7 -1
v -4 7 -1
v 4 7 -3
v 5 7 -3
v 4 7 -4
v 5 7 -4
v 4 8 2
v 5 8 2
v 4 8 1
v 5 8 1
v 4 8 -1
v 5 8 -1
v 4 8 -2
v 5 8 -2
v 4 9 3
v 5 9 3
v -4 9 2
v 0 9 2
v 4 9 2
v 5 9 2
v -4 9 1
v -2 9 1
v 4 9 1
v 5 9 1
v 4 9 -0
v 5 9 -0
v -4 9 -1
v -2 9 -1
v 4 9 -1
v 5 9 -1
v -4 9 -2
v 0 9 -2
v 4 9 -2
v 5 9 -2
v 4 9 -3
v 5 9 -3
v -4 10 1
v -2 10 1
v -4 10 -1
v -2 10 -1

# faces
f 3/3/1 2/3/1 1/3/1
f 4/3/1 2/3/1 3/3/1
f 7/2/1 6/2/1 5/2/1
f 8/2/1 6/2/1 7/2/1
f 9/2/1 7/2/1 5/2/1
f 10/2/1 7/2/1 9/2/1
f 11/2/1 6/2/1 8/2/1
f 12/2/1 6/2/1 11/2/1
f 13/1/1 10/1/1 9/1/1
f 14/2/1 11/2/1 10/2/1
f 14/1/1 10/1/1 13/1/1
f 15/1/1 12/1/1 11/1/1
f 15/2/1 11/2/1 14/2/1
f 16/1/1 12/1/1 15/1/1
f 17/2/1 14/2/1 13/2/1
f 17/2/1 15/2/1 14/2/1
f 17/2/1 16/2/1 15/2/1
f 18/2/1 16/2/1 17/2/1
f 19/2/1 16/2/1 18/2/1
f 20/2/1 16/2/1 19/2/1
f 21/4/1 19/4/1 18/4/1
f 22/4/1 19/4/1 21/4/1
f 25/2/1 24/2/1 23/2/1
f 26/2/1 24/2/1 25/2/1
f 27/2/1 24/2/1 26/2/1
f 28/2/1 24/2/1 27/2/1
f 37/3/1 30/3/1 29/3/1
f 38/3/1 30/3/1 37/3/1
f 39/3/1 32/3/1 31/3/1
f 40/3/1 32/3/1 39/3/1
f 41/3/1 34/3/1 33/3/1
f 42/3/1 34/3/1 41/3/1
f 43/3/1 36/3/1 35/3/1
f 44/3/1 36/3/1 43/3/1
f 47/2/1 46/2/1 45/2/1
f 48/2/1 46/2/1 47/2/1
f 53/2/1 50/2/1 49/2/1
f 54/2/1 50/2/1 53/2/1
f 55/2/1 52/2/1 51/2/1
f 56/2/1 52/2/1 55/2/1
f 61/3/1 58/3/1 57/3/1
f 62/3/1 58/3/1 61/3/1
f 63/3/1 60/3/1 59/3/1
f 64/3/1 60/3/1 63/3/1
f 69/2/1 66/2/1 65/2/1
f 70/2/1 66/2/1 69/2/1
f 71/2/1 68/2/1 67/2/1
f 72/2/1 68/2/1 71/2/1
f 77/2/1 74/2/1 73/2/1
f 78/2/1 76/2/1 75/2/1
f 79/2/1 77/2/1 73/2/1
f 80/2/1 77/2/1 79/2/1
f 81/2/1 76/2/1 78/2/1
f 82/2/1 76/2/1 81/2/1
f 87/3/1 84/3/1 83/3/1
f 88/3/1 84/3/1 87/3/1
f 89/3/1 86/3/1 85/3/1
f 90/3/1 86/3/1 89/3/1
f 95/5/1 92/5/1 91/5/1
f 96/5/1 92/5/1 95/5/1
f 101/2/1 94/2/1 93/2/1
f 102/2/1 94/2/1 101/2/1
f 103/2/1 96/2/1 95/2/1
f 104/2/1 96/2/1 103/2/1
f 105/5/1 98/5/1 97/5/1
f 106/2/1 99/2/1 98/2/1
f 106/5/1 98/5/1 105/5/1
f 107/5/1 100/5/1 99/5/1
f 107/2/1 99/2/1 106/2/1
f 108/5/1 100/5/1 107/5/1
f 109/5/1 102/5/1 101/5/1
f 110/5/1 102/5/1 109/5/1
f 111/5/1 105/5/1 104/5/1
f 112/2/1 106/2/1 105/2/1
f 112/5/1 105/5/1 111/5/1
f 112/2/1 109/2/1 108/2/1
f 112/2/1 108/2/1 107/2/1
f 112/2/1 107/2/1 106/2/1
f 113/2/1 109/2/1 112/2/1
f 114/2/1 109/2/1 113/2/1
f 115/2/1 109/2/1 114/2/1
f 116/2/1 109/2/1 115/2/1
f 117/2/1 109/2/1 116/2/1
f 118/2/1 112/2/1 111/2/1
f 119/2/1 112/2/1 118/2/1
f 120/5/1 114/5/1 113/5/1
f 121/2/1 115/2/1 114/2/1
f 121/5/1 114/5/1 120/5/1
f 122/2/1 115/2/1 121/2/1
f 123/5/1 117/5/1 116/5/1
f 124/5/1 117/5/1 123/5/1
f 125/4/2 126/4/2 127/4/2
f 127/4/2 126/4/2 128/4/2
f 129/3/2 130/3/2 133/3/2
f 133/3/2 130/3/2 134/3/2
f 131/3/2 132/3/2 135/3/2
f 135/3/2 132/3/2 136/3/2
f 137/2/2 138/2/2 139/2/2
f 139/2/2 138/2/2 140/2/2
f 141/2/2 142/2/2 145/2/2
f 145/2/2 142/2/2 146/2/2
f 143/2/2 144/2/2 147/2/2
f 147/2/2 144/2/2 148/2/2
f 149/3/2 150/3/2 153/3/2
f 153/3/2 150/3/2 154/3/2
f 151/3/2 152/3/2 155/3/2
f 155/3/2 152/3/2 156/3/2
f 154/3/2 150/3/2 157/3/2
f 157/3/2 150/3/2 158/3/2
f 151/3/2 155/3/2 159/3/2
f 159/3/2 155/3/2 160/3/2
f 161/2/2 162/2/2 165/2/2
f 165/2/2 162/2/2 166/2/2
f 163/2/2 164/2/2 167/2/2
f 167/2/2 164/2/2 168/2/2
f 169/5/2 170/5/2 173/5/2
f 173/5/2 170/5/2 174/5/2
f 171/5/2 172/5/2 175/5/2
f 175/5/2 172/5/2 176/5/2
f 177/2/2 178/2/2 179/2/2
f 179/2/2 178/2/2 180/2/2
f 181/2/2 182/2/2 184/2/2
f 184/2/2 182/2/2 185/2/2
f 183/5/2 184/5/2 187/5/2
f 185/2/2 186/2/2 188/2/2
f 187/5/2 184/5/2 188/5/2
f 184/2/2 185/2/2 188/2/2
f 188/2/2 186/2/2 189/2/2
f 189/2/2 186/2/2 190/2/2
f 190/2/2 186/2/2 191/2/2
f 191/2/2 186/2/2 192/2/2
f 192/2/2 186/2/2 193/2/2
f 193/2/2 186/2/2 194/2/2
f 187/2/2 188/2/2 195/2/2
f 195/2/2 188/2/2 196/2/2
f 189/5/2 190/5/2 197/5/2
f 190/2/2 191/2/2 198/2/2
f 197/5/2 190/5/2 198/5/2
f 191/5/2 192/5/2 199/5/2
f 198/2/2 191/2/2 199/2/2
f 199/5/2 192/5/2 200/5/2
f 193/5/2 194/5/2 201/5/2
f 201/5/2 194/5/2 202/5/2
f 196/5/2 197/5/2 203/5/2
f 199/2/2 200/2/2 204/2/2
f 203/5/2 197/5/2 204/5/2
f 200/2/2 201/2/2 204/2/2
f 197/2/2 198/2/2 204/2/2
f 198/2/2 199/2/2 204/2/2
f 204/2/2 201/2/2 205/2/2
f 205/2/2 201/2/2 206/2/2
f 206/2/2 201/2/2 207/2/2
f 207/2/2 201/2/2 208/2/2
f 208/2/2 201/2/2 209/2/2
f 203/2/2 204/2/2 210/2/2
f 210/2/2 204/2/2 211/2/2
f 205/5/2 206/5/2 212/5/2
f 206/2/2 207/2/2 213/2/2
f 212/5/2 206/5/2 213/5/2
f 213/2/2 207/2/2 214/2/2
f 208/5/2 209/5/2 215/5/2
f 215/5/2 209/5/2 216/5/2
f 219/3/3 218/3/3 217/3/3
f 220/3/3 218/3/3 219/3/3
f 224/2/3 222/2/3 221/2/3
f 225/2/3 224/2/3 223/2/3
f 226/2/3 224/2/3 225/2/3
f 227/2/3 222/2/3 224/2/3
f 227/2/3 224/2/3 226/2/3
f 228/2/3 222/2/3 227/2/3
f 229/5/3 226/5/3 225/5/3
f 229/2/3 227/2/3 226/2/3
f 230/2/3 227/2/3 229/2/3
f 231/5/3 229/5/3 225/5/3
f 232/5/3 229/5/3 231/5/3
f 236/5/3 234/5/3 233/5/3
f 237/2/3 235/2/3 234/2/3
f 237/5/3 234/5/3 236/5/3
f 238/2/3 235/2/3 237/2/3
f 241/2/3 240/2/3 239/2/3
f 245/2/3 241/2/3 239/2/3
f 245/2/3 242/2/3 241/2/3
f 246/2/3 242/2/3 245/2/3
f 247/2/3 245/2/3 239/2/3
f 248/2/3 245/2/3 247/2/3
f 250/2/3 242/2/3 246/2/3
f 251/3/3 244/3/3 243/3/3
f 252/3/3 244/3/3 251/3/3
f 254/2/3 250/2/3 249/2/3
f 255/2/3 254/2/3 253/2/3
f 256/2/3 250/2/3 254/2/3
f 256/2/3 254/2/3 255/2/3
f 256/2/3 242/2/3 250/2/3
f 257/2/3 242/2/3 256/2/3
f 261/2/3 256/2/3 255/2/3
f 262/2/3 256/2/3 261/2/3
f 263/5/3 259/5/3 258/5/3
f 264/2/3 260/2/3 259/2/3
f 264/5/3 259/5/3 263/5/3
f 265/2/3 260/2/3 264/2/3
f 270/2/3 267/2/3 266/2/3
f 271/1/3 268/1/3 267/1/3
f 271/2/3 267/2/3 270/2/3
f 272/2/3 269/2/3 268/2/3
f 272/1/3 268/1/3 271/1/3
f 277/2/3 271/2/3 270/2/3
f 277/2/3 272/2/3 271/2/3
f 278/2/3 272/2/3 277/2/3
f 279/3/3 274/3/3 273/3/3
f 280/3/3 274/3/3 279/3/3
f 281/2/3 272/2/3 278/2/3
f 282/2/3 269/2/3 272/2/3
f 282/2/3 272/2/3 281/2/3
f 284/2/3 276/2/3 275/2/3
f 285/3/3 284/3/3 283/3/3
f 286/2/3 276/2/3 284/2/3
f 286/3/3 284/3/3 285/3/3
f 287/2/3 276/2/3 286/2/3
f 288/2/3 276/2/3 287/2/3
f 291/5/3 290/5/3 289/5/3
f 292/5/3 290/5/3 291/5/3
f 295/3/3 294/3/3 293/3/3
f 296/3/3 294/3/3 295/3/3
f 299/4/3 298/4/3 297/4/3
f 300/4/3 298/4/3 299/4/3
f 303/5/3 302/5/3 301/5/3
f 304/5/3 302/5/3 303/5/3
f 307/3/3 306/3/3 305/3/3
f 309/3/3 307/3/3 305/3/3
f 309/3/3 308/3/3 307/3/3
f 310/3/3 308/3/3 309/3/3
f 313/5/3 312/5/3 311/5/3
f 314/5/3 312/5/3 313/5/3
f 317/3/3 316/3/3 315/3/3
f 318/3/3 316/3/3 317/3/3
f 321/2/3 320/2/3 319/2/3
f 322/2/3 320/2/3 321/2/3
f 323/5/3 322/5/3 321/5/3
f 324/5/3 322/5/3 323/5/3
f 327/5/3 326/5/3 325/5/3
f 328/5/3 326/5/3 327/5/3
f 329/3/4 330/3/4 331/3/4
f 331/3/4 330/3/4 332/3/4
f 333/2/4 334/2/4 335/2/4
f 335/2/4 334/2/4 336/2/4
f 335/5/4 336/5/4 337/5/4
f 337/5/4 336/5/4 338/5/4
f 339/2/4 340/2/4 341/2/4
f 341/2/4 340/2/4 342/2/4
f 343/2/4 344/2/4 345/2/4
f 345/2/4 344/2/4 346/2/4
f 347/3/4 348/3/4 349/3/4
f 347/3/4 349/3/4 351/3/4
f 349/3/4 350/3/4 351/3/4
f 351/3/4 350/3/4 352/3/4
f 353/3/4 354/3/4 355/3/4
f 355/3/4 354/3/4 356/3/4
f 357/4/4 358/4/4 359/4/4
f 359/4/4 358/4/4 360/4/4
f 361/2/4 362/2/4 363/2/4
f 363/2/4 362/2/4 364/2/4
f 365/2/4 366/2/4 369/2/4
f 366/1/4 367/1/4 370/1/4
f 369/2/4 366/2/4 370/2/4
f 367/2/4 368/2/4 371/2/4
f 370/1/4 367/1/4 371/1/4
f 369/2/4 370/2/4 376/2/4
f 370/2/4 371/2/4 376/2/4
f 376/2/4 371/2/4 377/2/4
f 372/3/4 373/3/4 378/3/4
f 378/3/4 373/3/4 379/3/4
f 377/2/4 371/2/4 380/2/4
f 371/2/4 368/2/4 381/2/4
f 380/2/4 371/2/4 381/2/4
f 374/2/4 375/2/4 383/2/4
f 382/3/4 383/3/4 384/3/4
f 383/2/4 375/2/4 385/2/4
f 384/3/4 383/3/4 385/3/4
f 385/2/4 375/2/4 386/2/4
f 386/2/4 375/2/4 387/2/4
f 388/5/4 389/5/4 390/5/4
f 390/5/4 389/5/4 391/5/4
f 392/2/4 393/2/4 394/2/4
f 392/2/4 394/2/4 398/2/4
f 394/2/4 395/2/4 398/2/4
f 398/2/4 395/2/4 399/2/4
f 392/2/4 398/2/4 400/2/4
f 400/2/4 398/2/4 401/2/4
f 399/2/4 395/2/4 403/2/4
f 396/3/4 397/3/4 404/3/4
f 404/3/4 397/3/4 405/3/4
f 402/2/4 403/2/4 407/2/4
f 406/2/4 407/2/4 408/2/4
f 407/2/4 403/2/4 409/2/4
f 408/2/4 407/2/4 409/2/4
f 403/2/4 395/2/4 409/2/4
f 409/2/4 395/2/4 410/2/4
f 408/2/4 409/2/4 414/2/4
f 414/2/4 409/2/4 415/2/4
f 411/2/4 412/2/4 416/2/4
f 412/5/4 413/5/4 417/5/4
f 416/2/4 412/2/4 417/2/4
f 417/5/4 413/5/4 418/5/4
f 419/3/4 420/3/4 421/3/4
f 421/3/4 420/3/4 422/3/4
f 423/2/4 424/2/4 426/2/4
f 425/2/4 426/2/4 427/2/4
f 427/2/4 426/2/4 428/2/4
f 426/2/4 424/2/4 429/2/4
f 428/2/4 426/2/4 429/2/4
f 429/2/4 424/2/4 430/2/4
f 427/5/4 428/5/4 431/5/4
f 428/2/4 429/2/4 431/2/4
f 431/2/4 429/2/4 432/2/4
f 427/5/4 431/5/4 433/5/4
f 433/5/4 431/5/4 434/5/4
f 435/2/4 436/2/4 438/2/4
f 436/5/4 437/5/4 439/5/4
f 438/2/4 436/2/4 439/2/4
f 439/5/4 437/5/4 440/5/4
f 443/3/5 442/3/5 441/3/5
f 444/3/5 442/3/5 443/3/5
f 447/3/5 445/3/5 444/3/5
f 448/3/5 447/3/5 446/3/5
f 449/3/5 445/3/5 447/3/5
f 449/3/5 447/3/5 448/3/5
f 452/3/5 451/3/5 450/3/5
f 453/3/5 451/3/5 452/3/5
f 455/3/5 451/3/5 453/3/5
f 456/3/5 451/3/5 455/3/5
f 457/3/5 455/3/5 454/3/5
f 458/3/5 455/3/5 457/3/5
f 462/2/5 460/2/5 459/2/5
f 463/5/5 461/5/5 460/5/5
f 463/2/5 460/2/5 462/2/5
f 464/5/5 461/5/5 463/5/5
f 469/2/5 466/2/5 465/2/5
f 470/2/5 468/2/5 467/2/5
f 471/2/5 469/2/5 465/2/5
f 471/2/5 470/2/5 469/2/5
f 472/2/5 468/2/5 470/2/5
f 472/2/5 470/2/5 471/2/5
f 473/2/5 471/2/5 465/2/5
f 474/2/5 471/2/5 473/2/5
f 475/2/5 468/2/5 472/2/5
f 476/2/5 468/2/5 475/2/5
f 480/2/5 478/2/5 477/2/5
f 481/5/5 479/5/5 478/5/5
f 481/2/5 478/2/5 480/2/5
f 482/5/5 479/5/5 481/5/5
f 488/2/5 484/2/5 483/2/5
f 488/2/5 487/2/5 486/2/5
f 488/2/5 486/2/5 485/2/5
f 488/2/5 485/2/5 484/2/5
f 489/2/5 487/2/5 488/2/5
f 490/2/5 488/2/5 483/2/5
f 491/2/5 487/2/5 489/2/5
f 492/2/5 490/2/5 483/2/5
f 492/2/5 491/2/5 490/2/5
f 493/2/5 491/2/5 492/2/5
f 494/2/5 491/2/5 493/2/5
f 495/2/5 491/2/5 494/2/5
f 496/2/5 487/2/5 491/2/5
f 496/2/5 491/2/5 495/2/5
f 499/2/5 498/2/5 497/2/5
f 500/2/5 498/2/5 499/2/5
f 503/2/5 502/2/5 501/2/5
f 504/2/5 502/2/5 503/2/5
f 507/5/5 506/5/5 505/5/5
f 508/5/5 506/5/5 507/5/5
f 511/2/5 510/2/5 509/2/5
f 512/2/5 510/2/5 511/2/5
f 515/2/5 514/2/5 513/2/5
f 516/2/5 514/2/5 515/2/5
f 519/3/5 518/3/5 517/3/5
f 520/3/5 518/3/5 519/3/5
f 523/5/5 522/5/5 521/5/5
f 524/5/5 522/5/5 523/5/5
f 527/2/5 526/2/5 525/2/5
f 528/2/5 526/2/5 527/2/5
f 529/3/6 530/3/6 531/3/6
f 531/3/6 530/3/6 532/3/6
f 532/3/6 533/3/6 535/3/6
f 535/3/6 533/3/6 536/3/6
f 536/3/6 533/3/6 537/3/6
f 534/3/6 535/3/6 538/3/6
f 535/3/6 536/3/6 538/3/6
f 538/3/6 536/3/6 539/3/6
f 540/3/6 541/3/6 542/3/6
f 542/3/6 541/3/6 543/3/6
f 543/3/6 541/3/6 544/3/6
f 543/3/6 544/3/6 547/3/6
f 544/3/6 545/3/6 547/3/6
f 547/3/6 545/3/6 548/3/6
f 546/3/6 547/3/6 549/3/6
f 549/3/6 547/3/6 550/3/6
f 551/5/6 552/5/6 553/5/6
f 553/5/6 552/5/6 554/5/6
f 555/5/6 556/5/6 557/5/6
f 557/5/6 556/5/6 558/5/6
f 559/2/6 560/2/6 561/2/6
f 561/2/6 560/2/6 562/2/6
f 563/2/6 564/2/6 565/2/6
f 565/2/6 564/2/6 566/2/6
f 567/2/6 568/2/6 571/2/6
f 571/2/6 568/2/6 572/2/6
f 569/2/6 570/2/6 573/2/6
f 573/2/6 570/2/6 574/2/6
f 575/2/6 576/2/6 577/2/6
f 577/2/6 576/2/6 578/2/6
f 579/2/6 580/2/6 581/2/6
f 581/2/6 580/2/6 582/2/6
f 583/2/6 584/2/6 586/2/6
f 584/2/6 585/2/6 586/2/6
f 586/2/6 585/2/6 587/2/6
f 587/2/6 585/2/6 588/2/6
f 588/2/6 585/2/6 589/2/6
f 587/2/6 588/2/6 590/2/6
f 587/2/6 590/2/6 591/2/6
f 587/2/6 591/2/6 593/2/6
f 593/2/6 591/2/6 594/2/6
f 593/2/6 594/2/6 596/2/6
f 594/2/6 595/2/6 596/2/6
f 592/2/6 593/2/6 596/2/6
f 596/2/6 595/2/6 597/2/6
f 597/2/6 595/2/6 598/2/6
f 599/2/6 600/2/6 601/2/6
f 601/2/6 600/2/6 602/2/6
f 603/3/6 604/3/6 605/3/6
f 605/3/6 604/3/6 606/3/6
f 607/5/6 608/5/6 609/5/6
f 609/5/6 608/5/6 610/5/6
f 611/2/6 612/2/6 613/2/6
f 613/2/6 612/2/6 614/2/6
f 615/2/6 616/2/6 617/2/6
f 617/2/6 616/2/6 618/2/6
f 619/2/6 620/2/6 623/2/6
f 623/2/6 620/2/6 624/2/6
f 621/2/6 622/2/6 625/2/6
f 625/2/6 622/2/6 626/2/6
f 627/5/6 628/5/6 629/5/6
f 629/5/6 628/5/6 630/5/6
f 626/2/6 622/2/6 632/2/6
f 629/2/6 630/2/6 633/2/6
f 633/2/6 630/2/6 634/2/6
f 631/2/6 632/2/6 635/2/6
f 632/2/6 622/2/6 636/2/6
f 635/2/6 632/2/6 636/2/6
f 637/5/6 638/5/6 639/5/6
f 639/5/6 638/5/6 640/5/6
f 641/4/6 642/4/6 643/4/6
f 643/4/6 642/4/6 644/4/6
