# MagicaVoxel @ Ephtracy

# material
mtllib Art_Foxroom_Foxmodel.mtl
usemtl palette

# normals
vn -1 0 0
vn 1 0 0
vn 0 0 1
vn 0 0 -1
vn 0 -1 0
vn 0 1 0

# texcoords
vt 0.970703 0.5
vt 0.974609 0.5
vt 0.978516 0.5
vt 0.982422 0.5

# verts
v -12.5 6 0.5
v -12.5 6 -0.5
v -12.5 7 1.5
v -12.5 7 0.5
v -12.5 7 -0.5
v -12.5 7 -1.5
v -12.5 8 1.5
v -12.5 8 -1.5
v -12.5 9 1.5
v -12.5 9 -1.5
v -9.5 6 3.5
v -9.5 6 0.5
v -9.5 6 -0.5
v -9.5 6 -3.5
v -9.5 7 3.5
v -9.5 7 1.5
v -9.5 7 0.5
v -9.5 7 -0.5
v -9.5 7 -1.5
v -9.5 7 -2.5
v -9.5 7 -3.5
v -9.5 8 1.5
v -9.5 8 -1.5
v -9.5 8 -2.5
v -9.5 9 2.5
v -9.5 9 1.5
v -9.5 9 0.5
v -9.5 9 -0.5
v -9.5 9 -1.5
v -9.5 9 -2.5
v -9.5 10 1.5
v -9.5 10 0.5
v -9.5 10 -0.5
v -9.5 10 -1.5
v -9.5 11 2.5
v -9.5 11 0.5
v -9.5 11 -0.5
v -9.5 11 -2.5
v -9.5 12 3.5
v -9.5 12 -3.5
v -6.5 0 2.5
v -6.5 0 0.5
v -6.5 0 -0.5
v -6.5 0 -2.5
v -6.5 1 2.5
v -6.5 1 0.5
v -6.5 1 -0.5
v -6.5 1 -2.5
v -6.5 11 4.5
v -6.5 11 3.5
v -6.5 11 -3.5
v -6.5 11 -4.5
v -6.5 12 4.5
v -6.5 12 3.5
v -6.5 12 1.5
v -6.5 12 -1.5
v -6.5 12 -3.5
v -6.5 12 -4.5
v -6.5 13 3.5
v -6.5 13 1.5
v -6.5 13 -1.5
v -6.5 13 -3.5
v -6.5 14 3.5
v -6.5 14 1.5
v -6.5 14 -1.5
v -6.5 14 -3.5
v -5.5 1 2.5
v -5.5 1 0.5
v -5.5 1 -0.5
v -5.5 1 -2.5
v -5.5 2 2.5
v -5.5 2 0.5
v -5.5 2 -0.5
v -5.5 2 -2.5
v -5.5 4 0.5
v -5.5 4 -0.5
v -5.5 6 2.5
v -5.5 6 -2.5
v -5.5 10 4.5
v -5.5 10 3.5
v -5.5 10 -3.5
v -5.5 10 -4.5
v -5.5 11 4.5
v -5.5 11 3.5
v -5.5 11 -3.5
v -5.5 11 -4.5
v -5.5 14 2.5
v -5.5 14 1.5
v -5.5 14 -1.5
v -5.5 14 -2.5
v -5.5 15 2.5
v -5.5 15 1.5
v -5.5 15 -1.5
v -5.5 15 -2.5
v 1.5 0 2.5
v 1.5 0 0.5
v 1.5 0 -0.5
v 1.5 0 -2.5
v 1.5 1 2.5
v 1.5 1 0.5
v 1.5 1 -0.5
v 1.5 1 -2.5
v 2.5 1 2.5
v 2.5 1 0.5
v 2.5 1 -0.5
v 2.5 1 -2.5
v 2.5 2 2.5
v 2.5 2 0.5
v 2.5 2 -0.5
v 2.5 2 -2.5
v 2.5 4 2.5
v 2.5 4 0.5
v 2.5 4 -0.5
v 2.5 4 -2.5
v 5.5 5 0.5
v 5.5 5 -0.5
v 5.5 6 0.5
v 5.5 6 -0.5
v 6.5 4 0.5
v 6.5 4 -0.5
v 6.5 5 0.5
v 6.5 5 -0.5
v 8.5 6 0.5
v 8.5 6 -0.5
v 8.5 7 0.5
v 8.5 7 -0.5
v 10.5 4 0.5
v 10.5 4 -0.5
v 10.5 5 0.5
v 10.5 5 -0.5
v -4.5 10 4.5
v -4.5 10 3.5
v -4.5 10 -3.5
v -4.5 10 -4.5
v -4.5 11 4.5
v -4.5 11 3.5
v -4.5 11 -3.5
v -4.5 11 -4.5
v -4.5 12 4.5
v -4.5 12 3.5
v -4.5 12 1.5
v -4.5 12 -1.5
v -4.5 12 -3.5
v -4.5 12 -4.5
v -4.5 13 3.5
v -4.5 13 1.5
v -4.5 13 -1.5
v -4.5 13 -3.5
v -4.5 14 3.5
v -4.5 14 2.5
v -4.5 14 -2.5
v -4.5 14 -3.5
v -4.5 15 2.5
v -4.5 15 1.5
v -4.5 15 -1.5
v -4.5 15 -2.5
v -3.5 0 2.5
v -3.5 0 0.5
v -3.5 0 -0.5
v -3.5 0 -2.5
v -3.5 2 2.5
v -3.5 2 0.5
v -3.5 2 -0.5
v -3.5 2 -2.5
v -3.5 4 2.5
v -3.5 4 0.5
v -3.5 4 -0.5
v -3.5 4 -2.5
v -3.5 6 3.5
v -3.5 6 2.5
v -3.5 6 -2.5
v -3.5 6 -3.5
v -3.5 8 2.5
v -3.5 8 -2.5
v -3.5 12 3.5
v -3.5 12 -3.5
v 4.5 0 2.5
v 4.5 0 0.5
v 4.5 0 -0.5
v 4.5 0 -2.5
v 4.5 2 2.5
v 4.5 2 0.5
v 4.5 2 -0.5
v 4.5 2 -2.5
v 4.5 4 0.5
v 4.5 4 -0.5
v 4.5 6 0.5
v 4.5 6 -0.5
v 4.5 7 0.5
v 4.5 7 -0.5
v 4.5 8 2.5
v 4.5 8 0.5
v 4.5 8 -0.5
v 4.5 8 -2.5
v 6.5 7 0.5
v 6.5 7 -0.5
v 6.5 8 0.5
v 6.5 8 -0.5
v 7.5 6 0.5
v 7.5 6 -0.5
v 7.5 7 0.5
v 7.5 7 -0.5
v 8.5 4 0.5
v 8.5 4 -0.5
v 8.5 5 0.5
v 8.5 5 -0.5
v 10.5 6 0.5
v 10.5 6 -0.5
v 10.5 7 0.5
v 10.5 7 -0.5
v 11.5 5 0.5
v 11.5 5 -0.5
v 11.5 6 0.5
v 11.5 6 -0.5
v 12.5 4 0.5
v 12.5 4 -0.5
v 12.5 5 0.5
v 12.5 5 -0.5
v -6.5 11 4.5
v -6.5 12 4.5
v -5.5 10 4.5
v -5.5 11 4.5
v -4.5 10 4.5
v -4.5 11 4.5
v -4.5 12 4.5
v -9.5 6 3.5
v -9.5 7 3.5
v -9.5 12 3.5
v -8.5 7 3.5
v -8.5 8 3.5
v -7.5 6 3.5
v -7.5 8 3.5
v -6.5 11 3.5
v -6.5 12 3.5
v -6.5 13 3.5
v -6.5 14 3.5
v -5.5 10 3.5
v -5.5 11 3.5
v -4.5 10 3.5
v -4.5 11 3.5
v -4.5 12 3.5
v -4.5 13 3.5
v -4.5 14 3.5
v -3.5 6 3.5
v -3.5 12 3.5
v -6.5 0 2.5
v -6.5 1 2.5
v -5.5 1 2.5
v -5.5 2 2.5
v -5.5 6 2.5
v -5.5 14 2.5
v -5.5 15 2.5
v -4.5 14 2.5
v -4.5 15 2.5
v -3.5 0 2.5
v -3.5 2 2.5
v -3.5 4 2.5
v -3.5 6 2.5
v -3.5 8 2.5
v 1.5 0 2.5
v 1.5 1 2.5
v 2.5 1 2.5
v 2.5 2 2.5
v 2.5 4 2.5
v 4.5 0 2.5
v 4.5 2 2.5
v 4.5 8 2.5
v -12.5 7 1.5
v -12.5 8 1.5
v -12.5 9 1.5
v -11.5 8 1.5
v -11.5 9 1.5
v -9.5 7 1.5
v -9.5 8 1.5
v -9.5 9 1.5
v -12.5 6 0.5
v -12.5 7 0.5
v -9.5 6 0.5
v -9.5 7 0.5
v 4.5 6 0.5
v 4.5 7 0.5
v 4.5 8 0.5
v 5.5 5 0.5
v 5.5 6 0.5
v 6.5 4 0.5
v 6.5 5 0.5
v 6.5 6 0.5
v 6.5 7 0.5
v 6.5 8 0.5
v 7.5 5 0.5
v 7.5 6 0.5
v 7.5 7 0.5
v 8.5 4 0.5
v 8.5 5 0.5
v 8.5 6 0.5
v 8.5 7 0.5
v 10.5 4 0.5
v 10.5 5 0.5
v 10.5 6 0.5
v 10.5 7 0.5
v 11.5 5 0.5
v 11.5 6 0.5
v 12.5 4 0.5
v 12.5 5 0.5
v -6.5 0 -0.5
v -6.5 1 -0.5
v -5.5 1 -0.5
v -5.5 2 -0.5
v -5.5 4 -0.5
v -3.5 0 -0.5
v -3.5 2 -0.5
v -3.5 4 -0.5
v 1.5 0 -0.5
v 1.5 1 -0.5
v 2.5 1 -0.5
v 2.5 2 -0.5
v 2.5 4 -0.5
v 4.5 0 -0.5
v 4.5 2 -0.5
v 4.5 4 -0.5
v -6.5 12 -1.5
v -6.5 13 -1.5
v -6.5 14 -1.5
v -5.5 14 -1.5
v -5.5 15 -1.5
v -4.5 12 -1.5
v -4.5 13 -1.5
v -4.5 15 -1.5
v -6.5 12 1.5
v -6.5 13 1.5
v -6.5 14 1.5
v -5.5 14 1.5
v -5.5 15 1.5
v -4.5 12 1.5
v -4.5 13 1.5
v -4.5 15 1.5
v -6.5 0 0.5
v -6.5 1 0.5
v -5.5 1 0.5
v -5.5 2 0.5
v -5.5 4 0.5
v -3.5 0 0.5
v -3.5 2 0.5
v -3.5 4 0.5
v 1.5 0 0.5
v 1.5 1 0.5
v 2.5 1 0.5
v 2.5 2 0.5
v 2.5 4 0.5
v 4.5 0 0.5
v 4.5 2 0.5
v 4.5 4 0.5
v -12.5 6 -0.5
v -12.5 7 -0.5
v -9.5 6 -0.5
v -9.5 7 -0.5
v 4.5 6 -0.5
v 4.5 7 -0.5
v 4.5 8 -0.5
v 5.5 5 -0.5
v 5.5 6 -0.5
v 6.5 4 -0.5
v 6.5 5 -0.5
v 6.5 6 -0.5
v 6.5 7 -0.5
v 6.5 8 -0.5
v 7.5 5 -0.5
v 7.5 6 -0.5
v 7.5 7 -0.5
v 8.5 4 -0.5
v 8.5 5 -0.5
v 8.5 6 -0.5
v 8.5 7 -0.5
v 10.5 4 -0.5
v 10.5 5 -0.5
v 10.5 6 -0.5
v 10.5 7 -0.5
v 11.5 5 -0.5
v 11.5 6 -0.5
v 12.5 4 -0.5
v 12.5 5 -0.5
v -12.5 7 -1.5
v -12.5 8 -1.5
v -12.5 9 -1.5
v -11.5 8 -1.5
v -11.5 9 -1.5
v -9.5 7 -1.5
v -9.5 8 -1.5
v -9.5 9 -1.5
v -6.5 0 -2.5
v -6.5 1 -2.5
v -5.5 1 -2.5
v -5.5 2 -2.5
v -5.5 6 -2.5
v -5.5 14 -2.5
v -5.5 15 -2.5
v -4.5 14 -2.5
v -4.5 15 -2.5
v -3.5 0 -2.5
v -3.5 2 -2.5
v -3.5 4 -2.5
v -3.5 6 -2.5
v -3.5 8 -2.5
v 1.5 0 -2.5
v 1.5 1 -2.5
v 2.5 1 -2.5
v 2.5 2 -2.5
v 2.5 4 -2.5
v 4.5 0 -2.5
v 4.5 2 -2.5
v 4.5 8 -2.5
v -9.5 6 -3.5
v -9.5 7 -3.5
v -9.5 12 -3.5
v -8.5 7 -3.5
v -8.5 8 -3.5
v -7.5 6 -3.5
v -7.5 8 -3.5
v -6.5 11 -3.5
v -6.5 12 -3.5
v -6.5 13 -3.5
v -6.5 14 -3.5
v -5.5 10 -3.5
v -5.5 11 -3.5
v -4.5 10 -3.5
v -4.5 11 -3.5
v -4.5 12 -3.5
v -4.5 13 -3.5
v -4.5 14 -3.5
v -3.5 6 -3.5
v -3.5 12 -3.5
v -6.5 11 -4.5
v -6.5 12 -4.5
v -5.5 10 -4.5
v -5.5 11 -4.5
v -4.5 10 -4.5
v -4.5 11 -4.5
v -4.5 12 -4.5
v -6.5 0 2.5
v -3.5 0 2.5
v 1.5 0 2.5
v 4.5 0 2.5
v -6.5 0 0.5
v -3.5 0 0.5
v 1.5 0 0.5
v 4.5 0 0.5
v -6.5 0 -0.5
v -3.5 0 -0.5
v 1.5 0 -0.5
v 4.5 0 -0.5
v -6.5 0 -2.5
v -3.5 0 -2.5
v 1.5 0 -2.5
v 4.5 0 -2.5
v -3.5 4 2.5
v 2.5 4 2.5
v -5.5 4 0.5
v -3.5 4 0.5
v 2.5 4 0.5
v 4.5 4 0.5
v 6.5 4 0.5
v 8.5 4 0.5
v 10.5 4 0.5
v 12.5 4 0.5
v -5.5 4 -0.5
v -3.5 4 -0.5
v 2.5 4 -0.5
v 4.5 4 -0.5
v 6.5 4 -0.5
v 8.5 4 -0.5
v 10.5 4 -0.5
v 12.5 4 -0.5
v -3.5 4 -2.5
v 2.5 4 -2.5
v 5.5 5 0.5
v 6.5 5 0.5
v 8.5 5 0.5
v 10.5 5 0.5
v 5.5 5 -0.5
v 6.5 5 -0.5
v 8.5 5 -0.5
v 10.5 5 -0.5
v -9.5 6 3.5
v -7.5 6 3.5
v -3.5 6 3.5
v -8.5 6 2.5
v -7.5 6 2.5
v -5.5 6 2.5
v -3.5 6 2.5
v -12.5 6 0.5
v -9.5 6 0.5
v -8.5 6 0.5
v 4.5 6 0.5
v 5.5 6 0.5
v -12.5 6 -0.5
v -9.5 6 -0.5
v -8.5 6 -0.5
v 4.5 6 -0.5
v 5.5 6 -0.5
v -8.5 6 -2.5
v -7.5 6 -2.5
v -5.5 6 -2.5
v -3.5 6 -2.5
v -9.5 6 -3.5
v -7.5 6 -3.5
v -3.5 6 -3.5
v -12.5 7 1.5
v -9.5 7 1.5
v -12.5 7 0.5
v -9.5 7 0.5
v -12.5 7 -0.5
v -9.5 7 -0.5
v -12.5 7 -1.5
v -9.5 7 -1.5
v -5.5 10 4.5
v -4.5 10 4.5
v -5.5 10 3.5
v -4.5 10 3.5
v -5.5 10 -3.5
v -4.5 10 -3.5
v -5.5 10 -4.5
v -4.5 10 -4.5
v -6.5 11 4.5
v -5.5 11 4.5
v -6.5 11 3.5
v -5.5 11 3.5
v -6.5 11 -3.5
v -5.5 11 -3.5
v -6.5 11 -4.5
v -5.5 11 -4.5
v -6.5 1 2.5
v -5.5 1 2.5
v 1.5 1 2.5
v 2.5 1 2.5
v -6.5 1 0.5
v -5.5 1 0.5
v 1.5 1 0.5
v 2.5 1 0.5
v -6.5 1 -0.5
v -5.5 1 -0.5
v 1.5 1 -0.5
v 2.5 1 -0.5
v -6.5 1 -2.5
v -5.5 1 -2.5
v 1.5 1 -2.5
v 2.5 1 -2.5
v 11.5 5 0.5
v 12.5 5 0.5
v 11.5 5 -0.5
v 12.5 5 -0.5
v 7.5 6 0.5
v 8.5 6 0.5
v 10.5 6 0.5
v 11.5 6 0.5
v 7.5 6 -0.5
v 8.5 6 -0.5
v 10.5 6 -0.5
v 11.5 6 -0.5
v 6.5 7 0.5
v 7.5 7 0.5
v 8.5 7 0.5
v 10.5 7 0.5
v 6.5 7 -0.5
v 7.5 7 -0.5
v 8.5 7 -0.5
v 10.5 7 -0.5
v -3.5 8 2.5
v 4.5 8 2.5
v 4.5 8 0.5
v 6.5 8 0.5
v 4.5 8 -0.5
v 6.5 8 -0.5
v -3.5 8 -2.5
v 4.5 8 -2.5
v -12.5 9 1.5
v -11.5 9 1.5
v -9.5 9 1.5
v -9.5 9 0.5
v -9.5 9 -0.5
v -12.5 9 -1.5
v -11.5 9 -1.5
v -9.5 9 -1.5
v -6.5 12 4.5
v -4.5 12 4.5
v -9.5 12 3.5
v -6.5 12 3.5
v -4.5 12 3.5
v -3.5 12 3.5
v -6.5 12 1.5
v -4.5 12 1.5
v -6.5 12 -1.5
v -4.5 12 -1.5
v -9.5 12 -3.5
v -6.5 12 -3.5
v -4.5 12 -3.5
v -3.5 12 -3.5
v -6.5 12 -4.5
v -4.5 12 -4.5
v -6.5 14 3.5
v -4.5 14 3.5
v -5.5 14 2.5
v -4.5 14 2.5
v -6.5 14 1.5
v -5.5 14 1.5
v -6.5 14 -1.5
v -5.5 14 -1.5
v -5.5 14 -2.5
v -4.5 14 -2.5
v -6.5 14 -3.5
v -4.5 14 -3.5
v -5.5 15 2.5
v -4.5 15 2.5
v -5.5 15 1.5
v -4.5 15 1.5
v -5.5 15 -1.5
v -4.5 15 -1.5
v -5.5 15 -2.5
v -4.5 15 -2.5

# faces
f 4/3/1 2/3/1 1/3/1
f 5/3/1 2/3/1 4/3/1
f 7/3/1 4/3/1 3/3/1
f 7/3/1 6/3/1 5/3/1
f 7/3/1 5/3/1 4/3/1
f 8/3/1 6/3/1 7/3/1
f 9/1/1 8/1/1 7/1/1
f 10/1/1 8/1/1 9/1/1
f 15/3/1 12/3/1 11/3/1
f 16/3/1 12/3/1 15/3/1
f 17/3/1 12/3/1 16/3/1
f 18/3/1 14/3/1 13/3/1
f 19/3/1 14/3/1 18/3/1
f 20/3/1 14/3/1 19/3/1
f 21/3/1 14/3/1 20/3/1
f 22/2/1 16/2/1 15/2/1
f 23/3/1 20/3/1 19/3/1
f 24/2/1 21/2/1 20/2/1
f 24/3/1 20/3/1 23/3/1
f 25/2/1 22/2/1 15/2/1
f 26/2/1 22/2/1 25/2/1
f 29/2/1 24/2/1 23/2/1
f 30/2/1 21/2/1 24/2/1
f 30/2/1 24/2/1 29/2/1
f 31/4/1 26/4/1 25/4/1
f 31/1/1 27/1/1 26/1/1
f 32/2/1 28/2/1 27/2/1
f 32/1/1 27/1/1 31/1/1
f 33/1/1 29/1/1 28/1/1
f 33/2/1 28/2/1 32/2/1
f 34/4/1 30/4/1 29/4/1
f 34/1/1 29/1/1 33/1/1
f 35/4/1 32/4/1 31/4/1
f 35/4/1 31/4/1 25/4/1
f 35/2/1 25/2/1 15/2/1
f 36/2/1 33/2/1 32/2/1
f 36/4/1 32/4/1 35/4/1
f 37/4/1 34/4/1 33/4/1
f 37/2/1 33/2/1 36/2/1
f 38/4/1 30/4/1 34/4/1
f 38/4/1 34/4/1 37/4/1
f 38/2/1 21/2/1 30/2/1
f 39/2/1 37/2/1 36/2/1
f 39/2/1 36/2/1 35/2/1
f 39/2/1 38/2/1 37/2/1
f 39/2/1 35/2/1 15/2/1
f 40/2/1 21/2/1 38/2/1
f 40/2/1 38/2/1 39/2/1
f 45/1/1 42/1/1 41/1/1
f 46/1/1 42/1/1 45/1/1
f 47/1/1 44/1/1 43/1/1
f 48/1/1 44/1/1 47/1/1
f 53/2/1 50/2/1 49/2/1
f 54/2/1 50/2/1 53/2/1
f 57/2/1 52/2/1 51/2/1
f 58/2/1 52/2/1 57/2/1
f 59/2/1 55/2/1 54/2/1
f 60/2/1 55/2/1 59/2/1
f 61/2/1 57/2/1 56/2/1
f 62/2/1 57/2/1 61/2/1
f 63/1/1 60/1/1 59/1/1
f 64/1/1 60/1/1 63/1/1
f 65/1/1 62/1/1 61/1/1
f 66/1/1 62/1/1 65/1/1
f 71/1/1 68/1/1 67/1/1
f 72/1/1 68/1/1 71/1/1
f 73/1/1 70/1/1 69/1/1
f 74/1/1 70/1/1 73/1/1
f 75/2/1 72/2/1 71/2/1
f 76/2/1 74/2/1 73/2/1
f 77/2/1 75/2/1 71/2/1
f 77/2/1 76/2/1 75/2/1
f 78/2/1 74/2/1 76/2/1
f 78/2/1 76/2/1 77/2/1
f 83/3/1 80/3/1 79/3/1
f 84/3/1 80/3/1 83/3/1
f 85/3/1 82/3/1 81/3/1
f 86/3/1 82/3/1 85/3/1
f 91/1/1 88/1/1 87/1/1
f 92/1/1 88/1/1 91/1/1
f 93/1/1 90/1/1 89/1/1
f 94/1/1 90/1/1 93/1/1
f 99/1/1 96/1/1 95/1/1
f 100/1/1 96/1/1 99/1/1
f 101/1/1 98/1/1 97/1/1
f 102/1/1 98/1/1 101/1/1
f 107/1/1 104/1/1 103/1/1
f 108/1/1 104/1/1 107/1/1
f 109/1/1 106/1/1 105/1/1
f 110/1/1 106/1/1 109/1/1
f 111/2/1 108/2/1 107/2/1
f 112/2/1 108/2/1 111/2/1
f 113/2/1 110/2/1 109/2/1
f 114/2/1 110/2/1 113/2/1
f 117/3/1 116/3/1 115/3/1
f 118/3/1 116/3/1 117/3/1
f 121/3/1 120/3/1 119/3/1
f 122/3/1 120/3/1 121/3/1
f 125/2/1 124/2/1 123/2/1
f 126/2/1 124/2/1 125/2/1
f 129/2/1 128/2/1 127/2/1
f 130/2/1 128/2/1 129/2/1
f 131/3/2 132/3/2 135/3/2
f 135/3/2 132/3/2 136/3/2
f 133/3/2 134/3/2 137/3/2
f 137/3/2 134/3/2 138/3/2
f 135/2/2 136/2/2 139/2/2
f 139/2/2 136/2/2 140/2/2
f 137/2/2 138/2/2 143/2/2
f 143/2/2 138/2/2 144/2/2
f 140/2/2 141/2/2 145/2/2
f 145/2/2 141/2/2 146/2/2
f 142/2/2 143/2/2 147/2/2
f 147/2/2 143/2/2 148/2/2
f 145/1/2 146/1/2 149/1/2
f 149/1/2 146/1/2 150/1/2
f 147/1/2 148/1/2 151/1/2
f 151/1/2 148/1/2 152/1/2
f 150/1/2 146/1/2 153/1/2
f 153/1/2 146/1/2 154/1/2
f 147/1/2 151/1/2 155/1/2
f 155/1/2 151/1/2 156/1/2
f 157/1/2 158/1/2 161/1/2
f 161/1/2 158/1/2 162/1/2
f 159/1/2 160/1/2 163/1/2
f 163/1/2 160/1/2 164/1/2
f 161/2/2 162/2/2 165/2/2
f 165/2/2 162/2/2 166/2/2
f 163/2/2 164/2/2 167/2/2
f 167/2/2 164/2/2 168/2/2
f 169/2/2 170/2/2 173/2/2
f 171/2/2 172/2/2 174/2/2
f 169/2/2 173/2/2 175/2/2
f 173/2/2 174/2/2 175/2/2
f 174/2/2 172/2/2 176/2/2
f 175/2/2 174/2/2 176/2/2
f 177/1/2 178/1/2 181/1/2
f 181/1/2 178/1/2 182/1/2
f 179/1/2 180/1/2 183/1/2
f 183/1/2 180/1/2 184/1/2
f 181/2/2 182/2/2 185/2/2
f 183/2/2 184/2/2 186/2/2
f 181/2/2 185/2/2 187/2/2
f 185/2/2 186/2/2 187/2/2
f 186/2/2 184/2/2 188/2/2
f 187/2/2 186/2/2 188/2/2
f 181/2/2 187/2/2 189/2/2
f 188/2/2 184/2/2 190/2/2
f 181/2/2 189/2/2 191/2/2
f 191/2/2 189/2/2 192/2/2
f 190/2/2 184/2/2 193/2/2
f 193/2/2 184/2/2 194/2/2
f 195/2/2 196/2/2 197/2/2
f 197/2/2 196/2/2 198/2/2
f 199/2/2 200/2/2 201/2/2
f 201/2/2 200/2/2 202/2/2
f 203/3/2 204/3/2 205/3/2
f 205/3/2 204/3/2 206/3/2
f 207/2/2 208/2/2 209/2/2
f 209/2/2 208/2/2 210/2/2
f 211/2/2 212/2/2 213/2/2
f 213/2/2 212/2/2 214/2/2
f 215/2/2 216/2/2 217/2/2
f 217/2/2 216/2/2 218/2/2
f 222/2/3 220/2/3 219/2/3
f 223/3/3 222/3/3 221/3/3
f 224/2/3 220/2/3 222/2/3
f 224/3/3 222/3/3 223/3/3
f 225/2/3 220/2/3 224/2/3
f 229/3/3 227/3/3 226/3/3
f 229/2/3 228/2/3 227/2/3
f 230/2/3 228/2/3 229/2/3
f 231/3/3 229/3/3 226/3/3
f 231/3/3 230/3/3 229/3/3
f 232/2/3 228/2/3 230/2/3
f 232/3/3 230/3/3 231/3/3
f 233/2/3 232/2/3 231/2/3
f 233/2/3 228/2/3 232/2/3
f 234/2/3 228/2/3 233/2/3
f 237/2/3 233/2/3 231/2/3
f 238/2/3 233/2/3 237/2/3
f 239/2/3 237/2/3 231/2/3
f 241/2/3 235/2/3 234/2/3
f 242/1/3 236/1/3 235/1/3
f 242/2/3 235/2/3 241/2/3
f 243/1/3 236/1/3 242/1/3
f 244/2/3 241/2/3 240/2/3
f 244/2/3 240/2/3 239/2/3
f 244/2/3 239/2/3 231/2/3
f 245/2/3 241/2/3 244/2/3
f 248/1/3 247/1/3 246/1/3
f 253/1/3 252/1/3 251/1/3
f 254/1/3 252/1/3 253/1/3
f 255/1/3 248/1/3 246/1/3
f 255/1/3 249/1/3 248/1/3
f 256/2/3 250/2/3 249/2/3
f 256/1/3 249/1/3 255/1/3
f 257/2/3 250/2/3 256/2/3
f 258/2/3 250/2/3 257/2/3
f 262/1/3 261/1/3 260/1/3
f 264/2/3 259/2/3 258/2/3
f 264/2/3 258/2/3 257/2/3
f 265/1/3 263/1/3 262/1/3
f 265/1/3 262/1/3 260/1/3
f 266/2/3 264/2/3 263/2/3
f 266/1/3 263/1/3 265/1/3
f 267/2/3 259/2/3 264/2/3
f 267/2/3 264/2/3 266/2/3
f 271/3/3 269/3/3 268/3/3
f 271/1/3 270/1/3 269/1/3
f 272/1/3 270/1/3 271/1/3
f 273/3/3 271/3/3 268/3/3
f 274/2/3 272/2/3 271/2/3
f 274/3/3 271/3/3 273/3/3
f 275/2/3 272/2/3 274/2/3
f 278/3/3 277/3/3 276/3/3
f 279/3/3 277/3/3 278/3/3
f 284/3/3 281/3/3 280/3/3
f 286/3/3 284/3/3 283/3/3
f 287/3/3 281/3/3 284/3/3
f 287/3/3 284/3/3 286/3/3
f 288/2/3 282/2/3 281/2/3
f 288/3/3 281/3/3 287/3/3
f 289/2/3 282/2/3 288/2/3
f 290/3/3 287/3/3 286/3/3
f 290/3/3 286/3/3 285/3/3
f 291/2/3 288/2/3 287/2/3
f 291/3/3 287/3/3 290/3/3
f 292/2/3 288/2/3 291/2/3
f 293/3/3 290/3/3 285/3/3
f 294/2/3 291/2/3 290/2/3
f 294/3/3 290/3/3 293/3/3
f 295/2/3 291/2/3 294/2/3
f 298/3/3 295/3/3 294/3/3
f 299/2/3 296/2/3 295/2/3
f 299/3/3 295/3/3 298/3/3
f 300/2/3 296/2/3 299/2/3
f 301/2/3 298/2/3 297/2/3
f 301/2/3 299/2/3 298/2/3
f 302/2/3 299/2/3 301/2/3
f 303/2/3 301/2/3 297/2/3
f 304/2/3 301/2/3 303/2/3
f 307/1/3 306/1/3 305/1/3
f 310/1/3 307/1/3 305/1/3
f 310/1/3 308/1/3 307/1/3
f 311/2/3 309/2/3 308/2/3
f 311/1/3 308/1/3 310/1/3
f 312/2/3 309/2/3 311/2/3
f 315/1/3 314/1/3 313/1/3
f 318/1/3 315/1/3 313/1/3
f 318/1/3 316/1/3 315/1/3
f 319/2/3 317/2/3 316/2/3
f 319/1/3 316/1/3 318/1/3
f 320/2/3 317/2/3 319/2/3
f 324/1/3 323/1/3 322/1/3
f 326/2/3 322/2/3 321/2/3
f 327/1/3 325/1/3 324/1/3
f 327/2/3 322/2/3 326/2/3
f 327/1/3 324/1/3 322/1/3
f 328/1/3 325/1/3 327/1/3
f 330/1/4 331/1/4 332/1/4
f 329/2/4 330/2/4 334/2/4
f 332/1/4 333/1/4 335/1/4
f 334/2/4 330/2/4 335/2/4
f 330/1/4 332/1/4 335/1/4
f 335/1/4 333/1/4 336/1/4
f 337/1/4 338/1/4 339/1/4
f 337/1/4 339/1/4 342/1/4
f 339/1/4 340/1/4 342/1/4
f 340/2/4 341/2/4 343/2/4
f 342/1/4 340/1/4 343/1/4
f 343/2/4 341/2/4 344/2/4
f 345/1/4 346/1/4 347/1/4
f 345/1/4 347/1/4 350/1/4
f 347/1/4 348/1/4 350/1/4
f 348/2/4 349/2/4 351/2/4
f 350/1/4 348/1/4 351/1/4
f 351/2/4 349/2/4 352/2/4
f 353/3/4 354/3/4 355/3/4
f 355/3/4 354/3/4 356/3/4
f 357/3/4 358/3/4 361/3/4
f 360/3/4 361/3/4 363/3/4
f 361/3/4 358/3/4 364/3/4
f 363/3/4 361/3/4 364/3/4
f 358/2/4 359/2/4 365/2/4
f 364/3/4 358/3/4 365/3/4
f 365/2/4 359/2/4 366/2/4
f 363/3/4 364/3/4 367/3/4
f 362/3/4 363/3/4 367/3/4
f 364/2/4 365/2/4 368/2/4
f 367/3/4 364/3/4 368/3/4
f 368/2/4 365/2/4 369/2/4
f 362/3/4 367/3/4 370/3/4
f 367/2/4 368/2/4 371/2/4
f 370/3/4 367/3/4 371/3/4
f 371/2/4 368/2/4 372/2/4
f 371/3/4 372/3/4 375/3/4
f 372/2/4 373/2/4 376/2/4
f 375/3/4 372/3/4 376/3/4
f 376/2/4 373/2/4 377/2/4
f 374/2/4 375/2/4 378/2/4
f 375/2/4 376/2/4 378/2/4
f 378/2/4 376/2/4 379/2/4
f 374/2/4 378/2/4 380/2/4
f 380/2/4 378/2/4 381/2/4
f 382/3/4 383/3/4 385/3/4
f 383/1/4 384/1/4 385/1/4
f 385/1/4 384/1/4 386/1/4
f 382/3/4 385/3/4 387/3/4
f 385/2/4 386/2/4 388/2/4
f 387/3/4 385/3/4 388/3/4
f 388/2/4 386/2/4 389/2/4
f 390/1/4 391/1/4 392/1/4
f 395/1/4 396/1/4 397/1/4
f 397/1/4 396/1/4 398/1/4
f 390/1/4 392/1/4 399/1/4
f 392/1/4 393/1/4 399/1/4
f 393/2/4 394/2/4 400/2/4
f 399/1/4 393/1/4 400/1/4
f 400/2/4 394/2/4 401/2/4
f 401/2/4 394/2/4 402/2/4
f 404/1/4 405/1/4 406/1/4
f 402/2/4 403/2/4 408/2/4
f 401/2/4 402/2/4 408/2/4
f 406/1/4 407/1/4 409/1/4
f 404/1/4 406/1/4 409/1/4
f 407/2/4 408/2/4 410/2/4
f 409/1/4 407/1/4 410/1/4
f 408/2/4 403/2/4 411/2/4
f 410/2/4 408/2/4 411/2/4
f 412/3/4 413/3/4 415/3/4
f 413/2/4 414/2/4 415/2/4
f 415/2/4 414/2/4 416/2/4
f 412/3/4 415/3/4 417/3/4
f 415/3/4 416/3/4 417/3/4
f 416/2/4 414/2/4 418/2/4
f 417/3/4 416/3/4 418/3/4
f 417/2/4 418/2/4 419/2/4
f 418/2/4 414/2/4 419/2/4
f 419/2/4 414/2/4 420/2/4
f 417/2/4 419/2/4 423/2/4
f 423/2/4 419/2/4 424/2/4
f 417/2/4 423/2/4 425/2/4
f 420/2/4 421/2/4 427/2/4
f 421/1/4 422/1/4 428/1/4
f 427/2/4 421/2/4 428/2/4
f 428/1/4 422/1/4 429/1/4
f 426/2/4 427/2/4 430/2/4
f 425/2/4 426/2/4 430/2/4
f 417/2/4 425/2/4 430/2/4
f 430/2/4 427/2/4 431/2/4
f 432/2/4 433/2/4 435/2/4
f 434/3/4 435/3/4 436/3/4
f 435/2/4 433/2/4 437/2/4
f 436/3/4 435/3/4 437/3/4
f 437/2/4 433/2/4 438/2/4
f 443/1/5 440/1/5 439/1/5
f 444/1/5 440/1/5 443/1/5
f 445/1/5 442/1/5 441/1/5
f 446/1/5 442/1/5 445/1/5
f 451/1/5 448/1/5 447/1/5
f 452/1/5 448/1/5 451/1/5
f 453/1/5 450/1/5 449/1/5
f 454/1/5 450/1/5 453/1/5
f 458/2/5 456/2/5 455/2/5
f 459/2/5 456/2/5 458/2/5
f 465/2/5 458/2/5 457/2/5
f 465/2/5 459/2/5 458/2/5
f 465/2/5 460/2/5 459/2/5
f 466/2/5 460/2/5 465/2/5
f 467/2/5 460/2/5 466/2/5
f 468/2/5 460/2/5 467/2/5
f 469/3/5 462/3/5 461/3/5
f 470/3/5 462/3/5 469/3/5
f 471/2/5 464/2/5 463/2/5
f 472/2/5 464/2/5 471/2/5
f 473/2/5 467/2/5 466/2/5
f 474/2/5 467/2/5 473/2/5
f 479/3/5 476/3/5 475/3/5
f 480/3/5 476/3/5 479/3/5
f 481/3/5 478/3/5 477/3/5
f 482/3/5 478/3/5 481/3/5
f 486/3/5 484/3/5 483/3/5
f 487/2/5 485/2/5 484/2/5
f 487/3/5 484/3/5 486/3/5
f 488/2/5 485/2/5 487/2/5
f 489/2/5 485/2/5 488/2/5
f 491/3/5 486/3/5 483/3/5
f 492/2/5 487/2/5 486/2/5
f 492/2/5 488/2/5 487/2/5
f 492/3/5 486/3/5 491/3/5
f 495/3/5 491/3/5 490/3/5
f 496/2/5 492/2/5 491/2/5
f 496/3/5 491/3/5 495/3/5
f 497/2/5 488/2/5 492/2/5
f 497/2/5 492/2/5 496/2/5
f 498/3/5 494/3/5 493/3/5
f 499/3/5 494/3/5 498/3/5
f 500/2/5 488/2/5 497/2/5
f 500/3/5 497/3/5 496/3/5
f 501/2/5 488/2/5 500/2/5
f 502/2/5 488/2/5 501/2/5
f 504/3/5 500/3/5 496/3/5
f 504/3/5 501/3/5 500/3/5
f 505/2/5 503/2/5 502/2/5
f 505/3/5 501/3/5 504/3/5
f 505/2/5 502/2/5 501/2/5
f 506/2/5 503/2/5 505/2/5
f 509/3/5 508/3/5 507/3/5
f 510/3/5 508/3/5 509/3/5
f 513/3/5 512/3/5 511/3/5
f 514/3/5 512/3/5 513/3/5
f 517/3/5 516/3/5 515/3/5
f 518/3/5 516/3/5 517/3/5
f 521/3/5 520/3/5 519/3/5
f 522/3/5 520/3/5 521/3/5
f 525/2/5 524/2/5 523/2/5
f 526/2/5 524/2/5 525/2/5
f 529/2/5 528/2/5 527/2/5
f 530/2/5 528/2/5 529/2/5
f 531/1/6 532/1/6 535/1/6
f 535/1/6 532/1/6 536/1/6
f 533/1/6 534/1/6 537/1/6
f 537/1/6 534/1/6 538/1/6
f 539/1/6 540/1/6 543/1/6
f 543/1/6 540/1/6 544/1/6
f 541/1/6 542/1/6 545/1/6
f 545/1/6 542/1/6 546/1/6
f 547/2/6 548/2/6 549/2/6
f 549/2/6 548/2/6 550/2/6
f 551/2/6 552/2/6 555/2/6
f 555/2/6 552/2/6 556/2/6
f 553/2/6 554/2/6 557/2/6
f 557/2/6 554/2/6 558/2/6
f 559/2/6 560/2/6 563/2/6
f 563/2/6 560/2/6 564/2/6
f 561/2/6 562/2/6 565/2/6
f 565/2/6 562/2/6 566/2/6
f 567/2/6 568/2/6 569/2/6
f 567/2/6 569/2/6 571/2/6
f 569/2/6 570/2/6 571/2/6
f 571/2/6 570/2/6 572/2/6
f 567/2/6 571/2/6 573/2/6
f 573/2/6 571/2/6 574/2/6
f 576/2/6 577/2/6 578/2/6
f 576/2/6 578/2/6 579/2/6
f 575/1/6 576/1/6 580/1/6
f 576/2/6 579/2/6 581/2/6
f 580/1/6 576/1/6 581/1/6
f 581/2/6 579/2/6 582/2/6
f 583/2/6 584/2/6 586/2/6
f 586/2/6 584/2/6 587/2/6
f 585/2/6 586/2/6 589/2/6
f 587/2/6 588/2/6 590/2/6
f 585/2/6 589/2/6 591/2/6
f 589/2/6 590/2/6 591/2/6
f 590/2/6 588/2/6 592/2/6
f 591/2/6 590/2/6 592/2/6
f 585/2/6 591/2/6 593/2/6
f 593/2/6 591/2/6 594/2/6
f 592/2/6 588/2/6 595/2/6
f 595/2/6 588/2/6 596/2/6
f 594/2/6 595/2/6 597/2/6
f 597/2/6 595/2/6 598/2/6
f 599/1/6 600/1/6 601/1/6
f 601/1/6 600/1/6 602/1/6
f 599/1/6 601/1/6 603/1/6
f 603/1/6 601/1/6 604/1/6
f 605/1/6 606/1/6 607/1/6
f 605/1/6 607/1/6 609/1/6
f 607/1/6 608/1/6 609/1/6
f 609/1/6 608/1/6 610/1/6
f 611/1/6 612/1/6 613/1/6
f 613/1/6 612/1/6 614/1/6
f 615/1/6 616/1/6 617/1/6
f 617/1/6 616/1/6 618/1/6
