# MagicaVoxel @ Ephtracy

# material
mtllib Art_NOroom_024Tile.mtl
usemtl palette

# normals
vn -1 0 0
vn 1 0 0
vn 0 0 1
vn 0 0 -1
vn 0 -1 0
vn 0 1 0

# texcoords
vt 0.283203 0.5
vt 0.314453 0.5

# verts
v -37 72 4
v -37 72 -10
v -37 81 4
v -37 81 -10
v -36 72 4
v -36 72 -10
v -36 73 2
v -36 73 -2
v -36 73 -6
v -36 73 -7
v -36 74 1
v -36 74 -2
v -36 75 2
v -36 75 1
v -36 75 -0
v -36 75 -3
v -36 75 -6
v -36 75 -7
v -36 75 -8
v -36 76 1
v -36 76 -0
v -36 76 -1
v -36 76 -4
v -36 76 -6
v -36 76 -7
v -36 76 -8
v -36 77 -0
v -36 77 -1
v -36 77 -2
v -36 77 -3
v -36 77 -4
v -36 77 -5
v -36 78 2
v -36 78 1
v -36 78 -4
v -36 78 -5
v -36 78 -6
v -36 79 2
v -36 79 1
v -36 79 -1
v -36 79 -2
v -36 79 -5
v -36 79 -6
v -36 80 1
v -36 80 -1
v -36 80 -6
v -36 80 -7
v -36 81 4
v -36 81 -10
v -35 73 2
v -35 73 -2
v -35 73 -6
v -35 73 -7
v -35 74 1
v -35 74 -2
v -35 75 2
v -35 75 1
v -35 75 -0
v -35 75 -3
v -35 75 -6
v -35 75 -7
v -35 75 -8
v -35 76 1
v -35 76 -0
v -35 76 -1
v -35 76 -4
v -35 76 -6
v -35 76 -7
v -35 76 -8
v -35 77 -0
v -35 77 -1
v -35 77 -2
v -35 77 -3
v -35 77 -4
v -35 77 -5
v -35 78 2
v -35 78 1
v -35 78 -4
v -35 78 -5
v -35 78 -6
v -35 79 2
v -35 79 1
v -35 79 -1
v -35 79 -2
v -35 79 -5
v -35 79 -6
v -35 80 1
v -35 80 -1
v -35 80 -6
v -35 80 -7
v -37 72 4
v -37 81 4
v -36 72 4
v -36 81 4
v -36 73 2
v -36 75 2
v -36 78 2
v -36 79 2
v -35 73 2
v -35 75 2
v -35 78 2
v -35 79 2
v -36 75 1
v -36 76 1
v -36 79 1
v -36 80 1
v -35 75 1
v -35 76 1
v -35 79 1
v -35 80 1
v -36 76 -0
v -36 77 -0
v -35 76 -0
v -35 77 -0
v -36 77 -1
v -36 79 -1
v -35 77 -1
v -35 79 -1
v -36 75 -3
v -36 77 -3
v -35 75 -3
v -35 77 -3
v -36 77 -4
v -36 78 -4
v -35 77 -4
v -35 78 -4
v -36 78 -5
v -36 79 -5
v -35 78 -5
v -35 79 -5
v -36 73 -6
v -36 75 -6
v -36 76 -6
v -36 78 -6
v -36 79 -6
v -36 80 -6
v -35 73 -6
v -35 75 -6
v -35 76 -6
v -35 78 -6
v -35 79 -6
v -35 80 -6
v -36 74 1
v -36 75 1
v -36 78 1
v -36 79 1
v -35 74 1
v -35 75 1
v -35 78 1
v -35 79 1
v -36 75 -0
v -36 76 -0
v -35 75 -0
v -35 76 -0
v -36 76 -1
v -36 77 -1
v -36 79 -1
v -36 80 -1
v -35 76 -1
v -35 77 -1
v -35 79 -1
v -35 80 -1
v -36 73 -2
v -36 74 -2
v -36 77 -2
v -36 79 -2
v -35 73 -2
v -35 74 -2
v -35 77 -2
v -35 79 -2
v -36 76 -4
v -36 77 -4
v -35 76 -4
v -35 77 -4
v -36 77 -5
v -36 78 -5
v -35 77 -5
v -35 78 -5
v -36 73 -7
v -36 75 -7
v -36 76 -7
v -36 80 -7
v -35 73 -7
v -35 75 -7
v -35 76 -7
v -35 80 -7
v -36 75 -8
v -36 76 -8
v -35 75 -8
v -35 76 -8
v -37 72 -10
v -37 81 -10
v -36 72 -10
v -36 81 -10
v -37 72 4
v -36 72 4
v -37 72 -10
v -36 72 -10
v -36 73 2
v -35 73 2
v -36 73 -2
v -35 73 -2
v -36 73 -6
v -35 73 -6
v -36 73 -7
v -35 73 -7
v -36 75 1
v -35 75 1
v -36 75 -0
v -35 75 -0
v -36 75 -3
v -35 75 -3
v -36 75 -6
v -35 75 -6
v -36 75 -7
v -35 75 -7
v -36 75 -8
v -35 75 -8
v -36 76 -0
v -35 76 -0
v -36 76 -1
v -35 76 -1
v -36 77 -1
v -35 77 -1
v -36 77 -2
v -35 77 -2
v -36 77 -4
v -35 77 -4
v -36 77 -5
v -35 77 -5
v -36 78 2
v -35 78 2
v -36 78 1
v -35 78 1
v -36 78 -5
v -35 78 -5
v -36 78 -6
v -35 78 -6
v -36 79 1
v -35 79 1
v -36 79 -1
v -35 79 -1
v -36 74 1
v -35 74 1
v -36 74 -2
v -35 74 -2
v -36 75 2
v -35 75 2
v -36 75 1
v -35 75 1
v -36 76 1
v -35 76 1
v -36 76 -0
v -35 76 -0
v -36 76 -4
v -35 76 -4
v -36 76 -6
v -35 76 -6
v -36 76 -7
v -35 76 -7
v -36 76 -8
v -35 76 -8
v -36 77 -0
v -35 77 -0
v -36 77 -1
v -35 77 -1
v -36 77 -3
v -35 77 -3
v -36 77 -4
v -35 77 -4
v -36 78 -4
v -35 78 -4
v -36 78 -5
v -35 78 -5
v -36 79 2
v -35 79 2
v -36 79 1
v -35 79 1
v -36 79 -1
v -35 79 -1
v -36 79 -2
v -35 79 -2
v -36 79 -5
v -35 79 -5
v -36 79 -6
v -35 79 -6
v -36 80 1
v -35 80 1
v -36 80 -1
v -35 80 -1
v -36 80 -6
v -35 80 -6
v -36 80 -7
v -35 80 -7
v -37 81 4
v -36 81 4
v -37 81 -10
v -36 81 -10

# faces
f 3/2/1 2/2/1 1/2/1
f 4/2/1 2/2/1 3/2/1
f 5/2/2 6/2/2 7/2/2
f 7/2/2 6/2/2 8/2/2
f 8/2/2 6/2/2 9/2/2
f 9/2/2 6/2/2 10/2/2
f 8/2/2 9/2/2 12/2/2
f 5/2/2 7/2/2 13/2/2
f 11/2/2 12/2/2 14/2/2
f 14/2/2 12/2/2 15/2/2
f 12/2/2 9/2/2 16/2/2
f 15/2/2 12/2/2 16/2/2
f 16/2/2 9/2/2 17/2/2
f 10/2/2 6/2/2 18/2/2
f 18/2/2 6/2/2 19/2/2
f 13/2/2 14/2/2 20/2/2
f 15/2/2 16/2/2 21/2/2
f 21/2/2 16/2/2 22/2/2
f 19/2/2 6/2/2 26/2/2
f 20/2/2 21/2/2 27/2/2
f 22/2/2 16/2/2 28/2/2
f 28/2/2 16/2/2 29/2/2
f 29/2/2 16/2/2 30/2/2
f 23/2/2 24/2/2 31/2/2
f 31/2/2 24/2/2 32/2/2
f 5/2/2 13/2/2 33/2/2
f 13/2/2 20/2/2 33/2/2
f 20/2/2 27/2/2 33/2/2
f 27/2/2 28/2/2 33/2/2
f 33/2/2 28/2/2 34/2/2
f 29/2/2 30/2/2 35/2/2
f 30/2/2 31/2/2 35/2/2
f 32/2/2 24/2/2 36/2/2
f 36/2/2 24/2/2 37/2/2
f 5/2/2 33/2/2 38/2/2
f 34/2/2 28/2/2 39/2/2
f 39/2/2 28/2/2 40/2/2
f 29/2/2 35/2/2 41/2/2
f 35/2/2 36/2/2 41/2/2
f 41/2/2 36/2/2 42/2/2
f 38/2/2 39/2/2 44/2/2
f 42/2/2 43/2/2 45/2/2
f 41/2/2 42/2/2 45/2/2
f 40/2/2 41/2/2 45/2/2
f 45/2/2 43/2/2 46/2/2
f 25/2/2 26/2/2 47/2/2
f 38/2/2 44/2/2 48/2/2
f 46/2/2 47/2/2 48/2/2
f 5/2/2 38/2/2 48/2/2
f 45/2/2 46/2/2 48/2/2
f 44/2/2 45/2/2 48/2/2
f 47/2/2 26/2/2 49/2/2
f 48/2/2 47/2/2 49/2/2
f 26/2/2 6/2/2 49/2/2
f 50/1/2 51/1/2 54/1/2
f 54/1/2 51/1/2 55/1/2
f 50/1/2 54/1/2 56/1/2
f 56/1/2 54/1/2 57/1/2
f 52/1/2 53/1/2 60/1/2
f 60/1/2 53/1/2 61/1/2
f 57/1/2 58/1/2 63/1/2
f 63/1/2 58/1/2 64/1/2
f 61/1/2 62/1/2 66/1/2
f 60/1/2 61/1/2 66/1/2
f 59/1/2 60/1/2 66/1/2
f 66/1/2 62/1/2 67/1/2
f 67/1/2 62/1/2 68/1/2
f 68/1/2 62/1/2 69/1/2
f 64/1/2 65/1/2 70/1/2
f 70/1/2 65/1/2 71/1/2
f 59/1/2 66/1/2 73/1/2
f 73/1/2 66/1/2 74/1/2
f 74/1/2 75/1/2 78/1/2
f 78/1/2 75/1/2 79/1/2
f 67/1/2 68/1/2 80/1/2
f 76/1/2 77/1/2 81/1/2
f 81/1/2 77/1/2 82/1/2
f 71/1/2 72/1/2 83/1/2
f 83/1/2 72/1/2 84/1/2
f 79/1/2 80/1/2 85/1/2
f 80/1/2 68/1/2 86/1/2
f 85/1/2 80/1/2 86/1/2
f 82/1/2 83/1/2 87/1/2
f 87/1/2 83/1/2 88/1/2
f 86/1/2 68/1/2 89/1/2
f 89/1/2 68/1/2 90/1/2
f 93/2/3 92/2/3 91/2/3
f 94/2/3 92/2/3 93/2/3
f 99/1/3 96/1/3 95/1/3
f 100/1/3 96/1/3 99/1/3
f 101/1/3 98/1/3 97/1/3
f 102/1/3 98/1/3 101/1/3
f 107/1/3 104/1/3 103/1/3
f 108/1/3 104/1/3 107/1/3
f 109/1/3 106/1/3 105/1/3
f 110/1/3 106/1/3 109/1/3
f 113/1/3 112/1/3 111/1/3
f 114/1/3 112/1/3 113/1/3
f 117/1/3 116/1/3 115/1/3
f 118/1/3 116/1/3 117/1/3
f 121/1/3 120/1/3 119/1/3
f 122/1/3 120/1/3 121/1/3
f 125/1/3 124/1/3 123/1/3
f 126/1/3 124/1/3 125/1/3
f 129/1/3 128/1/3 127/1/3
f 130/1/3 128/1/3 129/1/3
f 137/1/3 132/1/3 131/1/3
f 138/1/3 132/1/3 137/1/3
f 139/1/3 134/1/3 133/1/3
f 140/1/3 134/1/3 139/1/3
f 141/1/3 136/1/3 135/1/3
f 142/1/3 136/1/3 141/1/3
f 143/1/4 144/1/4 147/1/4
f 147/1/4 144/1/4 148/1/4
f 145/1/4 146/1/4 149/1/4
f 149/1/4 146/1/4 150/1/4
f 151/1/4 152/1/4 153/1/4
f 153/1/4 152/1/4 154/1/4
f 155/1/4 156/1/4 159/1/4
f 159/1/4 156/1/4 160/1/4
f 157/1/4 158/1/4 161/1/4
f 161/1/4 158/1/4 162/1/4
f 163/1/4 164/1/4 167/1/4
f 167/1/4 164/1/4 168/1/4
f 165/1/4 166/1/4 169/1/4
f 169/1/4 166/1/4 170/1/4
f 171/1/4 172/1/4 173/1/4
f 173/1/4 172/1/4 174/1/4
f 175/1/4 176/1/4 177/1/4
f 177/1/4 176/1/4 178/1/4
f 179/1/4 180/1/4 183/1/4
f 183/1/4 180/1/4 184/1/4
f 181/1/4 182/1/4 185/1/4
f 185/1/4 182/1/4 186/1/4
f 187/1/4 188/1/4 189/1/4
f 189/1/4 188/1/4 190/1/4
f 191/2/4 192/2/4 193/2/4
f 193/2/4 192/2/4 194/2/4
f 197/2/5 196/2/5 195/2/5
f 198/2/5 196/2/5 197/2/5
f 201/1/5 200/1/5 199/1/5
f 202/1/5 200/1/5 201/1/5
f 205/1/5 204/1/5 203/1/5
f 206/1/5 204/1/5 205/1/5
f 209/1/5 208/1/5 207/1/5
f 210/1/5 208/1/5 209/1/5
f 213/1/5 212/1/5 211/1/5
f 214/1/5 212/1/5 213/1/5
f 217/1/5 216/1/5 215/1/5
f 218/1/5 216/1/5 217/1/5
f 221/1/5 220/1/5 219/1/5
f 222/1/5 220/1/5 221/1/5
f 225/1/5 224/1/5 223/1/5
f 226/1/5 224/1/5 225/1/5
f 229/1/5 228/1/5 227/1/5
f 230/1/5 228/1/5 229/1/5
f 233/1/5 232/1/5 231/1/5
f 234/1/5 232/1/5 233/1/5
f 237/1/5 236/1/5 235/1/5
f 238/1/5 236/1/5 237/1/5
f 241/1/5 240/1/5 239/1/5
f 242/1/5 240/1/5 241/1/5
f 243/1/6 244/1/6 245/1/6
f 245/1/6 244/1/6 246/1/6
f 247/1/6 248/1/6 249/1/6
f 249/1/6 248/1/6 250/1/6
f 251/1/6 252/1/6 253/1/6
f 253/1/6 252/1/6 254/1/6
f 255/1/6 256/1/6 257/1/6
f 257/1/6 256/1/6 258/1/6
f 259/1/6 260/1/6 261/1/6
f 261/1/6 260/1/6 262/1/6
f 263/1/6 264/1/6 265/1/6
f 265/1/6 264/1/6 266/1/6
f 267/1/6 268/1/6 269/1/6
f 269/1/6 268/1/6 270/1/6
f 271/1/6 272/1/6 273/1/6
f 273/1/6 272/1/6 274/1/6
f 275/1/6 276/1/6 277/1/6
f 277/1/6 276/1/6 278/1/6
f 279/1/6 280/1/6 281/1/6
f 281/1/6 280/1/6 282/1/6
f 283/1/6 284/1/6 285/1/6
f 285/1/6 284/1/6 286/1/6
f 287/1/6 288/1/6 289/1/6
f 289/1/6 288/1/6 290/1/6
f 291/1/6 292/1/6 293/1/6
f 293/1/6 292/1/6 294/1/6
f 295/2/6 296/2/6 297/2/6
f 297/2/6 296/2/6 298/2/6
