# MagicaVoxel @ Ephtracy

# material
mtllib Art_NOroom_014Tile.mtl
usemtl palette

# normals
vn -1 0 0
vn 1 0 0
vn 0 0 1
vn 0 0 -1
vn 0 -1 0
vn 0 1 0

# texcoords
vt 0.283203 0.5
vt 0.314453 0.5

# verts
v -37 87 20
v -37 87 7
v -37 96 20
v -37 96 7
v -36 87 20
v -36 87 7
v -36 88 18
v -36 88 15
v -36 88 11
v -36 88 10
v -36 89 18
v -36 89 17
v -36 89 16
v -36 89 15
v -36 90 14
v -36 90 11
v -36 90 10
v -36 90 9
v -36 91 13
v -36 91 11
v -36 91 10
v -36 91 9
v -36 92 14
v -36 92 13
v -36 92 12
v -36 93 18
v -36 93 17
v -36 93 13
v -36 93 12
v -36 93 11
v -36 94 18
v -36 94 17
v -36 94 12
v -36 94 11
v -36 95 17
v -36 95 16
v -36 95 11
v -36 95 10
v -36 96 20
v -36 96 7
v -35 88 18
v -35 88 15
v -35 88 11
v -35 88 10
v -35 89 18
v -35 89 17
v -35 89 16
v -35 89 15
v -35 90 14
v -35 90 11
v -35 90 10
v -35 90 9
v -35 91 13
v -35 91 11
v -35 91 10
v -35 91 9
v -35 92 14
v -35 92 13
v -35 92 12
v -35 93 18
v -35 93 17
v -35 93 13
v -35 93 12
v -35 93 11
v -35 94 18
v -35 94 17
v -35 94 12
v -35 94 11
v -35 95 17
v -35 95 16
v -35 95 11
v -35 95 10
v -37 87 20
v -37 96 20
v -36 87 20
v -36 96 20
v -36 88 18
v -36 89 18
v -36 93 18
v -36 94 18
v -35 88 18
v -35 89 18
v -35 93 18
v -35 94 18
v -36 89 17
v -36 93 17
v -36 94 17
v -36 95 17
v -35 89 17
v -35 93 17
v -35 94 17
v -35 95 17
v -36 90 14
v -36 92 14
v -35 90 14
v -35 92 14
v -36 92 13
v -36 93 13
v -35 92 13
v -35 93 13
v -36 93 12
v -36 94 12
v -35 93 12
v -35 94 12
v -36 88 11
v -36 90 11
v -36 91 11
v -36 93 11
v -36 94 11
v -36 95 11
v -35 88 11
v -35 90 11
v -35 91 11
v -35 93 11
v -35 94 11
v -35 95 11
v -36 89 16
v -36 95 16
v -35 89 16
v -35 95 16
v -36 88 15
v -36 89 15
v -35 88 15
v -35 89 15
v -36 91 13
v -36 92 13
v -35 91 13
v -35 92 13
v -36 92 12
v -36 93 12
v -35 92 12
v -35 93 12
v -36 88 10
v -36 90 10
v -36 91 10
v -36 95 10
v -35 88 10
v -35 90 10
v -35 91 10
v -35 95 10
v -36 90 9
v -36 91 9
v -35 90 9
v -35 91 9
v -37 87 7
v -37 96 7
v -36 87 7
v -36 96 7
v -37 87 20
v -36 87 20
v -37 87 7
v -36 87 7
v -36 88 18
v -35 88 18
v -36 88 15
v -35 88 15
v -36 88 11
v -35 88 11
v -36 88 10
v -35 88 10
v -36 90 14
v -35 90 14
v -36 90 11
v -35 90 11
v -36 90 10
v -35 90 10
v -36 90 9
v -35 90 9
v -36 92 13
v -35 92 13
v -36 92 12
v -35 92 12
v -36 93 18
v -35 93 18
v -36 93 17
v -35 93 17
v -36 93 12
v -35 93 12
v -36 93 11
v -35 93 11
v -36 89 18
v -35 89 18
v -36 89 17
v -35 89 17
v -36 89 16
v -35 89 16
v -36 89 15
v -35 89 15
v -36 91 13
v -35 91 13
v -36 91 11
v -35 91 11
v -36 91 10
v -35 91 10
v -36 91 9
v -35 91 9
v -36 92 14
v -35 92 14
v -36 92 13
v -35 92 13
v -36 93 13
v -35 93 13
v -36 93 12
v -35 93 12
v -36 94 18
v -35 94 18
v -36 94 17
v -35 94 17
v -36 94 12
v -35 94 12
v -36 94 11
v -35 94 11
v -36 95 17
v -35 95 17
v -36 95 16
v -35 95 16
v -36 95 11
v -35 95 11
v -36 95 10
v -35 95 10
v -37 96 20
v -36 96 20
v -37 96 7
v -36 96 7

# faces
f 3/2/1 2/2/1 1/2/1
f 4/2/1 2/2/1 3/2/1
f 5/2/2 6/2/2 7/2/2
f 7/2/2 6/2/2 8/2/2
f 8/2/2 6/2/2 9/2/2
f 9/2/2 6/2/2 10/2/2
f 5/2/2 7/2/2 11/2/2
f 8/2/2 9/2/2 14/2/2
f 14/2/2 9/2/2 15/2/2
f 13/2/2 14/2/2 15/2/2
f 15/2/2 9/2/2 16/2/2
f 10/2/2 6/2/2 17/2/2
f 17/2/2 6/2/2 18/2/2
f 18/2/2 6/2/2 22/2/2
f 13/2/2 15/2/2 23/2/2
f 19/2/2 20/2/2 24/2/2
f 24/2/2 20/2/2 25/2/2
f 11/2/2 12/2/2 26/2/2
f 5/2/2 11/2/2 26/2/2
f 26/2/2 12/2/2 27/2/2
f 23/2/2 24/2/2 28/2/2
f 25/2/2 20/2/2 29/2/2
f 29/2/2 20/2/2 30/2/2
f 5/2/2 26/2/2 31/2/2
f 28/2/2 29/2/2 33/2/2
f 31/2/2 32/2/2 35/2/2
f 13/2/2 23/2/2 36/2/2
f 23/2/2 28/2/2 36/2/2
f 28/2/2 33/2/2 36/2/2
f 33/2/2 34/2/2 36/2/2
f 36/2/2 34/2/2 37/2/2
f 21/2/2 22/2/2 38/2/2
f 31/2/2 35/2/2 39/2/2
f 37/2/2 38/2/2 39/2/2
f 5/2/2 31/2/2 39/2/2
f 36/2/2 37/2/2 39/2/2
f 35/2/2 36/2/2 39/2/2
f 38/2/2 22/2/2 40/2/2
f 39/2/2 38/2/2 40/2/2
f 22/2/2 6/2/2 40/2/2
f 41/1/2 42/1/2 45/1/2
f 45/1/2 42/1/2 46/1/2
f 46/1/2 42/1/2 47/1/2
f 47/1/2 42/1/2 48/1/2
f 43/1/2 44/1/2 50/1/2
f 50/1/2 44/1/2 51/1/2
f 49/1/2 50/1/2 53/1/2
f 51/1/2 52/1/2 53/1/2
f 50/1/2 51/1/2 53/1/2
f 53/1/2 52/1/2 54/1/2
f 54/1/2 52/1/2 55/1/2
f 55/1/2 52/1/2 56/1/2
f 49/1/2 53/1/2 57/1/2
f 57/1/2 53/1/2 58/1/2
f 46/1/2 47/1/2 61/1/2
f 58/1/2 59/1/2 62/1/2
f 62/1/2 59/1/2 63/1/2
f 54/1/2 55/1/2 64/1/2
f 60/1/2 61/1/2 65/1/2
f 61/1/2 47/1/2 66/1/2
f 65/1/2 61/1/2 66/1/2
f 63/1/2 64/1/2 67/1/2
f 64/1/2 55/1/2 68/1/2
f 67/1/2 64/1/2 68/1/2
f 66/1/2 47/1/2 69/1/2
f 69/1/2 47/1/2 70/1/2
f 68/1/2 55/1/2 71/1/2
f 71/1/2 55/1/2 72/1/2
f 75/2/3 74/2/3 73/2/3
f 76/2/3 74/2/3 75/2/3
f 81/1/3 78/1/3 77/1/3
f 82/1/3 78/1/3 81/1/3
f 83/1/3 80/1/3 79/1/3
f 84/1/3 80/1/3 83/1/3
f 89/1/3 86/1/3 85/1/3
f 90/1/3 86/1/3 89/1/3
f 91/1/3 88/1/3 87/1/3
f 92/1/3 88/1/3 91/1/3
f 95/1/3 94/1/3 93/1/3
f 96/1/3 94/1/3 95/1/3
f 99/1/3 98/1/3 97/1/3
f 100/1/3 98/1/3 99/1/3
f 103/1/3 102/1/3 101/1/3
f 104/1/3 102/1/3 103/1/3
f 111/1/3 106/1/3 105/1/3
f 112/1/3 106/1/3 111/1/3
f 113/1/3 108/1/3 107/1/3
f 114/1/3 108/1/3 113/1/3
f 115/1/3 110/1/3 109/1/3
f 116/1/3 110/1/3 115/1/3
f 117/1/4 118/1/4 119/1/4
f 119/1/4 118/1/4 120/1/4
f 121/1/4 122/1/4 123/1/4
f 123/1/4 122/1/4 124/1/4
f 125/1/4 126/1/4 127/1/4
f 127/1/4 126/1/4 128/1/4
f 129/1/4 130/1/4 131/1/4
f 131/1/4 130/1/4 132/1/4
f 133/1/4 134/1/4 137/1/4
f 137/1/4 134/1/4 138/1/4
f 135/1/4 136/1/4 139/1/4
f 139/1/4 136/1/4 140/1/4
f 141/1/4 142/1/4 143/1/4
f 143/1/4 142/1/4 144/1/4
f 145/2/4 146/2/4 147/2/4
f 147/2/4 146/2/4 148/2/4
f 151/2/5 150/2/5 149/2/5
f 152/2/5 150/2/5 151/2/5
f 155/1/5 154/1/5 153/1/5
f 156/1/5 154/1/5 155/1/5
f 159/1/5 158/1/5 157/1/5
f 160/1/5 158/1/5 159/1/5
f 163/1/5 162/1/5 161/1/5
f 164/1/5 162/1/5 163/1/5
f 167/1/5 166/1/5 165/1/5
f 168/1/5 166/1/5 167/1/5
f 171/1/5 170/1/5 169/1/5
f 172/1/5 170/1/5 171/1/5
f 175/1/5 174/1/5 173/1/5
f 176/1/5 174/1/5 175/1/5
f 179/1/5 178/1/5 177/1/5
f 180/1/5 178/1/5 179/1/5
f 181/1/6 182/1/6 183/1/6
f 183/1/6 182/1/6 184/1/6
f 185/1/6 186/1/6 187/1/6
f 187/1/6 186/1/6 188/1/6
f 189/1/6 190/1/6 191/1/6
f 191/1/6 190/1/6 192/1/6
f 193/1/6 194/1/6 195/1/6
f 195/1/6 194/1/6 196/1/6
f 197/1/6 198/1/6 199/1/6
f 199/1/6 198/1/6 200/1/6
f 201/1/6 202/1/6 203/1/6
f 203/1/6 202/1/6 204/1/6
f 205/1/6 206/1/6 207/1/6
f 207/1/6 206/1/6 208/1/6
f 209/1/6 210/1/6 211/1/6
f 211/1/6 210/1/6 212/1/6
f 213/1/6 214/1/6 215/1/6
f 215/1/6 214/1/6 216/1/6
f 217/1/6 218/1/6 219/1/6
f 219/1/6 218/1/6 220/1/6
f 221/2/6 222/2/6 223/2/6
f 223/2/6 222/2/6 224/2/6
