# MagicaVoxel @ Ephtracy

# material
mtllib Art_NOroom_010Tile.mtl
usemtl palette

# normals
vn -1 0 0
vn 1 0 0
vn 0 0 1
vn 0 0 -1
vn 0 -1 0
vn 0 1 0

# texcoords
vt 0.283203 0.5
vt 0.314453 0.5

# verts
v -37 61 46
v -37 61 34
v -37 70 46
v -37 70 34
v -36 61 46
v -36 61 34
v -36 62 44
v -36 62 41
v -36 62 39
v -36 62 37
v -36 63 44
v -36 63 43
v -36 63 42
v -36 63 41
v -36 63 40
v -36 63 39
v -36 63 37
v -36 63 36
v -36 67 44
v -36 67 43
v -36 68 44
v -36 68 43
v -36 68 40
v -36 68 39
v -36 68 37
v -36 68 36
v -36 69 43
v -36 69 42
v -36 69 39
v -36 69 37
v -36 70 46
v -36 70 34
v -35 62 44
v -35 62 41
v -35 62 39
v -35 62 37
v -35 63 44
v -35 63 43
v -35 63 42
v -35 63 41
v -35 63 40
v -35 63 39
v -35 63 37
v -35 63 36
v -35 67 44
v -35 67 43
v -35 68 44
v -35 68 43
v -35 68 40
v -35 68 39
v -35 68 37
v -35 68 36
v -35 69 43
v -35 69 42
v -35 69 39
v -35 69 37
v -37 61 46
v -37 70 46
v -36 61 46
v -36 70 46
v -36 62 44
v -36 63 44
v -36 67 44
v -36 68 44
v -35 62 44
v -35 63 44
v -35 67 44
v -35 68 44
v -36 63 43
v -36 67 43
v -36 68 43
v -36 69 43
v -35 63 43
v -35 67 43
v -35 68 43
v -35 69 43
v -36 63 40
v -36 68 40
v -35 63 40
v -35 68 40
v -36 62 39
v -36 63 39
v -36 68 39
v -36 69 39
v -35 62 39
v -35 63 39
v -35 68 39
v -35 69 39
v -36 63 37
v -36 68 37
v -35 63 37
v -35 68 37
v -36 63 42
v -36 69 42
v -35 63 42
v -35 69 42
v -36 62 41
v -36 63 41
v -35 62 41
v -35 63 41
v -36 63 39
v -36 68 39
v -35 63 39
v -35 68 39
v -36 62 37
v -36 63 37
v -36 68 37
v -36 69 37
v -35 62 37
v -35 63 37
v -35 68 37
v -35 69 37
v -36 63 36
v -36 68 36
v -35 63 36
v -35 68 36
v -37 61 34
v -37 70 34
v -36 61 34
v -36 70 34
v -37 61 46
v -36 61 46
v -37 61 34
v -36 61 34
v -36 62 44
v -35 62 44
v -36 62 41
v -35 62 41
v -36 62 39
v -35 62 39
v -36 62 37
v -35 62 37
v -36 63 40
v -35 63 40
v -36 63 39
v -35 63 39
v -36 63 37
v -35 63 37
v -36 63 36
v -35 63 36
v -36 67 44
v -35 67 44
v -36 67 43
v -35 67 43
v -36 68 39
v -35 68 39
v -36 68 37
v -35 68 37
v -36 63 44
v -35 63 44
v -36 63 43
v -35 63 43
v -36 63 42
v -35 63 42
v -36 63 41
v -35 63 41
v -36 63 39
v -35 63 39
v -36 63 37
v -35 63 37
v -36 68 44
v -35 68 44
v -36 68 43
v -35 68 43
v -36 68 40
v -35 68 40
v -36 68 39
v -35 68 39
v -36 68 37
v -35 68 37
v -36 68 36
v -35 68 36
v -36 69 43
v -35 69 43
v -36 69 42
v -35 69 42
v -36 69 39
v -35 69 39
v -36 69 37
v -35 69 37
v -37 70 46
v -36 70 46
v -37 70 34
v -36 70 34

# faces
f 3/2/1 2/2/1 1/2/1
f 4/2/1 2/2/1 3/2/1
f 5/2/2 6/2/2 7/2/2
f 7/2/2 6/2/2 8/2/2
f 8/2/2 6/2/2 9/2/2
f 9/2/2 6/2/2 10/2/2
f 5/2/2 7/2/2 11/2/2
f 8/2/2 9/2/2 14/2/2
f 14/2/2 9/2/2 15/2/2
f 15/2/2 9/2/2 16/2/2
f 10/2/2 6/2/2 17/2/2
f 17/2/2 6/2/2 18/2/2
f 11/2/2 12/2/2 19/2/2
f 5/2/2 11/2/2 19/2/2
f 19/2/2 12/2/2 20/2/2
f 5/2/2 19/2/2 21/2/2
f 13/2/2 14/2/2 23/2/2
f 14/2/2 15/2/2 23/2/2
f 16/2/2 17/2/2 24/2/2
f 24/2/2 17/2/2 25/2/2
f 18/2/2 6/2/2 26/2/2
f 21/2/2 22/2/2 27/2/2
f 13/2/2 23/2/2 28/2/2
f 23/2/2 24/2/2 28/2/2
f 28/2/2 24/2/2 29/2/2
f 25/2/2 26/2/2 30/2/2
f 28/2/2 29/2/2 31/2/2
f 29/2/2 30/2/2 31/2/2
f 21/2/2 27/2/2 31/2/2
f 5/2/2 21/2/2 31/2/2
f 27/2/2 28/2/2 31/2/2
f 30/2/2 26/2/2 32/2/2
f 31/2/2 30/2/2 32/2/2
f 26/2/2 6/2/2 32/2/2
f 33/1/2 34/1/2 37/1/2
f 37/1/2 34/1/2 38/1/2
f 38/1/2 34/1/2 39/1/2
f 39/1/2 34/1/2 40/1/2
f 35/1/2 36/1/2 42/1/2
f 42/1/2 36/1/2 43/1/2
f 38/1/2 39/1/2 46/1/2
f 45/1/2 46/1/2 47/1/2
f 46/1/2 39/1/2 48/1/2
f 47/1/2 46/1/2 48/1/2
f 41/1/2 42/1/2 49/1/2
f 49/1/2 42/1/2 50/1/2
f 43/1/2 44/1/2 51/1/2
f 51/1/2 44/1/2 52/1/2
f 48/1/2 39/1/2 53/1/2
f 53/1/2 39/1/2 54/1/2
f 50/1/2 51/1/2 55/1/2
f 55/1/2 51/1/2 56/1/2
f 59/2/3 58/2/3 57/2/3
f 60/2/3 58/2/3 59/2/3
f 65/1/3 62/1/3 61/1/3
f 66/1/3 62/1/3 65/1/3
f 67/1/3 64/1/3 63/1/3
f 68/1/3 64/1/3 67/1/3
f 73/1/3 70/1/3 69/1/3
f 74/1/3 70/1/3 73/1/3
f 75/1/3 72/1/3 71/1/3
f 76/1/3 72/1/3 75/1/3
f 79/1/3 78/1/3 77/1/3
f 80/1/3 78/1/3 79/1/3
f 85/1/3 82/1/3 81/1/3
f 86/1/3 82/1/3 85/1/3
f 87/1/3 84/1/3 83/1/3
f 88/1/3 84/1/3 87/1/3
f 91/1/3 90/1/3 89/1/3
f 92/1/3 90/1/3 91/1/3
f 93/1/4 94/1/4 95/1/4
f 95/1/4 94/1/4 96/1/4
f 97/1/4 98/1/4 99/1/4
f 99/1/4 98/1/4 100/1/4
f 101/1/4 102/1/4 103/1/4
f 103/1/4 102/1/4 104/1/4
f 105/1/4 106/1/4 109/1/4
f 109/1/4 106/1/4 110/1/4
f 107/1/4 108/1/4 111/1/4
f 111/1/4 108/1/4 112/1/4
f 113/1/4 114/1/4 115/1/4
f 115/1/4 114/1/4 116/1/4
f 117/2/4 118/2/4 119/2/4
f 119/2/4 118/2/4 120/2/4
f 123/2/5 122/2/5 121/2/5
f 124/2/5 122/2/5 123/2/5
f 127/1/5 126/1/5 125/1/5
f 128/1/5 126/1/5 127/1/5
f 131/1/5 130/1/5 129/1/5
f 132/1/5 130/1/5 131/1/5
f 135/1/5 134/1/5 133/1/5
f 136/1/5 134/1/5 135/1/5
f 139/1/5 138/1/5 137/1/5
f 140/1/5 138/1/5 139/1/5
f 143/1/5 142/1/5 141/1/5
f 144/1/5 142/1/5 143/1/5
f 147/1/5 146/1/5 145/1/5
f 148/1/5 146/1/5 147/1/5
f 149/1/6 150/1/6 151/1/6
f 151/1/6 150/1/6 152/1/6
f 153/1/6 154/1/6 155/1/6
f 155/1/6 154/1/6 156/1/6
f 157/1/6 158/1/6 159/1/6
f 159/1/6 158/1/6 160/1/6
f 161/1/6 162/1/6 163/1/6
f 163/1/6 162/1/6 164/1/6
f 165/1/6 166/1/6 167/1/6
f 167/1/6 166/1/6 168/1/6
f 169/1/6 170/1/6 171/1/6
f 171/1/6 170/1/6 172/1/6
f 173/1/6 174/1/6 175/1/6
f 175/1/6 174/1/6 176/1/6
f 177/1/6 178/1/6 179/1/6
f 179/1/6 178/1/6 180/1/6
f 181/2/6 182/2/6 183/2/6
f 183/2/6 182/2/6 184/2/6
