# MagicaVoxel @ Ephtracy

# material
mtllib Art_General_Door.mtl
usemtl palette

# normals
vn -1 0 0
vn 1 0 0
vn 0 0 1
vn 0 0 -1
vn 0 -1 0
vn 0 1 0

# texcoords
vt 0.302734 0.5
vt 0.322266 0.5
vt 0.326172 0.5
vt 0.330078 0.5
vt 0.345703 0.5

# verts
v -63 50 -9
v -63 50 -26
v -63 75 -9
v -63 75 -26
v -58 62 -12
v -58 62 -14
v -58 63 -12
v -58 63 -14
v -61 51 -9
v -61 51 -26
v -61 53 -12
v -61 53 -14
v -61 53 -21
v -61 53 -23
v -61 54 -9
v -61 54 -11
v -61 54 -12
v -61 54 -14
v -61 54 -15
v -61 54 -20
v -61 54 -21
v -61 54 -23
v -61 54 -25
v -61 54 -26
v -61 57 -9
v -61 57 -10
v -61 57 -12
v -61 57 -14
v -61 57 -19
v -61 57 -20
v -61 57 -21
v -61 57 -23
v -61 57 -24
v -61 57 -26
v -61 58 -12
v -61 58 -14
v -61 58 -21
v -61 58 -23
v -61 61 -9
v -61 61 -10
v -61 61 -14
v -61 61 -16
v -61 61 -20
v -61 61 -22
v -61 61 -24
v -61 61 -26
v -61 64 -9
v -61 64 -13
v -61 64 -15
v -61 64 -19
v -61 64 -21
v -61 64 -22
v -61 64 -24
v -61 64 -26
v -61 67 -12
v -61 67 -14
v -61 67 -21
v -61 67 -23
v -61 68 -9
v -61 68 -10
v -61 68 -12
v -61 68 -14
v -61 68 -19
v -61 68 -21
v -61 68 -23
v -61 68 -25
v -61 68 -26
v -61 71 -9
v -61 71 -10
v -61 71 -11
v -61 71 -12
v -61 71 -14
v -61 71 -18
v -61 71 -20
v -61 71 -21
v -61 71 -23
v -61 71 -24
v -61 71 -26
v -61 72 -12
v -61 72 -14
v -61 72 -21
v -61 72 -23
v -61 75 -9
v -61 75 -26
v -60 50 -9
v -60 50 -26
v -60 51 -9
v -60 51 -26
v -60 53 -12
v -60 53 -14
v -60 53 -21
v -60 53 -23
v -60 54 -9
v -60 54 -11
v -60 54 -12
v -60 54 -14
v -60 54 -15
v -60 54 -20
v -60 54 -21
v -60 54 -23
v -60 54 -25
v -60 54 -26
v -60 55 -9
v -60 55 -11
v -60 55 -14
v -60 55 -15
v -60 55 -16
v -60 55 -18
v -60 55 -20
v -60 55 -21
v -60 55 -23
v -60 55 -25
v -60 56 -10
v -60 56 -12
v -60 56 -16
v -60 56 -18
v -60 56 -19
v -60 56 -20
v -60 56 -24
v -60 56 -26
v -60 57 -9
v -60 57 -10
v -60 57 -12
v -60 57 -14
v -60 57 -19
v -60 57 -20
v -60 57 -21
v -60 57 -23
v -60 57 -24
v -60 57 -26
v -60 58 -12
v -60 58 -14
v -60 58 -21
v -60 58 -23
v -60 61 -9
v -60 61 -10
v -60 61 -11
v -60 61 -13
v -60 61 -14
v -60 61 -16
v -60 61 -20
v -60 61 -22
v -60 61 -24
v -60 61 -26
v -60 62 -9
v -60 62 -10
v -60 62 -14
v -60 62 -16
v -60 62 -17
v -60 62 -19
v -60 62 -20
v -60 62 -22
v -60 62 -24
v -60 62 -26
v -60 63 -13
v -60 63 -15
v -60 63 -17
v -60 63 -19
v -60 63 -21
v -60 63 -22
v -60 63 -24
v -60 64 -9
v -60 64 -11
v -60 64 -13
v -60 64 -15
v -60 64 -19
v -60 64 -21
v -60 64 -22
v -60 64 -24
v -60 64 -26
v -60 67 -12
v -60 67 -14
v -60 67 -21
v -60 67 -23
v -60 68 -9
v -60 68 -10
v -60 68 -12
v -60 68 -14
v -60 68 -19
v -60 68 -21
v -60 68 -23
v -60 68 -25
v -60 68 -26
v -60 69 -10
v -60 69 -11
v -60 69 -15
v -60 69 -17
v -60 69 -19
v -60 69 -21
v -60 69 -23
v -60 69 -25
v -60 70 -9
v -60 70 -10
v -60 70 -15
v -60 70 -17
v -60 70 -18
v -60 70 -20
v -60 70 -24
v -60 70 -26
v -60 71 -9
v -60 71 -10
v -60 71 -11
v -60 71 -12
v -60 71 -14
v -60 71 -18
v -60 71 -20
v -60 71 -21
v -60 71 -23
v -60 71 -24
v -60 71 -26
v -60 72 -12
v -60 72 -14
v -60 72 -21
v -60 72 -23
v -59 54 -12
v -59 54 -14
v -59 54 -21
v -59 54 -23
v -59 57 -12
v -59 57 -14
v -59 57 -21
v -59 57 -23
v -59 61 -11
v -59 61 -13
v -59 62 -11
v -59 62 -12
v -59 63 -11
v -59 63 -12
v -59 64 -11
v -59 64 -13
v -59 68 -12
v -59 68 -14
v -59 68 -21
v -59 68 -23
v -59 71 -12
v -59 71 -14
v -59 71 -21
v -59 71 -23
v -57 62 -11
v -57 62 -14
v -57 63 -11
v -57 63 -14
v -63 50 -9
v -63 75 -9
v -61 50 -9
v -61 51 -9
v -61 54 -9
v -61 55 -9
v -61 57 -9
v -61 61 -9
v -61 62 -9
v -61 64 -9
v -61 68 -9
v -61 70 -9
v -61 71 -9
v -61 75 -9
v -60 50 -9
v -60 51 -9
v -60 54 -9
v -60 55 -9
v -60 57 -9
v -60 61 -9
v -60 62 -9
v -60 64 -9
v -60 68 -9
v -60 70 -9
v -60 71 -9
v -60 61 -11
v -60 64 -11
v -59 61 -11
v -59 62 -11
v -59 63 -11
v -59 64 -11
v -57 62 -11
v -57 63 -11
v -61 53 -12
v -61 54 -12
v -61 57 -12
v -61 58 -12
v -61 67 -12
v -61 68 -12
v -61 71 -12
v -61 72 -12
v -60 53 -12
v -60 54 -12
v -60 56 -12
v -60 57 -12
v -60 58 -12
v -60 67 -12
v -60 68 -12
v -60 71 -12
v -60 72 -12
v -59 54 -12
v -59 57 -12
v -59 68 -12
v -59 71 -12
v -61 53 -21
v -61 54 -21
v -61 57 -21
v -61 58 -21
v -61 67 -21
v -61 68 -21
v -61 71 -21
v -61 72 -21
v -60 53 -21
v -60 54 -21
v -60 55 -21
v -60 57 -21
v -60 58 -21
v -60 67 -21
v -60 68 -21
v -60 69 -21
v -60 71 -21
v -60 72 -21
v -59 54 -21
v -59 57 -21
v -59 68 -21
v -59 71 -21
v -59 62 -12
v -59 63 -12
v -58 62 -12
v -58 63 -12
v -60 61 -13
v -60 63 -13
v -60 64 -13
v -59 61 -13
v -59 64 -13
v -61 53 -14
v -61 54 -14
v -61 57 -14
v -61 58 -14
v -61 67 -14
v -61 68 -14
v -61 71 -14
v -61 72 -14
v -60 53 -14
v -60 54 -14
v -60 55 -14
v -60 57 -14
v -60 58 -14
v -60 67 -14
v -60 68 -14
v -60 71 -14
v -60 72 -14
v -59 54 -14
v -59 57 -14
v -59 68 -14
v -59 71 -14
v -58 62 -14
v -58 63 -14
v -57 62 -14
v -57 63 -14
v -61 53 -23
v -61 54 -23
v -61 57 -23
v -61 58 -23
v -61 67 -23
v -61 68 -23
v -61 71 -23
v -61 72 -23
v -60 53 -23
v -60 54 -23
v -60 55 -23
v -60 57 -23
v -60 58 -23
v -60 67 -23
v -60 68 -23
v -60 69 -23
v -60 71 -23
v -60 72 -23
v -59 54 -23
v -59 57 -23
v -59 68 -23
v -59 71 -23
v -63 50 -26
v -63 75 -26
v -61 50 -26
v -61 51 -26
v -61 54 -26
v -61 56 -26
v -61 57 -26
v -61 61 -26
v -61 62 -26
v -61 64 -26
v -61 68 -26
v -61 70 -26
v -61 71 -26
v -61 75 -26
v -60 50 -26
v -60 51 -26
v -60 54 -26
v -60 56 -26
v -60 57 -26
v -60 61 -26
v -60 62 -26
v -60 64 -26
v -60 68 -26
v -60 70 -26
v -60 71 -26
v -63 50 -9
v -61 50 -9
v -60 50 -9
v -63 50 -26
v -61 50 -26
v -60 50 -26
v -61 53 -12
v -60 53 -12
v -61 53 -14
v -60 53 -14
v -61 53 -21
v -60 53 -21
v -61 53 -23
v -60 53 -23
v -61 54 -9
v -60 54 -9
v -61 54 -11
v -60 54 -11
v -61 54 -12
v -60 54 -12
v -59 54 -12
v -61 54 -14
v -60 54 -14
v -59 54 -14
v -61 54 -15
v -60 54 -15
v -61 54 -20
v -60 54 -20
v -61 54 -21
v -60 54 -21
v -59 54 -21
v -61 54 -23
v -60 54 -23
v -59 54 -23
v -61 54 -25
v -60 54 -25
v -61 54 -26
v -60 54 -26
v -61 61 -9
v -60 61 -9
v -61 61 -10
v -60 61 -10
v -60 61 -11
v -59 61 -11
v -60 61 -13
v -59 61 -13
v -61 61 -14
v -60 61 -14
v -61 61 -16
v -60 61 -16
v -61 61 -20
v -60 61 -20
v -61 61 -22
v -60 61 -22
v -61 61 -24
v -60 61 -24
v -61 61 -26
v -60 61 -26
v -59 62 -11
v -57 62 -11
v -59 62 -12
v -58 62 -12
v -58 62 -14
v -57 62 -14
v -61 67 -12
v -60 67 -12
v -61 67 -14
v -60 67 -14
v -61 67 -21
v -60 67 -21
v -61 67 -23
v -60 67 -23
v -61 68 -9
v -60 68 -9
v -61 68 -10
v -60 68 -10
v -61 68 -12
v -60 68 -12
v -59 68 -12
v -61 68 -14
v -60 68 -14
v -59 68 -14
v -61 68 -19
v -60 68 -19
v -61 68 -21
v -60 68 -21
v -59 68 -21
v -61 68 -23
v -60 68 -23
v -59 68 -23
v -61 68 -25
v -60 68 -25
v -61 68 -26
v -60 68 -26
v -61 51 -9
v -60 51 -9
v -61 51 -26
v -60 51 -26
v -61 57 -9
v -60 57 -9
v -61 57 -10
v -60 57 -10
v -61 57 -12
v -60 57 -12
v -59 57 -12
v -61 57 -14
v -60 57 -14
v -59 57 -14
v -61 57 -19
v -60 57 -19
v -61 57 -20
v -60 57 -20
v -61 57 -21
v -60 57 -21
v -59 57 -21
v -61 57 -23
v -60 57 -23
v -59 57 -23
v -61 57 -24
v -60 57 -24
v -61 57 -26
v -60 57 -26
v -61 58 -12
v -60 58 -12
v -61 58 -14
v -60 58 -14
v -61 58 -21
v -60 58 -21
v -61 58 -23
v -60 58 -23
v -59 63 -11
v -57 63 -11
v -59 63 -12
v -58 63 -12
v -58 63 -14
v -57 63 -14
v -61 64 -9
v -60 64 -9
v -60 64 -11
v -59 64 -11
v -61 64 -13
v -60 64 -13
v -59 64 -13
v -61 64 -15
v -60 64 -15
v -61 64 -19
v -60 64 -19
v -61 64 -21
v -60 64 -21
v -61 64 -22
v -60 64 -22
v -61 64 -24
v -60 64 -24
v -61 64 -26
v -60 64 -26
v -61 71 -9
v -60 71 -9
v -61 71 -10
v -60 71 -10
v -61 71 -11
v -60 71 -11
v -61 71 -12
v -60 71 -12
v -59 71 -12
v -61 71 -14
v -60 71 -14
v -59 71 -14
v -61 71 -18
v -60 71 -18
v -61 71 -20
v -60 71 -20
v -61 71 -21
v -60 71 -21
v -59 71 -21
v -61 71 -23
v -60 71 -23
v -59 71 -23
v -61 71 -24
v -60 71 -24
v -61 71 -26
v -60 71 -26
v -61 72 -12
v -60 72 -12
v -61 72 -14
v -60 72 -14
v -61 72 -21
v -60 72 -21
v -61 72 -23
v -60 72 -23
v -63 75 -9
v -61 75 -9
v -63 75 -26
v -61 75 -26

# faces
f 3/2/1 2/2/1 1/2/1
f 4/2/1 2/2/1 3/2/1
f 7/1/1 6/1/1 5/1/1
f 8/1/1 6/1/1 7/1/1
f 9/2/2 10/2/2 11/2/2
f 11/2/2 10/2/2 12/2/2
f 12/2/2 10/2/2 13/2/2
f 13/2/2 10/2/2 14/2/2
f 9/2/2 11/2/2 15/2/2
f 15/2/2 11/2/2 16/2/2
f 16/2/2 11/2/2 17/2/2
f 12/2/2 13/2/2 18/2/2
f 18/2/2 13/2/2 19/2/2
f 19/2/2 13/2/2 20/2/2
f 20/2/2 13/2/2 21/2/2
f 14/2/2 10/2/2 22/2/2
f 22/2/2 10/2/2 23/2/2
f 23/2/2 10/2/2 24/2/2
f 25/2/2 26/2/2 35/2/2
f 26/2/2 27/2/2 35/2/2
f 28/2/2 29/2/2 36/2/2
f 29/2/2 30/2/2 36/2/2
f 30/2/2 31/2/2 36/2/2
f 36/2/2 31/2/2 37/2/2
f 33/2/2 34/2/2 38/2/2
f 32/2/2 33/2/2 38/2/2
f 36/2/2 37/2/2 39/2/2
f 37/2/2 38/2/2 39/2/2
f 35/2/2 36/2/2 39/2/2
f 25/2/2 35/2/2 39/2/2
f 39/2/2 38/2/2 40/2/2
f 40/2/2 38/2/2 41/2/2
f 41/2/2 38/2/2 42/2/2
f 42/2/2 38/2/2 43/2/2
f 43/2/2 38/2/2 44/2/2
f 38/2/2 34/2/2 45/2/2
f 44/2/2 38/2/2 45/2/2
f 45/2/2 34/2/2 46/2/2
f 47/2/2 48/2/2 55/2/2
f 53/2/2 54/2/2 55/2/2
f 52/2/2 53/2/2 55/2/2
f 51/2/2 52/2/2 55/2/2
f 50/2/2 51/2/2 55/2/2
f 49/2/2 50/2/2 55/2/2
f 48/2/2 49/2/2 55/2/2
f 55/2/2 54/2/2 56/2/2
f 56/2/2 54/2/2 57/2/2
f 57/2/2 54/2/2 58/2/2
f 47/2/2 55/2/2 59/2/2
f 59/2/2 55/2/2 60/2/2
f 60/2/2 55/2/2 61/2/2
f 56/2/2 57/2/2 62/2/2
f 62/2/2 57/2/2 63/2/2
f 63/2/2 57/2/2 64/2/2
f 58/2/2 54/2/2 65/2/2
f 65/2/2 54/2/2 66/2/2
f 66/2/2 54/2/2 67/2/2
f 68/2/2 69/2/2 79/2/2
f 69/2/2 70/2/2 79/2/2
f 70/2/2 71/2/2 79/2/2
f 74/2/2 75/2/2 80/2/2
f 72/2/2 73/2/2 80/2/2
f 73/2/2 74/2/2 80/2/2
f 80/2/2 75/2/2 81/2/2
f 77/2/2 78/2/2 82/2/2
f 76/2/2 77/2/2 82/2/2
f 80/2/2 81/2/2 83/2/2
f 81/2/2 82/2/2 83/2/2
f 79/2/2 80/2/2 83/2/2
f 68/2/2 79/2/2 83/2/2
f 82/2/2 78/2/2 84/2/2
f 83/2/2 82/2/2 84/2/2
f 85/3/2 86/3/2 87/3/2
f 87/3/2 86/3/2 88/3/2
f 89/1/2 90/1/2 95/1/2
f 95/1/2 90/1/2 96/1/2
f 91/1/2 92/1/2 99/1/2
f 99/1/2 92/1/2 100/1/2
f 93/4/2 94/4/2 103/4/2
f 94/3/2 95/3/2 104/3/2
f 103/4/2 94/4/2 104/4/2
f 96/2/2 97/2/2 105/2/2
f 97/3/2 98/3/2 106/3/2
f 105/2/2 97/2/2 106/2/2
f 106/3/2 98/3/2 107/3/2
f 107/3/2 98/3/2 108/3/2
f 98/4/2 99/4/2 109/4/2
f 108/3/2 98/3/2 109/3/2
f 109/4/2 99/4/2 110/4/2
f 100/2/2 101/2/2 111/2/2
f 101/3/2 102/3/2 112/3/2
f 111/2/2 101/2/2 112/2/2
f 103/3/2 104/3/2 113/3/2
f 104/3/2 95/3/2 114/3/2
f 113/3/2 104/3/2 114/3/2
f 107/4/2 108/4/2 115/4/2
f 105/3/2 106/3/2 115/3/2
f 106/3/2 107/3/2 115/3/2
f 109/3/2 110/3/2 116/3/2
f 115/4/2 108/4/2 116/4/2
f 108/3/2 109/3/2 116/3/2
f 116/3/2 110/3/2 117/3/2
f 117/3/2 110/3/2 118/3/2
f 111/3/2 112/3/2 119/3/2
f 112/3/2 102/3/2 120/3/2
f 119/3/2 112/3/2 120/3/2
f 103/3/2 113/3/2 121/3/2
f 113/2/2 114/2/2 122/2/2
f 121/3/2 113/3/2 122/3/2
f 122/2/2 114/2/2 123/2/2
f 105/3/2 115/3/2 124/3/2
f 115/3/2 116/3/2 124/3/2
f 116/3/2 117/3/2 124/3/2
f 117/4/2 118/4/2 125/4/2
f 124/3/2 117/3/2 125/3/2
f 118/3/2 110/3/2 126/3/2
f 125/4/2 118/4/2 126/4/2
f 126/3/2 110/3/2 127/3/2
f 111/3/2 119/3/2 128/3/2
f 119/4/2 120/4/2 129/4/2
f 128/3/2 119/3/2 129/3/2
f 129/4/2 120/4/2 130/4/2
f 123/1/2 124/1/2 131/1/2
f 131/1/2 124/1/2 132/1/2
f 127/1/2 128/1/2 133/1/2
f 133/1/2 128/1/2 134/1/2
f 135/4/2 136/4/2 145/4/2
f 136/3/2 137/3/2 146/3/2
f 145/4/2 136/4/2 146/4/2
f 138/3/2 139/3/2 147/3/2
f 139/4/2 140/4/2 147/4/2
f 140/3/2 141/3/2 148/3/2
f 147/4/2 140/4/2 148/4/2
f 148/3/2 141/3/2 149/3/2
f 149/3/2 141/3/2 150/3/2
f 141/2/2 142/2/2 151/2/2
f 150/3/2 141/3/2 151/3/2
f 142/3/2 143/3/2 152/3/2
f 151/2/2 142/2/2 152/2/2
f 143/2/2 144/2/2 153/2/2
f 152/3/2 143/3/2 153/3/2
f 153/2/2 144/2/2 154/2/2
f 138/3/2 147/3/2 155/3/2
f 147/3/2 148/3/2 155/3/2
f 148/3/2 149/3/2 155/3/2
f 155/3/2 149/3/2 156/3/2
f 149/2/2 150/2/2 157/2/2
f 156/3/2 149/3/2 157/3/2
f 151/3/2 152/3/2 158/3/2
f 157/2/2 150/2/2 158/2/2
f 150/3/2 151/3/2 158/3/2
f 153/3/2 154/3/2 158/3/2
f 152/3/2 153/3/2 158/3/2
f 158/3/2 154/3/2 159/3/2
f 159/3/2 154/3/2 160/3/2
f 160/3/2 154/3/2 161/3/2
f 145/3/2 146/3/2 162/3/2
f 146/3/2 137/3/2 163/3/2
f 162/3/2 146/3/2 163/3/2
f 155/2/2 156/2/2 164/2/2
f 156/3/2 157/3/2 165/3/2
f 164/2/2 156/2/2 165/2/2
f 157/3/2 158/3/2 165/3/2
f 158/4/2 159/4/2 166/4/2
f 165/3/2 158/3/2 166/3/2
f 159/3/2 160/3/2 167/3/2
f 166/4/2 159/4/2 167/4/2
f 160/2/2 161/2/2 168/2/2
f 167/3/2 160/3/2 168/3/2
f 161/3/2 154/3/2 169/3/2
f 168/2/2 161/2/2 169/2/2
f 169/3/2 154/3/2 170/3/2
f 171/1/2 172/1/2 177/1/2
f 177/1/2 172/1/2 178/1/2
f 173/1/2 174/1/2 180/1/2
f 180/1/2 174/1/2 181/1/2
f 175/3/2 176/3/2 184/3/2
f 176/2/2 177/2/2 184/2/2
f 184/2/2 177/2/2 185/2/2
f 178/3/2 179/3/2 186/3/2
f 186/3/2 179/3/2 187/3/2
f 179/2/2 180/2/2 188/2/2
f 187/3/2 179/3/2 188/3/2
f 188/2/2 180/2/2 189/2/2
f 181/2/2 182/2/2 190/2/2
f 182/3/2 183/3/2 191/3/2
f 190/2/2 182/2/2 191/2/2
f 175/3/2 184/3/2 192/3/2
f 184/3/2 185/3/2 192/3/2
f 192/3/2 185/3/2 193/3/2
f 186/4/2 187/4/2 194/4/2
f 178/3/2 186/3/2 194/3/2
f 188/3/2 189/3/2 195/3/2
f 194/4/2 187/4/2 195/4/2
f 187/3/2 188/3/2 195/3/2
f 195/3/2 189/3/2 196/3/2
f 196/3/2 189/3/2 197/3/2
f 190/3/2 191/3/2 198/3/2
f 191/3/2 183/3/2 199/3/2
f 198/3/2 191/3/2 199/3/2
f 192/4/2 193/4/2 200/4/2
f 193/3/2 185/3/2 201/3/2
f 200/4/2 193/4/2 201/4/2
f 185/2/2 177/2/2 202/2/2
f 201/3/2 185/3/2 202/3/2
f 202/2/2 177/2/2 203/2/2
f 178/3/2 194/3/2 204/3/2
f 194/3/2 195/3/2 204/3/2
f 195/3/2 196/3/2 204/3/2
f 196/2/2 197/2/2 205/2/2
f 204/3/2 196/3/2 205/3/2
f 197/3/2 189/3/2 206/3/2
f 205/2/2 197/2/2 206/2/2
f 206/3/2 189/3/2 207/3/2
f 190/3/2 198/3/2 208/3/2
f 198/4/2 199/4/2 209/4/2
f 208/3/2 198/3/2 209/3/2
f 209/4/2 199/4/2 210/4/2
f 203/1/2 204/1/2 211/1/2
f 211/1/2 204/1/2 212/1/2
f 207/1/2 208/1/2 213/1/2
f 213/1/2 208/1/2 214/1/2
f 215/1/2 216/1/2 219/1/2
f 219/1/2 216/1/2 220/1/2
f 217/1/2 218/1/2 221/1/2
f 221/1/2 218/1/2 222/1/2
f 223/1/2 224/1/2 225/1/2
f 225/1/2 224/1/2 226/1/2
f 226/1/2 224/1/2 228/1/2
f 227/1/2 228/1/2 229/1/2
f 228/1/2 224/1/2 230/1/2
f 229/1/2 228/1/2 230/1/2
f 231/1/2 232/1/2 235/1/2
f 235/1/2 232/1/2 236/1/2
f 233/1/2 234/1/2 237/1/2
f 237/1/2 234/1/2 238/1/2
f 239/1/2 240/1/2 241/1/2
f 241/1/2 240/1/2 242/1/2
f 245/2/3 244/2/3 243/2/3
f 246/2/3 244/2/3 245/2/3
f 247/2/3 244/2/3 246/2/3
f 248/2/3 244/2/3 247/2/3
f 249/2/3 244/2/3 248/2/3
f 250/2/3 244/2/3 249/2/3
f 251/2/3 244/2/3 250/2/3
f 252/2/3 244/2/3 251/2/3
f 253/2/3 244/2/3 252/2/3
f 254/2/3 244/2/3 253/2/3
f 255/2/3 244/2/3 254/2/3
f 256/2/3 244/2/3 255/2/3
f 257/3/3 246/3/3 245/3/3
f 258/3/3 246/3/3 257/3/3
f 259/4/3 248/4/3 247/4/3
f 260/3/3 249/3/3 248/3/3
f 260/4/3 248/4/3 259/4/3
f 261/3/3 249/3/3 260/3/3
f 262/4/3 251/4/3 250/4/3
f 263/3/3 252/3/3 251/3/3
f 263/4/3 251/4/3 262/4/3
f 264/3/3 252/3/3 263/3/3
f 265/3/3 254/3/3 253/3/3
f 266/4/3 255/4/3 254/4/3
f 266/3/3 254/3/3 265/3/3
f 267/4/3 255/4/3 266/4/3
f 270/1/3 269/1/3 268/1/3
f 271/1/3 269/1/3 270/1/3
f 272/1/3 269/1/3 271/1/3
f 273/1/3 269/1/3 272/1/3
f 274/1/3 272/1/3 271/1/3
f 275/1/3 272/1/3 274/1/3
f 284/1/3 277/1/3 276/1/3
f 285/1/3 277/1/3 284/1/3
f 287/1/3 279/1/3 278/1/3
f 288/1/3 279/1/3 287/1/3
f 289/1/3 281/1/3 280/1/3
f 290/1/3 281/1/3 289/1/3
f 291/1/3 283/1/3 282/1/3
f 292/1/3 283/1/3 291/1/3
f 293/1/3 286/1/3 285/1/3
f 293/1/3 287/1/3 286/1/3
f 294/1/3 287/1/3 293/1/3
f 295/1/3 291/1/3 290/1/3
f 296/1/3 291/1/3 295/1/3
f 305/1/3 298/1/3 297/1/3
f 306/1/3 298/1/3 305/1/3
f 308/1/3 300/1/3 299/1/3
f 309/1/3 300/1/3 308/1/3
f 310/1/3 302/1/3 301/1/3
f 311/1/3 302/1/3 310/1/3
f 313/1/3 304/1/3 303/1/3
f 314/1/3 304/1/3 313/1/3
f 315/1/3 307/1/3 306/1/3
f 315/1/3 308/1/3 307/1/3
f 316/1/3 308/1/3 315/1/3
f 317/1/3 312/1/3 311/1/3
f 317/1/3 313/1/3 312/1/3
f 318/1/3 313/1/3 317/1/3
f 319/1/4 320/1/4 321/1/4
f 321/1/4 320/1/4 322/1/4
f 323/1/4 324/1/4 326/1/4
f 324/1/4 325/1/4 326/1/4
f 326/1/4 325/1/4 327/1/4
f 328/1/4 329/1/4 336/1/4
f 336/1/4 329/1/4 337/1/4
f 330/1/4 331/1/4 339/1/4
f 339/1/4 331/1/4 340/1/4
f 332/1/4 333/1/4 341/1/4
f 341/1/4 333/1/4 342/1/4
f 334/1/4 335/1/4 343/1/4
f 343/1/4 335/1/4 344/1/4
f 337/1/4 338/1/4 345/1/4
f 338/1/4 339/1/4 345/1/4
f 345/1/4 339/1/4 346/1/4
f 342/1/4 343/1/4 347/1/4
f 347/1/4 343/1/4 348/1/4
f 349/1/4 350/1/4 351/1/4
f 351/1/4 350/1/4 352/1/4
f 353/1/4 354/1/4 361/1/4
f 361/1/4 354/1/4 362/1/4
f 355/1/4 356/1/4 364/1/4
f 364/1/4 356/1/4 365/1/4
f 357/1/4 358/1/4 366/1/4
f 366/1/4 358/1/4 367/1/4
f 359/1/4 360/1/4 369/1/4
f 369/1/4 360/1/4 370/1/4
f 362/1/4 363/1/4 371/1/4
f 363/1/4 364/1/4 371/1/4
f 371/1/4 364/1/4 372/1/4
f 367/1/4 368/1/4 373/1/4
f 368/1/4 369/1/4 373/1/4
f 373/1/4 369/1/4 374/1/4
f 375/2/4 376/2/4 377/2/4
f 377/2/4 376/2/4 378/2/4
f 378/2/4 376/2/4 379/2/4
f 379/2/4 376/2/4 380/2/4
f 380/2/4 376/2/4 381/2/4
f 381/2/4 376/2/4 382/2/4
f 382/2/4 376/2/4 383/2/4
f 383/2/4 376/2/4 384/2/4
f 384/2/4 376/2/4 385/2/4
f 385/2/4 376/2/4 386/2/4
f 386/2/4 376/2/4 387/2/4
f 387/2/4 376/2/4 388/2/4
f 377/3/4 378/3/4 389/3/4
f 389/3/4 378/3/4 390/3/4
f 379/3/4 380/3/4 391/3/4
f 380/4/4 381/4/4 392/4/4
f 391/3/4 380/3/4 392/3/4
f 392/4/4 381/4/4 393/4/4
f 382/2/4 383/2/4 394/2/4
f 383/3/4 384/3/4 395/3/4
f 394/2/4 383/2/4 395/2/4
f 395/3/4 384/3/4 396/3/4
f 385/3/4 386/3/4 397/3/4
f 386/4/4 387/4/4 398/4/4
f 397/3/4 386/3/4 398/3/4
f 398/4/4 387/4/4 399/4/4
f 403/2/5 401/2/5 400/2/5
f 404/3/5 402/3/5 401/3/5
f 404/2/5 401/2/5 403/2/5
f 405/3/5 402/3/5 404/3/5
f 408/1/5 407/1/5 406/1/5
f 409/1/5 407/1/5 408/1/5
f 412/1/5 411/1/5 410/1/5
f 413/1/5 411/1/5 412/1/5
f 416/4/5 415/4/5 414/4/5
f 417/4/5 415/4/5 416/4/5
f 418/3/5 417/3/5 416/3/5
f 419/3/5 417/3/5 418/3/5
f 422/1/5 420/1/5 419/1/5
f 423/1/5 420/1/5 422/1/5
f 424/2/5 422/2/5 421/2/5
f 425/2/5 422/2/5 424/2/5
f 426/3/5 425/3/5 424/3/5
f 427/3/5 425/3/5 426/3/5
f 428/4/5 427/4/5 426/4/5
f 429/4/5 427/4/5 428/4/5
f 432/1/5 430/1/5 429/1/5
f 433/1/5 430/1/5 432/1/5
f 434/2/5 432/2/5 431/2/5
f 435/2/5 432/2/5 434/2/5
f 436/3/5 435/3/5 434/3/5
f 437/3/5 435/3/5 436/3/5
f 440/4/5 439/4/5 438/4/5
f 441/4/5 439/4/5 440/4/5
f 442/3/5 441/3/5 440/3/5
f 444/3/5 442/3/5 440/3/5
f 444/1/5 443/1/5 442/1/5
f 445/1/5 443/1/5 444/1/5
f 446/3/5 444/3/5 440/3/5
f 447/3/5 444/3/5 446/3/5
f 448/4/5 447/4/5 446/4/5
f 449/4/5 447/4/5 448/4/5
f 450/3/5 449/3/5 448/3/5
f 451/3/5 449/3/5 450/3/5
f 452/2/5 451/2/5 450/2/5
f 453/2/5 451/2/5 452/2/5
f 454/3/5 453/3/5 452/3/5
f 455/3/5 453/3/5 454/3/5
f 456/2/5 455/2/5 454/2/5
f 457/2/5 455/2/5 456/2/5
f 460/1/5 459/1/5 458/1/5
f 461/1/5 459/1/5 460/1/5
f 462/1/5 459/1/5 461/1/5
f 463/1/5 459/1/5 462/1/5
f 466/1/5 465/1/5 464/1/5
f 467/1/5 465/1/5 466/1/5
f 470/1/5 469/1/5 468/1/5
f 471/1/5 469/1/5 470/1/5
f 474/3/5 473/3/5 472/3/5
f 475/3/5 473/3/5 474/3/5
f 476/2/5 475/2/5 474/2/5
f 477/2/5 475/2/5 476/2/5
f 480/1/5 478/1/5 477/1/5
f 481/1/5 478/1/5 480/1/5
f 482/3/5 480/3/5 479/3/5
f 483/3/5 480/3/5 482/3/5
f 484/2/5 483/2/5 482/2/5
f 485/2/5 483/2/5 484/2/5
f 488/1/5 486/1/5 485/1/5
f 489/1/5 486/1/5 488/1/5
f 490/2/5 488/2/5 487/2/5
f 491/2/5 488/2/5 490/2/5
f 492/3/5 491/3/5 490/3/5
f 493/3/5 491/3/5 492/3/5
f 494/3/6 495/3/6 496/3/6
f 496/3/6 495/3/6 497/3/6
f 498/3/6 499/3/6 500/3/6
f 500/3/6 499/3/6 501/3/6
f 500/2/6 501/2/6 502/2/6
f 502/2/6 501/2/6 503/2/6
f 503/1/6 504/1/6 506/1/6
f 506/1/6 504/1/6 507/1/6
f 505/3/6 506/3/6 508/3/6
f 508/3/6 506/3/6 509/3/6
f 508/4/6 509/4/6 510/4/6
f 510/4/6 509/4/6 511/4/6
f 510/3/6 511/3/6 512/3/6
f 512/3/6 511/3/6 513/3/6
f 513/1/6 514/1/6 516/1/6
f 516/1/6 514/1/6 517/1/6
f 515/3/6 516/3/6 518/3/6
f 518/3/6 516/3/6 519/3/6
f 518/4/6 519/4/6 520/4/6
f 520/4/6 519/4/6 521/4/6
f 522/1/6 523/1/6 524/1/6
f 524/1/6 523/1/6 525/1/6
f 526/1/6 527/1/6 528/1/6
f 528/1/6 527/1/6 529/1/6
f 530/1/6 531/1/6 532/1/6
f 532/1/6 531/1/6 533/1/6
f 533/1/6 531/1/6 534/1/6
f 534/1/6 531/1/6 535/1/6
f 536/3/6 537/3/6 538/3/6
f 536/3/6 538/3/6 540/3/6
f 538/1/6 539/1/6 541/1/6
f 540/3/6 538/3/6 541/3/6
f 541/1/6 539/1/6 542/1/6
f 540/2/6 541/2/6 543/2/6
f 543/2/6 541/2/6 544/2/6
f 543/3/6 544/3/6 545/3/6
f 545/3/6 544/3/6 546/3/6
f 545/4/6 546/4/6 547/4/6
f 547/4/6 546/4/6 548/4/6
f 547/3/6 548/3/6 549/3/6
f 549/3/6 548/3/6 550/3/6
f 549/2/6 550/2/6 551/2/6
f 551/2/6 550/2/6 552/2/6
f 551/3/6 552/3/6 553/3/6
f 553/3/6 552/3/6 554/3/6
f 555/4/6 556/4/6 557/4/6
f 557/4/6 556/4/6 558/4/6
f 557/3/6 558/3/6 559/3/6
f 559/3/6 558/3/6 560/3/6
f 559/2/6 560/2/6 561/2/6
f 561/2/6 560/2/6 562/2/6
f 562/1/6 563/1/6 565/1/6
f 565/1/6 563/1/6 566/1/6
f 564/3/6 565/3/6 567/3/6
f 567/3/6 565/3/6 568/3/6
f 567/2/6 568/2/6 569/2/6
f 569/2/6 568/2/6 570/2/6
f 569/3/6 570/3/6 571/3/6
f 571/3/6 570/3/6 572/3/6
f 572/1/6 573/1/6 575/1/6
f 575/1/6 573/1/6 576/1/6
f 574/3/6 575/3/6 577/3/6
f 577/3/6 575/3/6 578/3/6
f 577/4/6 578/4/6 579/4/6
f 579/4/6 578/4/6 580/4/6
f 581/1/6 582/1/6 583/1/6
f 583/1/6 582/1/6 584/1/6
f 585/1/6 586/1/6 587/1/6
f 587/1/6 586/1/6 588/1/6
f 589/2/6 590/2/6 591/2/6
f 591/2/6 590/2/6 592/2/6
