# MagicaVoxel @ Ephtracy

# material
mtllib Art_NOroom_020Tile.mtl
usemtl palette

# normals
vn -1 0 0
vn 1 0 0
vn 0 0 1
vn 0 0 -1
vn 0 -1 0
vn 0 1 0

# texcoords
vt 0.283203 0.5
vt 0.314453 0.5

# verts
v -37 59 27
v -37 59 14
v -37 68 27
v -37 68 14
v -36 59 27
v -36 59 14
v -36 60 25
v -36 60 21
v -36 60 19
v -36 60 17
v -36 61 24
v -36 61 21
v -36 61 20
v -36 61 19
v -36 61 17
v -36 61 16
v -36 62 25
v -36 62 24
v -36 62 23
v -36 63 24
v -36 63 23
v -36 63 22
v -36 64 23
v -36 64 22
v -36 64 21
v -36 65 25
v -36 65 24
v -36 66 25
v -36 66 24
v -36 66 22
v -36 66 21
v -36 66 20
v -36 66 19
v -36 66 17
v -36 66 16
v -36 67 24
v -36 67 22
v -36 67 19
v -36 67 17
v -36 68 27
v -36 68 14
v -35 60 25
v -35 60 21
v -35 60 19
v -35 60 17
v -35 61 24
v -35 61 21
v -35 61 20
v -35 61 19
v -35 61 17
v -35 61 16
v -35 62 25
v -35 62 24
v -35 62 23
v -35 63 24
v -35 63 23
v -35 63 22
v -35 64 23
v -35 64 22
v -35 64 21
v -35 65 25
v -35 65 24
v -35 66 25
v -35 66 24
v -35 66 22
v -35 66 21
v -35 66 20
v -35 66 19
v -35 66 17
v -35 66 16
v -35 67 24
v -35 67 22
v -35 67 19
v -35 67 17
v -37 59 27
v -37 68 27
v -36 59 27
v -36 68 27
v -36 60 25
v -36 62 25
v -36 65 25
v -36 66 25
v -35 60 25
v -35 62 25
v -35 65 25
v -35 66 25
v -36 62 24
v -36 63 24
v -36 66 24
v -36 67 24
v -35 62 24
v -35 63 24
v -35 66 24
v -35 67 24
v -36 63 23
v -36 64 23
v -35 63 23
v -35 64 23
v -36 64 22
v -36 66 22
v -35 64 22
v -35 66 22
v -36 61 20
v -36 66 20
v -35 61 20
v -35 66 20
v -36 60 19
v -36 61 19
v -36 66 19
v -36 67 19
v -35 60 19
v -35 61 19
v -35 66 19
v -35 67 19
v -36 61 17
v -36 66 17
v -35 61 17
v -35 66 17
v -36 61 24
v -36 62 24
v -36 65 24
v -36 66 24
v -35 61 24
v -35 62 24
v -35 65 24
v -35 66 24
v -36 62 23
v -36 63 23
v -35 62 23
v -35 63 23
v -36 63 22
v -36 64 22
v -36 66 22
v -36 67 22
v -35 63 22
v -35 64 22
v -35 66 22
v -35 67 22
v -36 60 21
v -36 61 21
v -36 64 21
v -36 66 21
v -35 60 21
v -35 61 21
v -35 64 21
v -35 66 21
v -36 61 19
v -36 66 19
v -35 61 19
v -35 66 19
v -36 60 17
v -36 61 17
v -36 66 17
v -36 67 17
v -35 60 17
v -35 61 17
v -35 66 17
v -35 67 17
v -36 61 16
v -36 66 16
v -35 61 16
v -35 66 16
v -37 59 14
v -37 68 14
v -36 59 14
v -36 68 14
v -37 59 27
v -36 59 27
v -37 59 14
v -36 59 14
v -36 60 25
v -35 60 25
v -36 60 21
v -35 60 21
v -36 60 19
v -35 60 19
v -36 60 17
v -35 60 17
v -36 61 20
v -35 61 20
v -36 61 19
v -35 61 19
v -36 61 17
v -35 61 17
v -36 61 16
v -35 61 16
v -36 62 24
v -35 62 24
v -36 62 23
v -35 62 23
v -36 63 23
v -35 63 23
v -36 63 22
v -35 63 22
v -36 64 22
v -35 64 22
v -36 64 21
v -35 64 21
v -36 65 25
v -35 65 25
v -36 65 24
v -35 65 24
v -36 66 24
v -35 66 24
v -36 66 22
v -35 66 22
v -36 66 19
v -35 66 19
v -36 66 17
v -35 66 17
v -36 61 24
v -35 61 24
v -36 61 21
v -35 61 21
v -36 61 19
v -35 61 19
v -36 61 17
v -35 61 17
v -36 62 25
v -35 62 25
v -36 62 24
v -35 62 24
v -36 63 24
v -35 63 24
v -36 63 23
v -35 63 23
v -36 64 23
v -35 64 23
v -36 64 22
v -35 64 22
v -36 66 25
v -35 66 25
v -36 66 24
v -35 66 24
v -36 66 22
v -35 66 22
v -36 66 21
v -35 66 21
v -36 66 20
v -35 66 20
v -36 66 19
v -35 66 19
v -36 66 17
v -35 66 17
v -36 66 16
v -35 66 16
v -36 67 24
v -35 67 24
v -36 67 22
v -35 67 22
v -36 67 19
v -35 67 19
v -36 67 17
v -35 67 17
v -37 68 27
v -36 68 27
v -37 68 14
v -36 68 14

# faces
f 3/2/1 2/2/1 1/2/1
f 4/2/1 2/2/1 3/2/1
f 5/2/2 6/2/2 7/2/2
f 7/2/2 6/2/2 8/2/2
f 8/2/2 6/2/2 9/2/2
f 9/2/2 6/2/2 10/2/2
f 8/2/2 9/2/2 12/2/2
f 12/2/2 9/2/2 13/2/2
f 13/2/2 9/2/2 14/2/2
f 10/2/2 6/2/2 15/2/2
f 15/2/2 6/2/2 16/2/2
f 5/2/2 7/2/2 17/2/2
f 11/2/2 12/2/2 18/2/2
f 12/2/2 13/2/2 18/2/2
f 18/2/2 13/2/2 19/2/2
f 17/2/2 18/2/2 20/2/2
f 19/2/2 13/2/2 21/2/2
f 21/2/2 13/2/2 22/2/2
f 20/2/2 21/2/2 23/2/2
f 22/2/2 13/2/2 24/2/2
f 24/2/2 13/2/2 25/2/2
f 5/2/2 17/2/2 26/2/2
f 17/2/2 20/2/2 26/2/2
f 23/2/2 24/2/2 26/2/2
f 20/2/2 23/2/2 26/2/2
f 26/2/2 24/2/2 27/2/2
f 5/2/2 26/2/2 28/2/2
f 27/2/2 24/2/2 29/2/2
f 29/2/2 24/2/2 30/2/2
f 25/2/2 13/2/2 31/2/2
f 31/2/2 13/2/2 32/2/2
f 14/2/2 15/2/2 33/2/2
f 33/2/2 15/2/2 34/2/2
f 16/2/2 6/2/2 35/2/2
f 28/2/2 29/2/2 36/2/2
f 31/2/2 32/2/2 37/2/2
f 30/2/2 31/2/2 37/2/2
f 32/2/2 33/2/2 37/2/2
f 37/2/2 33/2/2 38/2/2
f 34/2/2 35/2/2 39/2/2
f 37/2/2 38/2/2 40/2/2
f 38/2/2 39/2/2 40/2/2
f 28/2/2 36/2/2 40/2/2
f 5/2/2 28/2/2 40/2/2
f 36/2/2 37/2/2 40/2/2
f 39/2/2 35/2/2 41/2/2
f 40/2/2 39/2/2 41/2/2
f 35/2/2 6/2/2 41/2/2
f 42/1/2 43/1/2 46/1/2
f 46/1/2 43/1/2 47/1/2
f 44/1/2 45/1/2 49/1/2
f 49/1/2 45/1/2 50/1/2
f 42/1/2 46/1/2 52/1/2
f 52/1/2 46/1/2 53/1/2
f 53/1/2 54/1/2 55/1/2
f 55/1/2 54/1/2 56/1/2
f 56/1/2 57/1/2 58/1/2
f 58/1/2 57/1/2 59/1/2
f 61/1/2 62/1/2 63/1/2
f 63/1/2 62/1/2 64/1/2
f 59/1/2 60/1/2 65/1/2
f 65/1/2 60/1/2 66/1/2
f 48/1/2 49/1/2 67/1/2
f 67/1/2 49/1/2 68/1/2
f 50/1/2 51/1/2 69/1/2
f 69/1/2 51/1/2 70/1/2
f 64/1/2 65/1/2 71/1/2
f 71/1/2 65/1/2 72/1/2
f 68/1/2 69/1/2 73/1/2
f 73/1/2 69/1/2 74/1/2
f 77/2/3 76/2/3 75/2/3
f 78/2/3 76/2/3 77/2/3
f 83/1/3 80/1/3 79/1/3
f 84/1/3 80/1/3 83/1/3
f 85/1/3 82/1/3 81/1/3
f 86/1/3 82/1/3 85/1/3
f 91/1/3 88/1/3 87/1/3
f 92/1/3 88/1/3 91/1/3
f 93/1/3 90/1/3 89/1/3
f 94/1/3 90/1/3 93/1/3
f 97/1/3 96/1/3 95/1/3
f 98/1/3 96/1/3 97/1/3
f 101/1/3 100/1/3 99/1/3
f 102/1/3 100/1/3 101/1/3
f 105/1/3 104/1/3 103/1/3
f 106/1/3 104/1/3 105/1/3
f 111/1/3 108/1/3 107/1/3
f 112/1/3 108/1/3 111/1/3
f 113/1/3 110/1/3 109/1/3
f 114/1/3 110/1/3 113/1/3
f 117/1/3 116/1/3 115/1/3
f 118/1/3 116/1/3 117/1/3
f 119/1/4 120/1/4 123/1/4
f 123/1/4 120/1/4 124/1/4
f 121/1/4 122/1/4 125/1/4
f 125/1/4 122/1/4 126/1/4
f 127/1/4 128/1/4 129/1/4
f 129/1/4 128/1/4 130/1/4
f 131/1/4 132/1/4 135/1/4
f 135/1/4 132/1/4 136/1/4
f 133/1/4 134/1/4 137/1/4
f 137/1/4 134/1/4 138/1/4
f 139/1/4 140/1/4 143/1/4
f 143/1/4 140/1/4 144/1/4
f 141/1/4 142/1/4 145/1/4
f 145/1/4 142/1/4 146/1/4
f 147/1/4 148/1/4 149/1/4
f 149/1/4 148/1/4 150/1/4
f 151/1/4 152/1/4 155/1/4
f 155/1/4 152/1/4 156/1/4
f 153/1/4 154/1/4 157/1/4
f 157/1/4 154/1/4 158/1/4
f 159/1/4 160/1/4 161/1/4
f 161/1/4 160/1/4 162/1/4
f 163/2/4 164/2/4 165/2/4
f 165/2/4 164/2/4 166/2/4
f 169/2/5 168/2/5 167/2/5
f 170/2/5 168/2/5 169/2/5
f 173/1/5 172/1/5 171/1/5
f 174/1/5 172/1/5 173/1/5
f 177/1/5 176/1/5 175/1/5
f 178/1/5 176/1/5 177/1/5
f 181/1/5 180/1/5 179/1/5
f 182/1/5 180/1/5 181/1/5
f 185/1/5 184/1/5 183/1/5
f 186/1/5 184/1/5 185/1/5
f 189/1/5 188/1/5 187/1/5
f 190/1/5 188/1/5 189/1/5
f 193/1/5 192/1/5 191/1/5
f 194/1/5 192/1/5 193/1/5
f 197/1/5 196/1/5 195/1/5
f 198/1/5 196/1/5 197/1/5
f 201/1/5 200/1/5 199/1/5
f 202/1/5 200/1/5 201/1/5
f 205/1/5 204/1/5 203/1/5
f 206/1/5 204/1/5 205/1/5
f 209/1/5 208/1/5 207/1/5
f 210/1/5 208/1/5 209/1/5
f 211/1/6 212/1/6 213/1/6
f 213/1/6 212/1/6 214/1/6
f 215/1/6 216/1/6 217/1/6
f 217/1/6 216/1/6 218/1/6
f 219/1/6 220/1/6 221/1/6
f 221/1/6 220/1/6 222/1/6
f 223/1/6 224/1/6 225/1/6
f 225/1/6 224/1/6 226/1/6
f 227/1/6 228/1/6 229/1/6
f 229/1/6 228/1/6 230/1/6
f 231/1/6 232/1/6 233/1/6
f 233/1/6 232/1/6 234/1/6
f 235/1/6 236/1/6 237/1/6
f 237/1/6 236/1/6 238/1/6
f 239/1/6 240/1/6 241/1/6
f 241/1/6 240/1/6 242/1/6
f 243/1/6 244/1/6 245/1/6
f 245/1/6 244/1/6 246/1/6
f 247/1/6 248/1/6 249/1/6
f 249/1/6 248/1/6 250/1/6
f 251/1/6 252/1/6 253/1/6
f 253/1/6 252/1/6 254/1/6
f 255/2/6 256/2/6 257/2/6
f 257/2/6 256/2/6 258/2/6
