# MagicaVoxel @ Ephtracy

# material
mtllib Art_NOroom_03Tile.mtl
usemtl palette

# normals
vn -1 0 0
vn 1 0 0
vn 0 0 1
vn 0 0 -1
vn 0 -1 0
vn 0 1 0

# texcoords
vt 0.283203 0.5
vt 0.314453 0.5

# verts
v -1 0 4
v -1 0 -4
v -1 9 4
v -1 9 -4
v 0 0 4
v 0 0 -4
v 0 1 1
v 0 1 -1
v 0 2 2
v 0 2 1
v 0 2 -1
v 0 2 -2
v 0 3 2
v 0 3 1
v 0 4 -0
v 0 4 -1
v 0 4 -2
v 0 5 -0
v 0 5 -1
v 0 5 -2
v 0 6 2
v 0 6 1
v 0 7 2
v 0 7 1
v 0 7 -1
v 0 7 -2
v 0 8 1
v 0 8 -1
v 0 9 4
v 0 9 -4
v 1 1 1
v 1 1 -1
v 1 2 2
v 1 2 1
v 1 2 -1
v 1 2 -2
v 1 3 2
v 1 3 1
v 1 4 -0
v 1 4 -1
v 1 4 -2
v 1 5 -0
v 1 5 -1
v 1 5 -2
v 1 6 2
v 1 6 1
v 1 7 2
v 1 7 1
v 1 7 -1
v 1 7 -2
v 1 8 1
v 1 8 -1
v -1 0 4
v -1 9 4
v 0 0 4
v 0 9 4
v 0 2 2
v 0 3 2
v 0 6 2
v 0 7 2
v 1 2 2
v 1 3 2
v 1 6 2
v 1 7 2
v 0 1 1
v 0 2 1
v 0 7 1
v 0 8 1
v 1 1 1
v 1 2 1
v 1 7 1
v 1 8 1
v 0 4 -0
v 0 5 -0
v 1 4 -0
v 1 5 -0
v 0 2 -1
v 0 4 -1
v 0 5 -1
v 0 7 -1
v 1 2 -1
v 1 4 -1
v 1 5 -1
v 1 7 -1
v 0 2 1
v 0 3 1
v 0 6 1
v 0 7 1
v 1 2 1
v 1 3 1
v 1 6 1
v 1 7 1
v 0 1 -1
v 0 2 -1
v 0 4 -1
v 0 5 -1
v 0 7 -1
v 0 8 -1
v 1 1 -1
v 1 2 -1
v 1 4 -1
v 1 5 -1
v 1 7 -1
v 1 8 -1
v 0 2 -2
v 0 4 -2
v 0 5 -2
v 0 7 -2
v 1 2 -2
v 1 4 -2
v 1 5 -2
v 1 7 -2
v -1 0 -4
v -1 9 -4
v 0 0 -4
v 0 9 -4
v -1 0 4
v 0 0 4
v -1 0 -4
v 0 0 -4
v 0 1 1
v 1 1 1
v 0 1 -1
v 1 1 -1
v 0 2 2
v 1 2 2
v 0 2 1
v 1 2 1
v 0 2 -1
v 1 2 -1
v 0 2 -2
v 1 2 -2
v 0 4 -0
v 1 4 -0
v 0 4 -1
v 1 4 -1
v 0 5 -1
v 1 5 -1
v 0 5 -2
v 1 5 -2
v 0 6 2
v 1 6 2
v 0 6 1
v 1 6 1
v 0 7 1
v 1 7 1
v 0 7 -1
v 1 7 -1
v 0 2 1
v 1 2 1
v 0 2 -1
v 1 2 -1
v 0 3 2
v 1 3 2
v 0 3 1
v 1 3 1
v 0 4 -1
v 1 4 -1
v 0 4 -2
v 1 4 -2
v 0 5 -0
v 1 5 -0
v 0 5 -1
v 1 5 -1
v 0 7 2
v 1 7 2
v 0 7 1
v 1 7 1
v 0 7 -1
v 1 7 -1
v 0 7 -2
v 1 7 -2
v 0 8 1
v 1 8 1
v 0 8 -1
v 1 8 -1
v -1 9 4
v 0 9 4
v -1 9 -4
v 0 9 -4

# faces
f 3/2/1 2/2/1 1/2/1
f 4/2/1 2/2/1 3/2/1
f 5/2/2 6/2/2 7/2/2
f 7/2/2 6/2/2 8/2/2
f 5/2/2 7/2/2 9/2/2
f 9/2/2 7/2/2 10/2/2
f 8/2/2 6/2/2 11/2/2
f 11/2/2 6/2/2 12/2/2
f 5/2/2 9/2/2 13/2/2
f 10/2/2 11/2/2 14/2/2
f 14/2/2 11/2/2 15/2/2
f 13/2/2 14/2/2 15/2/2
f 15/2/2 11/2/2 16/2/2
f 12/2/2 6/2/2 17/2/2
f 13/2/2 15/2/2 18/2/2
f 16/2/2 17/2/2 19/2/2
f 17/2/2 6/2/2 20/2/2
f 19/2/2 17/2/2 20/2/2
f 13/2/2 18/2/2 21/2/2
f 5/2/2 13/2/2 21/2/2
f 18/2/2 19/2/2 21/2/2
f 21/2/2 19/2/2 22/2/2
f 5/2/2 21/2/2 23/2/2
f 22/2/2 19/2/2 24/2/2
f 24/2/2 19/2/2 25/2/2
f 20/2/2 6/2/2 26/2/2
f 23/2/2 24/2/2 27/2/2
f 25/2/2 26/2/2 28/2/2
f 23/2/2 27/2/2 29/2/2
f 27/2/2 28/2/2 29/2/2
f 5/2/2 23/2/2 29/2/2
f 28/2/2 26/2/2 30/2/2
f 29/2/2 28/2/2 30/2/2
f 26/2/2 6/2/2 30/2/2
f 31/1/2 32/1/2 34/1/2
f 34/1/2 32/1/2 35/1/2
f 33/1/2 34/1/2 37/1/2
f 37/1/2 34/1/2 38/1/2
f 35/1/2 36/1/2 40/1/2
f 40/1/2 36/1/2 41/1/2
f 39/1/2 40/1/2 42/1/2
f 42/1/2 40/1/2 43/1/2
f 45/1/2 46/1/2 47/1/2
f 47/1/2 46/1/2 48/1/2
f 43/1/2 44/1/2 49/1/2
f 49/1/2 44/1/2 50/1/2
f 48/1/2 49/1/2 51/1/2
f 51/1/2 49/1/2 52/1/2
f 55/2/3 54/2/3 53/2/3
f 56/2/3 54/2/3 55/2/3
f 61/1/3 58/1/3 57/1/3
f 62/1/3 58/1/3 61/1/3
f 63/1/3 60/1/3 59/1/3
f 64/1/3 60/1/3 63/1/3
f 69/1/3 66/1/3 65/1/3
f 70/1/3 66/1/3 69/1/3
f 71/1/3 68/1/3 67/1/3
f 72/1/3 68/1/3 71/1/3
f 75/1/3 74/1/3 73/1/3
f 76/1/3 74/1/3 75/1/3
f 81/1/3 78/1/3 77/1/3
f 82/1/3 78/1/3 81/1/3
f 83/1/3 80/1/3 79/1/3
f 84/1/3 80/1/3 83/1/3
f 85/1/4 86/1/4 89/1/4
f 89/1/4 86/1/4 90/1/4
f 87/1/4 88/1/4 91/1/4
f 91/1/4 88/1/4 92/1/4
f 93/1/4 94/1/4 99/1/4
f 99/1/4 94/1/4 100/1/4
f 95/1/4 96/1/4 101/1/4
f 101/1/4 96/1/4 102/1/4
f 97/1/4 98/1/4 103/1/4
f 103/1/4 98/1/4 104/1/4
f 105/1/4 106/1/4 109/1/4
f 109/1/4 106/1/4 110/1/4
f 107/1/4 108/1/4 111/1/4
f 111/1/4 108/1/4 112/1/4
f 113/2/4 114/2/4 115/2/4
f 115/2/4 114/2/4 116/2/4
f 119/2/5 118/2/5 117/2/5
f 120/2/5 118/2/5 119/2/5
f 123/1/5 122/1/5 121/1/5
f 124/1/5 122/1/5 123/1/5
f 127/1/5 126/1/5 125/1/5
f 128/1/5 126/1/5 127/1/5
f 131/1/5 130/1/5 129/1/5
f 132/1/5 130/1/5 131/1/5
f 135/1/5 134/1/5 133/1/5
f 136/1/5 134/1/5 135/1/5
f 139/1/5 138/1/5 137/1/5
f 140/1/5 138/1/5 139/1/5
f 143/1/5 142/1/5 141/1/5
f 144/1/5 142/1/5 143/1/5
f 147/1/5 146/1/5 145/1/5
f 148/1/5 146/1/5 147/1/5
f 149/1/6 150/1/6 151/1/6
f 151/1/6 150/1/6 152/1/6
f 153/1/6 154/1/6 155/1/6
f 155/1/6 154/1/6 156/1/6
f 157/1/6 158/1/6 159/1/6
f 159/1/6 158/1/6 160/1/6
f 161/1/6 162/1/6 163/1/6
f 163/1/6 162/1/6 164/1/6
f 165/1/6 166/1/6 167/1/6
f 167/1/6 166/1/6 168/1/6
f 169/1/6 170/1/6 171/1/6
f 171/1/6 170/1/6 172/1/6
f 173/1/6 174/1/6 175/1/6
f 175/1/6 174/1/6 176/1/6
f 177/2/6 178/2/6 179/2/6
f 179/2/6 178/2/6 180/2/6
