# MagicaVoxel @ Ephtracy

# material
mtllib Art_NOroom_015Tile.mtl
usemtl palette

# normals
vn -1 0 0
vn 1 0 0
vn 0 0 1
vn 0 0 -1
vn 0 -1 0
vn 0 1 0

# texcoords
vt 0.283203 0.5
vt 0.314453 0.5

# verts
v -37 87 5
v -37 87 -7
v -37 96 5
v -37 96 -7
v -36 87 5
v -36 87 -7
v -36 88 3
v -36 88 -0
v -36 88 -2
v -36 88 -4
v -36 89 3
v -36 89 2
v -36 89 1
v -36 89 -0
v -36 89 -1
v -36 89 -2
v -36 89 -4
v -36 89 -5
v -36 90 -1
v -36 90 -2
v -36 92 -1
v -36 92 -4
v -36 92 -5
v -36 93 3
v -36 93 2
v -36 93 -2
v -36 93 -4
v -36 94 3
v -36 94 2
v -36 94 -2
v -36 94 -5
v -36 95 2
v -36 95 1
v -36 95 -1
v -36 95 -5
v -36 96 5
v -36 96 -7
v -35 88 3
v -35 88 -0
v -35 88 -2
v -35 88 -4
v -35 89 3
v -35 89 2
v -35 89 1
v -35 89 -0
v -35 89 -1
v -35 89 -2
v -35 89 -4
v -35 89 -5
v -35 90 -1
v -35 90 -2
v -35 92 -1
v -35 92 -4
v -35 92 -5
v -35 93 3
v -35 93 2
v -35 93 -2
v -35 93 -4
v -35 94 3
v -35 94 2
v -35 94 -2
v -35 94 -5
v -35 95 2
v -35 95 1
v -35 95 -1
v -35 95 -5
v -37 87 5
v -37 96 5
v -36 87 5
v -36 96 5
v -36 88 3
v -36 89 3
v -36 93 3
v -36 94 3
v -35 88 3
v -35 89 3
v -35 93 3
v -35 94 3
v -36 89 2
v -36 93 2
v -36 94 2
v -36 95 2
v -35 89 2
v -35 93 2
v -35 94 2
v -35 95 2
v -36 89 -1
v -36 90 -1
v -36 92 -1
v -36 95 -1
v -35 89 -1
v -35 90 -1
v -35 92 -1
v -35 95 -1
v -36 88 -2
v -36 89 -2
v -35 88 -2
v -35 89 -2
v -36 89 -4
v -36 92 -4
v -35 89 -4
v -35 92 -4
v -36 89 1
v -36 95 1
v -35 89 1
v -35 95 1
v -36 88 -0
v -36 89 -0
v -35 88 -0
v -35 89 -0
v -36 89 -2
v -36 90 -2
v -36 93 -2
v -36 94 -2
v -35 89 -2
v -35 90 -2
v -35 93 -2
v -35 94 -2
v -36 88 -4
v -36 89 -4
v -36 92 -4
v -36 93 -4
v -35 88 -4
v -35 89 -4
v -35 92 -4
v -35 93 -4
v -36 89 -5
v -36 92 -5
v -36 94 -5
v -36 95 -5
v -35 89 -5
v -35 92 -5
v -35 94 -5
v -35 95 -5
v -37 87 -7
v -37 96 -7
v -36 87 -7
v -36 96 -7
v -37 87 5
v -36 87 5
v -37 87 -7
v -36 87 -7
v -36 88 3
v -35 88 3
v -36 88 -0
v -35 88 -0
v -36 88 -2
v -35 88 -2
v -36 88 -4
v -35 88 -4
v -36 89 -1
v -35 89 -1
v -36 89 -2
v -35 89 -2
v -36 89 -4
v -35 89 -4
v -36 89 -5
v -35 89 -5
v -36 92 -1
v -35 92 -1
v -36 92 -4
v -35 92 -4
v -36 93 3
v -35 93 3
v -36 93 2
v -35 93 2
v -36 94 -2
v -35 94 -2
v -36 94 -5
v -35 94 -5
v -36 89 3
v -35 89 3
v -36 89 2
v -35 89 2
v -36 89 1
v -35 89 1
v -36 89 -0
v -35 89 -0
v -36 89 -2
v -35 89 -2
v -36 89 -4
v -35 89 -4
v -36 90 -1
v -35 90 -1
v -36 90 -2
v -35 90 -2
v -36 92 -4
v -35 92 -4
v -36 92 -5
v -35 92 -5
v -36 93 -2
v -35 93 -2
v -36 93 -4
v -35 93 -4
v -36 94 3
v -35 94 3
v -36 94 2
v -35 94 2
v -36 95 2
v -35 95 2
v -36 95 1
v -35 95 1
v -36 95 -1
v -35 95 -1
v -36 95 -5
v -35 95 -5
v -37 96 5
v -36 96 5
v -37 96 -7
v -36 96 -7

# faces
f 3/2/1 2/2/1 1/2/1
f 4/2/1 2/2/1 3/2/1
f 5/2/2 6/2/2 7/2/2
f 7/2/2 6/2/2 8/2/2
f 8/2/2 6/2/2 9/2/2
f 9/2/2 6/2/2 10/2/2
f 5/2/2 7/2/2 11/2/2
f 8/2/2 9/2/2 14/2/2
f 14/2/2 9/2/2 15/2/2
f 15/2/2 9/2/2 16/2/2
f 10/2/2 6/2/2 17/2/2
f 17/2/2 6/2/2 18/2/2
f 13/2/2 14/2/2 19/2/2
f 14/2/2 15/2/2 19/2/2
f 16/2/2 17/2/2 20/2/2
f 13/2/2 19/2/2 21/2/2
f 19/2/2 20/2/2 21/2/2
f 20/2/2 17/2/2 22/2/2
f 21/2/2 20/2/2 22/2/2
f 18/2/2 6/2/2 23/2/2
f 11/2/2 12/2/2 24/2/2
f 5/2/2 11/2/2 24/2/2
f 24/2/2 12/2/2 25/2/2
f 22/2/2 23/2/2 27/2/2
f 5/2/2 24/2/2 28/2/2
f 26/2/2 27/2/2 30/2/2
f 23/2/2 6/2/2 31/2/2
f 30/2/2 27/2/2 31/2/2
f 27/2/2 23/2/2 31/2/2
f 28/2/2 29/2/2 32/2/2
f 13/2/2 21/2/2 33/2/2
f 33/2/2 21/2/2 34/2/2
f 31/2/2 6/2/2 35/2/2
f 33/2/2 34/2/2 36/2/2
f 34/2/2 35/2/2 36/2/2
f 28/2/2 32/2/2 36/2/2
f 5/2/2 28/2/2 36/2/2
f 32/2/2 33/2/2 36/2/2
f 35/2/2 6/2/2 37/2/2
f 36/2/2 35/2/2 37/2/2
f 38/1/2 39/1/2 42/1/2
f 42/1/2 39/1/2 43/1/2
f 43/1/2 39/1/2 44/1/2
f 44/1/2 39/1/2 45/1/2
f 40/1/2 41/1/2 47/1/2
f 47/1/2 41/1/2 48/1/2
f 46/1/2 47/1/2 50/1/2
f 50/1/2 47/1/2 51/1/2
f 48/1/2 49/1/2 53/1/2
f 53/1/2 49/1/2 54/1/2
f 43/1/2 44/1/2 56/1/2
f 52/1/2 53/1/2 57/1/2
f 57/1/2 53/1/2 58/1/2
f 55/1/2 56/1/2 59/1/2
f 56/1/2 44/1/2 60/1/2
f 59/1/2 56/1/2 60/1/2
f 52/1/2 57/1/2 61/1/2
f 60/1/2 44/1/2 63/1/2
f 63/1/2 44/1/2 64/1/2
f 52/1/2 61/1/2 65/1/2
f 61/1/2 62/1/2 65/1/2
f 65/1/2 62/1/2 66/1/2
f 69/2/3 68/2/3 67/2/3
f 70/2/3 68/2/3 69/2/3
f 75/1/3 72/1/3 71/1/3
f 76/1/3 72/1/3 75/1/3
f 77/1/3 74/1/3 73/1/3
f 78/1/3 74/1/3 77/1/3
f 83/1/3 80/1/3 79/1/3
f 84/1/3 80/1/3 83/1/3
f 85/1/3 82/1/3 81/1/3
f 86/1/3 82/1/3 85/1/3
f 91/1/3 88/1/3 87/1/3
f 92/1/3 88/1/3 91/1/3
f 93/1/3 90/1/3 89/1/3
f 94/1/3 90/1/3 93/1/3
f 97/1/3 96/1/3 95/1/3
f 98/1/3 96/1/3 97/1/3
f 101/1/3 100/1/3 99/1/3
f 102/1/3 100/1/3 101/1/3
f 103/1/4 104/1/4 105/1/4
f 105/1/4 104/1/4 106/1/4
f 107/1/4 108/1/4 109/1/4
f 109/1/4 108/1/4 110/1/4
f 111/1/4 112/1/4 115/1/4
f 115/1/4 112/1/4 116/1/4
f 113/1/4 114/1/4 117/1/4
f 117/1/4 114/1/4 118/1/4
f 119/1/4 120/1/4 123/1/4
f 123/1/4 120/1/4 124/1/4
f 121/1/4 122/1/4 125/1/4
f 125/1/4 122/1/4 126/1/4
f 127/1/4 128/1/4 131/1/4
f 131/1/4 128/1/4 132/1/4
f 129/1/4 130/1/4 133/1/4
f 133/1/4 130/1/4 134/1/4
f 135/2/4 136/2/4 137/2/4
f 137/2/4 136/2/4 138/2/4
f 141/2/5 140/2/5 139/2/5
f 142/2/5 140/2/5 141/2/5
f 145/1/5 144/1/5 143/1/5
f 146/1/5 144/1/5 145/1/5
f 149/1/5 148/1/5 147/1/5
f 150/1/5 148/1/5 149/1/5
f 153/1/5 152/1/5 151/1/5
f 154/1/5 152/1/5 153/1/5
f 157/1/5 156/1/5 155/1/5
f 158/1/5 156/1/5 157/1/5
f 161/1/5 160/1/5 159/1/5
f 162/1/5 160/1/5 161/1/5
f 165/1/5 164/1/5 163/1/5
f 166/1/5 164/1/5 165/1/5
f 169/1/5 168/1/5 167/1/5
f 170/1/5 168/1/5 169/1/5
f 171/1/6 172/1/6 173/1/6
f 173/1/6 172/1/6 174/1/6
f 175/1/6 176/1/6 177/1/6
f 177/1/6 176/1/6 178/1/6
f 179/1/6 180/1/6 181/1/6
f 181/1/6 180/1/6 182/1/6
f 183/1/6 184/1/6 185/1/6
f 185/1/6 184/1/6 186/1/6
f 187/1/6 188/1/6 189/1/6
f 189/1/6 188/1/6 190/1/6
f 191/1/6 192/1/6 193/1/6
f 193/1/6 192/1/6 194/1/6
f 195/1/6 196/1/6 197/1/6
f 197/1/6 196/1/6 198/1/6
f 199/1/6 200/1/6 201/1/6
f 201/1/6 200/1/6 202/1/6
f 203/1/6 204/1/6 205/1/6
f 205/1/6 204/1/6 206/1/6
f 207/2/6 208/2/6 209/2/6
f 209/2/6 208/2/6 210/2/6
