# MagicaVoxel @ Ephtracy

# material
mtllib Art_NOroom_023Tile.mtl
usemtl palette

# normals
vn -1 0 0
vn 1 0 0
vn 0 0 1
vn 0 0 -1
vn 0 -1 0
vn 0 1 0

# texcoords
vt 0.283203 0.5
vt 0.314453 0.5

# verts
v -37 72 34
v -37 72 21
v -37 81 34
v -37 81 21
v -36 72 34
v -36 72 21
v -36 73 32
v -36 73 28
v -36 73 26
v -36 73 24
v -36 74 31
v -36 74 28
v -36 74 27
v -36 74 26
v -36 74 24
v -36 74 23
v -36 75 32
v -36 75 31
v -36 75 30
v -36 75 27
v -36 75 26
v -36 76 31
v -36 76 30
v -36 76 29
v -36 76 25
v -36 76 24
v -36 76 23
v -36 77 30
v -36 77 29
v -36 77 28
v -36 77 25
v -36 77 24
v -36 77 23
v -36 78 32
v -36 78 31
v -36 78 27
v -36 78 26
v -36 79 32
v -36 79 31
v -36 79 29
v -36 79 28
v -36 79 27
v -36 79 26
v -36 79 24
v -36 79 23
v -36 80 31
v -36 80 29
v -36 80 26
v -36 80 24
v -36 81 34
v -36 81 21
v -35 73 32
v -35 73 28
v -35 73 26
v -35 73 24
v -35 74 31
v -35 74 28
v -35 74 27
v -35 74 26
v -35 74 24
v -35 74 23
v -35 75 32
v -35 75 31
v -35 75 30
v -35 75 27
v -35 75 26
v -35 76 31
v -35 76 30
v -35 76 29
v -35 76 25
v -35 76 24
v -35 76 23
v -35 77 30
v -35 77 29
v -35 77 28
v -35 77 25
v -35 77 24
v -35 77 23
v -35 78 32
v -35 78 31
v -35 78 27
v -35 78 26
v -35 79 32
v -35 79 31
v -35 79 29
v -35 79 28
v -35 79 27
v -35 79 26
v -35 79 24
v -35 79 23
v -35 80 31
v -35 80 29
v -35 80 26
v -35 80 24
v -37 72 34
v -37 81 34
v -36 72 34
v -36 81 34
v -36 73 32
v -36 75 32
v -36 78 32
v -36 79 32
v -35 73 32
v -35 75 32
v -35 78 32
v -35 79 32
v -36 75 31
v -36 76 31
v -36 79 31
v -36 80 31
v -35 75 31
v -35 76 31
v -35 79 31
v -35 80 31
v -36 76 30
v -36 77 30
v -35 76 30
v -35 77 30
v -36 77 29
v -36 79 29
v -35 77 29
v -35 79 29
v -36 74 27
v -36 75 27
v -36 78 27
v -36 79 27
v -35 74 27
v -35 75 27
v -35 78 27
v -35 79 27
v -36 73 26
v -36 74 26
v -36 79 26
v -36 80 26
v -35 73 26
v -35 74 26
v -35 79 26
v -35 80 26
v -36 76 25
v -36 77 25
v -35 76 25
v -35 77 25
v -36 74 24
v -36 76 24
v -36 77 24
v -36 79 24
v -35 74 24
v -35 76 24
v -35 77 24
v -35 79 24
v -36 74 31
v -36 75 31
v -36 78 31
v -36 79 31
v -35 74 31
v -35 75 31
v -35 78 31
v -35 79 31
v -36 75 30
v -36 76 30
v -35 75 30
v -35 76 30
v -36 76 29
v -36 77 29
v -36 79 29
v -36 80 29
v -35 76 29
v -35 77 29
v -35 79 29
v -35 80 29
v -36 73 28
v -36 74 28
v -36 77 28
v -36 79 28
v -35 73 28
v -35 74 28
v -35 77 28
v -35 79 28
v -36 74 26
v -36 75 26
v -36 78 26
v -36 79 26
v -35 74 26
v -35 75 26
v -35 78 26
v -35 79 26
v -36 73 24
v -36 74 24
v -36 76 24
v -36 77 24
v -36 79 24
v -36 80 24
v -35 73 24
v -35 74 24
v -35 76 24
v -35 77 24
v -35 79 24
v -35 80 24
v -36 74 23
v -36 76 23
v -36 77 23
v -36 79 23
v -35 74 23
v -35 76 23
v -35 77 23
v -35 79 23
v -37 72 21
v -37 81 21
v -36 72 21
v -36 81 21
v -37 72 34
v -36 72 34
v -37 72 21
v -36 72 21
v -36 73 32
v -35 73 32
v -36 73 28
v -35 73 28
v -36 73 26
v -35 73 26
v -36 73 24
v -35 73 24
v -36 74 27
v -35 74 27
v -36 74 26
v -35 74 26
v -36 74 24
v -35 74 24
v -36 74 23
v -35 74 23
v -36 75 31
v -35 75 31
v -36 75 30
v -35 75 30
v -36 76 30
v -35 76 30
v -36 76 29
v -35 76 29
v -36 76 25
v -35 76 25
v -36 76 24
v -35 76 24
v -36 77 29
v -35 77 29
v -36 77 28
v -35 77 28
v -36 77 24
v -35 77 24
v -36 77 23
v -35 77 23
v -36 78 32
v -35 78 32
v -36 78 31
v -35 78 31
v -36 78 27
v -35 78 27
v -36 78 26
v -35 78 26
v -36 79 31
v -35 79 31
v -36 79 29
v -35 79 29
v -36 79 26
v -35 79 26
v -36 79 24
v -35 79 24
v -36 74 31
v -35 74 31
v -36 74 28
v -35 74 28
v -36 74 26
v -35 74 26
v -36 74 24
v -35 74 24
v -36 75 32
v -35 75 32
v -36 75 31
v -35 75 31
v -36 75 27
v -35 75 27
v -36 75 26
v -35 75 26
v -36 76 31
v -35 76 31
v -36 76 30
v -35 76 30
v -36 76 24
v -35 76 24
v -36 76 23
v -35 76 23
v -36 77 30
v -35 77 30
v -36 77 29
v -35 77 29
v -36 77 25
v -35 77 25
v -36 77 24
v -35 77 24
v -36 79 32
v -35 79 32
v -36 79 31
v -35 79 31
v -36 79 29
v -35 79 29
v -36 79 28
v -35 79 28
v -36 79 27
v -35 79 27
v -36 79 26
v -35 79 26
v -36 79 24
v -35 79 24
v -36 79 23
v -35 79 23
v -36 80 31
v -35 80 31
v -36 80 29
v -35 80 29
v -36 80 26
v -35 80 26
v -36 80 24
v -35 80 24
v -37 81 34
v -36 81 34
v -37 81 21
v -36 81 21

# faces
f 3/2/1 2/2/1 1/2/1
f 4/2/1 2/2/1 3/2/1
f 5/2/2 6/2/2 7/2/2
f 7/2/2 6/2/2 8/2/2
f 8/2/2 6/2/2 9/2/2
f 9/2/2 6/2/2 10/2/2
f 8/2/2 9/2/2 12/2/2
f 12/2/2 9/2/2 13/2/2
f 13/2/2 9/2/2 14/2/2
f 10/2/2 6/2/2 15/2/2
f 15/2/2 6/2/2 16/2/2
f 5/2/2 7/2/2 17/2/2
f 11/2/2 12/2/2 18/2/2
f 12/2/2 13/2/2 18/2/2
f 18/2/2 13/2/2 19/2/2
f 19/2/2 13/2/2 20/2/2
f 14/2/2 15/2/2 21/2/2
f 17/2/2 18/2/2 22/2/2
f 19/2/2 20/2/2 23/2/2
f 20/2/2 21/2/2 23/2/2
f 23/2/2 21/2/2 24/2/2
f 21/2/2 15/2/2 25/2/2
f 24/2/2 21/2/2 25/2/2
f 25/2/2 15/2/2 26/2/2
f 16/2/2 6/2/2 27/2/2
f 22/2/2 23/2/2 28/2/2
f 24/2/2 25/2/2 29/2/2
f 29/2/2 25/2/2 30/2/2
f 30/2/2 25/2/2 31/2/2
f 26/2/2 27/2/2 32/2/2
f 27/2/2 6/2/2 33/2/2
f 32/2/2 27/2/2 33/2/2
f 17/2/2 22/2/2 34/2/2
f 5/2/2 17/2/2 34/2/2
f 22/2/2 28/2/2 34/2/2
f 28/2/2 29/2/2 34/2/2
f 34/2/2 29/2/2 35/2/2
f 30/2/2 31/2/2 36/2/2
f 31/2/2 32/2/2 36/2/2
f 36/2/2 32/2/2 37/2/2
f 5/2/2 34/2/2 38/2/2
f 35/2/2 29/2/2 39/2/2
f 39/2/2 29/2/2 40/2/2
f 30/2/2 36/2/2 41/2/2
f 41/2/2 36/2/2 42/2/2
f 37/2/2 32/2/2 43/2/2
f 43/2/2 32/2/2 44/2/2
f 33/2/2 6/2/2 45/2/2
f 38/2/2 39/2/2 46/2/2
f 41/2/2 42/2/2 47/2/2
f 40/2/2 41/2/2 47/2/2
f 42/2/2 43/2/2 47/2/2
f 47/2/2 43/2/2 48/2/2
f 44/2/2 45/2/2 49/2/2
f 5/2/2 38/2/2 50/2/2
f 48/2/2 49/2/2 50/2/2
f 47/2/2 48/2/2 50/2/2
f 38/2/2 46/2/2 50/2/2
f 46/2/2 47/2/2 50/2/2
f 49/2/2 45/2/2 51/2/2
f 50/2/2 49/2/2 51/2/2
f 45/2/2 6/2/2 51/2/2
f 52/1/2 53/1/2 56/1/2
f 56/1/2 53/1/2 57/1/2
f 54/1/2 55/1/2 59/1/2
f 59/1/2 55/1/2 60/1/2
f 52/1/2 56/1/2 62/1/2
f 62/1/2 56/1/2 63/1/2
f 58/1/2 59/1/2 65/1/2
f 65/1/2 59/1/2 66/1/2
f 63/1/2 64/1/2 67/1/2
f 67/1/2 64/1/2 68/1/2
f 60/1/2 61/1/2 71/1/2
f 71/1/2 61/1/2 72/1/2
f 68/1/2 69/1/2 73/1/2
f 73/1/2 69/1/2 74/1/2
f 70/1/2 71/1/2 76/1/2
f 76/1/2 71/1/2 77/1/2
f 79/1/2 80/1/2 83/1/2
f 83/1/2 80/1/2 84/1/2
f 74/1/2 75/1/2 85/1/2
f 85/1/2 75/1/2 86/1/2
f 81/1/2 82/1/2 87/1/2
f 87/1/2 82/1/2 88/1/2
f 77/1/2 78/1/2 89/1/2
f 89/1/2 78/1/2 90/1/2
f 84/1/2 85/1/2 91/1/2
f 91/1/2 85/1/2 92/1/2
f 88/1/2 89/1/2 93/1/2
f 93/1/2 89/1/2 94/1/2
f 97/2/3 96/2/3 95/2/3
f 98/2/3 96/2/3 97/2/3
f 103/1/3 100/1/3 99/1/3
f 104/1/3 100/1/3 103/1/3
f 105/1/3 102/1/3 101/1/3
f 106/1/3 102/1/3 105/1/3
f 111/1/3 108/1/3 107/1/3
f 112/1/3 108/1/3 111/1/3
f 113/1/3 110/1/3 109/1/3
f 114/1/3 110/1/3 113/1/3
f 117/1/3 116/1/3 115/1/3
f 118/1/3 116/1/3 117/1/3
f 121/1/3 120/1/3 119/1/3
f 122/1/3 120/1/3 121/1/3
f 127/1/3 124/1/3 123/1/3
f 128/1/3 124/1/3 127/1/3
f 129/1/3 126/1/3 125/1/3
f 130/1/3 126/1/3 129/1/3
f 135/1/3 132/1/3 131/1/3
f 136/1/3 132/1/3 135/1/3
f 137/1/3 134/1/3 133/1/3
f 138/1/3 134/1/3 137/1/3
f 141/1/3 140/1/3 139/1/3
f 142/1/3 140/1/3 141/1/3
f 147/1/3 144/1/3 143/1/3
f 148/1/3 144/1/3 147/1/3
f 149/1/3 146/1/3 145/1/3
f 150/1/3 146/1/3 149/1/3
f 151/1/4 152/1/4 155/1/4
f 155/1/4 152/1/4 156/1/4
f 153/1/4 154/1/4 157/1/4
f 157/1/4 154/1/4 158/1/4
f 159/1/4 160/1/4 161/1/4
f 161/1/4 160/1/4 162/1/4
f 163/1/4 164/1/4 167/1/4
f 167/1/4 164/1/4 168/1/4
f 165/1/4 166/1/4 169/1/4
f 169/1/4 166/1/4 170/1/4
f 171/1/4 172/1/4 175/1/4
f 175/1/4 172/1/4 176/1/4
f 173/1/4 174/1/4 177/1/4
f 177/1/4 174/1/4 178/1/4
f 179/1/4 180/1/4 183/1/4
f 183/1/4 180/1/4 184/1/4
f 181/1/4 182/1/4 185/1/4
f 185/1/4 182/1/4 186/1/4
f 187/1/4 188/1/4 193/1/4
f 193/1/4 188/1/4 194/1/4
f 189/1/4 190/1/4 195/1/4
f 195/1/4 190/1/4 196/1/4
f 191/1/4 192/1/4 197/1/4
f 197/1/4 192/1/4 198/1/4
f 199/1/4 200/1/4 203/1/4
f 203/1/4 200/1/4 204/1/4
f 201/1/4 202/1/4 205/1/4
f 205/1/4 202/1/4 206/1/4
f 207/2/4 208/2/4 209/2/4
f 209/2/4 208/2/4 210/2/4
f 213/2/5 212/2/5 211/2/5
f 214/2/5 212/2/5 213/2/5
f 217/1/5 216/1/5 215/1/5
f 218/1/5 216/1/5 217/1/5
f 221/1/5 220/1/5 219/1/5
f 222/1/5 220/1/5 221/1/5
f 225/1/5 224/1/5 223/1/5
f 226/1/5 224/1/5 225/1/5
f 229/1/5 228/1/5 227/1/5
f 230/1/5 228/1/5 229/1/5
f 233/1/5 232/1/5 231/1/5
f 234/1/5 232/1/5 233/1/5
f 237/1/5 236/1/5 235/1/5
f 238/1/5 236/1/5 237/1/5
f 241/1/5 240/1/5 239/1/5
f 242/1/5 240/1/5 241/1/5
f 245/1/5 244/1/5 243/1/5
f 246/1/5 244/1/5 245/1/5
f 249/1/5 248/1/5 247/1/5
f 250/1/5 248/1/5 249/1/5
f 253/1/5 252/1/5 251/1/5
f 254/1/5 252/1/5 253/1/5
f 257/1/5 256/1/5 255/1/5
f 258/1/5 256/1/5 257/1/5
f 261/1/5 260/1/5 259/1/5
f 262/1/5 260/1/5 261/1/5
f 265/1/5 264/1/5 263/1/5
f 266/1/5 264/1/5 265/1/5
f 267/1/6 268/1/6 269/1/6
f 269/1/6 268/1/6 270/1/6
f 271/1/6 272/1/6 273/1/6
f 273/1/6 272/1/6 274/1/6
f 275/1/6 276/1/6 277/1/6
f 277/1/6 276/1/6 278/1/6
f 279/1/6 280/1/6 281/1/6
f 281/1/6 280/1/6 282/1/6
f 283/1/6 284/1/6 285/1/6
f 285/1/6 284/1/6 286/1/6
f 287/1/6 288/1/6 289/1/6
f 289/1/6 288/1/6 290/1/6
f 291/1/6 292/1/6 293/1/6
f 293/1/6 292/1/6 294/1/6
f 295/1/6 296/1/6 297/1/6
f 297/1/6 296/1/6 298/1/6
f 299/1/6 300/1/6 301/1/6
f 301/1/6 300/1/6 302/1/6
f 303/1/6 304/1/6 305/1/6
f 305/1/6 304/1/6 306/1/6
f 307/1/6 308/1/6 309/1/6
f 309/1/6 308/1/6 310/1/6
f 311/1/6 312/1/6 313/1/6
f 313/1/6 312/1/6 314/1/6
f 315/1/6 316/1/6 317/1/6
f 317/1/6 316/1/6 318/1/6
f 319/1/6 320/1/6 321/1/6
f 321/1/6 320/1/6 322/1/6
f 323/2/6 324/2/6 325/2/6
f 325/2/6 324/2/6 326/2/6
