# MagicaVoxel @ Ephtracy

# material
mtllib Art_NOroom_022Tile.mtl
usemtl palette

# normals
vn -1 0 0
vn 1 0 0
vn 0 0 1
vn 0 0 -1
vn 0 -1 0
vn 0 1 0

# texcoords
vt 0.283203 0.5
vt 0.314453 0.5

# verts
v -37 72 49
v -37 72 36
v -37 81 49
v -37 81 36
v -36 72 49
v -36 72 36
v -36 73 47
v -36 73 43
v -36 73 42
v -36 73 38
v -36 74 46
v -36 74 43
v -36 74 41
v -36 74 38
v -36 75 47
v -36 75 46
v -36 75 45
v -36 75 42
v -36 75 41
v -36 75 40
v -36 76 46
v -36 76 45
v -36 76 44
v -36 76 41
v -36 76 40
v -36 76 39
v -36 77 45
v -36 77 44
v -36 77 43
v -36 77 40
v -36 77 39
v -36 77 38
v -36 78 47
v -36 78 46
v -36 78 42
v -36 78 41
v -36 79 47
v -36 79 46
v -36 79 44
v -36 79 43
v -36 79 42
v -36 79 41
v -36 79 39
v -36 79 38
v -36 80 46
v -36 80 44
v -36 80 41
v -36 80 39
v -36 81 49
v -36 81 36
v -35 73 47
v -35 73 43
v -35 73 42
v -35 73 38
v -35 74 46
v -35 74 43
v -35 74 41
v -35 74 38
v -35 75 47
v -35 75 46
v -35 75 45
v -35 75 42
v -35 75 41
v -35 75 40
v -35 76 46
v -35 76 45
v -35 76 44
v -35 76 41
v -35 76 40
v -35 76 39
v -35 77 45
v -35 77 44
v -35 77 43
v -35 77 40
v -35 77 39
v -35 77 38
v -35 78 47
v -35 78 46
v -35 78 42
v -35 78 41
v -35 79 47
v -35 79 46
v -35 79 44
v -35 79 43
v -35 79 42
v -35 79 41
v -35 79 39
v -35 79 38
v -35 80 46
v -35 80 44
v -35 80 41
v -35 80 39
v -37 72 49
v -37 81 49
v -36 72 49
v -36 81 49
v -36 73 47
v -36 75 47
v -36 78 47
v -36 79 47
v -35 73 47
v -35 75 47
v -35 78 47
v -35 79 47
v -36 75 46
v -36 76 46
v -36 79 46
v -36 80 46
v -35 75 46
v -35 76 46
v -35 79 46
v -35 80 46
v -36 76 45
v -36 77 45
v -35 76 45
v -35 77 45
v -36 77 44
v -36 79 44
v -35 77 44
v -35 79 44
v -36 73 42
v -36 75 42
v -36 78 42
v -36 79 42
v -35 73 42
v -35 75 42
v -35 78 42
v -35 79 42
v -36 75 41
v -36 76 41
v -36 79 41
v -36 80 41
v -35 75 41
v -35 76 41
v -35 79 41
v -35 80 41
v -36 76 40
v -36 77 40
v -35 76 40
v -35 77 40
v -36 77 39
v -36 79 39
v -35 77 39
v -35 79 39
v -36 74 46
v -36 75 46
v -36 78 46
v -36 79 46
v -35 74 46
v -35 75 46
v -35 78 46
v -35 79 46
v -36 75 45
v -36 76 45
v -35 75 45
v -35 76 45
v -36 76 44
v -36 77 44
v -36 79 44
v -36 80 44
v -35 76 44
v -35 77 44
v -35 79 44
v -35 80 44
v -36 73 43
v -36 74 43
v -36 77 43
v -36 79 43
v -35 73 43
v -35 74 43
v -35 77 43
v -35 79 43
v -36 74 41
v -36 75 41
v -36 78 41
v -36 79 41
v -35 74 41
v -35 75 41
v -35 78 41
v -35 79 41
v -36 75 40
v -36 76 40
v -35 75 40
v -35 76 40
v -36 76 39
v -36 77 39
v -36 79 39
v -36 80 39
v -35 76 39
v -35 77 39
v -35 79 39
v -35 80 39
v -36 73 38
v -36 74 38
v -36 77 38
v -36 79 38
v -35 73 38
v -35 74 38
v -35 77 38
v -35 79 38
v -37 72 36
v -37 81 36
v -36 72 36
v -36 81 36
v -37 72 49
v -36 72 49
v -37 72 36
v -36 72 36
v -36 73 47
v -35 73 47
v -36 73 43
v -35 73 43
v -36 73 42
v -35 73 42
v -36 73 38
v -35 73 38
v -36 75 46
v -35 75 46
v -36 75 45
v -35 75 45
v -36 75 41
v -35 75 41
v -36 75 40
v -35 75 40
v -36 76 45
v -35 76 45
v -36 76 44
v -35 76 44
v -36 76 40
v -35 76 40
v -36 76 39
v -35 76 39
v -36 77 44
v -35 77 44
v -36 77 43
v -35 77 43
v -36 77 39
v -35 77 39
v -36 77 38
v -35 77 38
v -36 78 47
v -35 78 47
v -36 78 46
v -35 78 46
v -36 78 42
v -35 78 42
v -36 78 41
v -35 78 41
v -36 79 46
v -35 79 46
v -36 79 44
v -35 79 44
v -36 79 41
v -35 79 41
v -36 79 39
v -35 79 39
v -36 74 46
v -35 74 46
v -36 74 43
v -35 74 43
v -36 74 41
v -35 74 41
v -36 74 38
v -35 74 38
v -36 75 47
v -35 75 47
v -36 75 46
v -35 75 46
v -36 75 42
v -35 75 42
v -36 75 41
v -35 75 41
v -36 76 46
v -35 76 46
v -36 76 45
v -35 76 45
v -36 76 41
v -35 76 41
v -36 76 40
v -35 76 40
v -36 77 45
v -35 77 45
v -36 77 44
v -35 77 44
v -36 77 40
v -35 77 40
v -36 77 39
v -35 77 39
v -36 79 47
v -35 79 47
v -36 79 46
v -35 79 46
v -36 79 44
v -35 79 44
v -36 79 43
v -35 79 43
v -36 79 42
v -35 79 42
v -36 79 41
v -35 79 41
v -36 79 39
v -35 79 39
v -36 79 38
v -35 79 38
v -36 80 46
v -35 80 46
v -36 80 44
v -35 80 44
v -36 80 41
v -35 80 41
v -36 80 39
v -35 80 39
v -37 81 49
v -36 81 49
v -37 81 36
v -36 81 36

# faces
f 3/2/1 2/2/1 1/2/1
f 4/2/1 2/2/1 3/2/1
f 5/2/2 6/2/2 7/2/2
f 7/2/2 6/2/2 8/2/2
f 8/2/2 6/2/2 9/2/2
f 9/2/2 6/2/2 10/2/2
f 8/2/2 9/2/2 12/2/2
f 10/2/2 6/2/2 14/2/2
f 5/2/2 7/2/2 15/2/2
f 11/2/2 12/2/2 16/2/2
f 16/2/2 12/2/2 17/2/2
f 12/2/2 9/2/2 18/2/2
f 17/2/2 12/2/2 18/2/2
f 13/2/2 14/2/2 19/2/2
f 19/2/2 14/2/2 20/2/2
f 15/2/2 16/2/2 21/2/2
f 17/2/2 18/2/2 22/2/2
f 18/2/2 19/2/2 22/2/2
f 22/2/2 19/2/2 23/2/2
f 23/2/2 19/2/2 24/2/2
f 20/2/2 14/2/2 25/2/2
f 25/2/2 14/2/2 26/2/2
f 21/2/2 22/2/2 27/2/2
f 23/2/2 24/2/2 28/2/2
f 24/2/2 25/2/2 28/2/2
f 28/2/2 25/2/2 29/2/2
f 29/2/2 25/2/2 30/2/2
f 26/2/2 14/2/2 31/2/2
f 14/2/2 6/2/2 32/2/2
f 31/2/2 14/2/2 32/2/2
f 15/2/2 21/2/2 33/2/2
f 5/2/2 15/2/2 33/2/2
f 21/2/2 27/2/2 33/2/2
f 27/2/2 28/2/2 33/2/2
f 33/2/2 28/2/2 34/2/2
f 30/2/2 31/2/2 35/2/2
f 29/2/2 30/2/2 35/2/2
f 35/2/2 31/2/2 36/2/2
f 5/2/2 33/2/2 37/2/2
f 34/2/2 28/2/2 38/2/2
f 38/2/2 28/2/2 39/2/2
f 29/2/2 35/2/2 40/2/2
f 40/2/2 35/2/2 41/2/2
f 36/2/2 31/2/2 42/2/2
f 42/2/2 31/2/2 43/2/2
f 32/2/2 6/2/2 44/2/2
f 37/2/2 38/2/2 45/2/2
f 40/2/2 41/2/2 46/2/2
f 39/2/2 40/2/2 46/2/2
f 41/2/2 42/2/2 46/2/2
f 46/2/2 42/2/2 47/2/2
f 43/2/2 44/2/2 48/2/2
f 46/2/2 47/2/2 49/2/2
f 47/2/2 48/2/2 49/2/2
f 5/2/2 37/2/2 49/2/2
f 37/2/2 45/2/2 49/2/2
f 45/2/2 46/2/2 49/2/2
f 48/2/2 44/2/2 50/2/2
f 49/2/2 48/2/2 50/2/2
f 44/2/2 6/2/2 50/2/2
f 51/1/2 52/1/2 55/1/2
f 55/1/2 52/1/2 56/1/2
f 53/1/2 54/1/2 57/1/2
f 57/1/2 54/1/2 58/1/2
f 51/1/2 55/1/2 59/1/2
f 59/1/2 55/1/2 60/1/2
f 53/1/2 57/1/2 62/1/2
f 62/1/2 57/1/2 63/1/2
f 60/1/2 61/1/2 65/1/2
f 65/1/2 61/1/2 66/1/2
f 63/1/2 64/1/2 68/1/2
f 68/1/2 64/1/2 69/1/2
f 66/1/2 67/1/2 71/1/2
f 71/1/2 67/1/2 72/1/2
f 69/1/2 70/1/2 74/1/2
f 74/1/2 70/1/2 75/1/2
f 77/1/2 78/1/2 81/1/2
f 81/1/2 78/1/2 82/1/2
f 72/1/2 73/1/2 83/1/2
f 83/1/2 73/1/2 84/1/2
f 79/1/2 80/1/2 85/1/2
f 85/1/2 80/1/2 86/1/2
f 75/1/2 76/1/2 87/1/2
f 87/1/2 76/1/2 88/1/2
f 82/1/2 83/1/2 89/1/2
f 89/1/2 83/1/2 90/1/2
f 86/1/2 87/1/2 91/1/2
f 91/1/2 87/1/2 92/1/2
f 95/2/3 94/2/3 93/2/3
f 96/2/3 94/2/3 95/2/3
f 101/1/3 98/1/3 97/1/3
f 102/1/3 98/1/3 101/1/3
f 103/1/3 100/1/3 99/1/3
f 104/1/3 100/1/3 103/1/3
f 109/1/3 106/1/3 105/1/3
f 110/1/3 106/1/3 109/1/3
f 111/1/3 108/1/3 107/1/3
f 112/1/3 108/1/3 111/1/3
f 115/1/3 114/1/3 113/1/3
f 116/1/3 114/1/3 115/1/3
f 119/1/3 118/1/3 117/1/3
f 120/1/3 118/1/3 119/1/3
f 125/1/3 122/1/3 121/1/3
f 126/1/3 122/1/3 125/1/3
f 127/1/3 124/1/3 123/1/3
f 128/1/3 124/1/3 127/1/3
f 133/1/3 130/1/3 129/1/3
f 134/1/3 130/1/3 133/1/3
f 135/1/3 132/1/3 131/1/3
f 136/1/3 132/1/3 135/1/3
f 139/1/3 138/1/3 137/1/3
f 140/1/3 138/1/3 139/1/3
f 143/1/3 142/1/3 141/1/3
f 144/1/3 142/1/3 143/1/3
f 145/1/4 146/1/4 149/1/4
f 149/1/4 146/1/4 150/1/4
f 147/1/4 148/1/4 151/1/4
f 151/1/4 148/1/4 152/1/4
f 153/1/4 154/1/4 155/1/4
f 155/1/4 154/1/4 156/1/4
f 157/1/4 158/1/4 161/1/4
f 161/1/4 158/1/4 162/1/4
f 159/1/4 160/1/4 163/1/4
f 163/1/4 160/1/4 164/1/4
f 165/1/4 166/1/4 169/1/4
f 169/1/4 166/1/4 170/1/4
f 167/1/4 168/1/4 171/1/4
f 171/1/4 168/1/4 172/1/4
f 173/1/4 174/1/4 177/1/4
f 177/1/4 174/1/4 178/1/4
f 175/1/4 176/1/4 179/1/4
f 179/1/4 176/1/4 180/1/4
f 181/1/4 182/1/4 183/1/4
f 183/1/4 182/1/4 184/1/4
f 185/1/4 186/1/4 189/1/4
f 189/1/4 186/1/4 190/1/4
f 187/1/4 188/1/4 191/1/4
f 191/1/4 188/1/4 192/1/4
f 193/1/4 194/1/4 197/1/4
f 197/1/4 194/1/4 198/1/4
f 195/1/4 196/1/4 199/1/4
f 199/1/4 196/1/4 200/1/4
f 201/2/4 202/2/4 203/2/4
f 203/2/4 202/2/4 204/2/4
f 207/2/5 206/2/5 205/2/5
f 208/2/5 206/2/5 207/2/5
f 211/1/5 210/1/5 209/1/5
f 212/1/5 210/1/5 211/1/5
f 215/1/5 214/1/5 213/1/5
f 216/1/5 214/1/5 215/1/5
f 219/1/5 218/1/5 217/1/5
f 220/1/5 218/1/5 219/1/5
f 223/1/5 222/1/5 221/1/5
f 224/1/5 222/1/5 223/1/5
f 227/1/5 226/1/5 225/1/5
f 228/1/5 226/1/5 227/1/5
f 231/1/5 230/1/5 229/1/5
f 232/1/5 230/1/5 231/1/5
f 235/1/5 234/1/5 233/1/5
f 236/1/5 234/1/5 235/1/5
f 239/1/5 238/1/5 237/1/5
f 240/1/5 238/1/5 239/1/5
f 243/1/5 242/1/5 241/1/5
f 244/1/5 242/1/5 243/1/5
f 247/1/5 246/1/5 245/1/5
f 248/1/5 246/1/5 247/1/5
f 251/1/5 250/1/5 249/1/5
f 252/1/5 250/1/5 251/1/5
f 255/1/5 254/1/5 253/1/5
f 256/1/5 254/1/5 255/1/5
f 257/1/6 258/1/6 259/1/6
f 259/1/6 258/1/6 260/1/6
f 261/1/6 262/1/6 263/1/6
f 263/1/6 262/1/6 264/1/6
f 265/1/6 266/1/6 267/1/6
f 267/1/6 266/1/6 268/1/6
f 269/1/6 270/1/6 271/1/6
f 271/1/6 270/1/6 272/1/6
f 273/1/6 274/1/6 275/1/6
f 275/1/6 274/1/6 276/1/6
f 277/1/6 278/1/6 279/1/6
f 279/1/6 278/1/6 280/1/6
f 281/1/6 282/1/6 283/1/6
f 283/1/6 282/1/6 284/1/6
f 285/1/6 286/1/6 287/1/6
f 287/1/6 286/1/6 288/1/6
f 289/1/6 290/1/6 291/1/6
f 291/1/6 290/1/6 292/1/6
f 293/1/6 294/1/6 295/1/6
f 295/1/6 294/1/6 296/1/6
f 297/1/6 298/1/6 299/1/6
f 299/1/6 298/1/6 300/1/6
f 301/1/6 302/1/6 303/1/6
f 303/1/6 302/1/6 304/1/6
f 305/1/6 306/1/6 307/1/6
f 307/1/6 306/1/6 308/1/6
f 309/1/6 310/1/6 311/1/6
f 311/1/6 310/1/6 312/1/6
f 313/2/6 314/2/6 315/2/6
f 315/2/6 314/2/6 316/2/6
