# MagicaVoxel @ Ephtracy

# material
mtllib Art_NOroom_BlackBoard.mtl
usemtl palette

# normals
vn -1 0 0
vn 1 0 0
vn 0 0 1
vn 0 0 -1
vn 0 -1 0
vn 0 1 0

# texcoords
vt 0.283203 0.5
vt 0.287109 0.5
vt 0.291016 0.5
vt 0.294922 0.5
vt 0.314453 0.5
vt 0.322266 0.5
vt 0.326172 0.5
vt 0.330078 0.5

# verts
v -39.5 0 1
v -39.5 0 -2
v -39.5 2 -2
v -39.5 2 -3
v -39.5 3 -0
v -39.5 3 -1
v -39.5 3 -3
v -39.5 32 1
v -39.5 32 -0
v -39.5 32 -1
v -38.5 1 3
v -38.5 1 1
v -38.5 1 -2
v -38.5 1 -3
v -38.5 2 -2
v -38.5 2 -3
v -38.5 31 3
v -38.5 31 1
v -22.5 1 -0
v -22.5 1 -1
v -22.5 2 -0
v -22.5 2 -1
v -10.5 1 -0
v -10.5 1 -1
v -10.5 2 -0
v -10.5 2 -1
v 9.5 2 -0
v 9.5 2 -2
v 9.5 3 -0
v 9.5 3 -2
v 9.5 4 -0
v 9.5 4 -2
v 37.5 2 1
v 37.5 2 -0
v 37.5 2 -2
v 37.5 2 -3
v 37.5 3 -2
v 37.5 3 -3
v 37.5 30 1
v 37.5 30 -0
v 37.5 30 -1
v 37.5 31 -0
v 37.5 31 -1
v 38.5 1 -0
v 38.5 1 -2
v 38.5 3 -0
v 38.5 3 -1
v 38.5 3 -2
v 38.5 30 -0
v 38.5 30 -1
v -38.5 1 -0
v -38.5 1 -2
v -38.5 3 -0
v -38.5 3 -1
v -38.5 3 -2
v -38.5 30 -0
v -38.5 30 -1
v -37.5 2 1
v -37.5 2 -0
v -37.5 2 -2
v -37.5 2 -3
v -37.5 3 -2
v -37.5 3 -3
v -37.5 30 1
v -37.5 30 -0
v -37.5 30 -1
v -37.5 31 -0
v -37.5 31 -1
v -19.5 1 -0
v -19.5 1 -1
v -19.5 2 -0
v -19.5 2 -1
v -8.5 1 -0
v -8.5 1 -1
v -8.5 2 -0
v -8.5 2 -1
v 14.5 2 -0
v 14.5 2 -2
v 14.5 3 -0
v 14.5 3 -2
v 14.5 4 -0
v 14.5 4 -2
v 38.5 1 3
v 38.5 1 1
v 38.5 1 -2
v 38.5 1 -3
v 38.5 2 -2
v 38.5 2 -3
v 38.5 31 3
v 38.5 31 1
v 39.5 0 1
v 39.5 0 -2
v 39.5 2 -2
v 39.5 2 -3
v 39.5 3 -0
v 39.5 3 -1
v 39.5 3 -3
v 39.5 32 1
v 39.5 32 -0
v 39.5 32 -1
v -38.5 1 3
v -38.5 31 3
v 38.5 1 3
v 38.5 31 3
v -39.5 0 1
v -39.5 32 1
v -38.5 1 1
v -38.5 31 1
v 38.5 1 1
v 38.5 31 1
v 39.5 0 1
v 39.5 32 1
v 9.5 2 -0
v 9.5 3 -0
v 9.5 4 -0
v 14.5 2 -0
v 14.5 3 -0
v 14.5 4 -0
v -38.5 1 -2
v -38.5 3 -2
v -37.5 2 -2
v -37.5 3 -2
v 9.5 2 -2
v 14.5 2 -2
v 37.5 2 -2
v 37.5 3 -2
v 38.5 1 -2
v 38.5 3 -2
v -37.5 2 1
v -37.5 30 1
v 37.5 2 1
v 37.5 30 1
v -38.5 1 -0
v -38.5 3 -0
v -38.5 30 -0
v -37.5 2 -0
v -37.5 30 -0
v -37.5 31 -0
v -22.5 1 -0
v -22.5 2 -0
v -19.5 1 -0
v -19.5 2 -0
v -10.5 1 -0
v -10.5 2 -0
v -8.5 1 -0
v -8.5 2 -0
v 9.5 2 -0
v 14.5 2 -0
v 37.5 2 -0
v 37.5 30 -0
v 37.5 31 -0
v 38.5 1 -0
v 38.5 3 -0
v 38.5 30 -0
v -39.5 3 -1
v -39.5 32 -1
v -38.5 3 -1
v -38.5 30 -1
v -37.5 30 -1
v -37.5 31 -1
v -22.5 1 -1
v -22.5 2 -1
v -19.5 1 -1
v -19.5 2 -1
v -10.5 1 -1
v -10.5 2 -1
v -8.5 1 -1
v -8.5 2 -1
v 37.5 30 -1
v 37.5 31 -1
v 38.5 3 -1
v 38.5 30 -1
v 39.5 3 -1
v 39.5 32 -1
v -39.5 0 -2
v -39.5 2 -2
v -38.5 1 -2
v -38.5 2 -2
v 9.5 2 -2
v 9.5 3 -2
v 9.5 4 -2
v 14.5 2 -2
v 14.5 3 -2
v 14.5 4 -2
v 38.5 1 -2
v 38.5 2 -2
v 39.5 0 -2
v 39.5 2 -2
v -39.5 2 -3
v -39.5 3 -3
v -38.5 1 -3
v -38.5 2 -3
v -37.5 2 -3
v -37.5 3 -3
v 37.5 2 -3
v 37.5 3 -3
v 38.5 1 -3
v 38.5 2 -3
v 39.5 2 -3
v 39.5 3 -3
v -39.5 0 1
v 39.5 0 1
v -39.5 0 -2
v 39.5 0 -2
v -38.5 1 3
v 38.5 1 3
v -38.5 1 1
v 38.5 1 1
v -38.5 1 -2
v 38.5 1 -2
v -38.5 1 -3
v 38.5 1 -3
v 9.5 2 -0
v 14.5 2 -0
v -39.5 2 -2
v -38.5 2 -2
v 9.5 2 -2
v 14.5 2 -2
v 38.5 2 -2
v 39.5 2 -2
v -39.5 2 -3
v -38.5 2 -3
v 38.5 2 -3
v 39.5 2 -3
v -37.5 30 1
v 37.5 30 1
v -38.5 30 -0
v -37.5 30 -0
v 37.5 30 -0
v 38.5 30 -0
v -38.5 30 -1
v -37.5 30 -1
v 37.5 30 -1
v 38.5 30 -1
v -37.5 31 -0
v 37.5 31 -0
v -37.5 31 -1
v 37.5 31 -1
v -38.5 1 -0
v -22.5 1 -0
v -19.5 1 -0
v -10.5 1 -0
v -8.5 1 -0
v 38.5 1 -0
v -22.5 1 -1
v -19.5 1 -1
v -10.5 1 -1
v -8.5 1 -1
v -38.5 1 -2
v 38.5 1 -2
v -37.5 2 1
v 37.5 2 1
v -37.5 2 -0
v -22.5 2 -0
v -19.5 2 -0
v -10.5 2 -0
v -8.5 2 -0
v 9.5 2 -0
v 14.5 2 -0
v 37.5 2 -0
v -22.5 2 -1
v -19.5 2 -1
v -10.5 2 -1
v -8.5 2 -1
v -37.5 2 -2
v 9.5 2 -2
v 14.5 2 -2
v 37.5 2 -2
v -37.5 2 -3
v 37.5 2 -3
v -39.5 3 -1
v -38.5 3 -1
v 38.5 3 -1
v 39.5 3 -1
v -38.5 3 -2
v -37.5 3 -2
v 37.5 3 -2
v 38.5 3 -2
v -39.5 3 -3
v -37.5 3 -3
v 37.5 3 -3
v 39.5 3 -3
v 9.5 4 -0
v 14.5 4 -0
v 9.5 4 -2
v 14.5 4 -2
v -38.5 31 3
v 38.5 31 3
v -38.5 31 1
v 38.5 31 1
v -39.5 32 1
v 39.5 32 1
v -39.5 32 -0
v 39.5 32 -0
v -39.5 32 -1
v 39.5 32 -1

# faces
f 3/7/1 2/7/1 1/7/1
f 5/7/1 3/7/1 1/7/1
f 5/7/1 4/7/1 3/7/1
f 6/7/1 4/7/1 5/7/1
f 7/7/1 4/7/1 6/7/1
f 8/7/1 5/7/1 1/7/1
f 9/8/1 6/8/1 5/8/1
f 9/7/1 5/7/1 8/7/1
f 10/8/1 6/8/1 9/8/1
f 15/7/1 14/7/1 13/7/1
f 16/7/1 14/7/1 15/7/1
f 17/6/1 12/6/1 11/6/1
f 18/6/1 12/6/1 17/6/1
f 21/5/1 20/5/1 19/5/1
f 22/5/1 20/5/1 21/5/1
f 25/5/1 24/5/1 23/5/1
f 26/5/1 24/5/1 25/5/1
f 29/1/1 28/1/1 27/1/1
f 30/1/1 28/1/1 29/1/1
f 31/3/1 30/3/1 29/3/1
f 32/3/1 30/3/1 31/3/1
f 37/7/1 36/7/1 35/7/1
f 38/7/1 36/7/1 37/7/1
f 39/6/1 34/6/1 33/6/1
f 40/6/1 34/6/1 39/6/1
f 42/8/1 41/8/1 40/8/1
f 43/8/1 41/8/1 42/8/1
f 46/7/1 45/7/1 44/7/1
f 47/7/1 45/7/1 46/7/1
f 48/7/1 45/7/1 47/7/1
f 49/8/1 47/8/1 46/8/1
f 50/8/1 47/8/1 49/8/1
f 51/7/2 52/7/2 53/7/2
f 53/7/2 52/7/2 54/7/2
f 54/7/2 52/7/2 55/7/2
f 53/8/2 54/8/2 56/8/2
f 56/8/2 54/8/2 57/8/2
f 60/7/2 61/7/2 62/7/2
f 62/7/2 61/7/2 63/7/2
f 58/6/2 59/6/2 64/6/2
f 64/6/2 59/6/2 65/6/2
f 65/8/2 66/8/2 67/8/2
f 67/8/2 66/8/2 68/8/2
f 69/5/2 70/5/2 71/5/2
f 71/5/2 70/5/2 72/5/2
f 73/5/2 74/5/2 75/5/2
f 75/5/2 74/5/2 76/5/2
f 77/1/2 78/1/2 79/1/2
f 79/1/2 78/1/2 80/1/2
f 79/3/2 80/3/2 81/3/2
f 81/3/2 80/3/2 82/3/2
f 85/7/2 86/7/2 87/7/2
f 87/7/2 86/7/2 88/7/2
f 83/6/2 84/6/2 89/6/2
f 89/6/2 84/6/2 90/6/2
f 91/7/2 92/7/2 93/7/2
f 91/7/2 93/7/2 95/7/2
f 93/7/2 94/7/2 95/7/2
f 95/7/2 94/7/2 96/7/2
f 96/7/2 94/7/2 97/7/2
f 91/7/2 95/7/2 98/7/2
f 95/8/2 96/8/2 99/8/2
f 98/7/2 95/7/2 99/7/2
f 99/8/2 96/8/2 100/8/2
f 103/6/3 102/6/3 101/6/3
f 104/6/3 102/6/3 103/6/3
f 107/7/3 106/7/3 105/7/3
f 108/7/3 106/7/3 107/7/3
f 109/7/3 107/7/3 105/7/3
f 110/7/3 106/7/3 108/7/3
f 111/7/3 109/7/3 105/7/3
f 111/7/3 110/7/3 109/7/3
f 112/7/3 106/7/3 110/7/3
f 112/7/3 110/7/3 111/7/3
f 116/1/3 114/1/3 113/1/3
f 117/3/3 115/3/3 114/3/3
f 117/1/3 114/1/3 116/1/3
f 118/3/3 115/3/3 117/3/3
f 121/7/3 120/7/3 119/7/3
f 122/7/3 120/7/3 121/7/3
f 123/7/3 121/7/3 119/7/3
f 124/7/3 123/7/3 119/7/3
f 125/7/3 124/7/3 119/7/3
f 127/7/3 125/7/3 119/7/3
f 127/7/3 126/7/3 125/7/3
f 128/7/3 126/7/3 127/7/3
f 129/2/4 130/2/4 131/2/4
f 131/2/4 130/2/4 132/2/4
f 133/6/4 134/6/4 136/6/4
f 134/6/4 135/6/4 136/6/4
f 136/6/4 135/6/4 137/6/4
f 133/6/4 136/6/4 139/6/4
f 139/6/4 136/6/4 140/6/4
f 141/6/4 142/6/4 143/6/4
f 143/6/4 142/6/4 144/6/4
f 145/6/4 146/6/4 147/6/4
f 145/6/4 147/6/4 148/6/4
f 145/6/4 148/6/4 149/6/4
f 137/6/4 138/6/4 150/6/4
f 150/6/4 138/6/4 151/6/4
f 145/6/4 149/6/4 152/6/4
f 149/6/4 150/6/4 152/6/4
f 152/6/4 150/6/4 153/6/4
f 153/6/4 150/6/4 154/6/4
f 155/8/4 156/8/4 157/8/4
f 157/8/4 156/8/4 158/8/4
f 158/8/4 156/8/4 159/8/4
f 159/8/4 156/8/4 160/8/4
f 161/5/4 162/5/4 163/5/4
f 163/5/4 162/5/4 164/5/4
f 165/5/4 166/5/4 167/5/4
f 167/5/4 166/5/4 168/5/4
f 160/8/4 156/8/4 170/8/4
f 169/8/4 170/8/4 172/8/4
f 171/8/4 172/8/4 173/8/4
f 170/8/4 156/8/4 174/8/4
f 173/8/4 172/8/4 174/8/4
f 172/8/4 170/8/4 174/8/4
f 175/7/4 176/7/4 177/7/4
f 177/7/4 176/7/4 178/7/4
f 179/1/4 180/1/4 182/1/4
f 180/3/4 181/3/4 183/3/4
f 182/1/4 180/1/4 183/1/4
f 183/3/4 181/3/4 184/3/4
f 175/7/4 177/7/4 185/7/4
f 175/7/4 185/7/4 187/7/4
f 185/7/4 186/7/4 187/7/4
f 187/7/4 186/7/4 188/7/4
f 189/7/4 190/7/4 192/7/4
f 192/7/4 190/7/4 193/7/4
f 191/7/4 192/7/4 193/7/4
f 193/7/4 190/7/4 194/7/4
f 191/7/4 193/7/4 195/7/4
f 191/7/4 195/7/4 197/7/4
f 195/7/4 196/7/4 197/7/4
f 197/7/4 196/7/4 198/7/4
f 198/7/4 196/7/4 199/7/4
f 199/7/4 196/7/4 200/7/4
f 203/7/5 202/7/5 201/7/5
f 204/7/5 202/7/5 203/7/5
f 207/6/5 206/6/5 205/6/5
f 208/6/5 206/6/5 207/6/5
f 211/7/5 210/7/5 209/7/5
f 212/7/5 210/7/5 211/7/5
f 217/1/5 214/1/5 213/1/5
f 218/1/5 214/1/5 217/1/5
f 221/7/5 216/7/5 215/7/5
f 222/7/5 216/7/5 221/7/5
f 223/7/5 220/7/5 219/7/5
f 224/7/5 220/7/5 223/7/5
f 228/6/5 226/6/5 225/6/5
f 229/6/5 226/6/5 228/6/5
f 231/8/5 228/8/5 227/8/5
f 232/8/5 228/8/5 231/8/5
f 233/8/5 230/8/5 229/8/5
f 234/8/5 230/8/5 233/8/5
f 237/8/5 236/8/5 235/8/5
f 238/8/5 236/8/5 237/8/5
f 239/7/6 240/7/6 245/7/6
f 241/7/6 242/7/6 246/7/6
f 246/7/6 242/7/6 247/7/6
f 243/7/6 244/7/6 248/7/6
f 246/7/6 247/7/6 249/7/6
f 247/7/6 248/7/6 249/7/6
f 239/7/6 245/7/6 249/7/6
f 245/7/6 246/7/6 249/7/6
f 248/7/6 244/7/6 250/7/6
f 249/7/6 248/7/6 250/7/6
f 251/6/6 252/6/6 253/6/6
f 253/6/6 252/6/6 254/6/6
f 254/6/6 252/6/6 255/6/6
f 255/6/6 252/6/6 256/6/6
f 256/6/6 252/6/6 257/6/6
f 257/6/6 252/6/6 258/6/6
f 258/6/6 252/6/6 259/6/6
f 259/6/6 252/6/6 260/6/6
f 254/5/6 255/5/6 261/5/6
f 261/5/6 255/5/6 262/5/6
f 256/5/6 257/5/6 263/5/6
f 263/5/6 257/5/6 264/5/6
f 265/7/6 266/7/6 269/7/6
f 267/7/6 268/7/6 269/7/6
f 266/7/6 267/7/6 269/7/6
f 269/7/6 268/7/6 270/7/6
f 271/7/6 272/7/6 275/7/6
f 273/7/6 274/7/6 278/7/6
f 275/7/6 276/7/6 279/7/6
f 271/7/6 275/7/6 279/7/6
f 279/7/6 276/7/6 280/7/6
f 277/7/6 278/7/6 281/7/6
f 278/7/6 274/7/6 282/7/6
f 281/7/6 278/7/6 282/7/6
f 283/3/6 284/3/6 285/3/6
f 285/3/6 284/3/6 286/3/6
f 287/6/6 288/6/6 289/6/6
f 289/6/6 288/6/6 290/6/6
f 291/7/6 292/7/6 293/7/6
f 293/7/6 292/7/6 294/7/6
f 293/8/6 294/8/6 295/8/6
f 295/8/6 294/8/6 296/8/6
