# MagicaVoxel @ Ephtracy

# material
mtllib Art_LaserRoom_Wall.mtl
usemtl palette

# normals
vn -1 0 0
vn 1 0 0
vn 0 0 1
vn 0 0 -1
vn 0 -1 0
vn 0 1 0

# texcoords
vt 0.416016 0.5
vt 0.419922 0.5
vt 0.423828 0.5
vt 0.498047 0.5

# verts
v -63 10 -60
v -63 10 -63
v -63 17 -60
v -63 17 -63
v -63 19 -60
v -63 19 -63
v -63 24 -60
v -63 24 -63
v 4 10 -60
v 4 10 -63
v 4 17 -60
v 4 17 -63
v 4 19 -60
v 4 19 -63
v 4 20 -60
v 4 20 -63
v -4 10 -60
v -4 10 -63
v -4 17 -60
v -4 17 -63
v -4 19 -60
v -4 19 -63
v -4 20 -60
v -4 20 -63
v 63 10 -60
v 63 10 -63
v 63 17 -60
v 63 17 -63
v 63 19 -60
v 63 19 -63
v 63 24 -60
v 63 24 -63
v -63 10 -60
v -63 17 -60
v -63 19 -60
v -63 24 -60
v -43 19 -60
v -43 24 -60
v -4 10 -60
v -4 17 -60
v -4 19 -60
v -4 20 -60
v 4 10 -60
v 4 17 -60
v 4 19 -60
v 4 20 -60
v 43 19 -60
v 43 24 -60
v 63 10 -60
v 63 17 -60
v 63 19 -60
v 63 24 -60
v -63 10 -63
v -63 17 -63
v -63 19 -63
v -63 24 -63
v -43 19 -63
v -43 24 -63
v -4 10 -63
v -4 17 -63
v -4 19 -63
v -4 20 -63
v 4 10 -63
v 4 17 -63
v 4 19 -63
v 4 20 -63
v 43 19 -63
v 43 24 -63
v 63 10 -63
v 63 17 -63
v 63 19 -63
v 63 24 -63
v -63 10 -60
v -4 10 -60
v 4 10 -60
v 63 10 -60
v -63 10 -63
v -4 10 -63
v 4 10 -63
v 63 10 -63
v -4 20 -60
v 4 20 -60
v -4 20 -63
v 4 20 -63
v -63 24 -60
v -43 24 -60
v 43 24 -60
v 63 24 -60
v -63 24 -63
v -43 24 -63
v 43 24 -63
v 63 24 -63

# faces
f 3/3/1 2/3/1 1/3/1
f 4/3/1 2/3/1 3/3/1
f 5/2/1 4/2/1 3/2/1
f 6/2/1 4/2/1 5/2/1
f 7/4/1 6/4/1 5/4/1
f 8/4/1 6/4/1 7/4/1
f 11/3/1 10/3/1 9/3/1
f 12/3/1 10/3/1 11/3/1
f 13/2/1 12/2/1 11/2/1
f 14/2/1 12/2/1 13/2/1
f 15/1/1 14/1/1 13/1/1
f 16/1/1 14/1/1 15/1/1
f 17/3/2 18/3/2 19/3/2
f 19/3/2 18/3/2 20/3/2
f 19/2/2 20/2/2 21/2/2
f 21/2/2 20/2/2 22/2/2
f 21/1/2 22/1/2 23/1/2
f 23/1/2 22/1/2 24/1/2
f 25/3/2 26/3/2 27/3/2
f 27/3/2 26/3/2 28/3/2
f 27/2/2 28/2/2 29/2/2
f 29/2/2 28/2/2 30/2/2
f 29/4/2 30/4/2 31/4/2
f 31/4/2 30/4/2 32/4/2
f 37/2/3 35/2/3 34/2/3
f 37/4/3 36/4/3 35/4/3
f 38/4/3 36/4/3 37/4/3
f 39/3/3 34/3/3 33/3/3
f 40/2/3 37/2/3 34/2/3
f 40/3/3 34/3/3 39/3/3
f 41/1/3 38/1/3 37/1/3
f 41/2/3 37/2/3 40/2/3
f 42/1/3 38/1/3 41/1/3
f 46/1/3 38/1/3 42/1/3
f 47/2/3 45/2/3 44/2/3
f 47/1/3 46/1/3 45/1/3
f 48/1/3 38/1/3 46/1/3
f 48/1/3 46/1/3 47/1/3
f 49/3/3 44/3/3 43/3/3
f 50/2/3 47/2/3 44/2/3
f 50/3/3 44/3/3 49/3/3
f 51/4/3 48/4/3 47/4/3
f 51/2/3 47/2/3 50/2/3
f 52/4/3 48/4/3 51/4/3
f 54/2/4 55/2/4 57/2/4
f 55/4/4 56/4/4 57/4/4
f 57/4/4 56/4/4 58/4/4
f 53/3/4 54/3/4 59/3/4
f 54/2/4 57/2/4 60/2/4
f 59/3/4 54/3/4 60/3/4
f 57/1/4 58/1/4 61/1/4
f 60/2/4 57/2/4 61/2/4
f 61/1/4 58/1/4 62/1/4
f 62/1/4 58/1/4 66/1/4
f 64/2/4 65/2/4 67/2/4
f 65/1/4 66/1/4 67/1/4
f 66/1/4 58/1/4 68/1/4
f 67/1/4 66/1/4 68/1/4
f 63/3/4 64/3/4 69/3/4
f 64/2/4 67/2/4 70/2/4
f 69/3/4 64/3/4 70/3/4
f 67/4/4 68/4/4 71/4/4
f 70/2/4 67/2/4 71/2/4
f 71/4/4 68/4/4 72/4/4
f 77/3/5 74/3/5 73/3/5
f 78/3/5 74/3/5 77/3/5
f 79/3/5 76/3/5 75/3/5
f 80/3/5 76/3/5 79/3/5
f 83/1/5 82/1/5 81/1/5
f 84/1/5 82/1/5 83/1/5
f 85/4/6 86/4/6 89/4/6
f 86/1/6 87/1/6 90/1/6
f 89/4/6 86/4/6 90/4/6
f 87/4/6 88/4/6 91/4/6
f 90/1/6 87/1/6 91/1/6
f 91/4/6 88/4/6 92/4/6
