# MagicaVoxel @ Ephtracy

# material
mtllib Character_LaserRoom_Mouse.mtl
usemtl palette

# normals
vn -1 0 0
vn 1 0 0
vn 0 0 1
vn 0 0 -1
vn 0 -1 0
vn 0 1 0

# texcoords
vt 0.451172 0.5
vt 0.455078 0.5
vt 0.458984 0.5
vt 0.466797 0.5

# verts
v -4.5 0 3.5
v -4.5 0 2.5
v -4.5 0 0.5
v -4.5 1 3.5
v -4.5 1 2.5
v -4.5 1 0.5
v -3.5 1 6.5
v -3.5 1 3.5
v -3.5 1 2.5
v -3.5 1 1.5
v -3.5 2 7.5
v -3.5 2 6.5
v -3.5 2 5.5
v -3.5 2 4.5
v -3.5 2 1.5
v -3.5 2 0.5
v -3.5 3 7.5
v -3.5 3 5.5
v -3.5 3 4.5
v -3.5 3 2.5
v -3.5 3 1.5
v -3.5 3 0.5
v -3.5 4 5.5
v -3.5 4 2.5
v -3.5 4 1.5
v -2.5 0 8.5
v -2.5 0 7.5
v -2.5 0 5.5
v -2.5 1 8.5
v -2.5 1 7.5
v -2.5 1 6.5
v -2.5 1 5.5
v -2.5 1 1.5
v -2.5 1 0.5
v -2.5 1 -8.5
v -2.5 1 -10.5
v -2.5 2 7.5
v -2.5 2 6.5
v -2.5 2 1.5
v -2.5 2 0.5
v -2.5 2 -0.5
v -2.5 2 -8.5
v -2.5 2 -10.5
v -2.5 3 7.5
v -2.5 3 5.5
v -2.5 3 1.5
v -2.5 3 0.5
v -2.5 3 -0.5
v -2.5 4 9.5
v -2.5 4 8.5
v -2.5 4 7.5
v -2.5 4 5.5
v -2.5 4 2.5
v -2.5 4 1.5
v -2.5 4 0.5
v -2.5 5 5.5
v -2.5 5 1.5
v -2.5 6 9.5
v -2.5 6 8.5
v -1.5 1 0.5
v -1.5 1 -0.5
v -1.5 1 -7.5
v -1.5 1 -8.5
v -1.5 1 -10.5
v -1.5 1 -11.5
v -1.5 2 9.5
v -1.5 2 7.5
v -1.5 2 0.5
v -1.5 2 -0.5
v -1.5 2 -1.5
v -1.5 2 -7.5
v -1.5 2 -8.5
v -1.5 2 -10.5
v -1.5 2 -11.5
v -1.5 3 10.5
v -1.5 3 9.5
v -1.5 3 0.5
v -1.5 3 -0.5
v -1.5 4 10.5
v -1.5 4 9.5
v -1.5 4 8.5
v -1.5 4 7.5
v -1.5 4 6.5
v -1.5 4 5.5
v -1.5 4 1.5
v -1.5 4 0.5
v -1.5 4 -0.5
v -1.5 4 -1.5
v -1.5 5 10.5
v -1.5 5 9.5
v -1.5 5 8.5
v -1.5 5 7.5
v -1.5 5 6.5
v -1.5 5 5.5
v -1.5 5 1.5
v -1.5 5 -0.5
v -1.5 6 5.5
v -1.5 6 1.5
v -0.5 1 -0.5
v -0.5 1 -1.5
v -0.5 1 -3.5
v -0.5 1 -5.5
v -0.5 2 10.5
v -0.5 2 9.5
v -0.5 2 -0.5
v -0.5 2 -1.5
v -0.5 2 -3.5
v -0.5 2 -5.5
v -0.5 3 11.5
v -0.5 3 10.5
v -0.5 3 9.5
v -0.5 3 -1.5
v -0.5 3 -3.5
v -0.5 4 11.5
v -0.5 4 10.5
v 0.5 0 8.5
v 0.5 0 7.5
v 0.5 0 5.5
v 0.5 1 8.5
v 0.5 1 7.5
v 0.5 1 5.5
v 0.5 1 -5.5
v 0.5 1 -7.5
v 0.5 2 -5.5
v 0.5 2 -7.5
v 0.5 5 9.5
v 0.5 5 8.5
v 0.5 6 9.5
v 0.5 6 8.5
v 2.5 0 3.5
v 2.5 0 2.5
v 2.5 0 0.5
v 2.5 1 3.5
v 2.5 1 2.5
v 2.5 1 1.5
v 2.5 1 0.5
v -2.5 0 3.5
v -2.5 0 2.5
v -2.5 0 0.5
v -2.5 1 3.5
v -2.5 1 2.5
v -2.5 1 1.5
v -2.5 1 0.5
v -1.5 1 -8.5
v -1.5 1 -10.5
v -1.5 2 -8.5
v -1.5 2 -10.5
v -0.5 0 8.5
v -0.5 0 7.5
v -0.5 0 5.5
v -0.5 1 8.5
v -0.5 1 7.5
v -0.5 1 5.5
v -0.5 1 -10.5
v -0.5 1 -11.5
v -0.5 2 -10.5
v -0.5 2 -11.5
v -0.5 5 9.5
v -0.5 5 8.5
v -0.5 6 9.5
v -0.5 6 8.5
v 0.5 1 -0.5
v 0.5 1 -1.5
v 0.5 1 -3.5
v 0.5 1 -5.5
v 0.5 1 -7.5
v 0.5 1 -8.5
v 0.5 2 10.5
v 0.5 2 9.5
v 0.5 2 -0.5
v 0.5 2 -1.5
v 0.5 2 -3.5
v 0.5 2 -5.5
v 0.5 2 -7.5
v 0.5 2 -8.5
v 0.5 3 11.5
v 0.5 3 10.5
v 0.5 3 9.5
v 0.5 3 -1.5
v 0.5 3 -3.5
v 0.5 4 11.5
v 0.5 4 10.5
v 1.5 1 0.5
v 1.5 1 -0.5
v 1.5 1 -5.5
v 1.5 1 -7.5
v 1.5 2 9.5
v 1.5 2 7.5
v 1.5 2 0.5
v 1.5 2 -0.5
v 1.5 2 -1.5
v 1.5 2 -5.5
v 1.5 2 -7.5
v 1.5 3 10.5
v 1.5 3 9.5
v 1.5 3 0.5
v 1.5 3 -0.5
v 1.5 4 10.5
v 1.5 4 9.5
v 1.5 4 8.5
v 1.5 4 7.5
v 1.5 4 6.5
v 1.5 4 5.5
v 1.5 4 1.5
v 1.5 4 0.5
v 1.5 4 -0.5
v 1.5 4 -1.5
v 1.5 5 10.5
v 1.5 5 9.5
v 1.5 5 8.5
v 1.5 5 7.5
v 1.5 5 6.5
v 1.5 5 5.5
v 1.5 5 2.5
v 1.5 5 1.5
v 1.5 5 -0.5
v 1.5 6 5.5
v 1.5 6 1.5
v 2.5 0 8.5
v 2.5 0 7.5
v 2.5 0 5.5
v 2.5 1 8.5
v 2.5 1 7.5
v 2.5 1 6.5
v 2.5 1 5.5
v 2.5 1 1.5
v 2.5 1 0.5
v 2.5 2 7.5
v 2.5 2 6.5
v 2.5 2 1.5
v 2.5 2 0.5
v 2.5 2 -0.5
v 2.5 3 7.5
v 2.5 3 5.5
v 2.5 3 1.5
v 2.5 3 0.5
v 2.5 3 -0.5
v 2.5 4 9.5
v 2.5 4 8.5
v 2.5 4 7.5
v 2.5 4 5.5
v 2.5 4 2.5
v 2.5 4 1.5
v 2.5 4 0.5
v 2.5 5 5.5
v 2.5 5 2.5
v 2.5 5 1.5
v 2.5 6 9.5
v 2.5 6 8.5
v 3.5 1 6.5
v 3.5 1 3.5
v 3.5 1 2.5
v 3.5 1 1.5
v 3.5 2 7.5
v 3.5 2 6.5
v 3.5 2 5.5
v 3.5 2 3.5
v 3.5 2 1.5
v 3.5 2 0.5
v 3.5 3 7.5
v 3.5 3 5.5
v 3.5 3 3.5
v 3.5 3 1.5
v 3.5 3 0.5
v 3.5 4 5.5
v 3.5 4 1.5
v 4.5 0 3.5
v 4.5 0 2.5
v 4.5 0 0.5
v 4.5 1 3.5
v 4.5 1 2.5
v 4.5 1 0.5
v -0.5 3 11.5
v -0.5 4 11.5
v 0.5 3 11.5
v 0.5 4 11.5
v -1.5 3 10.5
v -1.5 4 10.5
v -1.5 5 10.5
v -0.5 2 10.5
v -0.5 3 10.5
v -0.5 4 10.5
v -0.5 5 10.5
v 0.5 2 10.5
v 0.5 3 10.5
v 0.5 4 10.5
v 0.5 5 10.5
v 1.5 3 10.5
v 1.5 4 10.5
v 1.5 5 10.5
v -2.5 4 9.5
v -2.5 6 9.5
v -1.5 2 9.5
v -1.5 3 9.5
v -1.5 4 9.5
v -1.5 5 9.5
v -0.5 2 9.5
v -0.5 3 9.5
v -0.5 5 9.5
v -0.5 6 9.5
v 0.5 2 9.5
v 0.5 3 9.5
v 0.5 5 9.5
v 0.5 6 9.5
v 1.5 2 9.5
v 1.5 3 9.5
v 1.5 4 9.5
v 1.5 5 9.5
v 2.5 4 9.5
v 2.5 6 9.5
v -2.5 0 8.5
v -2.5 1 8.5
v -0.5 0 8.5
v -0.5 1 8.5
v 0.5 0 8.5
v 0.5 1 8.5
v 2.5 0 8.5
v 2.5 1 8.5
v -3.5 2 7.5
v -3.5 3 7.5
v -2.5 1 7.5
v -2.5 2 7.5
v -2.5 3 7.5
v -2.5 4 7.5
v -1.5 1 7.5
v -1.5 2 7.5
v -1.5 4 7.5
v -0.5 1 7.5
v -0.5 2 7.5
v 0.5 1 7.5
v 0.5 2 7.5
v 1.5 1 7.5
v 1.5 2 7.5
v 1.5 4 7.5
v 2.5 1 7.5
v 2.5 2 7.5
v 2.5 3 7.5
v 2.5 4 7.5
v 3.5 2 7.5
v 3.5 3 7.5
v -3.5 1 6.5
v -3.5 2 6.5
v -2.5 1 6.5
v -2.5 2 6.5
v -1.5 4 6.5
v -1.5 5 6.5
v 1.5 4 6.5
v 1.5 5 6.5
v 2.5 1 6.5
v 2.5 2 6.5
v 3.5 1 6.5
v 3.5 2 6.5
v -3.5 3 5.5
v -3.5 4 5.5
v -2.5 3 5.5
v -2.5 4 5.5
v -2.5 5 5.5
v -1.5 4 5.5
v -1.5 5 5.5
v -1.5 6 5.5
v 1.5 4 5.5
v 1.5 5 5.5
v 1.5 6 5.5
v 2.5 3 5.5
v 2.5 4 5.5
v 2.5 5 5.5
v 3.5 3 5.5
v 3.5 4 5.5
v -4.5 0 3.5
v -4.5 1 3.5
v -3.5 1 3.5
v -2.5 0 3.5
v -2.5 1 3.5
v 2.5 0 3.5
v 2.5 1 3.5
v 3.5 1 3.5
v 4.5 0 3.5
v 4.5 1 3.5
v -0.5 1 -3.5
v -0.5 2 -3.5
v 0.5 1 -3.5
v 0.5 2 -3.5
v 0.5 1 -5.5
v 0.5 2 -5.5
v 1.5 1 -5.5
v 1.5 2 -5.5
v -1.5 1 -7.5
v -1.5 2 -7.5
v 0.5 1 -7.5
v 0.5 2 -7.5
v -2.5 1 -8.5
v -2.5 2 -8.5
v -1.5 1 -8.5
v -1.5 2 -8.5
v -1.5 1 -10.5
v -1.5 2 -10.5
v -0.5 1 -10.5
v -0.5 2 -10.5
v -2.5 4 8.5
v -2.5 6 8.5
v -1.5 4 8.5
v -1.5 5 8.5
v -0.5 5 8.5
v -0.5 6 8.5
v 0.5 5 8.5
v 0.5 6 8.5
v 1.5 4 8.5
v 1.5 5 8.5
v 2.5 4 8.5
v 2.5 6 8.5
v -1.5 4 7.5
v -1.5 5 7.5
v 1.5 4 7.5
v 1.5 5 7.5
v -2.5 0 5.5
v -2.5 1 5.5
v -0.5 0 5.5
v -0.5 1 5.5
v 0.5 0 5.5
v 0.5 1 5.5
v 2.5 0 5.5
v 2.5 1 5.5
v -3.5 1 1.5
v -3.5 2 1.5
v -3.5 3 1.5
v -3.5 4 1.5
v -2.5 1 1.5
v -2.5 2 1.5
v -2.5 3 1.5
v -2.5 4 1.5
v -2.5 5 1.5
v -1.5 4 1.5
v -1.5 5 1.5
v -1.5 6 1.5
v 1.5 4 1.5
v 1.5 5 1.5
v 1.5 6 1.5
v 2.5 1 1.5
v 2.5 2 1.5
v 2.5 3 1.5
v 2.5 4 1.5
v 2.5 5 1.5
v 3.5 1 1.5
v 3.5 2 1.5
v 3.5 3 1.5
v 3.5 4 1.5
v -4.5 0 0.5
v -4.5 1 0.5
v -3.5 2 0.5
v -3.5 3 0.5
v -2.5 0 0.5
v -2.5 1 0.5
v -2.5 2 0.5
v -2.5 3 0.5
v -2.5 4 0.5
v -1.5 1 0.5
v -1.5 2 0.5
v -1.5 3 0.5
v -1.5 4 0.5
v 1.5 1 0.5
v 1.5 2 0.5
v 1.5 3 0.5
v 1.5 4 0.5
v 2.5 0 0.5
v 2.5 1 0.5
v 2.5 2 0.5
v 2.5 3 0.5
v 2.5 4 0.5
v 3.5 2 0.5
v 3.5 3 0.5
v 4.5 0 0.5
v 4.5 1 0.5
v -2.5 2 -0.5
v -2.5 3 -0.5
v -1.5 1 -0.5
v -1.5 2 -0.5
v -1.5 3 -0.5
v -1.5 4 -0.5
v -1.5 5 -0.5
v -0.5 1 -0.5
v -0.5 2 -0.5
v 0.5 1 -0.5
v 0.5 2 -0.5
v 1.5 1 -0.5
v 1.5 2 -0.5
v 1.5 3 -0.5
v 1.5 4 -0.5
v 1.5 5 -0.5
v 2.5 2 -0.5
v 2.5 3 -0.5
v -1.5 2 -1.5
v -1.5 4 -1.5
v -0.5 1 -1.5
v -0.5 2 -1.5
v -0.5 3 -1.5
v 0.5 1 -1.5
v 0.5 2 -1.5
v 0.5 3 -1.5
v 1.5 2 -1.5
v 1.5 4 -1.5
v -0.5 2 -3.5
v -0.5 3 -3.5
v 0.5 2 -3.5
v 0.5 3 -3.5
v -0.5 1 -5.5
v -0.5 2 -5.5
v 0.5 1 -5.5
v 0.5 2 -5.5
v 0.5 1 -7.5
v 0.5 2 -7.5
v 1.5 1 -7.5
v 1.5 2 -7.5
v -1.5 1 -8.5
v -1.5 2 -8.5
v 0.5 1 -8.5
v 0.5 2 -8.5
v -2.5 1 -10.5
v -2.5 2 -10.5
v -1.5 1 -10.5
v -1.5 2 -10.5
v -1.5 1 -11.5
v -1.5 2 -11.5
v -0.5 1 -11.5
v -0.5 2 -11.5
v -2.5 0 8.5
v -0.5 0 8.5
v 0.5 0 8.5
v 2.5 0 8.5
v -2.5 0 7.5
v -0.5 0 7.5
v 0.5 0 7.5
v 2.5 0 7.5
v -2.5 0 5.5
v -0.5 0 5.5
v 0.5 0 5.5
v 2.5 0 5.5
v -4.5 0 3.5
v -2.5 0 3.5
v 2.5 0 3.5
v 4.5 0 3.5
v -4.5 0 2.5
v -2.5 0 2.5
v 2.5 0 2.5
v 4.5 0 2.5
v -4.5 0 0.5
v -2.5 0 0.5
v 2.5 0 0.5
v 4.5 0 0.5
v -0.5 1 7.5
v 0.5 1 7.5
v -3.5 1 6.5
v -2.5 1 6.5
v 2.5 1 6.5
v 3.5 1 6.5
v -2.5 1 5.5
v -0.5 1 5.5
v 0.5 1 5.5
v 2.5 1 5.5
v -3.5 1 3.5
v -2.5 1 3.5
v 2.5 1 3.5
v 3.5 1 3.5
v -2.5 1 2.5
v 2.5 1 2.5
v -2.5 1 1.5
v 2.5 1 1.5
v -2.5 1 0.5
v -1.5 1 0.5
v 1.5 1 0.5
v 2.5 1 0.5
v -1.5 1 -0.5
v -0.5 1 -0.5
v 0.5 1 -0.5
v 1.5 1 -0.5
v -0.5 1 -1.5
v 0.5 1 -1.5
v -0.5 1 -3.5
v 0.5 1 -3.5
v -0.5 1 -5.5
v 0.5 1 -5.5
v 1.5 1 -5.5
v -1.5 1 -7.5
v 0.5 1 -7.5
v 1.5 1 -7.5
v -2.5 1 -8.5
v -1.5 1 -8.5
v 0.5 1 -8.5
v -2.5 1 -10.5
v -1.5 1 -10.5
v -0.5 1 -10.5
v -1.5 1 -11.5
v -0.5 1 -11.5
v -0.5 2 10.5
v 0.5 2 10.5
v -1.5 2 9.5
v -0.5 2 9.5
v 0.5 2 9.5
v 1.5 2 9.5
v -3.5 2 7.5
v -2.5 2 7.5
v -1.5 2 7.5
v -0.5 2 7.5
v 0.5 2 7.5
v 1.5 2 7.5
v 2.5 2 7.5
v 3.5 2 7.5
v -3.5 2 6.5
v -2.5 2 6.5
v 2.5 2 6.5
v 3.5 2 6.5
v -3.5 2 1.5
v -2.5 2 1.5
v 2.5 2 1.5
v 3.5 2 1.5
v -3.5 2 0.5
v -2.5 2 0.5
v -1.5 2 0.5
v 1.5 2 0.5
v 2.5 2 0.5
v 3.5 2 0.5
v -2.5 2 -0.5
v -1.5 2 -0.5
v -0.5 2 -0.5
v 0.5 2 -0.5
v 1.5 2 -0.5
v 2.5 2 -0.5
v -1.5 2 -1.5
v -0.5 2 -1.5
v 0.5 2 -1.5
v 1.5 2 -1.5
v -0.5 2 -3.5
v 0.5 2 -3.5
v -0.5 3 11.5
v 0.5 3 11.5
v -1.5 3 10.5
v -0.5 3 10.5
v 0.5 3 10.5
v 1.5 3 10.5
v -1.5 3 9.5
v -0.5 3 9.5
v 0.5 3 9.5
v 1.5 3 9.5
v -2.5 4 9.5
v -1.5 4 9.5
v 1.5 4 9.5
v 2.5 4 9.5
v -2.5 4 8.5
v -1.5 4 8.5
v 1.5 4 8.5
v 2.5 4 8.5
v -2.5 1 8.5
v -0.5 1 8.5
v 0.5 1 8.5
v 2.5 1 8.5
v -2.5 1 7.5
v -1.5 1 7.5
v -0.5 1 7.5
v 0.5 1 7.5
v 1.5 1 7.5
v 2.5 1 7.5
v -4.5 1 3.5
v -3.5 1 3.5
v 3.5 1 3.5
v 4.5 1 3.5
v -4.5 1 2.5
v -3.5 1 2.5
v 3.5 1 2.5
v 4.5 1 2.5
v -3.5 1 1.5
v -2.5 1 1.5
v 2.5 1 1.5
v 3.5 1 1.5
v -4.5 1 0.5
v -2.5 1 0.5
v 2.5 1 0.5
v 4.5 1 0.5
v -0.5 2 -3.5
v 0.5 2 -3.5
v -0.5 2 -5.5
v 0.5 2 -5.5
v 1.5 2 -5.5
v -1.5 2 -7.5
v 0.5 2 -7.5
v 1.5 2 -7.5
v -2.5 2 -8.5
v -1.5 2 -8.5
v 0.5 2 -8.5
v -2.5 2 -10.5
v -1.5 2 -10.5
v -0.5 2 -10.5
v -1.5 2 -11.5
v -0.5 2 -11.5
v -3.5 3 7.5
v -2.5 3 7.5
v 2.5 3 7.5
v 3.5 3 7.5
v -3.5 3 5.5
v -2.5 3 5.5
v 2.5 3 5.5
v 3.5 3 5.5
v -3.5 3 1.5
v -2.5 3 1.5
v 2.5 3 1.5
v 3.5 3 1.5
v -3.5 3 0.5
v -2.5 3 0.5
v -1.5 3 0.5
v 1.5 3 0.5
v 2.5 3 0.5
v 3.5 3 0.5
v -2.5 3 -0.5
v -1.5 3 -0.5
v 1.5 3 -0.5
v 2.5 3 -0.5
v -0.5 3 -1.5
v 0.5 3 -1.5
v -0.5 3 -3.5
v 0.5 3 -3.5
v -0.5 4 11.5
v 0.5 4 11.5
v -0.5 4 10.5
v 0.5 4 10.5
v -2.5 4 7.5
v -1.5 4 7.5
v 1.5 4 7.5
v 2.5 4 7.5
v -1.5 4 6.5
v 1.5 4 6.5
v -3.5 4 5.5
v -2.5 4 5.5
v -1.5 4 5.5
v 1.5 4 5.5
v 2.5 4 5.5
v 3.5 4 5.5
v -3.5 4 2.5
v -2.5 4 2.5
v 2.5 4 2.5
v -3.5 4 1.5
v -2.5 4 1.5
v -1.5 4 1.5
v 1.5 4 1.5
v 2.5 4 1.5
v 3.5 4 1.5
v -2.5 4 0.5
v -1.5 4 0.5
v 1.5 4 0.5
v 2.5 4 0.5
v -1.5 4 -0.5
v 1.5 4 -0.5
v -1.5 4 -1.5
v 1.5 4 -1.5
v -1.5 5 10.5
v -0.5 5 10.5
v 0.5 5 10.5
v 1.5 5 10.5
v -1.5 5 9.5
v -0.5 5 9.5
v 0.5 5 9.5
v 1.5 5 9.5
v -1.5 5 8.5
v -0.5 5 8.5
v 0.5 5 8.5
v 1.5 5 8.5
v -1.5 5 7.5
v 1.5 5 7.5
v -1.5 5 6.5
v 1.5 5 6.5
v -2.5 5 5.5
v -1.5 5 5.5
v 1.5 5 5.5
v 2.5 5 5.5
v 1.5 5 2.5
v 2.5 5 2.5
v -2.5 5 1.5
v -1.5 5 1.5
v 1.5 5 1.5
v 2.5 5 1.5
v -1.5 5 -0.5
v 1.5 5 -0.5
v -2.5 6 9.5
v -0.5 6 9.5
v 0.5 6 9.5
v 2.5 6 9.5
v -2.5 6 8.5
v -0.5 6 8.5
v 0.5 6 8.5
v 2.5 6 8.5
v -1.5 6 5.5
v 1.5 6 5.5
v -1.5 6 1.5
v 1.5 6 1.5

# faces
f 4/2/1 2/2/1 1/2/1
f 5/3/1 3/3/1 2/3/1
f 5/2/1 2/2/1 4/2/1
f 6/3/1 3/3/1 5/3/1
f 12/3/1 8/3/1 7/3/1
f 12/3/1 10/3/1 9/3/1
f 12/3/1 9/3/1 8/3/1
f 13/3/1 10/3/1 12/3/1
f 14/3/1 10/3/1 13/3/1
f 15/3/1 10/3/1 14/3/1
f 17/3/1 12/3/1 11/3/1
f 17/3/1 13/3/1 12/3/1
f 18/2/1 14/2/1 13/2/1
f 18/3/1 13/3/1 17/3/1
f 19/3/1 16/3/1 15/3/1
f 19/2/1 14/2/1 18/2/1
f 19/3/1 15/3/1 14/3/1
f 20/3/1 16/3/1 19/3/1
f 21/3/1 16/3/1 20/3/1
f 22/3/1 16/3/1 21/3/1
f 23/3/1 19/3/1 18/3/1
f 23/3/1 20/3/1 19/3/1
f 24/2/1 21/2/1 20/2/1
f 24/3/1 20/3/1 23/3/1
f 25/2/1 21/2/1 24/2/1
f 29/2/1 27/2/1 26/2/1
f 30/3/1 28/3/1 27/3/1
f 30/2/1 27/2/1 29/2/1
f 31/3/1 28/3/1 30/3/1
f 32/3/1 28/3/1 31/3/1
f 37/3/1 31/3/1 30/3/1
f 38/3/1 31/3/1 37/3/1
f 39/3/1 34/3/1 33/3/1
f 40/3/1 34/3/1 39/3/1
f 42/4/1 36/4/1 35/4/1
f 43/4/1 36/4/1 42/4/1
f 47/2/1 41/2/1 40/2/1
f 48/2/1 41/2/1 47/2/1
f 51/3/1 45/3/1 44/3/1
f 52/3/1 45/3/1 51/3/1
f 54/3/1 47/3/1 46/3/1
f 55/3/1 47/3/1 54/3/1
f 56/3/1 53/3/1 52/3/1
f 56/3/1 54/3/1 53/3/1
f 57/3/1 54/3/1 56/3/1
f 58/3/1 50/3/1 49/3/1
f 59/3/1 50/3/1 58/3/1
f 68/3/1 61/3/1 60/3/1
f 69/3/1 61/3/1 68/3/1
f 71/4/1 63/4/1 62/4/1
f 72/4/1 63/4/1 71/4/1
f 73/4/1 65/4/1 64/4/1
f 74/4/1 65/4/1 73/4/1
f 76/3/1 67/3/1 66/3/1
f 78/3/1 70/3/1 69/3/1
f 79/3/1 76/3/1 75/3/1
f 80/3/1 67/3/1 76/3/1
f 80/3/1 76/3/1 79/3/1
f 81/3/1 67/3/1 80/3/1
f 82/3/1 67/3/1 81/3/1
f 86/3/1 78/3/1 77/3/1
f 87/3/1 70/3/1 78/3/1
f 87/3/1 78/3/1 86/3/1
f 88/3/1 70/3/1 87/3/1
f 89/1/1 80/1/1 79/1/1
f 90/1/1 80/1/1 89/1/1
f 91/3/1 82/3/1 81/3/1
f 92/3/1 82/3/1 91/3/1
f 93/3/1 84/3/1 83/3/1
f 94/3/1 84/3/1 93/3/1
f 95/3/1 86/3/1 85/3/1
f 95/3/1 87/3/1 86/3/1
f 96/3/1 87/3/1 95/3/1
f 97/3/1 95/3/1 94/3/1
f 98/3/1 95/3/1 97/3/1
f 105/3/1 100/3/1 99/3/1
f 106/3/1 100/3/1 105/3/1
f 107/4/1 102/4/1 101/4/1
f 108/4/1 102/4/1 107/4/1
f 110/3/1 104/3/1 103/3/1
f 111/3/1 104/3/1 110/3/1
f 112/4/1 107/4/1 106/4/1
f 113/4/1 107/4/1 112/4/1
f 114/3/1 110/3/1 109/3/1
f 115/3/1 110/3/1 114/3/1
f 119/2/1 117/2/1 116/2/1
f 120/3/1 118/3/1 117/3/1
f 120/2/1 117/2/1 119/2/1
f 121/3/1 118/3/1 120/3/1
f 124/4/1 123/4/1 122/4/1
f 125/4/1 123/4/1 124/4/1
f 128/3/1 127/3/1 126/3/1
f 129/3/1 127/3/1 128/3/1
f 133/2/1 131/2/1 130/2/1
f 134/3/1 132/3/1 131/3/1
f 134/2/1 131/2/1 133/2/1
f 135/3/1 132/3/1 134/3/1
f 136/3/1 132/3/1 135/3/1
f 137/2/2 138/2/2 140/2/2
f 138/3/2 139/3/2 141/3/2
f 140/2/2 138/2/2 141/2/2
f 141/3/2 139/3/2 142/3/2
f 142/3/2 139/3/2 143/3/2
f 144/4/2 145/4/2 146/4/2
f 146/4/2 145/4/2 147/4/2
f 148/2/2 149/2/2 151/2/2
f 149/3/2 150/3/2 152/3/2
f 151/2/2 149/2/2 152/2/2
f 152/3/2 150/3/2 153/3/2
f 154/4/2 155/4/2 156/4/2
f 156/4/2 155/4/2 157/4/2
f 158/3/2 159/3/2 160/3/2
f 160/3/2 159/3/2 161/3/2
f 162/3/2 163/3/2 170/3/2
f 170/3/2 163/3/2 171/3/2
f 164/4/2 165/4/2 172/4/2
f 172/4/2 165/4/2 173/4/2
f 166/4/2 167/4/2 174/4/2
f 174/4/2 167/4/2 175/4/2
f 168/3/2 169/3/2 177/3/2
f 177/3/2 169/3/2 178/3/2
f 171/4/2 172/4/2 179/4/2
f 179/4/2 172/4/2 180/4/2
f 176/3/2 177/3/2 181/3/2
f 181/3/2 177/3/2 182/3/2
f 183/3/2 184/3/2 189/3/2
f 189/3/2 184/3/2 190/3/2
f 185/4/2 186/4/2 192/4/2
f 192/4/2 186/4/2 193/4/2
f 187/3/2 188/3/2 195/3/2
f 190/3/2 191/3/2 197/3/2
f 194/3/2 195/3/2 198/3/2
f 195/3/2 188/3/2 199/3/2
f 198/3/2 195/3/2 199/3/2
f 199/3/2 188/3/2 200/3/2
f 200/3/2 188/3/2 201/3/2
f 196/3/2 197/3/2 205/3/2
f 197/3/2 191/3/2 206/3/2
f 205/3/2 197/3/2 206/3/2
f 206/3/2 191/3/2 207/3/2
f 198/1/2 199/1/2 208/1/2
f 208/1/2 199/1/2 209/1/2
f 200/3/2 201/3/2 210/3/2
f 210/3/2 201/3/2 211/3/2
f 202/3/2 203/3/2 212/3/2
f 212/3/2 203/3/2 213/3/2
f 204/3/2 205/3/2 215/3/2
f 205/3/2 206/3/2 215/3/2
f 215/3/2 206/3/2 216/3/2
f 213/3/2 214/3/2 217/3/2
f 214/3/2 215/3/2 217/3/2
f 217/3/2 215/3/2 218/3/2
f 219/2/2 220/2/2 222/2/2
f 220/3/2 221/3/2 223/3/2
f 222/2/2 220/2/2 223/2/2
f 223/3/2 221/3/2 224/3/2
f 224/3/2 221/3/2 225/3/2
f 223/3/2 224/3/2 228/3/2
f 228/3/2 224/3/2 229/3/2
f 226/3/2 227/3/2 230/3/2
f 230/3/2 227/3/2 231/3/2
f 231/3/2 232/3/2 236/3/2
f 236/3/2 232/3/2 237/3/2
f 233/3/2 234/3/2 240/3/2
f 240/3/2 234/3/2 241/3/2
f 235/3/2 236/3/2 243/3/2
f 243/3/2 236/3/2 244/3/2
f 241/3/2 242/3/2 245/3/2
f 242/2/2 243/2/2 246/2/2
f 245/3/2 242/3/2 246/3/2
f 246/2/2 243/2/2 247/2/2
f 238/3/2 239/3/2 248/3/2
f 248/3/2 239/3/2 249/3/2
f 250/3/2 251/3/2 255/3/2
f 252/3/2 253/3/2 255/3/2
f 251/3/2 252/3/2 255/3/2
f 255/3/2 253/3/2 256/3/2
f 256/3/2 253/3/2 257/3/2
f 257/3/2 253/3/2 258/3/2
f 254/3/2 255/3/2 260/3/2
f 255/3/2 256/3/2 260/3/2
f 256/2/2 257/2/2 261/2/2
f 260/3/2 256/3/2 261/3/2
f 257/3/2 258/3/2 262/3/2
f 261/2/2 257/2/2 262/2/2
f 258/2/2 259/2/2 263/2/2
f 262/3/2 258/3/2 263/3/2
f 263/2/2 259/2/2 264/2/2
f 261/3/2 262/3/2 265/3/2
f 262/3/2 263/3/2 265/3/2
f 265/3/2 263/3/2 266/3/2
f 267/2/2 268/2/2 270/2/2
f 268/3/2 269/3/2 271/3/2
f 270/2/2 268/2/2 271/2/2
f 271/3/2 269/3/2 272/3/2
f 275/3/3 274/3/3 273/3/3
f 276/3/3 274/3/3 275/3/3
f 281/3/3 278/3/3 277/3/3
f 282/1/3 279/1/3 278/1/3
f 282/3/3 278/3/3 281/3/3
f 283/1/3 279/1/3 282/1/3
f 284/3/3 281/3/3 280/3/3
f 285/3/3 281/3/3 284/3/3
f 286/3/3 283/3/3 282/3/3
f 287/3/3 283/3/3 286/3/3
f 288/3/3 286/3/3 285/3/3
f 289/1/3 287/1/3 286/1/3
f 289/3/3 286/3/3 288/3/3
f 290/1/3 287/1/3 289/1/3
f 295/3/3 292/3/3 291/3/3
f 296/3/3 292/3/3 295/3/3
f 297/3/3 294/3/3 293/3/3
f 298/3/3 294/3/3 297/3/3
f 299/3/3 292/3/3 296/3/3
f 300/3/3 292/3/3 299/3/3
f 305/3/3 302/3/3 301/3/3
f 306/3/3 302/3/3 305/3/3
f 308/3/3 304/3/3 303/3/3
f 309/3/3 308/3/3 307/3/3
f 310/3/3 304/3/3 308/3/3
f 310/3/3 308/3/3 309/3/3
f 313/2/3 312/2/3 311/2/3
f 314/2/3 312/2/3 313/2/3
f 317/2/3 316/2/3 315/2/3
f 318/2/3 316/2/3 317/2/3
f 322/3/3 320/3/3 319/3/3
f 323/3/3 320/3/3 322/3/3
f 325/3/3 322/3/3 321/3/3
f 325/3/3 324/3/3 323/3/3
f 325/3/3 323/3/3 322/3/3
f 326/3/3 324/3/3 325/3/3
f 327/3/3 324/3/3 326/3/3
f 328/2/3 326/2/3 325/2/3
f 329/2/3 326/2/3 328/2/3
f 330/2/3 329/2/3 328/2/3
f 331/2/3 329/2/3 330/2/3
f 332/2/3 331/2/3 330/2/3
f 333/2/3 331/2/3 332/2/3
f 335/3/3 333/3/3 332/3/3
f 335/3/3 334/3/3 333/3/3
f 336/3/3 334/3/3 335/3/3
f 337/3/3 334/3/3 336/3/3
f 338/3/3 334/3/3 337/3/3
f 339/3/3 337/3/3 336/3/3
f 340/3/3 337/3/3 339/3/3
f 343/3/3 342/3/3 341/3/3
f 344/3/3 342/3/3 343/3/3
f 347/3/3 346/3/3 345/3/3
f 348/3/3 346/3/3 347/3/3
f 351/3/3 350/3/3 349/3/3
f 352/3/3 350/3/3 351/3/3
f 355/3/3 354/3/3 353/3/3
f 356/3/3 354/3/3 355/3/3
f 358/3/3 357/3/3 356/3/3
f 359/3/3 357/3/3 358/3/3
f 362/3/3 360/3/3 359/3/3
f 363/3/3 360/3/3 362/3/3
f 365/3/3 362/3/3 361/3/3
f 366/3/3 362/3/3 365/3/3
f 367/3/3 365/3/3 364/3/3
f 368/3/3 365/3/3 367/3/3
f 371/2/3 370/2/3 369/2/3
f 372/2/3 371/2/3 369/2/3
f 373/2/3 371/2/3 372/2/3
f 376/2/3 375/2/3 374/2/3
f 377/2/3 376/2/3 374/2/3
f 378/2/3 376/2/3 377/2/3
f 381/4/3 380/4/3 379/4/3
f 382/4/3 380/4/3 381/4/3
f 385/4/3 384/4/3 383/4/3
f 386/4/3 384/4/3 385/4/3
f 389/4/3 388/4/3 387/4/3
f 390/4/3 388/4/3 389/4/3
f 393/4/3 392/4/3 391/4/3
f 394/4/3 392/4/3 393/4/3
f 397/4/3 396/4/3 395/4/3
f 398/4/3 396/4/3 397/4/3
f 399/3/4 400/3/4 401/3/4
f 401/3/4 400/3/4 402/3/4
f 402/3/4 400/3/4 403/3/4
f 403/3/4 400/3/4 404/3/4
f 405/3/4 406/3/4 408/3/4
f 407/3/4 408/3/4 409/3/4
f 408/3/4 406/3/4 410/3/4
f 409/3/4 408/3/4 410/3/4
f 411/3/4 412/3/4 413/3/4
f 413/3/4 412/3/4 414/3/4
f 415/3/4 416/3/4 417/3/4
f 417/3/4 416/3/4 418/3/4
f 419/3/4 420/3/4 421/3/4
f 421/3/4 420/3/4 422/3/4
f 423/3/4 424/3/4 427/3/4
f 427/3/4 424/3/4 428/3/4
f 425/2/4 426/2/4 429/2/4
f 429/2/4 426/2/4 430/2/4
f 430/3/4 431/3/4 432/3/4
f 432/3/4 431/3/4 433/3/4
f 433/3/4 434/3/4 436/3/4
f 436/3/4 434/3/4 437/3/4
f 435/2/4 436/2/4 441/2/4
f 441/2/4 436/2/4 442/2/4
f 438/3/4 439/3/4 443/3/4
f 443/3/4 439/3/4 444/3/4
f 440/3/4 441/3/4 445/3/4
f 445/3/4 441/3/4 446/3/4
f 447/3/4 448/3/4 451/3/4
f 451/3/4 448/3/4 452/3/4
f 449/3/4 450/3/4 453/3/4
f 453/3/4 450/3/4 454/3/4
f 452/3/4 453/3/4 456/3/4
f 456/3/4 453/3/4 457/3/4
f 454/3/4 455/3/4 458/3/4
f 458/3/4 455/3/4 459/3/4
f 460/3/4 461/3/4 465/3/4
f 465/3/4 461/3/4 466/3/4
f 462/3/4 463/3/4 467/3/4
f 467/3/4 463/3/4 468/3/4
f 466/2/4 467/2/4 469/2/4
f 469/2/4 467/2/4 470/2/4
f 464/3/4 465/3/4 471/3/4
f 471/3/4 465/3/4 472/3/4
f 473/2/4 474/2/4 476/2/4
f 476/2/4 474/2/4 477/2/4
f 475/3/4 476/3/4 480/3/4
f 480/3/4 476/3/4 481/3/4
f 482/3/4 483/3/4 484/3/4
f 484/3/4 483/3/4 485/3/4
f 478/3/4 479/3/4 487/3/4
f 487/3/4 479/3/4 488/3/4
f 485/3/4 486/3/4 489/3/4
f 489/3/4 486/3/4 490/3/4
f 491/3/4 492/3/4 494/3/4
f 494/3/4 492/3/4 495/3/4
f 493/3/4 494/3/4 496/3/4
f 496/3/4 494/3/4 497/3/4
f 495/3/4 492/3/4 498/3/4
f 497/3/4 498/3/4 499/3/4
f 498/3/4 492/3/4 500/3/4
f 499/3/4 498/3/4 500/3/4
f 501/4/4 502/4/4 503/4/4
f 503/4/4 502/4/4 504/4/4
f 505/4/4 506/4/4 507/4/4
f 507/4/4 506/4/4 508/4/4
f 509/4/4 510/4/4 511/4/4
f 511/4/4 510/4/4 512/4/4
f 513/4/4 514/4/4 515/4/4
f 515/4/4 514/4/4 516/4/4
f 517/4/4 518/4/4 519/4/4
f 519/4/4 518/4/4 520/4/4
f 521/4/4 522/4/4 523/4/4
f 523/4/4 522/4/4 524/4/4
f 529/2/5 526/2/5 525/2/5
f 530/2/5 526/2/5 529/2/5
f 531/2/5 528/2/5 527/2/5
f 532/2/5 528/2/5 531/2/5
f 533/3/5 530/3/5 529/3/5
f 534/3/5 530/3/5 533/3/5
f 535/3/5 532/3/5 531/3/5
f 536/3/5 532/3/5 535/3/5
f 541/2/5 538/2/5 537/2/5
f 542/2/5 538/2/5 541/2/5
f 543/2/5 540/2/5 539/2/5
f 544/2/5 540/2/5 543/2/5
f 545/3/5 542/3/5 541/3/5
f 546/3/5 542/3/5 545/3/5
f 547/3/5 544/3/5 543/3/5
f 548/3/5 544/3/5 547/3/5
f 555/3/5 552/3/5 551/3/5
f 556/2/5 550/2/5 549/2/5
f 557/2/5 550/2/5 556/2/5
f 558/3/5 554/3/5 553/3/5
f 559/3/5 555/3/5 551/3/5
f 560/2/5 558/2/5 557/2/5
f 560/3/5 555/3/5 559/3/5
f 560/2/5 557/2/5 556/2/5
f 560/2/5 556/2/5 555/2/5
f 561/3/5 554/3/5 558/3/5
f 561/2/5 558/2/5 560/2/5
f 562/3/5 554/3/5 561/3/5
f 563/2/5 561/2/5 560/2/5
f 564/2/5 561/2/5 563/2/5
f 565/2/5 564/2/5 563/2/5
f 566/2/5 564/2/5 565/2/5
f 567/3/5 566/3/5 565/3/5
f 568/3/5 566/3/5 567/3/5
f 569/3/5 566/3/5 568/3/5
f 570/3/5 566/3/5 569/3/5
f 571/3/5 569/3/5 568/3/5
f 572/3/5 569/3/5 571/3/5
f 573/3/5 569/3/5 572/3/5
f 574/3/5 569/3/5 573/3/5
f 575/3/5 573/3/5 572/3/5
f 576/3/5 573/3/5 575/3/5
f 579/4/5 578/4/5 577/4/5
f 580/4/5 578/4/5 579/4/5
f 583/4/5 581/4/5 580/4/5
f 584/4/5 581/4/5 583/4/5
f 586/4/5 583/4/5 582/4/5
f 587/4/5 583/4/5 586/4/5
f 588/4/5 586/4/5 585/4/5
f 589/4/5 586/4/5 588/4/5
f 591/4/5 590/4/5 589/4/5
f 592/4/5 590/4/5 591/4/5
f 596/3/5 594/3/5 593/3/5
f 597/3/5 594/3/5 596/3/5
f 601/3/5 596/3/5 595/3/5
f 602/2/5 597/2/5 596/2/5
f 602/3/5 596/3/5 601/3/5
f 603/3/5 598/3/5 597/3/5
f 603/2/5 597/2/5 602/2/5
f 604/3/5 598/3/5 603/3/5
f 607/3/5 600/3/5 599/3/5
f 608/3/5 600/3/5 607/3/5
f 609/3/5 606/3/5 605/3/5
f 610/3/5 606/3/5 609/3/5
f 615/3/5 612/3/5 611/3/5
f 616/3/5 612/3/5 615/3/5
f 619/2/5 614/2/5 613/2/5
f 620/2/5 614/2/5 619/2/5
f 621/2/5 617/2/5 616/2/5
f 622/2/5 617/2/5 621/2/5
f 625/3/5 619/3/5 618/3/5
f 626/3/5 619/3/5 625/3/5
f 627/3/5 623/3/5 622/3/5
f 628/3/5 623/3/5 627/3/5
f 629/3/5 625/3/5 624/3/5
f 630/3/5 625/3/5 629/3/5
f 631/4/5 629/4/5 628/4/5
f 632/4/5 629/4/5 631/4/5
f 636/3/5 634/3/5 633/3/5
f 637/3/5 634/3/5 636/3/5
f 639/3/5 636/3/5 635/3/5
f 640/3/5 636/3/5 639/3/5
f 641/3/5 638/3/5 637/3/5
f 642/3/5 638/3/5 641/3/5
f 647/3/5 644/3/5 643/3/5
f 648/3/5 644/3/5 647/3/5
f 649/3/5 646/3/5 645/3/5
f 650/3/5 646/3/5 649/3/5
f 651/2/6 652/2/6 655/2/6
f 655/2/6 652/2/6 656/2/6
f 656/2/6 652/2/6 657/2/6
f 653/2/6 654/2/6 658/2/6
f 658/2/6 654/2/6 659/2/6
f 659/2/6 654/2/6 660/2/6
f 661/2/6 662/2/6 665/2/6
f 665/2/6 662/2/6 666/2/6
f 663/2/6 664/2/6 667/2/6
f 667/2/6 664/2/6 668/2/6
f 665/3/6 666/3/6 669/3/6
f 667/3/6 668/3/6 672/3/6
f 669/3/6 670/3/6 673/3/6
f 665/3/6 669/3/6 673/3/6
f 673/3/6 670/3/6 674/3/6
f 671/3/6 672/3/6 675/3/6
f 672/3/6 668/3/6 676/3/6
f 675/3/6 672/3/6 676/3/6
f 677/4/6 678/4/6 679/4/6
f 679/4/6 678/4/6 680/4/6
f 680/4/6 681/4/6 683/4/6
f 683/4/6 681/4/6 684/4/6
f 682/4/6 683/4/6 686/4/6
f 686/4/6 683/4/6 687/4/6
f 685/4/6 686/4/6 688/4/6
f 688/4/6 686/4/6 689/4/6
f 689/4/6 690/4/6 691/4/6
f 691/4/6 690/4/6 692/4/6
f 693/3/6 694/3/6 697/3/6
f 697/3/6 694/3/6 698/3/6
f 695/3/6 696/3/6 699/3/6
f 699/3/6 696/3/6 700/3/6
f 701/3/6 702/3/6 705/3/6
f 705/3/6 702/3/6 706/3/6
f 703/2/6 704/2/6 709/2/6
f 709/2/6 704/2/6 710/2/6
f 706/2/6 707/2/6 711/2/6
f 711/2/6 707/2/6 712/2/6
f 708/3/6 709/3/6 713/3/6
f 713/3/6 709/3/6 714/3/6
f 715/4/6 716/4/6 717/4/6
f 717/4/6 716/4/6 718/4/6
f 719/3/6 720/3/6 721/3/6
f 721/3/6 720/3/6 722/3/6
f 723/3/6 724/3/6 727/3/6
f 725/3/6 726/3/6 727/3/6
f 724/3/6 725/3/6 727/3/6
f 727/3/6 726/3/6 728/3/6
f 723/3/6 727/3/6 730/3/6
f 730/3/6 727/3/6 731/3/6
f 728/3/6 726/3/6 732/3/6
f 732/3/6 726/3/6 733/3/6
f 729/3/6 730/3/6 735/3/6
f 735/3/6 730/3/6 736/3/6
f 733/3/6 734/3/6 737/3/6
f 735/2/6 736/2/6 738/2/6
f 738/2/6 736/2/6 739/2/6
f 737/3/6 734/3/6 742/3/6
f 742/3/6 734/3/6 743/3/6
f 739/3/6 740/3/6 744/3/6
f 744/3/6 740/3/6 745/3/6
f 741/3/6 742/3/6 746/3/6
f 746/3/6 742/3/6 747/3/6
f 748/3/6 749/3/6 750/3/6
f 750/3/6 749/3/6 751/3/6
f 752/1/6 753/1/6 756/1/6
f 753/3/6 754/3/6 757/3/6
f 756/1/6 753/1/6 757/1/6
f 754/1/6 755/1/6 758/1/6
f 757/3/6 754/3/6 758/3/6
f 758/1/6 755/1/6 759/1/6
f 757/3/6 758/3/6 761/3/6
f 761/3/6 758/3/6 762/3/6
f 760/3/6 761/3/6 764/3/6
f 762/3/6 763/3/6 764/3/6
f 761/3/6 762/3/6 764/3/6
f 764/3/6 763/3/6 765/3/6
f 766/3/6 767/3/6 769/3/6
f 769/3/6 767/3/6 770/3/6
f 770/3/6 771/3/6 772/3/6
f 772/3/6 771/3/6 773/3/6
f 768/3/6 769/3/6 774/3/6
f 774/3/6 769/3/6 775/3/6
f 772/2/6 773/2/6 776/2/6
f 776/2/6 773/2/6 777/2/6
f 775/3/6 776/3/6 778/3/6
f 778/3/6 776/3/6 779/3/6
f 780/3/6 781/3/6 784/3/6
f 784/3/6 781/3/6 785/3/6
f 782/3/6 783/3/6 786/3/6
f 786/3/6 783/3/6 787/3/6
f 788/3/6 789/3/6 790/3/6
f 790/3/6 789/3/6 791/3/6
