# MagicaVoxel @ Ephtracy

# material
mtllib BenchWeight.mtl
usemtl palette

# normals
vn -1 0 0
vn 1 0 0
vn 0 0 1
vn 0 0 -1
vn 0 -1 0
vn 0 1 0

# texcoords
vt 0.302734 0.5
vt 0.306641 0.5
vt 0.314453 0.5
vt 0.322266 0.5

# verts
v 46 51 -41
v 46 51 -42
v 46 51 -48
v 46 51 -49
v 46 53 -42
v 46 53 -48
v 46 54 -41
v 46 54 -49
v 46 55 -41
v 46 55 -49
v 54 60 -38
v 54 60 -39
v 54 60 -51
v 54 60 -52
v 54 63 -38
v 54 63 -39
v 54 63 -51
v 54 63 -52
v 55 59 -38
v 55 59 -39
v 55 60 -38
v 55 60 -39
v 55 60 -40
v 55 60 -50
v 55 60 -51
v 55 62 -39
v 55 62 -40
v 55 62 -50
v 55 62 -51
v 55 63 -38
v 55 63 -39
v 55 63 -51
v 55 63 -52
v 55 64 -38
v 55 64 -39
v 55 64 -51
v 55 64 -52
v 56 50 -39
v 56 50 -40
v 56 50 -50
v 56 50 -51
v 56 51 -41
v 56 51 -42
v 56 51 -48
v 56 51 -49
v 56 53 -41
v 56 53 -42
v 56 53 -48
v 56 53 -49
v 56 54 -42
v 56 54 -48
v 56 59 -39
v 56 60 -39
v 56 60 -40
v 56 60 -50
v 56 60 -51
v 56 61 -37
v 56 61 -38
v 56 61 -40
v 56 61 -50
v 56 61 -52
v 56 61 -53
v 56 62 -37
v 56 62 -38
v 56 62 -39
v 56 62 -40
v 56 62 -50
v 56 62 -52
v 56 62 -53
v 56 63 -39
v 56 63 -40
v 57 63 -39
v 57 63 -40
v 57 64 -39
v 57 64 -40
v 58 60 -51
v 58 60 -52
v 58 61 -51
v 58 61 -52
v 47 51 -41
v 47 51 -42
v 47 51 -48
v 47 51 -49
v 47 53 -41
v 47 53 -42
v 47 53 -48
v 47 53 -49
v 47 54 -42
v 47 54 -48
v 55 60 -51
v 55 60 -52
v 55 61 -51
v 55 61 -52
v 56 60 -39
v 56 60 -40
v 56 61 -39
v 56 61 -40
v 57 50 -39
v 57 50 -40
v 57 50 -50
v 57 50 -51
v 57 51 -41
v 57 51 -42
v 57 51 -48
v 57 51 -49
v 57 53 -42
v 57 53 -48
v 57 54 -41
v 57 54 -49
v 57 55 -41
v 57 55 -49
v 57 59 -39
v 57 60 -39
v 57 60 -40
v 57 60 -50
v 57 60 -51
v 57 61 -37
v 57 61 -38
v 57 61 -39
v 57 61 -50
v 57 61 -52
v 57 61 -53
v 57 62 -37
v 57 62 -38
v 57 62 -39
v 57 62 -40
v 57 62 -50
v 57 62 -52
v 57 62 -53
v 58 59 -38
v 58 59 -39
v 58 60 -38
v 58 60 -39
v 58 60 -50
v 58 60 -51
v 58 62 -39
v 58 62 -40
v 58 62 -50
v 58 62 -51
v 58 63 -38
v 58 63 -39
v 58 63 -51
v 58 63 -52
v 58 64 -38
v 58 64 -39
v 58 64 -40
v 58 64 -51
v 58 64 -52
v 59 60 -38
v 59 60 -39
v 59 60 -51
v 59 60 -52
v 59 63 -38
v 59 63 -39
v 59 63 -51
v 59 63 -52
v 56 61 -37
v 56 62 -37
v 57 61 -37
v 57 62 -37
v 54 60 -38
v 54 63 -38
v 55 59 -38
v 55 60 -38
v 55 63 -38
v 55 64 -38
v 56 61 -38
v 56 62 -38
v 57 61 -38
v 57 62 -38
v 58 59 -38
v 58 60 -38
v 58 63 -38
v 58 64 -38
v 59 60 -38
v 59 63 -38
v 56 50 -39
v 56 59 -39
v 57 50 -39
v 57 59 -39
v 46 51 -41
v 46 54 -41
v 46 55 -41
v 47 51 -41
v 47 53 -41
v 56 51 -41
v 56 53 -41
v 57 51 -41
v 57 54 -41
v 57 55 -41
v 46 51 -48
v 46 53 -48
v 47 51 -48
v 47 53 -48
v 47 54 -48
v 56 51 -48
v 56 53 -48
v 56 54 -48
v 57 51 -48
v 57 53 -48
v 55 60 -50
v 55 62 -50
v 56 50 -50
v 56 60 -50
v 56 61 -50
v 56 62 -50
v 57 50 -50
v 57 60 -50
v 57 61 -50
v 57 62 -50
v 58 60 -50
v 58 62 -50
v 54 60 -51
v 54 63 -51
v 55 60 -51
v 55 62 -51
v 55 63 -51
v 55 64 -51
v 56 62 -51
v 57 62 -51
v 58 60 -51
v 58 62 -51
v 58 63 -51
v 58 64 -51
v 59 60 -51
v 59 63 -51
v 54 60 -39
v 54 63 -39
v 55 59 -39
v 55 60 -39
v 55 62 -39
v 55 63 -39
v 55 64 -39
v 56 59 -39
v 56 60 -39
v 56 61 -39
v 56 62 -39
v 56 63 -39
v 57 59 -39
v 57 60 -39
v 57 61 -39
v 57 62 -39
v 57 63 -39
v 57 64 -39
v 58 59 -39
v 58 60 -39
v 58 62 -39
v 58 63 -39
v 59 60 -39
v 59 63 -39
v 55 60 -40
v 55 62 -40
v 56 50 -40
v 56 60 -40
v 56 61 -40
v 56 62 -40
v 56 63 -40
v 57 50 -40
v 57 60 -40
v 57 62 -40
v 57 63 -40
v 57 64 -40
v 58 62 -40
v 58 64 -40
v 46 51 -42
v 46 53 -42
v 47 51 -42
v 47 53 -42
v 47 54 -42
v 56 51 -42
v 56 53 -42
v 56 54 -42
v 57 51 -42
v 57 53 -42
v 46 51 -49
v 46 54 -49
v 46 55 -49
v 47 51 -49
v 47 53 -49
v 56 51 -49
v 56 53 -49
v 57 51 -49
v 57 54 -49
v 57 55 -49
v 55 60 -51
v 55 61 -51
v 56 50 -51
v 56 60 -51
v 56 61 -51
v 57 50 -51
v 57 60 -51
v 57 61 -51
v 58 60 -51
v 58 61 -51
v 54 60 -52
v 54 63 -52
v 55 60 -52
v 55 61 -52
v 55 63 -52
v 55 64 -52
v 56 61 -52
v 56 62 -52
v 57 61 -52
v 57 62 -52
v 58 60 -52
v 58 61 -52
v 58 63 -52
v 58 64 -52
v 59 60 -52
v 59 63 -52
v 56 61 -53
v 56 62 -53
v 57 61 -53
v 57 62 -53
v 56 50 -39
v 57 50 -39
v 56 50 -40
v 57 50 -40
v 56 50 -50
v 57 50 -50
v 56 50 -51
v 57 50 -51
v 46 51 -41
v 47 51 -41
v 56 51 -41
v 57 51 -41
v 46 51 -42
v 47 51 -42
v 56 51 -42
v 57 51 -42
v 46 51 -48
v 47 51 -48
v 56 51 -48
v 57 51 -48
v 46 51 -49
v 47 51 -49
v 56 51 -49
v 57 51 -49
v 47 53 -41
v 56 53 -41
v 46 53 -42
v 47 53 -42
v 56 53 -42
v 57 53 -42
v 46 53 -48
v 47 53 -48
v 56 53 -48
v 57 53 -48
v 47 53 -49
v 56 53 -49
v 47 54 -42
v 56 54 -42
v 47 54 -48
v 56 54 -48
v 55 59 -38
v 58 59 -38
v 55 59 -39
v 56 59 -39
v 57 59 -39
v 58 59 -39
v 54 60 -38
v 55 60 -38
v 58 60 -38
v 59 60 -38
v 54 60 -39
v 55 60 -39
v 56 60 -39
v 58 60 -39
v 59 60 -39
v 55 60 -40
v 56 60 -40
v 55 60 -50
v 56 60 -50
v 57 60 -50
v 58 60 -50
v 54 60 -51
v 55 60 -51
v 56 60 -51
v 57 60 -51
v 58 60 -51
v 59 60 -51
v 54 60 -52
v 55 60 -52
v 58 60 -52
v 59 60 -52
v 56 61 -37
v 57 61 -37
v 56 61 -38
v 57 61 -38
v 56 61 -39
v 57 61 -39
v 56 61 -40
v 56 61 -50
v 57 61 -50
v 55 61 -51
v 56 61 -51
v 57 61 -51
v 58 61 -51
v 55 61 -52
v 56 61 -52
v 57 61 -52
v 58 61 -52
v 56 61 -53
v 57 61 -53
v 57 62 -39
v 58 62 -39
v 57 62 -40
v 58 62 -40
v 46 55 -41
v 57 55 -41
v 46 55 -49
v 57 55 -49
v 56 60 -39
v 57 60 -39
v 56 60 -40
v 57 60 -40
v 56 62 -37
v 57 62 -37
v 56 62 -38
v 57 62 -38
v 55 62 -39
v 56 62 -39
v 55 62 -40
v 56 62 -40
v 57 62 -40
v 55 62 -50
v 56 62 -50
v 57 62 -50
v 58 62 -50
v 55 62 -51
v 56 62 -51
v 57 62 -51
v 58 62 -51
v 56 62 -52
v 57 62 -52
v 56 62 -53
v 57 62 -53
v 54 63 -38
v 55 63 -38
v 58 63 -38
v 59 63 -38
v 54 63 -39
v 55 63 -39
v 56 63 -39
v 57 63 -39
v 58 63 -39
v 59 63 -39
v 56 63 -40
v 57 63 -40
v 54 63 -51
v 55 63 -51
v 58 63 -51
v 59 63 -51
v 54 63 -52
v 55 63 -52
v 58 63 -52
v 59 63 -52
v 55 64 -38
v 58 64 -38
v 55 64 -39
v 57 64 -39
v 58 64 -39
v 57 64 -40
v 58 64 -40
v 55 64 -51
v 58 64 -51
v 55 64 -52
v 58 64 -52

# faces
f 5/1/1 2/1/1 1/1/1
f 6/1/1 4/1/1 3/1/1
f 7/1/1 5/1/1 1/1/1
f 7/1/1 6/1/1 5/1/1
f 8/1/1 4/1/1 6/1/1
f 8/1/1 6/1/1 7/1/1
f 9/2/1 8/2/1 7/2/1
f 10/2/1 8/2/1 9/2/1
f 15/3/1 12/3/1 11/3/1
f 16/3/1 12/3/1 15/3/1
f 17/3/1 14/3/1 13/3/1
f 18/3/1 14/3/1 17/3/1
f 21/3/1 20/3/1 19/3/1
f 22/3/1 20/3/1 21/3/1
f 26/1/1 23/1/1 22/1/1
f 27/1/1 23/1/1 26/1/1
f 28/1/1 25/1/1 24/1/1
f 29/1/1 25/1/1 28/1/1
f 34/3/1 31/3/1 30/3/1
f 35/3/1 31/3/1 34/3/1
f 36/3/1 33/3/1 32/3/1
f 37/3/1 33/3/1 36/3/1
f 46/1/1 43/1/1 42/1/1
f 47/1/1 43/1/1 46/1/1
f 48/1/1 45/1/1 44/1/1
f 49/1/1 45/1/1 48/1/1
f 50/1/1 48/1/1 47/1/1
f 51/1/1 48/1/1 50/1/1
f 52/1/1 39/1/1 38/1/1
f 53/1/1 39/1/1 52/1/1
f 54/1/1 39/1/1 53/1/1
f 55/1/1 41/1/1 40/1/1
f 56/1/1 41/1/1 55/1/1
f 63/4/1 58/4/1 57/4/1
f 64/4/1 58/4/1 63/4/1
f 66/4/1 60/4/1 59/4/1
f 67/4/1 60/4/1 66/4/1
f 68/4/1 62/4/1 61/4/1
f 69/4/1 62/4/1 68/4/1
f 70/1/1 66/1/1 65/1/1
f 71/1/1 66/1/1 70/1/1
f 74/1/1 73/1/1 72/1/1
f 75/1/1 73/1/1 74/1/1
f 78/3/1 77/3/1 76/3/1
f 79/3/1 77/3/1 78/3/1
f 80/1/2 81/1/2 84/1/2
f 84/1/2 81/1/2 85/1/2
f 82/1/2 83/1/2 86/1/2
f 86/1/2 83/1/2 87/1/2
f 85/1/2 86/1/2 88/1/2
f 88/1/2 86/1/2 89/1/2
f 90/3/2 91/3/2 92/3/2
f 92/3/2 91/3/2 93/3/2
f 94/1/2 95/1/2 96/1/2
f 96/1/2 95/1/2 97/1/2
f 102/1/2 103/1/2 106/1/2
f 104/1/2 105/1/2 107/1/2
f 102/1/2 106/1/2 108/1/2
f 106/1/2 107/1/2 108/1/2
f 107/1/2 105/1/2 109/1/2
f 108/1/2 107/1/2 109/1/2
f 108/2/2 109/2/2 110/2/2
f 110/2/2 109/2/2 111/2/2
f 98/1/2 99/1/2 112/1/2
f 112/1/2 99/1/2 113/1/2
f 113/1/2 99/1/2 114/1/2
f 100/1/2 101/1/2 115/1/2
f 115/1/2 101/1/2 116/1/2
f 117/4/2 118/4/2 123/4/2
f 123/4/2 118/4/2 124/4/2
f 119/4/2 120/4/2 125/4/2
f 125/4/2 120/4/2 126/4/2
f 126/4/2 120/4/2 127/4/2
f 121/4/2 122/4/2 128/4/2
f 128/4/2 122/4/2 129/4/2
f 130/3/2 131/3/2 132/3/2
f 132/3/2 131/3/2 133/3/2
f 134/1/2 135/1/2 138/1/2
f 138/1/2 135/1/2 139/1/2
f 136/1/2 137/1/2 141/1/2
f 140/3/2 141/3/2 144/3/2
f 141/1/2 137/1/2 145/1/2
f 144/3/2 141/3/2 145/3/2
f 145/1/2 137/1/2 146/1/2
f 142/3/2 143/3/2 147/3/2
f 147/3/2 143/3/2 148/3/2
f 149/3/2 150/3/2 153/3/2
f 153/3/2 150/3/2 154/3/2
f 151/3/2 152/3/2 155/3/2
f 155/3/2 152/3/2 156/3/2
f 159/4/3 158/4/3 157/4/3
f 160/4/3 158/4/3 159/4/3
f 164/3/3 162/3/3 161/3/3
f 165/3/3 162/3/3 164/3/3
f 167/3/3 164/3/3 163/3/3
f 167/3/3 166/3/3 165/3/3
f 167/3/3 165/3/3 164/3/3
f 168/3/3 166/3/3 167/3/3
f 169/3/3 167/3/3 163/3/3
f 170/3/3 166/3/3 168/3/3
f 171/3/3 169/3/3 163/3/3
f 171/3/3 170/3/3 169/3/3
f 172/3/3 170/3/3 171/3/3
f 173/3/3 166/3/3 170/3/3
f 173/3/3 170/3/3 172/3/3
f 174/3/3 166/3/3 173/3/3
f 175/3/3 173/3/3 172/3/3
f 176/3/3 173/3/3 175/3/3
f 179/1/3 178/1/3 177/1/3
f 180/1/3 178/1/3 179/1/3
f 184/1/3 182/1/3 181/1/3
f 185/1/3 182/1/3 184/1/3
f 187/1/3 182/1/3 185/1/3
f 188/1/3 187/1/3 186/1/3
f 189/2/3 183/2/3 182/2/3
f 189/1/3 187/1/3 188/1/3
f 189/1/3 182/1/3 187/1/3
f 190/2/3 183/2/3 189/2/3
f 193/1/3 192/1/3 191/1/3
f 194/1/3 192/1/3 193/1/3
f 197/1/3 195/1/3 194/1/3
f 198/1/3 195/1/3 197/1/3
f 199/1/3 197/1/3 196/1/3
f 200/1/3 197/1/3 199/1/3
f 204/1/3 202/1/3 201/1/3
f 205/1/3 202/1/3 204/1/3
f 206/1/3 202/1/3 205/1/3
f 207/1/3 204/1/3 203/1/3
f 207/1/3 205/1/3 204/1/3
f 208/1/3 205/1/3 207/1/3
f 209/1/3 205/1/3 208/1/3
f 211/1/3 210/1/3 209/1/3
f 211/1/3 209/1/3 208/1/3
f 212/1/3 210/1/3 211/1/3
f 215/3/3 214/3/3 213/3/3
f 216/3/3 214/3/3 215/3/3
f 217/3/3 214/3/3 216/3/3
f 219/3/3 218/3/3 217/3/3
f 219/3/3 217/3/3 216/3/3
f 220/3/3 218/3/3 219/3/3
f 222/3/3 218/3/3 220/3/3
f 223/3/3 218/3/3 222/3/3
f 224/3/3 218/3/3 223/3/3
f 225/3/3 222/3/3 221/3/3
f 225/3/3 223/3/3 222/3/3
f 226/3/3 223/3/3 225/3/3
f 227/3/4 228/3/4 230/3/4
f 230/3/4 228/3/4 231/3/4
f 231/3/4 228/3/4 232/3/4
f 229/3/4 230/3/4 234/3/4
f 234/3/4 230/3/4 235/3/4
f 232/3/4 233/3/4 237/3/4
f 231/3/4 232/3/4 237/3/4
f 237/3/4 233/3/4 238/3/4
f 235/3/4 236/3/4 240/3/4
f 240/3/4 236/3/4 241/3/4
f 238/3/4 233/3/4 243/3/4
f 243/3/4 233/3/4 244/3/4
f 241/3/4 242/3/4 245/3/4
f 239/3/4 240/3/4 245/3/4
f 240/3/4 241/3/4 245/3/4
f 245/3/4 242/3/4 246/3/4
f 246/3/4 242/3/4 247/3/4
f 247/3/4 248/3/4 249/3/4
f 246/3/4 247/3/4 249/3/4
f 249/3/4 248/3/4 250/3/4
f 251/1/4 252/1/4 254/1/4
f 254/1/4 252/1/4 255/1/4
f 255/1/4 252/1/4 256/1/4
f 253/1/4 254/1/4 258/1/4
f 258/1/4 254/1/4 259/1/4
f 256/1/4 257/1/4 260/1/4
f 260/1/4 257/1/4 261/1/4
f 261/1/4 262/1/4 263/1/4
f 260/1/4 261/1/4 263/1/4
f 263/1/4 262/1/4 264/1/4
f 265/1/4 266/1/4 267/1/4
f 267/1/4 266/1/4 268/1/4
f 268/1/4 269/1/4 271/1/4
f 271/1/4 269/1/4 272/1/4
f 270/1/4 271/1/4 273/1/4
f 273/1/4 271/1/4 274/1/4
f 275/1/4 276/1/4 278/1/4
f 278/1/4 276/1/4 279/1/4
f 279/1/4 276/1/4 281/1/4
f 280/1/4 281/1/4 282/1/4
f 276/2/4 277/2/4 283/2/4
f 282/1/4 281/1/4 283/1/4
f 281/1/4 276/1/4 283/1/4
f 283/2/4 277/2/4 284/2/4
f 285/1/4 286/1/4 288/1/4
f 288/1/4 286/1/4 289/1/4
f 287/1/4 288/1/4 290/1/4
f 288/1/4 289/1/4 290/1/4
f 290/1/4 289/1/4 291/1/4
f 291/1/4 289/1/4 292/1/4
f 291/1/4 292/1/4 293/1/4
f 293/1/4 292/1/4 294/1/4
f 295/3/4 296/3/4 297/3/4
f 297/3/4 296/3/4 298/3/4
f 298/3/4 296/3/4 299/3/4
f 299/3/4 300/3/4 301/3/4
f 298/3/4 299/3/4 301/3/4
f 301/3/4 300/3/4 302/3/4
f 302/3/4 300/3/4 304/3/4
f 303/3/4 304/3/4 306/3/4
f 304/3/4 300/3/4 307/3/4
f 306/3/4 304/3/4 307/3/4
f 307/3/4 300/3/4 308/3/4
f 305/3/4 306/3/4 309/3/4
f 306/3/4 307/3/4 309/3/4
f 309/3/4 307/3/4 310/3/4
f 311/4/4 312/4/4 313/4/4
f 313/4/4 312/4/4 314/4/4
f 317/1/5 316/1/5 315/1/5
f 318/1/5 316/1/5 317/1/5
f 321/1/5 320/1/5 319/1/5
f 322/1/5 320/1/5 321/1/5
f 327/1/5 324/1/5 323/1/5
f 328/1/5 324/1/5 327/1/5
f 329/1/5 326/1/5 325/1/5
f 330/1/5 326/1/5 329/1/5
f 335/1/5 332/1/5 331/1/5
f 336/1/5 332/1/5 335/1/5
f 337/1/5 334/1/5 333/1/5
f 338/1/5 334/1/5 337/1/5
f 342/1/5 340/1/5 339/1/5
f 343/1/5 340/1/5 342/1/5
f 345/1/5 342/1/5 341/1/5
f 346/1/5 342/1/5 345/1/5
f 347/1/5 344/1/5 343/1/5
f 348/1/5 344/1/5 347/1/5
f 349/1/5 347/1/5 346/1/5
f 350/1/5 347/1/5 349/1/5
f 353/2/5 352/2/5 351/2/5
f 354/2/5 352/2/5 353/2/5
f 357/3/5 356/3/5 355/3/5
f 358/3/5 356/3/5 357/3/5
f 359/3/5 356/3/5 358/3/5
f 360/3/5 356/3/5 359/3/5
f 365/3/5 362/3/5 361/3/5
f 366/3/5 362/3/5 365/3/5
f 368/3/5 364/3/5 363/3/5
f 369/3/5 364/3/5 368/3/5
f 370/1/5 367/1/5 366/1/5
f 371/1/5 367/1/5 370/1/5
f 377/1/5 373/1/5 372/1/5
f 378/1/5 373/1/5 377/1/5
f 379/1/5 375/1/5 374/1/5
f 380/1/5 375/1/5 379/1/5
f 382/3/5 377/3/5 376/3/5
f 383/3/5 377/3/5 382/3/5
f 384/3/5 381/3/5 380/3/5
f 385/3/5 381/3/5 384/3/5
f 388/4/5 387/4/5 386/4/5
f 389/4/5 387/4/5 388/4/5
f 392/4/5 391/4/5 390/4/5
f 393/4/5 391/4/5 392/4/5
f 394/4/5 391/4/5 393/4/5
f 399/3/5 396/3/5 395/3/5
f 400/4/5 397/4/5 396/4/5
f 400/3/5 396/3/5 399/3/5
f 401/3/5 398/3/5 397/3/5
f 401/4/5 397/4/5 400/4/5
f 402/3/5 398/3/5 401/3/5
f 403/4/5 401/4/5 400/4/5
f 404/4/5 401/4/5 403/4/5
f 407/1/5 406/1/5 405/1/5
f 408/1/5 406/1/5 407/1/5
f 409/2/6 410/2/6 411/2/6
f 411/2/6 410/2/6 412/2/6
f 413/1/6 414/1/6 415/1/6
f 415/1/6 414/1/6 416/1/6
f 417/4/6 418/4/6 419/4/6
f 419/4/6 418/4/6 420/4/6
f 421/1/6 422/1/6 423/1/6
f 423/1/6 422/1/6 424/1/6
f 424/4/6 425/4/6 427/4/6
f 427/4/6 425/4/6 428/4/6
f 426/1/6 427/1/6 430/1/6
f 427/4/6 428/4/6 431/4/6
f 430/1/6 427/1/6 431/1/6
f 428/1/6 429/1/6 432/1/6
f 431/4/6 428/4/6 432/4/6
f 432/1/6 429/1/6 433/1/6
f 434/4/6 435/4/6 436/4/6
f 436/4/6 435/4/6 437/4/6
f 438/3/6 439/3/6 442/3/6
f 442/3/6 439/3/6 443/3/6
f 440/3/6 441/3/6 446/3/6
f 446/3/6 441/3/6 447/3/6
f 444/1/6 445/1/6 448/1/6
f 448/1/6 445/1/6 449/1/6
f 450/3/6 451/3/6 454/3/6
f 454/3/6 451/3/6 455/3/6
f 452/3/6 453/3/6 456/3/6
f 456/3/6 453/3/6 457/3/6
f 458/3/6 459/3/6 460/3/6
f 460/3/6 459/3/6 461/3/6
f 461/3/6 459/3/6 462/3/6
f 461/1/6 462/1/6 463/1/6
f 463/1/6 462/1/6 464/1/6
f 465/3/6 466/3/6 467/3/6
f 467/3/6 466/3/6 468/3/6
