# MagicaVoxel @ Ephtracy

# material
mtllib gymroom.mtl
usemtl palette

# normals
vn -1 0 0
vn 1 0 0
vn 0 0 1
vn 0 0 -1
vn 0 -1 0
vn 0 1 0

# texcoords
vt 0.283203 0.5
vt 0.314453 0.5
vt 0.318359 0.5

# verts
v -32 45 60
v -32 45 59
v -32 50 60
v -32 50 59
v -31 43 60
v -31 43 59
v -31 45 60
v -31 45 59
v -31 50 60
v -31 50 59
v -31 52 60
v -31 52 59
v -30 42 60
v -30 42 59
v -30 43 60
v -30 43 59
v -30 52 60
v -30 52 59
v -30 53 60
v -30 53 59
v -29 41 60
v -29 41 59
v -29 42 60
v -29 42 59
v -29 53 60
v -29 53 59
v -29 54 60
v -29 54 59
v -28 50 59
v -28 50 58
v -28 51 59
v -28 51 58
v -27 40 60
v -27 40 59
v -27 41 60
v -27 41 59
v -27 49 59
v -27 49 58
v -27 50 59
v -27 50 58
v -27 54 60
v -27 54 59
v -27 55 60
v -27 55 59
v -26 48 59
v -26 48 58
v -26 49 59
v -26 49 58
v -24 48 59
v -24 48 58
v -24 49 59
v -24 49 58
v -23 49 59
v -23 49 58
v -23 50 59
v -23 50 58
v -22 50 59
v -22 50 58
v -22 51 59
v -22 51 58
v -21 51 59
v -21 51 58
v -21 52 59
v -21 52 58
v -27 50 59
v -27 50 58
v -27 51 59
v -27 51 58
v -26 49 59
v -26 49 58
v -26 50 59
v -26 50 58
v -25 48 59
v -25 48 58
v -25 49 59
v -25 49 58
v -23 48 59
v -23 48 58
v -23 49 59
v -23 49 58
v -22 40 60
v -22 40 59
v -22 41 60
v -22 41 59
v -22 49 59
v -22 49 58
v -22 50 59
v -22 50 58
v -22 54 60
v -22 54 59
v -22 55 60
v -22 55 59
v -21 50 59
v -21 50 58
v -21 51 59
v -21 51 58
v -20 41 60
v -20 41 59
v -20 42 60
v -20 42 59
v -20 51 59
v -20 51 58
v -20 52 59
v -20 52 58
v -20 53 60
v -20 53 59
v -20 54 60
v -20 54 59
v -19 42 60
v -19 42 59
v -19 43 60
v -19 43 59
v -19 52 60
v -19 52 59
v -19 53 60
v -19 53 59
v -18 43 60
v -18 43 59
v -18 45 60
v -18 45 59
v -18 50 60
v -18 50 59
v -18 52 60
v -18 52 59
v -17 45 60
v -17 45 59
v -17 50 60
v -17 50 59
v -32 45 60
v -32 50 60
v -31 43 60
v -31 45 60
v -31 50 60
v -31 52 60
v -30 42 60
v -30 43 60
v -30 45 60
v -30 50 60
v -30 52 60
v -30 53 60
v -29 41 60
v -29 42 60
v -29 43 60
v -29 52 60
v -29 53 60
v -29 54 60
v -27 40 60
v -27 41 60
v -27 42 60
v -27 53 60
v -27 54 60
v -27 55 60
v -26 47 60
v -26 48 60
v -25 46 60
v -25 47 60
v -25 48 60
v -25 49 60
v -24 46 60
v -24 47 60
v -24 48 60
v -24 49 60
v -23 47 60
v -23 48 60
v -22 40 60
v -22 41 60
v -22 42 60
v -22 53 60
v -22 54 60
v -22 55 60
v -20 41 60
v -20 42 60
v -20 43 60
v -20 52 60
v -20 53 60
v -20 54 60
v -19 42 60
v -19 43 60
v -19 45 60
v -19 50 60
v -19 52 60
v -19 53 60
v -18 43 60
v -18 45 60
v -18 50 60
v -18 52 60
v -17 45 60
v -17 50 60
v -32 45 59
v -32 50 59
v -31 43 59
v -31 45 59
v -31 50 59
v -31 52 59
v -30 42 59
v -30 43 59
v -30 45 59
v -30 50 59
v -30 52 59
v -30 53 59
v -29 41 59
v -29 42 59
v -29 43 59
v -29 52 59
v -29 53 59
v -29 54 59
v -28 50 59
v -28 51 59
v -27 40 59
v -27 41 59
v -27 42 59
v -27 49 59
v -27 50 59
v -27 51 59
v -27 53 59
v -27 54 59
v -27 55 59
v -26 47 59
v -26 48 59
v -26 49 59
v -26 50 59
v -25 46 59
v -25 47 59
v -25 48 59
v -25 49 59
v -24 46 59
v -24 47 59
v -24 48 59
v -24 49 59
v -23 47 59
v -23 48 59
v -23 49 59
v -23 50 59
v -22 40 59
v -22 41 59
v -22 42 59
v -22 49 59
v -22 50 59
v -22 51 59
v -22 53 59
v -22 54 59
v -22 55 59
v -21 50 59
v -21 51 59
v -21 52 59
v -20 41 59
v -20 42 59
v -20 43 59
v -20 51 59
v -20 52 59
v -20 53 59
v -20 54 59
v -19 42 59
v -19 43 59
v -19 45 59
v -19 50 59
v -19 52 59
v -19 53 59
v -18 43 59
v -18 45 59
v -18 50 59
v -18 52 59
v -17 45 59
v -17 50 59
v -28 50 58
v -28 51 58
v -27 49 58
v -27 50 58
v -27 51 58
v -26 48 58
v -26 49 58
v -26 50 58
v -25 48 58
v -25 49 58
v -24 48 58
v -24 49 58
v -23 48 58
v -23 49 58
v -23 50 58
v -22 49 58
v -22 50 58
v -22 51 58
v -21 50 58
v -21 51 58
v -21 52 58
v -20 51 58
v -20 52 58
v -27 40 60
v -22 40 60
v -27 40 59
v -22 40 59
v -29 41 60
v -27 41 60
v -22 41 60
v -20 41 60
v -29 41 59
v -27 41 59
v -22 41 59
v -20 41 59
v -30 42 60
v -29 42 60
v -20 42 60
v -19 42 60
v -30 42 59
v -29 42 59
v -20 42 59
v -19 42 59
v -31 43 60
v -30 43 60
v -19 43 60
v -18 43 60
v -31 43 59
v -30 43 59
v -19 43 59
v -18 43 59
v -32 45 60
v -31 45 60
v -18 45 60
v -17 45 60
v -32 45 59
v -31 45 59
v -18 45 59
v -17 45 59
v -26 48 59
v -25 48 59
v -24 48 59
v -23 48 59
v -26 48 58
v -25 48 58
v -24 48 58
v -23 48 58
v -27 49 59
v -26 49 59
v -23 49 59
v -22 49 59
v -27 49 58
v -26 49 58
v -23 49 58
v -22 49 58
v -28 50 59
v -27 50 59
v -22 50 59
v -21 50 59
v -28 50 58
v -27 50 58
v -22 50 58
v -21 50 58
v -21 51 59
v -20 51 59
v -21 51 58
v -20 51 58
v -26 49 59
v -25 49 59
v -24 49 59
v -23 49 59
v -26 49 58
v -25 49 58
v -24 49 58
v -23 49 58
v -32 50 60
v -31 50 60
v -18 50 60
v -17 50 60
v -32 50 59
v -31 50 59
v -27 50 59
v -26 50 59
v -23 50 59
v -22 50 59
v -18 50 59
v -17 50 59
v -27 50 58
v -26 50 58
v -23 50 58
v -22 50 58
v -28 51 59
v -27 51 59
v -22 51 59
v -21 51 59
v -28 51 58
v -27 51 58
v -22 51 58
v -21 51 58
v -31 52 60
v -30 52 60
v -19 52 60
v -18 52 60
v -31 52 59
v -30 52 59
v -21 52 59
v -20 52 59
v -19 52 59
v -18 52 59
v -21 52 58
v -20 52 58
v -30 53 60
v -29 53 60
v -20 53 60
v -19 53 60
v -30 53 59
v -29 53 59
v -20 53 59
v -19 53 59
v -29 54 60
v -27 54 60
v -22 54 60
v -20 54 60
v -29 54 59
v -27 54 59
v -22 54 59
v -20 54 59
v -27 55 60
v -22 55 60
v -27 55 59
v -22 55 59

# faces
f 3/3/1 2/3/1 1/3/1
f 4/3/1 2/3/1 3/3/1
f 7/3/1 6/3/1 5/3/1
f 8/3/1 6/3/1 7/3/1
f 11/3/1 10/3/1 9/3/1
f 12/3/1 10/3/1 11/3/1
f 15/3/1 14/3/1 13/3/1
f 16/3/1 14/3/1 15/3/1
f 19/3/1 18/3/1 17/3/1
f 20/3/1 18/3/1 19/3/1
f 23/3/1 22/3/1 21/3/1
f 24/3/1 22/3/1 23/3/1
f 27/3/1 26/3/1 25/3/1
f 28/3/1 26/3/1 27/3/1
f 31/1/1 30/1/1 29/1/1
f 32/1/1 30/1/1 31/1/1
f 35/3/1 34/3/1 33/3/1
f 36/3/1 34/3/1 35/3/1
f 39/1/1 38/1/1 37/1/1
f 40/1/1 38/1/1 39/1/1
f 43/3/1 42/3/1 41/3/1
f 44/3/1 42/3/1 43/3/1
f 47/1/1 46/1/1 45/1/1
f 48/1/1 46/1/1 47/1/1
f 51/1/1 50/1/1 49/1/1
f 52/1/1 50/1/1 51/1/1
f 55/1/1 54/1/1 53/1/1
f 56/1/1 54/1/1 55/1/1
f 59/1/1 58/1/1 57/1/1
f 60/1/1 58/1/1 59/1/1
f 63/1/1 62/1/1 61/1/1
f 64/1/1 62/1/1 63/1/1
f 65/1/2 66/1/2 67/1/2
f 67/1/2 66/1/2 68/1/2
f 69/1/2 70/1/2 71/1/2
f 71/1/2 70/1/2 72/1/2
f 73/1/2 74/1/2 75/1/2
f 75/1/2 74/1/2 76/1/2
f 77/1/2 78/1/2 79/1/2
f 79/1/2 78/1/2 80/1/2
f 81/3/2 82/3/2 83/3/2
f 83/3/2 82/3/2 84/3/2
f 85/1/2 86/1/2 87/1/2
f 87/1/2 86/1/2 88/1/2
f 89/3/2 90/3/2 91/3/2
f 91/3/2 90/3/2 92/3/2
f 93/1/2 94/1/2 95/1/2
f 95/1/2 94/1/2 96/1/2
f 97/3/2 98/3/2 99/3/2
f 99/3/2 98/3/2 100/3/2
f 101/1/2 102/1/2 103/1/2
f 103/1/2 102/1/2 104/1/2
f 105/3/2 106/3/2 107/3/2
f 107/3/2 106/3/2 108/3/2
f 109/3/2 110/3/2 111/3/2
f 111/3/2 110/3/2 112/3/2
f 113/3/2 114/3/2 115/3/2
f 115/3/2 114/3/2 116/3/2
f 117/3/2 118/3/2 119/3/2
f 119/3/2 118/3/2 120/3/2
f 121/3/2 122/3/2 123/3/2
f 123/3/2 122/3/2 124/3/2
f 125/3/2 126/3/2 127/3/2
f 127/3/2 126/3/2 128/3/2
f 132/3/3 130/3/3 129/3/3
f 133/3/3 130/3/3 132/3/3
f 136/3/3 132/3/3 131/3/3
f 137/2/3 133/2/3 132/2/3
f 137/3/3 132/3/3 136/3/3
f 138/3/3 134/3/3 133/3/3
f 138/2/3 133/2/3 137/2/3
f 139/3/3 134/3/3 138/3/3
f 142/3/3 136/3/3 135/3/3
f 143/2/3 137/2/3 136/2/3
f 143/2/3 138/2/3 137/2/3
f 143/3/3 136/3/3 142/3/3
f 143/2/3 139/2/3 138/2/3
f 144/3/3 140/3/3 139/3/3
f 144/2/3 139/2/3 143/2/3
f 145/3/3 140/3/3 144/3/3
f 148/3/3 142/3/3 141/3/3
f 149/2/3 143/2/3 142/2/3
f 149/2/3 144/2/3 143/2/3
f 149/3/3 142/3/3 148/3/3
f 149/2/3 145/2/3 144/2/3
f 150/3/3 146/3/3 145/3/3
f 150/2/3 145/2/3 149/2/3
f 151/3/3 146/3/3 150/3/3
f 153/2/3 149/2/3 148/2/3
f 153/2/3 150/2/3 149/2/3
f 153/2/3 151/2/3 150/2/3
f 154/2/3 151/2/3 153/2/3
f 155/2/3 153/2/3 148/2/3
f 156/3/3 154/3/3 153/3/3
f 156/2/3 153/2/3 155/2/3
f 157/2/3 151/2/3 154/2/3
f 157/3/3 154/3/3 156/3/3
f 158/2/3 151/2/3 157/2/3
f 159/3/3 156/3/3 155/3/3
f 159/2/3 155/2/3 148/2/3
f 159/3/3 158/3/3 157/3/3
f 159/3/3 157/3/3 156/3/3
f 160/3/3 158/3/3 159/3/3
f 161/3/3 158/3/3 160/3/3
f 162/2/3 151/2/3 158/2/3
f 162/3/3 158/3/3 161/3/3
f 163/3/3 161/3/3 160/3/3
f 163/2/3 160/2/3 159/2/3
f 164/2/3 162/2/3 161/2/3
f 164/3/3 161/3/3 163/3/3
f 165/3/3 148/3/3 147/3/3
f 166/2/3 159/2/3 148/2/3
f 166/3/3 148/3/3 165/3/3
f 166/2/3 163/2/3 159/2/3
f 166/2/3 164/2/3 163/2/3
f 167/2/3 164/2/3 166/2/3
f 168/2/3 162/2/3 164/2/3
f 168/2/3 164/2/3 167/2/3
f 168/2/3 151/2/3 162/2/3
f 169/3/3 152/3/3 151/3/3
f 169/2/3 151/2/3 168/2/3
f 170/3/3 152/3/3 169/3/3
f 171/3/3 167/3/3 166/3/3
f 172/2/3 168/2/3 167/2/3
f 172/3/3 167/3/3 171/3/3
f 173/2/3 168/2/3 172/2/3
f 174/2/3 168/2/3 173/2/3
f 175/3/3 169/3/3 168/3/3
f 175/2/3 168/2/3 174/2/3
f 176/3/3 169/3/3 175/3/3
f 177/3/3 173/3/3 172/3/3
f 178/2/3 174/2/3 173/2/3
f 178/3/3 173/3/3 177/3/3
f 179/2/3 174/2/3 178/2/3
f 180/2/3 174/2/3 179/2/3
f 181/3/3 175/3/3 174/3/3
f 181/2/3 174/2/3 180/2/3
f 182/3/3 175/3/3 181/3/3
f 183/3/3 179/3/3 178/3/3
f 184/2/3 180/2/3 179/2/3
f 184/3/3 179/3/3 183/3/3
f 185/3/3 181/3/3 180/3/3
f 185/2/3 180/2/3 184/2/3
f 186/3/3 181/3/3 185/3/3
f 187/3/3 185/3/3 184/3/3
f 188/3/3 185/3/3 187/3/3
f 189/3/4 190/3/4 192/3/4
f 192/3/4 190/3/4 193/3/4
f 191/3/4 192/3/4 196/3/4
f 192/2/4 193/2/4 197/2/4
f 196/3/4 192/3/4 197/3/4
f 193/3/4 194/3/4 198/3/4
f 197/2/4 193/2/4 198/2/4
f 198/3/4 194/3/4 199/3/4
f 195/3/4 196/3/4 202/3/4
f 196/2/4 197/2/4 203/2/4
f 197/2/4 198/2/4 203/2/4
f 202/3/4 196/3/4 203/3/4
f 198/2/4 199/2/4 203/2/4
f 199/3/4 200/3/4 204/3/4
f 203/2/4 199/2/4 204/2/4
f 204/3/4 200/3/4 205/3/4
f 202/2/4 203/2/4 207/2/4
f 203/2/4 204/2/4 207/2/4
f 204/2/4 205/2/4 207/2/4
f 207/2/4 205/2/4 208/2/4
f 201/3/4 202/3/4 210/3/4
f 202/2/4 207/2/4 211/2/4
f 210/3/4 202/3/4 211/3/4
f 211/2/4 207/2/4 212/2/4
f 212/2/4 207/2/4 213/2/4
f 208/2/4 205/2/4 214/2/4
f 205/3/4 206/3/4 215/3/4
f 214/2/4 205/2/4 215/2/4
f 215/3/4 206/3/4 216/3/4
f 210/2/4 211/2/4 218/2/4
f 211/2/4 212/2/4 218/2/4
f 218/2/4 212/2/4 219/2/4
f 219/2/4 212/2/4 220/2/4
f 213/2/4 214/2/4 221/2/4
f 215/2/4 216/2/4 221/2/4
f 214/2/4 215/2/4 221/2/4
f 210/2/4 218/2/4 222/2/4
f 218/3/4 219/3/4 223/3/4
f 222/2/4 218/2/4 223/2/4
f 223/3/4 219/3/4 224/3/4
f 220/2/4 221/2/4 225/2/4
f 223/3/4 224/3/4 226/3/4
f 224/3/4 225/3/4 226/3/4
f 210/2/4 222/2/4 226/2/4
f 222/3/4 223/3/4 226/3/4
f 226/3/4 225/3/4 227/3/4
f 227/3/4 225/3/4 228/3/4
f 225/2/4 221/2/4 229/2/4
f 228/3/4 225/3/4 229/3/4
f 227/3/4 228/3/4 230/3/4
f 226/2/4 227/2/4 230/2/4
f 230/3/4 228/3/4 231/3/4
f 229/2/4 221/2/4 232/2/4
f 221/2/4 216/2/4 233/2/4
f 232/2/4 221/2/4 233/2/4
f 209/3/4 210/3/4 234/3/4
f 230/2/4 231/2/4 235/2/4
f 234/3/4 210/3/4 235/3/4
f 231/2/4 232/2/4 235/2/4
f 210/2/4 226/2/4 235/2/4
f 226/2/4 230/2/4 235/2/4
f 235/2/4 232/2/4 236/2/4
f 236/2/4 232/2/4 237/2/4
f 233/2/4 216/2/4 238/2/4
f 238/2/4 216/2/4 239/2/4
f 239/2/4 216/2/4 240/2/4
f 216/3/4 217/3/4 241/3/4
f 240/2/4 216/2/4 241/2/4
f 241/3/4 217/3/4 242/3/4
f 236/2/4 237/2/4 243/2/4
f 237/2/4 238/2/4 243/2/4
f 239/2/4 240/2/4 244/2/4
f 244/2/4 240/2/4 245/2/4
f 235/3/4 236/3/4 246/3/4
f 236/2/4 243/2/4 247/2/4
f 246/3/4 236/3/4 247/3/4
f 243/2/4 244/2/4 247/2/4
f 247/2/4 244/2/4 248/2/4
f 248/2/4 244/2/4 249/2/4
f 245/2/4 240/2/4 250/2/4
f 240/3/4 241/3/4 251/3/4
f 250/2/4 240/2/4 251/2/4
f 251/3/4 241/3/4 252/3/4
f 247/3/4 248/3/4 253/3/4
f 249/2/4 250/2/4 254/2/4
f 253/3/4 248/3/4 254/3/4
f 248/2/4 249/2/4 254/2/4
f 254/2/4 250/2/4 255/2/4
f 255/2/4 250/2/4 256/2/4
f 250/3/4 251/3/4 257/3/4
f 256/2/4 250/2/4 257/2/4
f 257/3/4 251/3/4 258/3/4
f 254/3/4 255/3/4 259/3/4
f 255/2/4 256/2/4 260/2/4
f 259/3/4 255/3/4 260/3/4
f 256/3/4 257/3/4 261/3/4
f 260/2/4 256/2/4 261/2/4
f 261/3/4 257/3/4 262/3/4
f 260/3/4 261/3/4 263/3/4
f 263/3/4 261/3/4 264/3/4
f 265/1/4 266/1/4 268/1/4
f 268/1/4 266/1/4 269/1/4
f 267/1/4 268/1/4 271/1/4
f 271/1/4 268/1/4 272/1/4
f 270/1/4 271/1/4 273/1/4
f 273/1/4 271/1/4 274/1/4
f 275/1/4 276/1/4 277/1/4
f 277/1/4 276/1/4 278/1/4
f 278/1/4 279/1/4 280/1/4
f 280/1/4 279/1/4 281/1/4
f 281/1/4 282/1/4 283/1/4
f 283/1/4 282/1/4 284/1/4
f 284/1/4 285/1/4 286/1/4
f 286/1/4 285/1/4 287/1/4
f 290/3/5 289/3/5 288/3/5
f 291/3/5 289/3/5 290/3/5
f 296/3/5 293/3/5 292/3/5
f 297/3/5 293/3/5 296/3/5
f 298/3/5 295/3/5 294/3/5
f 299/3/5 295/3/5 298/3/5
f 304/3/5 301/3/5 300/3/5
f 305/3/5 301/3/5 304/3/5
f 306/3/5 303/3/5 302/3/5
f 307/3/5 303/3/5 306/3/5
f 312/3/5 309/3/5 308/3/5
f 313/3/5 309/3/5 312/3/5
f 314/3/5 311/3/5 310/3/5
f 315/3/5 311/3/5 314/3/5
f 320/3/5 317/3/5 316/3/5
f 321/3/5 317/3/5 320/3/5
f 322/3/5 319/3/5 318/3/5
f 323/3/5 319/3/5 322/3/5
f 328/1/5 325/1/5 324/1/5
f 329/1/5 325/1/5 328/1/5
f 330/1/5 327/1/5 326/1/5
f 331/1/5 327/1/5 330/1/5
f 336/1/5 333/1/5 332/1/5
f 337/1/5 333/1/5 336/1/5
f 338/1/5 335/1/5 334/1/5
f 339/1/5 335/1/5 338/1/5
f 344/1/5 341/1/5 340/1/5
f 345/1/5 341/1/5 344/1/5
f 346/1/5 343/1/5 342/1/5
f 347/1/5 343/1/5 346/1/5
f 350/1/5 349/1/5 348/1/5
f 351/1/5 349/1/5 350/1/5
f 352/1/6 353/1/6 356/1/6
f 356/1/6 353/1/6 357/1/6
f 354/1/6 355/1/6 358/1/6
f 358/1/6 355/1/6 359/1/6
f 360/3/6 361/3/6 364/3/6
f 364/3/6 361/3/6 365/3/6
f 362/3/6 363/3/6 370/3/6
f 370/3/6 363/3/6 371/3/6
f 366/1/6 367/1/6 372/1/6
f 372/1/6 367/1/6 373/1/6
f 368/1/6 369/1/6 374/1/6
f 374/1/6 369/1/6 375/1/6
f 376/1/6 377/1/6 380/1/6
f 380/1/6 377/1/6 381/1/6
f 378/1/6 379/1/6 382/1/6
f 382/1/6 379/1/6 383/1/6
f 384/3/6 385/3/6 388/3/6
f 388/3/6 385/3/6 389/3/6
f 386/3/6 387/3/6 392/3/6
f 392/3/6 387/3/6 393/3/6
f 390/1/6 391/1/6 394/1/6
f 394/1/6 391/1/6 395/1/6
f 396/3/6 397/3/6 400/3/6
f 400/3/6 397/3/6 401/3/6
f 398/3/6 399/3/6 402/3/6
f 402/3/6 399/3/6 403/3/6
f 404/3/6 405/3/6 408/3/6
f 408/3/6 405/3/6 409/3/6
f 406/3/6 407/3/6 410/3/6
f 410/3/6 407/3/6 411/3/6
f 412/3/6 413/3/6 414/3/6
f 414/3/6 413/3/6 415/3/6
