# MagicaVoxel @ Ephtracy

# material
mtllib DoorGym.mtl
usemtl palette

# normals
vn -1 0 0
vn 1 0 0
vn 0 0 1
vn 0 0 -1
vn 0 -1 0
vn 0 1 0

# texcoords
vt 0.291016 0.5
vt 0.318359 0.5
vt 0.333984 0.5
vt 0.337891 0.5

# verts
v -11 47 -49
v -11 47 -50
v -11 74 -48
v -11 74 -49
v -11 74 -50
v -11 74 -51
v -11 75 -48
v -11 75 -51
v -9 47 -50
v -9 47 -51
v -9 73 -50
v -9 73 -51
v -8 60 -48
v -8 60 -50
v -8 61 -48
v -8 61 -50
v -7 60 -50
v -7 60 -51
v -7 61 -50
v -7 61 -51
v 10 47 -49
v 10 47 -50
v 10 73 -49
v 10 73 -50
v -9 47 -49
v -9 47 -50
v -9 73 -49
v -9 73 -50
v -8 60 -50
v -8 60 -51
v -8 61 -50
v -8 61 -51
v -7 60 -49
v -7 60 -50
v -7 61 -49
v -7 61 -50
v -6 60 -48
v -6 60 -49
v -6 61 -48
v -6 61 -49
v 10 47 -50
v 10 47 -51
v 10 73 -50
v 10 73 -51
v 12 47 -49
v 12 47 -50
v 12 74 -48
v 12 74 -49
v 12 74 -50
v 12 74 -51
v 12 75 -48
v 12 75 -51
v -11 74 -48
v -11 75 -48
v -8 60 -48
v -8 61 -48
v -6 60 -48
v -6 61 -48
v 12 74 -48
v 12 75 -48
v -11 47 -49
v -11 74 -49
v -9 47 -49
v -9 73 -49
v 10 47 -49
v 10 73 -49
v 12 47 -49
v 12 74 -49
v -9 47 -50
v -9 73 -50
v -8 49 -50
v -8 52 -50
v -8 53 -50
v -8 56 -50
v -8 57 -50
v -8 60 -50
v -8 61 -50
v -8 64 -50
v -8 65 -50
v -8 68 -50
v -8 69 -50
v -8 72 -50
v -7 60 -50
v -7 61 -50
v 9 49 -50
v 9 52 -50
v 9 53 -50
v 9 56 -50
v 9 57 -50
v 9 60 -50
v 9 61 -50
v 9 64 -50
v 9 65 -50
v 9 68 -50
v 9 69 -50
v 9 72 -50
v 10 47 -50
v 10 73 -50
v -7 60 -49
v -7 61 -49
v -6 60 -49
v -6 61 -49
v -11 47 -50
v -11 74 -50
v -9 47 -50
v -9 73 -50
v -8 60 -50
v -8 61 -50
v -7 60 -50
v -7 61 -50
v 10 47 -50
v 10 73 -50
v 12 47 -50
v 12 74 -50
v -11 74 -51
v -11 75 -51
v -9 47 -51
v -9 73 -51
v -8 49 -51
v -8 52 -51
v -8 53 -51
v -8 56 -51
v -8 57 -51
v -8 60 -51
v -8 61 -51
v -8 64 -51
v -8 65 -51
v -8 68 -51
v -8 69 -51
v -8 72 -51
v -7 60 -51
v -7 61 -51
v 9 49 -51
v 9 52 -51
v 9 53 -51
v 9 56 -51
v 9 57 -51
v 9 60 -51
v 9 61 -51
v 9 64 -51
v 9 65 -51
v 9 68 -51
v 9 69 -51
v 9 72 -51
v 10 47 -51
v 10 73 -51
v 12 74 -51
v 12 75 -51
v -11 47 -49
v -9 47 -49
v 10 47 -49
v 12 47 -49
v -11 47 -50
v -9 47 -50
v 10 47 -50
v 12 47 -50
v -9 47 -51
v 10 47 -51
v -8 60 -48
v -6 60 -48
v -7 60 -49
v -6 60 -49
v -8 60 -50
v -7 60 -50
v -8 61 -50
v -7 61 -50
v -8 61 -51
v -7 61 -51
v -9 73 -49
v 10 73 -49
v -9 73 -50
v 10 73 -50
v -11 74 -48
v 12 74 -48
v -11 74 -49
v 12 74 -49
v -11 74 -50
v 12 74 -50
v -11 74 -51
v 12 74 -51
v -8 60 -50
v -7 60 -50
v -8 60 -51
v -7 60 -51
v -8 61 -48
v -6 61 -48
v -7 61 -49
v -6 61 -49
v -8 61 -50
v -7 61 -50
v -9 73 -50
v 10 73 -50
v -9 73 -51
v 10 73 -51
v -11 75 -48
v 12 75 -48
v -11 75 -51
v 12 75 -51

# faces
f 4/2/1 2/2/1 1/2/1
f 5/2/1 2/2/1 4/2/1
f 7/2/1 4/2/1 3/2/1
f 7/2/1 6/2/1 5/2/1
f 7/2/1 5/2/1 4/2/1
f 8/2/1 6/2/1 7/2/1
f 11/4/1 10/4/1 9/4/1
f 12/4/1 10/4/1 11/4/1
f 15/1/1 14/1/1 13/1/1
f 16/1/1 14/1/1 15/1/1
f 19/4/1 18/4/1 17/4/1
f 20/4/1 18/4/1 19/4/1
f 23/2/1 22/2/1 21/2/1
f 24/2/1 22/2/1 23/2/1
f 25/2/2 26/2/2 27/2/2
f 27/2/2 26/2/2 28/2/2
f 29/4/2 30/4/2 31/4/2
f 31/4/2 30/4/2 32/4/2
f 33/1/2 34/1/2 35/1/2
f 35/1/2 34/1/2 36/1/2
f 37/1/2 38/1/2 39/1/2
f 39/1/2 38/1/2 40/1/2
f 41/4/2 42/4/2 43/4/2
f 43/4/2 42/4/2 44/4/2
f 45/2/2 46/2/2 48/2/2
f 48/2/2 46/2/2 49/2/2
f 47/2/2 48/2/2 51/2/2
f 49/2/2 50/2/2 51/2/2
f 48/2/2 49/2/2 51/2/2
f 51/2/2 50/2/2 52/2/2
f 57/1/3 56/1/3 55/1/3
f 58/1/3 56/1/3 57/1/3
f 59/2/3 54/2/3 53/2/3
f 60/2/3 54/2/3 59/2/3
f 63/2/3 62/2/3 61/2/3
f 64/2/3 62/2/3 63/2/3
f 66/2/3 62/2/3 64/2/3
f 67/2/3 66/2/3 65/2/3
f 68/2/3 62/2/3 66/2/3
f 68/2/3 66/2/3 67/2/3
f 71/4/3 70/4/3 69/4/3
f 72/4/3 70/4/3 71/4/3
f 73/4/3 70/4/3 72/4/3
f 74/4/3 70/4/3 73/4/3
f 75/4/3 70/4/3 74/4/3
f 76/4/3 70/4/3 75/4/3
f 77/4/3 70/4/3 76/4/3
f 78/4/3 70/4/3 77/4/3
f 79/4/3 70/4/3 78/4/3
f 80/4/3 70/4/3 79/4/3
f 81/4/3 70/4/3 80/4/3
f 82/4/3 70/4/3 81/4/3
f 83/3/3 76/3/3 75/3/3
f 84/3/3 78/3/3 77/3/3
f 85/4/3 71/4/3 69/4/3
f 85/3/3 72/3/3 71/3/3
f 86/4/3 73/4/3 72/4/3
f 86/3/3 72/3/3 85/3/3
f 87/3/3 74/3/3 73/3/3
f 87/4/3 73/4/3 86/4/3
f 88/4/3 75/4/3 74/4/3
f 88/3/3 74/3/3 87/3/3
f 89/3/3 83/3/3 75/3/3
f 89/4/3 75/4/3 88/4/3
f 90/4/3 84/4/3 83/4/3
f 90/3/3 83/3/3 89/3/3
f 91/3/3 78/3/3 84/3/3
f 91/4/3 84/4/3 90/4/3
f 92/4/3 79/4/3 78/4/3
f 92/3/3 78/3/3 91/3/3
f 93/3/3 80/3/3 79/3/3
f 93/4/3 79/4/3 92/4/3
f 94/4/3 81/4/3 80/4/3
f 94/3/3 80/3/3 93/3/3
f 95/3/3 82/3/3 81/3/3
f 95/4/3 81/4/3 94/4/3
f 96/4/3 70/4/3 82/4/3
f 96/3/3 82/3/3 95/3/3
f 97/4/3 89/4/3 88/4/3
f 97/4/3 90/4/3 89/4/3
f 97/4/3 96/4/3 95/4/3
f 97/4/3 85/4/3 69/4/3
f 97/4/3 93/4/3 92/4/3
f 97/4/3 92/4/3 91/4/3
f 97/4/3 91/4/3 90/4/3
f 97/4/3 88/4/3 87/4/3
f 97/4/3 94/4/3 93/4/3
f 97/4/3 95/4/3 94/4/3
f 97/4/3 87/4/3 86/4/3
f 97/4/3 86/4/3 85/4/3
f 98/4/3 70/4/3 96/4/3
f 98/4/3 96/4/3 97/4/3
f 99/1/4 100/1/4 101/1/4
f 101/1/4 100/1/4 102/1/4
f 103/2/4 104/2/4 105/2/4
f 105/2/4 104/2/4 106/2/4
f 107/1/4 108/1/4 109/1/4
f 109/1/4 108/1/4 110/1/4
f 106/2/4 104/2/4 112/2/4
f 111/2/4 112/2/4 113/2/4
f 112/2/4 104/2/4 114/2/4
f 113/2/4 112/2/4 114/2/4
f 117/4/4 118/4/4 119/4/4
f 119/4/4 118/4/4 120/4/4
f 120/4/4 118/4/4 121/4/4
f 121/4/4 118/4/4 122/4/4
f 122/4/4 118/4/4 123/4/4
f 123/4/4 118/4/4 124/4/4
f 124/4/4 118/4/4 125/4/4
f 125/4/4 118/4/4 126/4/4
f 126/4/4 118/4/4 127/4/4
f 127/4/4 118/4/4 128/4/4
f 128/4/4 118/4/4 129/4/4
f 129/4/4 118/4/4 130/4/4
f 123/3/4 124/3/4 131/3/4
f 125/3/4 126/3/4 132/3/4
f 117/4/4 119/4/4 133/4/4
f 119/3/4 120/3/4 133/3/4
f 120/4/4 121/4/4 134/4/4
f 133/3/4 120/3/4 134/3/4
f 121/3/4 122/3/4 135/3/4
f 134/4/4 121/4/4 135/4/4
f 122/4/4 123/4/4 136/4/4
f 135/3/4 122/3/4 136/3/4
f 123/3/4 131/3/4 137/3/4
f 136/4/4 123/4/4 137/4/4
f 131/4/4 132/4/4 138/4/4
f 137/3/4 131/3/4 138/3/4
f 132/3/4 126/3/4 139/3/4
f 138/4/4 132/4/4 139/4/4
f 126/4/4 127/4/4 140/4/4
f 139/3/4 126/3/4 140/3/4
f 127/3/4 128/3/4 141/3/4
f 140/4/4 127/4/4 141/4/4
f 128/4/4 129/4/4 142/4/4
f 141/3/4 128/3/4 142/3/4
f 129/3/4 130/3/4 143/3/4
f 142/4/4 129/4/4 143/4/4
f 130/4/4 118/4/4 144/4/4
f 143/3/4 130/3/4 144/3/4
f 136/4/4 137/4/4 145/4/4
f 137/4/4 138/4/4 145/4/4
f 143/4/4 144/4/4 145/4/4
f 117/4/4 133/4/4 145/4/4
f 140/4/4 141/4/4 145/4/4
f 139/4/4 140/4/4 145/4/4
f 138/4/4 139/4/4 145/4/4
f 135/4/4 136/4/4 145/4/4
f 141/4/4 142/4/4 145/4/4
f 142/4/4 143/4/4 145/4/4
f 134/4/4 135/4/4 145/4/4
f 133/4/4 134/4/4 145/4/4
f 144/4/4 118/4/4 146/4/4
f 145/4/4 144/4/4 146/4/4
f 115/2/4 116/2/4 147/2/4
f 147/2/4 116/2/4 148/2/4
f 153/2/5 150/2/5 149/2/5
f 154/2/5 150/2/5 153/2/5
f 155/2/5 152/2/5 151/2/5
f 156/2/5 152/2/5 155/2/5
f 157/4/5 155/4/5 154/4/5
f 158/4/5 155/4/5 157/4/5
f 161/1/5 160/1/5 159/1/5
f 162/1/5 160/1/5 161/1/5
f 163/1/5 161/1/5 159/1/5
f 164/1/5 161/1/5 163/1/5
f 167/3/5 166/3/5 165/3/5
f 168/3/5 166/3/5 167/3/5
f 171/2/5 170/2/5 169/2/5
f 172/2/5 170/2/5 171/2/5
f 175/2/5 174/2/5 173/2/5
f 176/2/5 174/2/5 175/2/5
f 179/2/5 178/2/5 177/2/5
f 180/2/5 178/2/5 179/2/5
f 181/3/6 182/3/6 183/3/6
f 183/3/6 182/3/6 184/3/6
f 185/1/6 186/1/6 187/1/6
f 187/1/6 186/1/6 188/1/6
f 185/1/6 187/1/6 189/1/6
f 189/1/6 187/1/6 190/1/6
f 191/4/6 192/4/6 193/4/6
f 193/4/6 192/4/6 194/4/6
f 195/2/6 196/2/6 197/2/6
f 197/2/6 196/2/6 198/2/6
