# MagicaVoxel @ Ephtracy

# material
mtllib TreatMill.mtl
usemtl palette

# normals
vn -1 0 0
vn 1 0 0
vn 0 0 1
vn 0 0 -1
vn 0 -1 0
vn 0 1 0

# texcoords
vt 0.283203 0.5
vt 0.302734 0.5
vt 0.326172 0.5

# verts
v -27 36 -1
v -27 36 -2
v -27 36 -11
v -27 37 -1
v -27 37 -2
v -27 38 -1
v -27 38 -2
v -27 39 -2
v -27 39 -10
v -27 48 -1
v -27 48 -2
v -27 49 -1
v -27 49 -10
v -27 50 -1
v -27 50 -11
v -26 37 -1
v -26 37 -2
v -26 38 -1
v -26 38 -2
v -26 47 -2
v -26 47 -3
v -26 48 -1
v -26 48 -2
v -26 48 -3
v -26 48 -10
v -26 49 -1
v -26 49 -2
v -26 49 -10
v -25 45 -2
v -25 45 -10
v -25 46 -3
v -25 46 -10
v -25 47 -2
v -25 47 -3
v -25 47 -10
v -25 48 -3
v -25 48 -10
v -24 46 -3
v -24 46 -10
v -24 47 -3
v -24 47 -10
v -26 38 -2
v -26 38 -10
v -26 39 -2
v -26 39 -10
v -26 49 -1
v -26 49 -2
v -26 49 -10
v -26 49 -11
v -26 50 -1
v -26 50 -11
v -25 39 -1
v -25 39 -2
v -25 39 -10
v -25 39 -11
v -25 45 -1
v -25 45 -2
v -25 45 -10
v -25 45 -11
v -25 48 -1
v -25 48 -2
v -25 48 -10
v -25 48 -11
v -25 49 -1
v -25 49 -2
v -25 49 -10
v -25 49 -11
v -24 45 -1
v -24 45 -2
v -24 45 -10
v -24 45 -11
v -24 46 -1
v -24 46 -2
v -24 46 -10
v -24 46 -11
v -24 47 -1
v -24 47 -2
v -24 47 -10
v -24 47 -11
v -24 48 -1
v -24 48 -2
v -24 48 -10
v -24 48 -11
v -23 46 -1
v -23 46 -2
v -23 46 -10
v -23 46 -11
v -23 47 -1
v -23 47 -2
v -23 47 -10
v -23 47 -11
v -22 45 -2
v -22 45 -10
v -22 46 -2
v -22 46 -10
v -3 36 -1
v -3 36 -11
v -3 37 -2
v -3 37 -10
v -3 38 -2
v -3 38 -10
v -3 39 -1
v -3 39 -2
v -3 39 -10
v -3 39 -11
v -27 36 -1
v -27 37 -1
v -27 38 -1
v -27 48 -1
v -27 49 -1
v -27 50 -1
v -26 37 -1
v -26 38 -1
v -26 48 -1
v -26 49 -1
v -26 50 -1
v -25 39 -1
v -25 45 -1
v -25 48 -1
v -25 49 -1
v -24 45 -1
v -24 46 -1
v -24 47 -1
v -24 48 -1
v -23 46 -1
v -23 47 -1
v -4 36 -1
v -4 37 -1
v -3 36 -1
v -3 39 -1
v -27 37 -2
v -27 38 -2
v -26 37 -2
v -26 38 -2
v -24 45 -2
v -24 46 -2
v -23 46 -2
v -22 45 -2
v -22 46 -2
v -27 39 -10
v -27 49 -10
v -26 38 -10
v -26 39 -10
v -26 48 -10
v -26 49 -10
v -25 39 -10
v -25 45 -10
v -25 46 -10
v -25 47 -10
v -25 48 -10
v -24 46 -10
v -24 47 -10
v -3 38 -10
v -3 39 -10
v -27 39 -2
v -27 48 -2
v -26 38 -2
v -26 39 -2
v -26 47 -2
v -26 48 -2
v -25 39 -2
v -25 45 -2
v -25 47 -2
v -3 38 -2
v -3 39 -2
v -26 47 -3
v -26 48 -3
v -25 46 -3
v -25 47 -3
v -25 48 -3
v -24 46 -3
v -24 47 -3
v -24 45 -10
v -24 46 -10
v -23 46 -10
v -22 45 -10
v -22 46 -10
v -27 36 -11
v -27 50 -11
v -26 49 -11
v -26 50 -11
v -25 39 -11
v -25 45 -11
v -25 48 -11
v -25 49 -11
v -24 45 -11
v -24 46 -11
v -24 47 -11
v -24 48 -11
v -23 46 -11
v -23 47 -11
v -3 36 -11
v -3 39 -11
v -27 36 -1
v -4 36 -1
v -3 36 -1
v -27 36 -2
v -4 36 -2
v -27 36 -11
v -3 36 -11
v -27 38 -1
v -26 38 -1
v -27 38 -2
v -26 38 -2
v -25 45 -1
v -24 45 -1
v -25 45 -2
v -24 45 -2
v -22 45 -2
v -25 45 -10
v -24 45 -10
v -22 45 -10
v -25 45 -11
v -24 45 -11
v -24 46 -1
v -23 46 -1
v -24 46 -2
v -23 46 -2
v -24 46 -10
v -23 46 -10
v -24 46 -11
v -23 46 -11
v -26 47 -2
v -25 47 -2
v -26 47 -3
v -25 47 -3
v -24 47 -3
v -25 47 -10
v -24 47 -10
v -26 48 -3
v -25 48 -3
v -26 48 -10
v -25 48 -10
v -27 49 -1
v -26 49 -1
v -26 49 -2
v -27 49 -10
v -26 49 -10
v -27 37 -1
v -26 37 -1
v -27 37 -2
v -26 37 -2
v -26 38 -2
v -3 38 -2
v -26 38 -10
v -3 38 -10
v -25 39 -1
v -3 39 -1
v -27 39 -2
v -26 39 -2
v -25 39 -2
v -3 39 -2
v -27 39 -10
v -26 39 -10
v -25 39 -10
v -3 39 -10
v -25 39 -11
v -3 39 -11
v -23 46 -2
v -22 46 -2
v -25 46 -3
v -24 46 -3
v -25 46 -10
v -24 46 -10
v -23 46 -10
v -22 46 -10
v -24 47 -1
v -23 47 -1
v -24 47 -2
v -23 47 -2
v -24 47 -10
v -23 47 -10
v -24 47 -11
v -23 47 -11
v -27 48 -1
v -26 48 -1
v -25 48 -1
v -24 48 -1
v -27 48 -2
v -26 48 -2
v -25 48 -2
v -24 48 -2
v -25 48 -10
v -24 48 -10
v -25 48 -11
v -24 48 -11
v -26 49 -1
v -25 49 -1
v -26 49 -2
v -25 49 -2
v -26 49 -10
v -25 49 -10
v -26 49 -11
v -25 49 -11
v -27 50 -1
v -26 50 -1
v -27 50 -11
v -26 50 -11

# faces
f 4/1/1 2/1/1 1/1/1
f 5/2/1 3/2/1 2/2/1
f 5/1/1 2/1/1 4/1/1
f 7/2/1 3/2/1 5/2/1
f 8/2/1 3/2/1 7/2/1
f 8/2/1 7/2/1 6/2/1
f 9/2/1 3/2/1 8/2/1
f 10/2/1 8/2/1 6/2/1
f 11/2/1 8/2/1 10/2/1
f 13/2/1 3/2/1 9/2/1
f 14/2/1 13/2/1 12/2/1
f 15/2/1 3/2/1 13/2/1
f 15/2/1 13/2/1 14/2/1
f 18/2/1 17/2/1 16/2/1
f 19/2/1 17/2/1 18/2/1
f 23/3/1 21/3/1 20/3/1
f 24/3/1 21/3/1 23/3/1
f 26/2/1 23/2/1 22/2/1
f 27/3/1 25/3/1 24/3/1
f 27/2/1 23/2/1 26/2/1
f 27/3/1 24/3/1 23/3/1
f 28/3/1 25/3/1 27/3/1
f 31/3/1 30/3/1 29/3/1
f 32/3/1 30/3/1 31/3/1
f 33/3/1 31/3/1 29/3/1
f 34/3/1 31/3/1 33/3/1
f 36/3/1 35/3/1 34/3/1
f 37/3/1 35/3/1 36/3/1
f 40/3/1 39/3/1 38/3/1
f 41/3/1 39/3/1 40/3/1
f 42/2/2 43/2/2 44/2/2
f 44/2/2 43/2/2 45/2/2
f 47/2/2 48/2/2 50/2/2
f 48/2/2 49/2/2 50/2/2
f 46/2/2 47/2/2 50/2/2
f 50/2/2 49/2/2 51/2/2
f 52/2/2 53/2/2 56/2/2
f 56/2/2 53/2/2 57/2/2
f 54/2/2 55/2/2 58/2/2
f 58/2/2 55/2/2 59/2/2
f 60/2/2 61/2/2 64/2/2
f 61/3/2 62/3/2 65/3/2
f 64/2/2 61/2/2 65/2/2
f 62/2/2 63/2/2 66/2/2
f 65/3/2 62/3/2 66/3/2
f 66/2/2 63/2/2 67/2/2
f 68/2/2 69/2/2 72/2/2
f 72/2/2 69/2/2 73/2/2
f 70/2/2 71/2/2 74/2/2
f 74/2/2 71/2/2 75/2/2
f 76/2/2 77/2/2 80/2/2
f 77/3/2 78/3/2 81/3/2
f 80/2/2 77/2/2 81/2/2
f 78/2/2 79/2/2 82/2/2
f 81/3/2 78/3/2 82/3/2
f 82/2/2 79/2/2 83/2/2
f 84/2/2 85/2/2 88/2/2
f 85/3/2 86/3/2 89/3/2
f 88/2/2 85/2/2 89/2/2
f 86/2/2 87/2/2 90/2/2
f 89/3/2 86/3/2 90/3/2
f 90/2/2 87/2/2 91/2/2
f 92/2/2 93/2/2 94/2/2
f 94/2/2 93/2/2 95/2/2
f 96/2/2 97/2/2 98/2/2
f 98/2/2 97/2/2 99/2/2
f 96/2/2 98/2/2 100/2/2
f 98/1/2 99/1/2 100/1/2
f 99/2/2 97/2/2 101/2/2
f 100/1/2 99/1/2 101/1/2
f 96/2/2 100/2/2 102/2/2
f 102/2/2 100/2/2 103/2/2
f 101/2/2 97/2/2 104/2/2
f 104/2/2 97/2/2 105/2/2
f 112/1/3 107/1/3 106/1/3
f 113/2/3 109/2/3 108/2/3
f 114/2/3 109/2/3 113/2/3
f 115/2/3 111/2/3 110/2/3
f 116/2/3 111/2/3 115/2/3
f 117/2/3 114/2/3 113/2/3
f 117/2/3 113/2/3 112/2/3
f 117/2/3 115/2/3 114/2/3
f 118/2/3 115/2/3 117/2/3
f 119/2/3 115/2/3 118/2/3
f 120/2/3 115/2/3 119/2/3
f 121/2/3 119/2/3 118/2/3
f 122/2/3 119/2/3 121/2/3
f 123/2/3 119/2/3 122/2/3
f 124/2/3 119/2/3 123/2/3
f 125/2/3 123/2/3 122/2/3
f 126/2/3 123/2/3 125/2/3
f 127/1/3 112/1/3 106/1/3
f 128/2/3 117/2/3 112/2/3
f 128/1/3 112/1/3 127/1/3
f 129/2/3 128/2/3 127/2/3
f 130/2/3 117/2/3 128/2/3
f 130/2/3 128/2/3 129/2/3
f 133/2/3 132/2/3 131/2/3
f 134/2/3 132/2/3 133/2/3
f 137/2/3 136/2/3 135/2/3
f 138/2/3 137/2/3 135/2/3
f 139/2/3 137/2/3 138/2/3
f 143/2/3 141/2/3 140/2/3
f 144/2/3 141/2/3 143/2/3
f 145/2/3 141/2/3 144/2/3
f 146/2/3 143/2/3 142/2/3
f 146/2/3 144/2/3 143/2/3
f 147/2/3 144/2/3 146/2/3
f 148/2/3 144/2/3 147/2/3
f 149/2/3 144/2/3 148/2/3
f 150/2/3 144/2/3 149/2/3
f 151/2/3 149/2/3 148/2/3
f 152/2/3 149/2/3 151/2/3
f 153/2/3 146/2/3 142/2/3
f 154/2/3 146/2/3 153/2/3
f 155/2/4 156/2/4 158/2/4
f 158/2/4 156/2/4 159/2/4
f 159/2/4 156/2/4 160/2/4
f 157/2/4 158/2/4 161/2/4
f 158/2/4 159/2/4 161/2/4
f 161/2/4 159/2/4 162/2/4
f 162/2/4 159/2/4 163/2/4
f 157/2/4 161/2/4 164/2/4
f 164/2/4 161/2/4 165/2/4
f 166/3/4 167/3/4 169/3/4
f 169/3/4 167/3/4 170/3/4
f 168/3/4 169/3/4 171/3/4
f 171/3/4 169/3/4 172/3/4
f 173/2/4 174/2/4 175/2/4
f 173/2/4 175/2/4 176/2/4
f 176/2/4 175/2/4 177/2/4
f 178/2/4 179/2/4 180/2/4
f 180/2/4 179/2/4 181/2/4
f 178/2/4 180/2/4 182/2/4
f 182/2/4 180/2/4 183/2/4
f 183/2/4 180/2/4 184/2/4
f 184/2/4 180/2/4 185/2/4
f 183/2/4 184/2/4 186/2/4
f 186/2/4 184/2/4 187/2/4
f 187/2/4 184/2/4 188/2/4
f 188/2/4 184/2/4 189/2/4
f 187/2/4 188/2/4 190/2/4
f 190/2/4 188/2/4 191/2/4
f 178/2/4 182/2/4 192/2/4
f 192/2/4 182/2/4 193/2/4
f 197/1/5 195/1/5 194/1/5
f 198/2/5 196/2/5 195/2/5
f 198/1/5 195/1/5 197/1/5
f 199/2/5 198/2/5 197/2/5
f 200/2/5 196/2/5 198/2/5
f 200/2/5 198/2/5 199/2/5
f 203/2/5 202/2/5 201/2/5
f 204/2/5 202/2/5 203/2/5
f 207/2/5 206/2/5 205/2/5
f 208/2/5 206/2/5 207/2/5
f 210/3/5 208/3/5 207/3/5
f 211/2/5 209/2/5 208/2/5
f 211/3/5 208/3/5 210/3/5
f 212/2/5 209/2/5 211/2/5
f 213/2/5 211/2/5 210/2/5
f 214/2/5 211/2/5 213/2/5
f 217/2/5 216/2/5 215/2/5
f 218/2/5 216/2/5 217/2/5
f 221/2/5 220/2/5 219/2/5
f 222/2/5 220/2/5 221/2/5
f 225/3/5 224/3/5 223/3/5
f 226/3/5 224/3/5 225/3/5
f 228/3/5 227/3/5 226/3/5
f 229/3/5 227/3/5 228/3/5
f 232/3/5 231/3/5 230/3/5
f 233/3/5 231/3/5 232/3/5
f 236/2/5 235/2/5 234/2/5
f 237/2/5 236/2/5 234/2/5
f 238/2/5 236/2/5 237/2/5
f 239/1/6 240/1/6 241/1/6
f 241/1/6 240/1/6 242/1/6
f 243/1/6 244/1/6 245/1/6
f 245/1/6 244/1/6 246/1/6
f 247/2/6 248/2/6 251/2/6
f 251/2/6 248/2/6 252/2/6
f 249/2/6 250/2/6 253/2/6
f 253/2/6 250/2/6 254/2/6
f 255/2/6 256/2/6 257/2/6
f 257/2/6 256/2/6 258/2/6
f 261/3/6 262/3/6 263/3/6
f 263/3/6 262/3/6 264/3/6
f 259/2/6 260/2/6 265/2/6
f 265/2/6 260/2/6 266/2/6
f 267/2/6 268/2/6 269/2/6
f 269/2/6 268/2/6 270/2/6
f 269/3/6 270/3/6 271/3/6
f 271/3/6 270/3/6 272/3/6
f 271/2/6 272/2/6 273/2/6
f 273/2/6 272/2/6 274/2/6
f 275/2/6 276/2/6 279/2/6
f 279/2/6 276/2/6 280/2/6
f 277/2/6 278/2/6 281/2/6
f 281/2/6 278/2/6 282/2/6
f 281/3/6 282/3/6 283/3/6
f 283/3/6 282/3/6 284/3/6
f 283/2/6 284/2/6 285/2/6
f 285/2/6 284/2/6 286/2/6
f 287/2/6 288/2/6 289/2/6
f 289/2/6 288/2/6 290/2/6
f 289/3/6 290/3/6 291/3/6
f 291/3/6 290/3/6 292/3/6
f 291/2/6 292/2/6 293/2/6
f 293/2/6 292/2/6 294/2/6
f 295/2/6 296/2/6 297/2/6
f 297/2/6 296/2/6 298/2/6
