# MagicaVoxel @ Ephtracy

# material
mtllib Wallnew.mtl
usemtl palette

# normals
vn -1 0 0
vn 1 0 0
vn 0 0 1
vn 0 0 -1
vn 0 -1 0
vn 0 1 0

# texcoords
vt 0.310547 0.5

# verts
v -63 10 -60
v -63 10 -63
v -63 52 -60
v -63 52 -63
v 12 10 -60
v 12 10 -63
v 12 37 -60
v 12 37 -61
v 12 37 -62
v 12 37 -63
v -11 10 -60
v -11 10 -63
v -11 37 -60
v -11 37 -61
v -11 37 -62
v -11 37 -63
v -11 43 -61
v -11 43 -62
v 13 10 -61
v 13 10 -62
v 13 37 -61
v 13 37 -62
v 63 10 -60
v 63 10 -61
v 63 10 -62
v 63 10 -63
v 63 43 -61
v 63 43 -62
v 63 52 -60
v 63 52 -63
v -63 10 -60
v -63 52 -60
v -11 10 -60
v -11 37 -60
v 12 10 -60
v 12 37 -60
v 63 10 -60
v 63 52 -60
v -11 37 -62
v -11 43 -62
v 12 37 -62
v 13 10 -62
v 13 37 -62
v 63 10 -62
v 63 43 -62
v -11 37 -61
v -11 43 -61
v 12 37 -61
v 13 10 -61
v 13 37 -61
v 63 10 -61
v 63 43 -61
v -63 10 -63
v -63 52 -63
v -11 10 -63
v -11 37 -63
v 12 10 -63
v 12 37 -63
v 63 10 -63
v 63 52 -63
v -63 10 -60
v -11 10 -60
v 12 10 -60
v 63 10 -60
v 13 10 -61
v 63 10 -61
v 13 10 -62
v 63 10 -62
v -63 10 -63
v -11 10 -63
v 12 10 -63
v 63 10 -63
v -11 37 -60
v 12 37 -60
v -11 37 -61
v 12 37 -61
v -11 37 -62
v 12 37 -62
v -11 37 -63
v 12 37 -63
v -11 43 -61
v 63 43 -61
v -11 43 -62
v 63 43 -62
v 12 37 -61
v 13 37 -61
v 12 37 -62
v 13 37 -62
v -63 52 -60
v 63 52 -60
v -63 52 -63
v 63 52 -63

# faces
f 3/1/1 2/1/1 1/1/1
f 4/1/1 2/1/1 3/1/1
f 7/1/1 6/1/1 5/1/1
f 8/1/1 6/1/1 7/1/1
f 9/1/1 6/1/1 8/1/1
f 10/1/1 6/1/1 9/1/1
f 11/1/2 12/1/2 13/1/2
f 13/1/2 12/1/2 14/1/2
f 14/1/2 12/1/2 15/1/2
f 15/1/2 12/1/2 16/1/2
f 14/1/2 15/1/2 17/1/2
f 17/1/2 15/1/2 18/1/2
f 19/1/2 20/1/2 21/1/2
f 21/1/2 20/1/2 22/1/2
f 23/1/2 24/1/2 27/1/2
f 25/1/2 26/1/2 28/1/2
f 23/1/2 27/1/2 29/1/2
f 27/1/2 28/1/2 29/1/2
f 28/1/2 26/1/2 30/1/2
f 29/1/2 28/1/2 30/1/2
f 33/1/3 32/1/3 31/1/3
f 34/1/3 32/1/3 33/1/3
f 36/1/3 32/1/3 34/1/3
f 37/1/3 36/1/3 35/1/3
f 38/1/3 32/1/3 36/1/3
f 38/1/3 36/1/3 37/1/3
f 41/1/3 40/1/3 39/1/3
f 43/1/3 40/1/3 41/1/3
f 44/1/3 43/1/3 42/1/3
f 45/1/3 40/1/3 43/1/3
f 45/1/3 43/1/3 44/1/3
f 46/1/4 47/1/4 48/1/4
f 48/1/4 47/1/4 50/1/4
f 49/1/4 50/1/4 51/1/4
f 50/1/4 47/1/4 52/1/4
f 51/1/4 50/1/4 52/1/4
f 53/1/4 54/1/4 55/1/4
f 55/1/4 54/1/4 56/1/4
f 56/1/4 54/1/4 58/1/4
f 57/1/4 58/1/4 59/1/4
f 58/1/4 54/1/4 60/1/4
f 59/1/4 58/1/4 60/1/4
f 65/1/5 64/1/5 63/1/5
f 66/1/5 64/1/5 65/1/5
f 67/1/5 65/1/5 63/1/5
f 69/1/5 62/1/5 61/1/5
f 70/1/5 62/1/5 69/1/5
f 71/1/5 68/1/5 67/1/5
f 71/1/5 67/1/5 63/1/5
f 72/1/5 68/1/5 71/1/5
f 75/1/5 74/1/5 73/1/5
f 76/1/5 74/1/5 75/1/5
f 79/1/5 78/1/5 77/1/5
f 80/1/5 78/1/5 79/1/5
f 83/1/5 82/1/5 81/1/5
f 84/1/5 82/1/5 83/1/5
f 85/1/6 86/1/6 87/1/6
f 87/1/6 86/1/6 88/1/6
f 89/1/6 90/1/6 91/1/6
f 91/1/6 90/1/6 92/1/6
