# MagicaVoxel @ Ephtracy

# material
mtllib weightSign.mtl
usemtl palette

# normals
vn -1 0 0
vn 1 0 0
vn 0 0 1
vn 0 0 -1
vn 0 -1 0
vn 0 1 0

# texcoords
vt 0.474609 0.5
vt 0.759766 0.5
vt 0.994141 0.5

# verts
v -43 0 -62
v -43 0 -63
v -43 63 -62
v -43 63 -63
v -42 1 -61
v -42 1 -62
v -42 62 -61
v -42 62 -62
v 23 1 -61
v 23 1 -62
v 23 62 -61
v 23 62 -62
v 24 0 -62
v 24 0 -63
v 24 63 -62
v 24 63 -63
v -42 1 -61
v -42 62 -61
v -39 49 -61
v -39 50 -61
v -38 49 -61
v -38 50 -61
v -37 43 -61
v -37 56 -61
v -36 43 -61
v -36 56 -61
v -35 42 -61
v -35 57 -61
v -33 42 -61
v -33 57 -61
v -32 43 -61
v -32 56 -61
v -30 43 -61
v -30 49 -61
v -30 50 -61
v -30 56 -61
v -25 38 -61
v -25 42 -61
v -24 42 -61
v -24 44 -61
v -23 37 -61
v -23 38 -61
v -23 44 -61
v -23 46 -61
v -22 40 -61
v -22 42 -61
v -22 46 -61
v -22 48 -61
v -21 7 -61
v -21 10 -61
v -21 39 -61
v -21 40 -61
v -21 42 -61
v -21 44 -61
v -21 48 -61
v -21 49 -61
v -20 10 -61
v -20 12 -61
v -20 44 -61
v -20 46 -61
v -19 12 -61
v -19 14 -61
v -19 36 -61
v -19 37 -61
v -19 46 -61
v -19 48 -61
v -18 14 -61
v -18 16 -61
v -18 48 -61
v -18 49 -61
v -17 7 -61
v -17 11 -61
v -17 16 -61
v -17 18 -61
v -17 38 -61
v -17 39 -61
v -16 11 -61
v -16 13 -61
v -16 18 -61
v -16 20 -61
v -16 35 -61
v -16 36 -61
v -15 13 -61
v -15 15 -61
v -15 20 -61
v -15 22 -61
v -15 40 -61
v -15 45 -61
v -14 15 -61
v -14 17 -61
v -14 22 -61
v -14 24 -61
v -14 39 -61
v -14 40 -61
v -14 45 -61
v -14 46 -61
v -13 17 -61
v -13 19 -61
v -13 24 -61
v -13 29 -61
v -13 34 -61
v -13 35 -61
v -13 37 -61
v -13 38 -61
v -13 39 -61
v -13 46 -61
v -13 47 -61
v -12 19 -61
v -12 22 -61
v -12 29 -61
v -12 34 -61
v -9 20 -61
v -9 22 -61
v -9 29 -61
v -9 34 -61
v -8 18 -61
v -8 20 -61
v -8 24 -61
v -8 29 -61
v -8 34 -61
v -8 35 -61
v -8 37 -61
v -8 38 -61
v -8 39 -61
v -8 46 -61
v -8 47 -61
v -7 15 -61
v -7 18 -61
v -7 22 -61
v -7 24 -61
v -7 39 -61
v -7 40 -61
v -7 45 -61
v -7 46 -61
v -6 13 -61
v -6 15 -61
v -6 20 -61
v -6 22 -61
v -6 40 -61
v -6 45 -61
v -5 11 -61
v -5 13 -61
v -5 18 -61
v -5 20 -61
v -4 7 -61
v -4 11 -61
v -4 15 -61
v -4 18 -61
v -4 35 -61
v -4 36 -61
v -4 38 -61
v -4 39 -61
v -3 13 -61
v -3 15 -61
v -2 11 -61
v -2 13 -61
v -2 48 -61
v -2 49 -61
v -1 10 -61
v -1 11 -61
v -1 46 -61
v -1 48 -61
v 0 7 -61
v 0 10 -61
v 0 39 -61
v 0 40 -61
v 0 44 -61
v 0 46 -61
v 1 36 -61
v 1 37 -61
v 1 42 -61
v 1 44 -61
v 1 47 -61
v 1 49 -61
v 2 40 -61
v 2 42 -61
v 2 45 -61
v 2 47 -61
v 3 43 -61
v 3 45 -61
v 4 37 -61
v 4 38 -61
v 4 41 -61
v 4 43 -61
v 5 38 -61
v 5 41 -61
v 11 43 -61
v 11 49 -61
v 11 50 -61
v 11 56 -61
v 13 43 -61
v 13 56 -61
v 14 42 -61
v 14 57 -61
v 16 42 -61
v 16 57 -61
v 17 44 -61
v 17 56 -61
v 18 44 -61
v 18 56 -61
v 19 49 -61
v 19 50 -61
v 20 49 -61
v 20 50 -61
v 23 1 -61
v 23 62 -61
v -43 0 -62
v -43 63 -62
v -42 1 -62
v -42 62 -62
v 23 0 -62
v 23 1 -62
v 23 62 -62
v 23 63 -62
v 24 0 -62
v 24 63 -62
v -43 0 -63
v -43 63 -63
v 23 0 -63
v 23 63 -63
v 24 0 -63
v 24 63 -63
v -43 0 -62
v 23 0 -62
v 24 0 -62
v -43 0 -63
v 23 0 -63
v 24 0 -63
v -42 1 -61
v 23 1 -61
v -42 1 -62
v 23 1 -62
v -42 62 -61
v 23 62 -61
v -42 62 -62
v 23 62 -62
v -43 63 -62
v 23 63 -62
v 24 63 -62
v -43 63 -63
v 23 63 -63
v 24 63 -63

# faces
f 3/2/1 2/2/1 1/2/1
f 4/2/1 2/2/1 3/2/1
f 7/1/1 6/1/1 5/1/1
f 8/1/1 6/1/1 7/1/1
f 9/1/2 10/1/2 11/1/2
f 11/1/2 10/1/2 12/1/2
f 13/3/2 14/3/2 15/3/2
f 15/3/2 14/3/2 16/3/2
f 19/1/3 18/1/3 17/1/3
f 20/1/3 18/1/3 19/1/3
f 21/1/3 19/1/3 17/1/3
f 21/3/3 20/3/3 19/3/3
f 22/1/3 18/1/3 20/1/3
f 22/3/3 20/3/3 21/3/3
f 23/1/3 21/1/3 17/1/3
f 23/1/3 22/1/3 21/1/3
f 24/1/3 18/1/3 22/1/3
f 24/1/3 22/1/3 23/1/3
f 25/1/3 23/1/3 17/1/3
f 25/3/3 24/3/3 23/3/3
f 26/1/3 18/1/3 24/1/3
f 26/3/3 24/3/3 25/3/3
f 27/1/3 25/1/3 17/1/3
f 27/1/3 26/1/3 25/1/3
f 28/1/3 18/1/3 26/1/3
f 28/1/3 26/1/3 27/1/3
f 29/1/3 27/1/3 17/1/3
f 29/3/3 28/3/3 27/3/3
f 30/1/3 18/1/3 28/1/3
f 30/3/3 28/3/3 29/3/3
f 31/1/3 30/1/3 29/1/3
f 32/1/3 30/1/3 31/1/3
f 33/1/3 31/1/3 29/1/3
f 33/3/3 32/3/3 31/3/3
f 34/3/3 32/3/3 33/3/3
f 35/3/3 32/3/3 34/3/3
f 36/1/3 30/1/3 32/1/3
f 36/3/3 32/3/3 35/3/3
f 37/1/3 29/1/3 17/1/3
f 37/1/3 33/1/3 29/1/3
f 37/1/3 34/1/3 33/1/3
f 38/1/3 34/1/3 37/1/3
f 39/3/3 38/3/3 37/3/3
f 39/1/3 34/1/3 38/1/3
f 40/1/3 34/1/3 39/1/3
f 41/1/3 37/1/3 17/1/3
f 42/3/3 39/3/3 37/3/3
f 42/1/3 37/1/3 41/1/3
f 42/3/3 40/3/3 39/3/3
f 43/1/3 34/1/3 40/1/3
f 43/3/3 40/3/3 42/3/3
f 44/1/3 34/1/3 43/1/3
f 45/3/3 42/3/3 41/3/3
f 45/3/3 43/3/3 42/3/3
f 45/3/3 44/3/3 43/3/3
f 46/3/3 44/3/3 45/3/3
f 47/1/3 34/1/3 44/1/3
f 47/3/3 44/3/3 46/3/3
f 48/1/3 34/1/3 47/1/3
f 49/1/3 41/1/3 17/1/3
f 50/1/3 41/1/3 49/1/3
f 51/3/3 45/3/3 41/3/3
f 52/1/3 46/1/3 45/1/3
f 52/3/3 45/3/3 51/3/3
f 53/3/3 47/3/3 46/3/3
f 53/1/3 46/1/3 52/1/3
f 53/3/3 48/3/3 47/3/3
f 54/3/3 48/3/3 53/3/3
f 55/1/3 34/1/3 48/1/3
f 55/3/3 48/3/3 54/3/3
f 56/3/3 35/3/3 34/3/3
f 56/1/3 34/1/3 55/1/3
f 57/1/3 41/1/3 50/1/3
f 57/3/3 50/3/3 49/3/3
f 58/1/3 41/1/3 57/1/3
f 59/3/3 55/3/3 54/3/3
f 59/1/3 54/1/3 53/1/3
f 59/1/3 52/1/3 51/1/3
f 59/3/3 56/3/3 55/3/3
f 59/1/3 53/1/3 52/1/3
f 60/3/3 56/3/3 59/3/3
f 61/1/3 41/1/3 58/1/3
f 61/3/3 58/3/3 57/3/3
f 62/1/3 41/1/3 61/1/3
f 63/1/3 41/1/3 62/1/3
f 64/3/3 51/3/3 41/3/3
f 64/1/3 41/1/3 63/1/3
f 65/3/3 56/3/3 60/3/3
f 65/1/3 60/1/3 59/1/3
f 66/3/3 56/3/3 65/3/3
f 67/1/3 63/1/3 62/1/3
f 67/3/3 62/3/3 61/3/3
f 68/1/3 63/1/3 67/1/3
f 69/3/3 56/3/3 66/3/3
f 69/1/3 66/1/3 65/1/3
f 70/3/3 35/3/3 56/3/3
f 70/3/3 56/3/3 69/3/3
f 71/3/3 57/3/3 49/3/3
f 71/1/3 49/1/3 17/1/3
f 71/3/3 61/3/3 57/3/3
f 71/3/3 67/3/3 61/3/3
f 71/3/3 68/3/3 67/3/3
f 72/3/3 68/3/3 71/3/3
f 73/1/3 63/1/3 68/1/3
f 73/3/3 68/3/3 72/3/3
f 74/1/3 63/1/3 73/1/3
f 75/3/3 51/3/3 64/3/3
f 75/3/3 64/3/3 63/3/3
f 76/1/3 69/1/3 65/1/3
f 76/3/3 51/3/3 75/3/3
f 76/1/3 70/1/3 69/1/3
f 76/1/3 59/1/3 51/1/3
f 76/1/3 65/1/3 59/1/3
f 77/1/3 72/1/3 71/1/3
f 77/3/3 74/3/3 73/3/3
f 77/3/3 73/3/3 72/3/3
f 78/3/3 74/3/3 77/3/3
f 79/1/3 63/1/3 74/1/3
f 79/3/3 74/3/3 78/3/3
f 80/1/3 63/1/3 79/1/3
f 81/1/3 63/1/3 80/1/3
f 82/3/3 75/3/3 63/3/3
f 82/1/3 63/1/3 81/1/3
f 83/1/3 78/1/3 77/1/3
f 83/3/3 79/3/3 78/3/3
f 83/3/3 80/3/3 79/3/3
f 84/3/3 80/3/3 83/3/3
f 85/1/3 81/1/3 80/1/3
f 85/3/3 80/3/3 84/3/3
f 86/1/3 81/1/3 85/1/3
f 87/1/3 70/1/3 76/1/3
f 87/1/3 76/1/3 75/1/3
f 88/1/3 70/1/3 87/1/3
f 89/3/3 86/3/3 85/3/3
f 89/1/3 84/1/3 83/1/3
f 89/3/3 85/3/3 84/3/3
f 90/3/3 86/3/3 89/3/3
f 91/1/3 81/1/3 86/1/3
f 91/3/3 86/3/3 90/3/3
f 92/1/3 81/1/3 91/1/3
f 93/1/3 87/1/3 75/1/3
f 94/3/3 88/3/3 87/3/3
f 94/1/3 87/1/3 93/1/3
f 95/1/3 70/1/3 88/1/3
f 95/3/3 88/3/3 94/3/3
f 96/1/3 70/1/3 95/1/3
f 97/1/3 90/1/3 89/1/3
f 97/3/3 91/3/3 90/3/3
f 97/3/3 92/3/3 91/3/3
f 98/3/3 92/3/3 97/3/3
f 99/1/3 81/1/3 92/1/3
f 99/3/3 92/3/3 98/3/3
f 100/1/3 81/1/3 99/1/3
f 101/1/3 81/1/3 100/1/3
f 102/3/3 82/3/3 81/3/3
f 102/1/3 81/1/3 101/1/3
f 103/3/3 75/3/3 82/3/3
f 103/3/3 82/3/3 102/3/3
f 104/1/3 93/1/3 75/1/3
f 104/3/3 75/3/3 103/3/3
f 105/3/3 94/3/3 93/3/3
f 105/1/3 93/1/3 104/1/3
f 105/3/3 96/3/3 95/3/3
f 105/3/3 95/3/3 94/3/3
f 106/1/3 70/1/3 96/1/3
f 106/3/3 96/3/3 105/3/3
f 107/1/3 70/1/3 106/1/3
f 108/1/3 98/1/3 97/1/3
f 108/3/3 100/3/3 99/3/3
f 108/3/3 99/3/3 98/3/3
f 109/3/3 100/3/3 108/3/3
f 110/1/3 101/1/3 100/1/3
f 110/3/3 100/3/3 109/3/3
f 111/3/3 102/3/3 101/3/3
f 111/1/3 101/1/3 110/1/3
f 111/3/3 103/3/3 102/3/3
f 112/1/3 109/1/3 108/1/3
f 113/3/3 110/3/3 109/3/3
f 113/1/3 109/1/3 112/1/3
f 113/3/3 111/3/3 110/3/3
f 114/3/3 111/3/3 113/3/3
f 115/3/3 103/3/3 111/3/3
f 115/3/3 111/3/3 114/3/3
f 116/1/3 112/1/3 108/1/3
f 116/1/3 108/1/3 97/1/3
f 117/3/3 114/3/3 113/3/3
f 117/1/3 112/1/3 116/1/3
f 117/3/3 113/3/3 112/3/3
f 118/3/3 114/3/3 117/3/3
f 119/1/3 115/1/3 114/1/3
f 119/3/3 114/3/3 118/3/3
f 120/3/3 103/3/3 115/3/3
f 120/1/3 115/1/3 119/1/3
f 121/3/3 103/3/3 120/3/3
f 122/1/3 104/1/3 103/1/3
f 122/3/3 103/3/3 121/3/3
f 123/3/3 105/3/3 104/3/3
f 123/1/3 104/1/3 122/1/3
f 123/3/3 107/3/3 106/3/3
f 123/3/3 106/3/3 105/3/3
f 124/3/3 107/3/3 123/3/3
f 125/3/3 107/3/3 124/3/3
f 126/1/3 70/1/3 107/1/3
f 126/3/3 107/3/3 125/3/3
f 127/1/3 116/1/3 97/1/3
f 127/1/3 89/1/3 83/1/3
f 127/1/3 97/1/3 89/1/3
f 128/3/3 118/3/3 117/3/3
f 128/1/3 116/1/3 127/1/3
f 128/3/3 117/3/3 116/3/3
f 129/3/3 118/3/3 128/3/3
f 130/1/3 119/1/3 118/1/3
f 130/3/3 118/3/3 129/3/3
f 130/1/3 121/1/3 120/1/3
f 130/1/3 120/1/3 119/1/3
f 131/3/3 125/3/3 124/3/3
f 131/1/3 124/1/3 123/1/3
f 132/3/3 125/3/3 131/3/3
f 133/3/3 125/3/3 132/3/3
f 134/1/3 126/1/3 125/1/3
f 134/3/3 125/3/3 133/3/3
f 135/1/3 127/1/3 83/1/3
f 135/1/3 83/1/3 77/1/3
f 136/3/3 129/3/3 128/3/3
f 136/1/3 127/1/3 135/1/3
f 136/3/3 128/3/3 127/3/3
f 137/3/3 129/3/3 136/3/3
f 138/1/3 130/1/3 129/1/3
f 138/3/3 129/3/3 137/3/3
f 139/1/3 132/1/3 131/1/3
f 139/3/3 133/3/3 132/3/3
f 140/1/3 134/1/3 133/1/3
f 140/3/3 133/3/3 139/3/3
f 141/1/3 135/1/3 77/1/3
f 141/1/3 77/1/3 71/1/3
f 142/3/3 137/3/3 136/3/3
f 142/1/3 135/1/3 141/1/3
f 142/3/3 136/3/3 135/3/3
f 143/3/3 137/3/3 142/3/3
f 144/1/3 138/1/3 137/1/3
f 144/3/3 137/3/3 143/3/3
f 145/1/3 71/1/3 17/1/3
f 145/1/3 141/1/3 71/1/3
f 146/3/3 143/3/3 142/3/3
f 146/1/3 141/1/3 145/1/3
f 146/3/3 142/3/3 141/3/3
f 147/3/3 143/3/3 146/3/3
f 148/1/3 144/1/3 143/1/3
f 148/3/3 143/3/3 147/3/3
f 149/3/3 122/3/3 121/3/3
f 149/1/3 144/1/3 148/1/3
f 149/1/3 130/1/3 138/1/3
f 149/1/3 138/1/3 144/1/3
f 149/1/3 121/1/3 130/1/3
f 149/3/3 123/3/3 122/3/3
f 150/3/3 123/3/3 149/3/3
f 151/1/3 131/1/3 123/1/3
f 151/3/3 123/3/3 150/3/3
f 151/1/3 140/1/3 139/1/3
f 151/1/3 139/1/3 131/1/3
f 152/1/3 140/1/3 151/1/3
f 153/3/3 146/3/3 145/3/3
f 153/3/3 147/3/3 146/3/3
f 154/1/3 148/1/3 147/1/3
f 154/3/3 147/3/3 153/3/3
f 154/1/3 150/1/3 149/1/3
f 154/1/3 149/1/3 148/1/3
f 155/3/3 153/3/3 145/3/3
f 156/1/3 154/1/3 153/1/3
f 156/3/3 153/3/3 155/3/3
f 157/1/3 134/1/3 140/1/3
f 157/1/3 140/1/3 152/1/3
f 157/1/3 126/1/3 134/1/3
f 157/1/3 70/1/3 126/1/3
f 158/3/3 35/3/3 70/3/3
f 158/1/3 70/1/3 157/1/3
f 159/3/3 155/3/3 145/3/3
f 160/1/3 156/1/3 155/1/3
f 160/3/3 155/3/3 159/3/3
f 161/1/3 157/1/3 152/1/3
f 162/3/3 158/3/3 157/3/3
f 162/1/3 157/1/3 161/1/3
f 163/3/3 159/3/3 145/3/3
f 163/1/3 145/1/3 17/1/3
f 164/1/3 160/1/3 159/1/3
f 164/3/3 159/3/3 163/3/3
f 165/3/3 151/3/3 150/3/3
f 165/3/3 152/3/3 151/3/3
f 165/1/3 161/1/3 152/1/3
f 166/1/3 161/1/3 165/1/3
f 167/1/3 161/1/3 166/1/3
f 168/3/3 162/3/3 161/3/3
f 168/1/3 161/1/3 167/1/3
f 169/1/3 154/1/3 156/1/3
f 169/1/3 150/1/3 154/1/3
f 169/1/3 156/1/3 160/1/3
f 169/3/3 166/3/3 165/3/3
f 169/3/3 165/3/3 150/3/3
f 169/1/3 160/1/3 164/1/3
f 169/1/3 164/1/3 163/1/3
f 170/3/3 166/3/3 169/3/3
f 171/1/3 167/1/3 166/1/3
f 172/3/3 168/3/3 167/3/3
f 172/1/3 167/1/3 171/1/3
f 173/3/3 162/3/3 168/3/3
f 173/3/3 168/3/3 172/3/3
f 174/3/3 158/3/3 162/3/3
f 174/3/3 162/3/3 173/3/3
f 174/3/3 35/3/3 158/3/3
f 175/1/3 171/1/3 166/1/3
f 175/3/3 166/3/3 170/3/3
f 176/3/3 172/3/3 171/3/3
f 176/1/3 171/1/3 175/1/3
f 176/3/3 173/3/3 172/3/3
f 177/3/3 173/3/3 176/3/3
f 178/1/3 174/1/3 173/1/3
f 178/3/3 173/3/3 177/3/3
f 179/3/3 177/3/3 176/3/3
f 179/3/3 176/3/3 175/3/3
f 180/1/3 178/1/3 177/1/3
f 180/3/3 177/3/3 179/3/3
f 181/3/3 175/3/3 170/3/3
f 181/1/3 170/1/3 169/1/3
f 181/3/3 179/3/3 175/3/3
f 182/3/3 179/3/3 181/3/3
f 183/3/3 179/3/3 182/3/3
f 184/1/3 180/1/3 179/1/3
f 184/3/3 179/3/3 183/3/3
f 185/3/3 183/3/3 182/3/3
f 185/1/3 182/1/3 181/1/3
f 186/1/3 184/1/3 183/1/3
f 186/3/3 183/3/3 185/3/3
f 187/1/3 180/1/3 184/1/3
f 187/1/3 184/1/3 186/1/3
f 187/1/3 186/1/3 185/1/3
f 188/1/3 178/1/3 180/1/3
f 188/1/3 180/1/3 187/1/3
f 188/3/3 35/3/3 174/3/3
f 188/1/3 174/1/3 178/1/3
f 189/1/3 36/1/3 35/1/3
f 189/3/3 35/3/3 188/3/3
f 190/1/3 30/1/3 36/1/3
f 190/1/3 36/1/3 189/1/3
f 191/3/3 189/3/3 188/3/3
f 191/1/3 187/1/3 185/1/3
f 191/3/3 190/3/3 189/3/3
f 191/3/3 188/3/3 187/3/3
f 192/1/3 30/1/3 190/1/3
f 192/3/3 190/3/3 191/3/3
f 193/1/3 191/1/3 185/1/3
f 193/1/3 192/1/3 191/1/3
f 194/1/3 30/1/3 192/1/3
f 194/1/3 192/1/3 193/1/3
f 194/1/3 18/1/3 30/1/3
f 195/1/3 193/1/3 185/1/3
f 195/3/3 194/3/3 193/3/3
f 196/1/3 18/1/3 194/1/3
f 196/3/3 194/3/3 195/3/3
f 197/1/3 196/1/3 195/1/3
f 198/1/3 196/1/3 197/1/3
f 199/1/3 197/1/3 195/1/3
f 199/3/3 198/3/3 197/3/3
f 200/1/3 196/1/3 198/1/3
f 200/3/3 198/3/3 199/3/3
f 201/1/3 200/1/3 199/1/3
f 202/1/3 200/1/3 201/1/3
f 203/1/3 201/1/3 199/1/3
f 203/3/3 202/3/3 201/3/3
f 204/1/3 200/1/3 202/1/3
f 204/3/3 202/3/3 203/3/3
f 205/1/3 195/1/3 185/1/3
f 205/1/3 169/1/3 163/1/3
f 205/1/3 204/1/3 203/1/3
f 205/1/3 203/1/3 199/1/3
f 205/1/3 163/1/3 17/1/3
f 205/1/3 199/1/3 195/1/3
f 205/1/3 185/1/3 181/1/3
f 205/1/3 181/1/3 169/1/3
f 206/1/3 200/1/3 204/1/3
f 206/1/3 204/1/3 205/1/3
f 206/1/3 196/1/3 200/1/3
f 206/1/3 18/1/3 196/1/3
f 209/2/3 208/2/3 207/2/3
f 210/2/3 208/2/3 209/2/3
f 211/2/3 209/2/3 207/2/3
f 212/2/3 209/2/3 211/2/3
f 213/2/3 208/2/3 210/2/3
f 214/2/3 208/2/3 213/2/3
f 215/3/3 212/3/3 211/3/3
f 215/3/3 213/3/3 212/3/3
f 215/3/3 214/3/3 213/3/3
f 216/3/3 214/3/3 215/3/3
f 217/2/4 218/2/4 219/2/4
f 219/2/4 218/2/4 220/2/4
f 219/3/4 220/3/4 221/3/4
f 221/3/4 220/3/4 222/3/4
f 226/2/5 224/2/5 223/2/5
f 227/3/5 225/3/5 224/3/5
f 227/2/5 224/2/5 226/2/5
f 228/3/5 225/3/5 227/3/5
f 231/1/5 230/1/5 229/1/5
f 232/1/5 230/1/5 231/1/5
f 233/1/6 234/1/6 235/1/6
f 235/1/6 234/1/6 236/1/6
f 237/2/6 238/2/6 240/2/6
f 238/3/6 239/3/6 241/3/6
f 240/2/6 238/2/6 241/2/6
f 241/3/6 239/3/6 242/3/6
