# MagicaVoxel @ Ephtracy

# material
mtllib UnderConSign.mtl
usemtl palette

# normals
vn -1 0 0
vn 1 0 0
vn 0 0 1
vn 0 0 -1
vn 0 -1 0
vn 0 1 0

# texcoords
vt 0.00195313 0.5
vt 0.00976563 0.5
vt 0.0175781 0.5
vt 0.0527344 0.5

# verts
v -16 8 7
v -16 8 5
v -16 19 7
v -16 19 5
v -15 1 7
v -15 1 5
v -15 8 7
v -15 8 5
v -15 19 7
v -15 19 5
v -15 20 7
v -15 20 5
v -11 18 10
v -11 18 8
v -11 19 10
v -11 19 8
v -10 18 8
v -10 18 7
v -10 19 8
v -10 19 7
v -3 18 10
v -3 18 8
v -3 19 10
v -3 19 8
v -2 18 8
v -2 18 7
v -2 19 8
v -2 19 7
v 5 18 10
v 5 18 8
v 5 19 10
v 5 19 8
v 6 18 8
v 6 18 7
v 6 19 8
v 6 19 7
v 10 1 7
v 10 1 5
v 10 8 7
v 10 8 5
v -13 1 7
v -13 1 5
v -13 8 7
v -13 8 5
v -9 18 8
v -9 18 7
v -9 19 8
v -9 19 7
v -8 18 10
v -8 18 8
v -8 19 10
v -8 19 8
v -1 18 8
v -1 18 7
v -1 19 8
v -1 19 7
v 0 18 10
v 0 18 8
v 0 19 10
v 0 19 8
v 7 18 8
v 7 18 7
v 7 19 8
v 7 19 7
v 8 18 10
v 8 18 8
v 8 19 10
v 8 19 8
v 12 1 7
v 12 1 5
v 12 8 7
v 12 8 5
v 12 19 7
v 12 19 5
v 12 20 7
v 12 20 5
v 13 8 7
v 13 8 5
v 13 19 7
v 13 19 5
v -11 18 10
v -11 19 10
v -8 18 10
v -8 19 10
v -3 18 10
v -3 19 10
v 0 18 10
v 0 19 10
v 5 18 10
v 5 19 10
v 8 18 10
v 8 19 10
v -16 8 7
v -16 19 7
v -15 1 7
v -15 8 7
v -15 19 7
v -15 20 7
v -13 1 7
v -13 8 7
v -10 18 7
v -10 19 7
v -9 18 7
v -9 19 7
v -2 18 7
v -2 19 7
v -1 18 7
v -1 19 7
v 6 18 7
v 6 19 7
v 7 18 7
v 7 19 7
v 10 1 7
v 10 8 7
v 12 1 7
v 12 8 7
v 12 19 7
v 12 20 7
v 13 8 7
v 13 19 7
v -11 18 8
v -11 19 8
v -10 18 8
v -10 19 8
v -9 18 8
v -9 19 8
v -8 18 8
v -8 19 8
v -3 18 8
v -3 19 8
v -2 18 8
v -2 19 8
v -1 18 8
v -1 19 8
v 0 18 8
v 0 19 8
v 5 18 8
v 5 19 8
v 6 18 8
v 6 19 8
v 7 18 8
v 7 19 8
v 8 18 8
v 8 19 8
v -16 8 5
v -16 19 5
v -15 1 5
v -15 8 5
v -15 19 5
v -15 20 5
v -13 1 5
v -13 8 5
v 10 1 5
v 10 8 5
v 12 1 5
v 12 8 5
v 12 19 5
v 12 20 5
v 13 8 5
v 13 19 5
v -15 1 7
v -13 1 7
v 10 1 7
v 12 1 7
v -15 1 5
v -13 1 5
v 10 1 5
v 12 1 5
v -16 8 7
v -15 8 7
v -13 8 7
v 10 8 7
v 12 8 7
v 13 8 7
v -16 8 5
v -15 8 5
v -13 8 5
v 10 8 5
v 12 8 5
v 13 8 5
v -11 18 10
v -8 18 10
v -3 18 10
v 0 18 10
v 5 18 10
v 8 18 10
v -11 18 8
v -10 18 8
v -9 18 8
v -8 18 8
v -3 18 8
v -2 18 8
v -1 18 8
v 0 18 8
v 5 18 8
v 6 18 8
v 7 18 8
v 8 18 8
v -10 18 7
v -9 18 7
v -2 18 7
v -1 18 7
v 6 18 7
v 7 18 7
v -11 19 10
v -8 19 10
v -3 19 10
v 0 19 10
v 5 19 10
v 8 19 10
v -11 19 8
v -10 19 8
v -9 19 8
v -8 19 8
v -3 19 8
v -2 19 8
v -1 19 8
v 0 19 8
v 5 19 8
v 6 19 8
v 7 19 8
v 8 19 8
v -16 19 7
v -15 19 7
v -10 19 7
v -9 19 7
v -2 19 7
v -1 19 7
v 6 19 7
v 7 19 7
v 12 19 7
v 13 19 7
v -16 19 5
v -15 19 5
v 12 19 5
v 13 19 5
v -15 20 7
v 12 20 7
v -15 20 5
v 12 20 5

# faces
f 3/2/1 2/2/1 1/2/1
f 4/2/1 2/2/1 3/2/1
f 7/1/1 6/1/1 5/1/1
f 8/1/1 6/1/1 7/1/1
f 11/2/1 10/2/1 9/2/1
f 12/2/1 10/2/1 11/2/1
f 15/4/1 14/4/1 13/4/1
f 16/4/1 14/4/1 15/4/1
f 19/4/1 18/4/1 17/4/1
f 20/4/1 18/4/1 19/4/1
f 23/4/1 22/4/1 21/4/1
f 24/4/1 22/4/1 23/4/1
f 27/4/1 26/4/1 25/4/1
f 28/4/1 26/4/1 27/4/1
f 31/4/1 30/4/1 29/4/1
f 32/4/1 30/4/1 31/4/1
f 35/4/1 34/4/1 33/4/1
f 36/4/1 34/4/1 35/4/1
f 39/1/1 38/1/1 37/1/1
f 40/1/1 38/1/1 39/1/1
f 41/1/2 42/1/2 43/1/2
f 43/1/2 42/1/2 44/1/2
f 45/4/2 46/4/2 47/4/2
f 47/4/2 46/4/2 48/4/2
f 49/4/2 50/4/2 51/4/2
f 51/4/2 50/4/2 52/4/2
f 53/4/2 54/4/2 55/4/2
f 55/4/2 54/4/2 56/4/2
f 57/4/2 58/4/2 59/4/2
f 59/4/2 58/4/2 60/4/2
f 61/4/2 62/4/2 63/4/2
f 63/4/2 62/4/2 64/4/2
f 65/4/2 66/4/2 67/4/2
f 67/4/2 66/4/2 68/4/2
f 69/1/2 70/1/2 71/1/2
f 71/1/2 70/1/2 72/1/2
f 73/2/2 74/2/2 75/2/2
f 75/2/2 74/2/2 76/2/2
f 77/2/2 78/2/2 79/2/2
f 79/2/2 78/2/2 80/2/2
f 83/4/3 82/4/3 81/4/3
f 84/4/3 82/4/3 83/4/3
f 87/4/3 86/4/3 85/4/3
f 88/4/3 86/4/3 87/4/3
f 91/4/3 90/4/3 89/4/3
f 92/4/3 90/4/3 91/4/3
f 96/2/3 94/2/3 93/2/3
f 97/2/3 94/2/3 96/2/3
f 99/1/3 96/1/3 95/1/3
f 100/3/3 97/3/3 96/3/3
f 100/1/3 96/1/3 99/1/3
f 101/3/3 97/3/3 100/3/3
f 102/2/3 98/2/3 97/2/3
f 102/3/3 97/3/3 101/3/3
f 103/3/3 101/3/3 100/3/3
f 104/2/3 98/2/3 102/2/3
f 105/3/3 103/3/3 100/3/3
f 105/3/3 104/3/3 103/3/3
f 106/2/3 98/2/3 104/2/3
f 106/3/3 104/3/3 105/3/3
f 107/3/3 105/3/3 100/3/3
f 108/2/3 98/2/3 106/2/3
f 109/3/3 107/3/3 100/3/3
f 109/3/3 108/3/3 107/3/3
f 110/2/3 98/2/3 108/2/3
f 110/3/3 108/3/3 109/3/3
f 111/3/3 109/3/3 100/3/3
f 112/2/3 98/2/3 110/2/3
f 114/3/3 111/3/3 100/3/3
f 114/3/3 112/3/3 111/3/3
f 115/1/3 114/1/3 113/1/3
f 116/3/3 112/3/3 114/3/3
f 116/1/3 114/1/3 115/1/3
f 117/2/3 98/2/3 112/2/3
f 117/3/3 112/3/3 116/3/3
f 118/2/3 98/2/3 117/2/3
f 119/2/3 117/2/3 116/2/3
f 120/2/3 117/2/3 119/2/3
f 121/4/4 122/4/4 123/4/4
f 123/4/4 122/4/4 124/4/4
f 125/4/4 126/4/4 127/4/4
f 127/4/4 126/4/4 128/4/4
f 129/4/4 130/4/4 131/4/4
f 131/4/4 130/4/4 132/4/4
f 133/4/4 134/4/4 135/4/4
f 135/4/4 134/4/4 136/4/4
f 137/4/4 138/4/4 139/4/4
f 139/4/4 138/4/4 140/4/4
f 141/4/4 142/4/4 143/4/4
f 143/4/4 142/4/4 144/4/4
f 145/2/4 146/2/4 148/2/4
f 148/2/4 146/2/4 149/2/4
f 147/1/4 148/1/4 151/1/4
f 148/3/4 149/3/4 152/3/4
f 151/1/4 148/1/4 152/1/4
f 152/3/4 149/3/4 154/3/4
f 153/1/4 154/1/4 155/1/4
f 154/3/4 149/3/4 156/3/4
f 155/1/4 154/1/4 156/1/4
f 149/2/4 150/2/4 157/2/4
f 156/3/4 149/3/4 157/3/4
f 157/2/4 150/2/4 158/2/4
f 156/2/4 157/2/4 159/2/4
f 159/2/4 157/2/4 160/2/4
f 165/1/5 162/1/5 161/1/5
f 166/1/5 162/1/5 165/1/5
f 167/1/5 164/1/5 163/1/5
f 168/1/5 164/1/5 167/1/5
f 175/2/5 170/2/5 169/2/5
f 176/2/5 170/2/5 175/2/5
f 177/3/5 172/3/5 171/3/5
f 178/3/5 172/3/5 177/3/5
f 179/2/5 174/2/5 173/2/5
f 180/2/5 174/2/5 179/2/5
f 187/4/5 182/4/5 181/4/5
f 188/4/5 182/4/5 187/4/5
f 189/4/5 182/4/5 188/4/5
f 190/4/5 182/4/5 189/4/5
f 191/4/5 184/4/5 183/4/5
f 192/4/5 184/4/5 191/4/5
f 193/4/5 184/4/5 192/4/5
f 194/4/5 184/4/5 193/4/5
f 195/4/5 186/4/5 185/4/5
f 196/4/5 186/4/5 195/4/5
f 197/4/5 186/4/5 196/4/5
f 198/4/5 186/4/5 197/4/5
f 199/4/5 189/4/5 188/4/5
f 200/4/5 189/4/5 199/4/5
f 201/4/5 193/4/5 192/4/5
f 202/4/5 193/4/5 201/4/5
f 203/4/5 197/4/5 196/4/5
f 204/4/5 197/4/5 203/4/5
f 205/4/6 206/4/6 211/4/6
f 211/4/6 206/4/6 212/4/6
f 212/4/6 206/4/6 213/4/6
f 213/4/6 206/4/6 214/4/6
f 207/4/6 208/4/6 215/4/6
f 215/4/6 208/4/6 216/4/6
f 216/4/6 208/4/6 217/4/6
f 217/4/6 208/4/6 218/4/6
f 209/4/6 210/4/6 219/4/6
f 219/4/6 210/4/6 220/4/6
f 220/4/6 210/4/6 221/4/6
f 221/4/6 210/4/6 222/4/6
f 212/4/6 213/4/6 225/4/6
f 225/4/6 213/4/6 226/4/6
f 216/4/6 217/4/6 227/4/6
f 227/4/6 217/4/6 228/4/6
f 220/4/6 221/4/6 229/4/6
f 229/4/6 221/4/6 230/4/6
f 223/2/6 224/2/6 233/2/6
f 233/2/6 224/2/6 234/2/6
f 231/2/6 232/2/6 235/2/6
f 235/2/6 232/2/6 236/2/6
f 237/2/6 238/2/6 239/2/6
f 239/2/6 238/2/6 240/2/6
