# MagicaVoxel @ Ephtracy

# material
mtllib Art_General_NoEntryDoor.mtl
usemtl palette

# normals
vn -1 0 0
vn 1 0 0
vn 0 0 1
vn 0 0 -1
vn 0 -1 0
vn 0 1 0

# texcoords
vt 0.306641 0.5
vt 0.400391 0.5

# verts
v -13 7 -0
v -13 7 -1
v -13 18 -0
v -13 18 -1
v -12 5 -0
v -12 5 -1
v -12 7 -0
v -12 7 -1
v -12 12 1
v -12 12 -0
v -12 16 1
v -12 16 -0
v -12 18 -0
v -12 18 -1
v -12 20 -0
v -12 20 -1
v -11 4 -0
v -11 4 -1
v -11 5 -0
v -11 5 -1
v -11 20 -0
v -11 20 -1
v -11 21 -0
v -11 21 -1
v -10 3 -0
v -10 3 -1
v -10 4 -0
v -10 4 -1
v -10 5 1
v -10 5 -0
v -10 10 1
v -10 10 -0
v -10 21 -0
v -10 21 -1
v -10 22 -0
v -10 22 -1
v -9 2 -0
v -9 2 -1
v -9 3 -0
v -9 3 -1
v -9 22 -0
v -9 22 -1
v -9 23 -0
v -9 23 -1
v -8 1 -0
v -8 1 -1
v -8 2 -0
v -8 2 -1
v -8 23 -0
v -8 23 -1
v -8 24 -0
v -8 24 -1
v -6 0 -0
v -6 0 -1
v -6 1 -0
v -6 1 -1
v -6 5 1
v -6 5 -0
v -6 10 1
v -6 10 -0
v -6 24 -0
v -6 24 -1
v -6 25 -0
v -6 25 -1
v -4 6 1
v -4 6 -0
v -4 7 1
v -4 7 -0
v -4 18 1
v -4 18 -0
v -4 23 1
v -4 23 -0
v -3 5 1
v -3 5 -0
v -3 6 1
v -3 6 -0
v -3 8 1
v -3 8 -0
v -3 10 1
v -3 10 -0
v -2 19 1
v -2 19 -0
v -2 20 1
v -2 20 -0
v -1 9 1
v -1 9 -0
v -1 10 1
v -1 10 -0
v -1 18 1
v -1 18 -0
v -1 19 1
v -1 19 -0
v -1 21 1
v -1 21 -0
v -1 23 1
v -1 23 -0
v 0 5 1
v 0 5 -0
v 0 9 1
v 0 9 -0
v 1 19 1
v 1 19 -0
v 1 22 1
v 1 22 -0
v 2 18 1
v 2 18 -0
v 2 19 1
v 2 19 -0
v 2 22 1
v 2 22 -0
v 2 23 1
v 2 23 -0
v 3 5 1
v 3 5 -0
v 3 10 1
v 3 10 -0
v 4 19 1
v 4 19 -0
v 4 22 1
v 4 22 -0
v 5 5 1
v 5 5 -0
v 5 7 1
v 5 7 -0
v 5 8 1
v 5 8 -0
v 5 9 1
v 5 9 -0
v 7 8 1
v 7 8 -0
v 7 10 1
v 7 10 -0
v 8 5 1
v 8 5 -0
v 8 8 1
v 8 8 -0
v 9 8 1
v 9 8 -0
v 9 10 1
v 9 10 -0
v -9 6 1
v -9 6 -0
v -9 7 1
v -9 7 -0
v -9 8 1
v -9 8 -0
v -9 9 1
v -9 9 -0
v -7 5 1
v -7 5 -0
v -7 6 1
v -7 6 -0
v -7 7 1
v -7 7 -0
v -7 8 1
v -7 8 -0
v -7 9 1
v -7 9 -0
v -7 10 1
v -7 10 -0
v -5 5 1
v -5 5 -0
v -5 7 1
v -5 7 -0
v -5 9 1
v -5 9 -0
v -5 10 1
v -5 10 -0
v -4 8 1
v -4 8 -0
v -4 9 1
v -4 9 -0
v -3 18 1
v -3 18 -0
v -3 20 1
v -3 20 -0
v -3 22 1
v -3 22 -0
v -3 23 1
v -3 23 -0
v -2 5 1
v -2 5 -0
v -2 10 1
v -2 10 -0
v -2 21 1
v -2 21 -0
v -2 22 1
v -2 22 -0
v 0 18 1
v 0 18 -0
v 0 23 1
v 0 23 -0
v 1 5 1
v 1 5 -0
v 1 9 1
v 1 9 -0
v 2 9 1
v 2 9 -0
v 2 10 1
v 2 10 -0
v 2 19 1
v 2 19 -0
v 2 22 1
v 2 22 -0
v 4 5 1
v 4 5 -0
v 4 7 1
v 4 7 -0
v 4 8 1
v 4 8 -0
v 4 9 1
v 4 9 -0
v 4 18 1
v 4 18 -0
v 4 19 1
v 4 19 -0
v 4 22 1
v 4 22 -0
v 4 23 1
v 4 23 -0
v 5 7 1
v 5 7 -0
v 5 8 1
v 5 8 -0
v 5 9 1
v 5 9 -0
v 5 10 1
v 5 10 -0
v 5 19 1
v 5 19 -0
v 5 22 1
v 5 22 -0
v 6 0 -0
v 6 0 -1
v 6 1 -0
v 6 1 -1
v 6 5 1
v 6 5 -0
v 6 7 1
v 6 7 -0
v 6 8 1
v 6 8 -0
v 6 9 1
v 6 9 -0
v 6 24 -0
v 6 24 -1
v 6 25 -0
v 6 25 -1
v 8 1 -0
v 8 1 -1
v 8 2 -0
v 8 2 -1
v 8 8 1
v 8 8 -0
v 8 10 1
v 8 10 -0
v 8 23 -0
v 8 23 -1
v 8 24 -0
v 8 24 -1
v 9 2 -0
v 9 2 -1
v 9 3 -0
v 9 3 -1
v 9 5 1
v 9 5 -0
v 9 8 1
v 9 8 -0
v 9 22 -0
v 9 22 -1
v 9 23 -0
v 9 23 -1
v 10 3 -0
v 10 3 -1
v 10 4 -0
v 10 4 -1
v 10 8 1
v 10 8 -0
v 10 10 1
v 10 10 -0
v 10 21 -0
v 10 21 -1
v 10 22 -0
v 10 22 -1
v 11 4 -0
v 11 4 -1
v 11 5 -0
v 11 5 -1
v 11 20 -0
v 11 20 -1
v 11 21 -0
v 11 21 -1
v 12 5 -0
v 12 5 -1
v 12 7 -0
v 12 7 -1
v 12 12 1
v 12 12 -0
v 12 16 1
v 12 16 -0
v 12 18 -0
v 12 18 -1
v 12 20 -0
v 12 20 -1
v 13 7 -0
v 13 7 -1
v 13 18 -0
v 13 18 -1
v -12 12 1
v -12 16 1
v -10 5 1
v -10 10 1
v -9 6 1
v -9 7 1
v -9 8 1
v -9 9 1
v -7 5 1
v -7 6 1
v -7 7 1
v -7 8 1
v -7 9 1
v -7 10 1
v -6 5 1
v -6 10 1
v -5 5 1
v -5 7 1
v -5 9 1
v -5 10 1
v -4 6 1
v -4 7 1
v -4 8 1
v -4 9 1
v -4 18 1
v -4 23 1
v -3 5 1
v -3 6 1
v -3 8 1
v -3 10 1
v -3 18 1
v -3 20 1
v -3 22 1
v -3 23 1
v -2 5 1
v -2 10 1
v -2 19 1
v -2 20 1
v -2 21 1
v -2 22 1
v -1 9 1
v -1 10 1
v -1 18 1
v -1 19 1
v -1 21 1
v -1 23 1
v 0 5 1
v 0 9 1
v 0 18 1
v 0 23 1
v 1 5 1
v 1 9 1
v 1 19 1
v 1 22 1
v 2 9 1
v 2 10 1
v 2 18 1
v 2 19 1
v 2 22 1
v 2 23 1
v 3 5 1
v 3 10 1
v 4 5 1
v 4 7 1
v 4 8 1
v 4 9 1
v 4 18 1
v 4 19 1
v 4 22 1
v 4 23 1
v 5 5 1
v 5 7 1
v 5 8 1
v 5 9 1
v 5 10 1
v 5 19 1
v 5 22 1
v 6 5 1
v 6 7 1
v 6 8 1
v 6 9 1
v 7 8 1
v 7 10 1
v 8 5 1
v 8 8 1
v 8 10 1
v 9 5 1
v 9 8 1
v 9 10 1
v 10 8 1
v 10 10 1
v 12 12 1
v 12 16 1
v -13 7 -0
v -13 18 -0
v -12 5 -0
v -12 7 -0
v -12 12 -0
v -12 16 -0
v -12 18 -0
v -12 20 -0
v -11 4 -0
v -11 5 -0
v -11 20 -0
v -11 21 -0
v -10 3 -0
v -10 4 -0
v -10 5 -0
v -10 10 -0
v -10 21 -0
v -10 22 -0
v -9 2 -0
v -9 3 -0
v -9 6 -0
v -9 7 -0
v -9 8 -0
v -9 9 -0
v -9 22 -0
v -9 23 -0
v -8 1 -0
v -8 2 -0
v -8 23 -0
v -8 24 -0
v -7 5 -0
v -7 6 -0
v -7 7 -0
v -7 8 -0
v -7 9 -0
v -7 10 -0
v -6 0 -0
v -6 1 -0
v -6 5 -0
v -6 10 -0
v -6 24 -0
v -6 25 -0
v -5 5 -0
v -5 7 -0
v -5 9 -0
v -5 10 -0
v -4 6 -0
v -4 7 -0
v -4 8 -0
v -4 9 -0
v -4 18 -0
v -4 23 -0
v -3 5 -0
v -3 6 -0
v -3 8 -0
v -3 10 -0
v -3 18 -0
v -3 20 -0
v -3 22 -0
v -3 23 -0
v -2 5 -0
v -2 10 -0
v -2 19 -0
v -2 20 -0
v -2 21 -0
v -2 22 -0
v -1 9 -0
v -1 10 -0
v -1 18 -0
v -1 19 -0
v -1 21 -0
v -1 23 -0
v 0 5 -0
v 0 9 -0
v 0 18 -0
v 0 23 -0
v 1 5 -0
v 1 9 -0
v 1 19 -0
v 1 22 -0
v 2 9 -0
v 2 10 -0
v 2 18 -0
v 2 19 -0
v 2 22 -0
v 2 23 -0
v 3 5 -0
v 3 10 -0
v 4 5 -0
v 4 7 -0
v 4 8 -0
v 4 9 -0
v 4 18 -0
v 4 19 -0
v 4 22 -0
v 4 23 -0
v 5 5 -0
v 5 7 -0
v 5 8 -0
v 5 9 -0
v 5 10 -0
v 5 19 -0
v 5 22 -0
v 6 0 -0
v 6 1 -0
v 6 5 -0
v 6 7 -0
v 6 8 -0
v 6 9 -0
v 6 24 -0
v 6 25 -0
v 7 8 -0
v 7 10 -0
v 8 1 -0
v 8 2 -0
v 8 5 -0
v 8 8 -0
v 8 10 -0
v 8 23 -0
v 8 24 -0
v 9 2 -0
v 9 3 -0
v 9 5 -0
v 9 8 -0
v 9 10 -0
v 9 22 -0
v 9 23 -0
v 10 3 -0
v 10 4 -0
v 10 8 -0
v 10 10 -0
v 10 21 -0
v 10 22 -0
v 11 4 -0
v 11 5 -0
v 11 20 -0
v 11 21 -0
v 12 5 -0
v 12 7 -0
v 12 12 -0
v 12 16 -0
v 12 18 -0
v 12 20 -0
v 13 7 -0
v 13 18 -0
v -13 7 -1
v -13 18 -1
v -12 5 -1
v -12 7 -1
v -12 18 -1
v -12 20 -1
v -11 4 -1
v -11 5 -1
v -11 20 -1
v -11 21 -1
v -10 3 -1
v -10 4 -1
v -10 21 -1
v -10 22 -1
v -9 2 -1
v -9 3 -1
v -9 22 -1
v -9 23 -1
v -8 1 -1
v -8 2 -1
v -8 23 -1
v -8 24 -1
v -6 0 -1
v -6 1 -1
v -6 24 -1
v -6 25 -1
v 6 0 -1
v 6 1 -1
v 6 24 -1
v 6 25 -1
v 8 1 -1
v 8 2 -1
v 8 23 -1
v 8 24 -1
v 9 2 -1
v 9 3 -1
v 9 22 -1
v 9 23 -1
v 10 3 -1
v 10 4 -1
v 10 21 -1
v 10 22 -1
v 11 4 -1
v 11 5 -1
v 11 20 -1
v 11 21 -1
v 12 5 -1
v 12 7 -1
v 12 18 -1
v 12 20 -1
v 13 7 -1
v 13 18 -1
v -6 0 -0
v 6 0 -0
v -6 0 -1
v 6 0 -1
v -8 1 -0
v -6 1 -0
v 6 1 -0
v 8 1 -0
v -8 1 -1
v -6 1 -1
v 6 1 -1
v 8 1 -1
v -9 2 -0
v -8 2 -0
v 8 2 -0
v 9 2 -0
v -9 2 -1
v -8 2 -1
v 8 2 -1
v 9 2 -1
v -10 3 -0
v -9 3 -0
v 9 3 -0
v 10 3 -0
v -10 3 -1
v -9 3 -1
v 9 3 -1
v 10 3 -1
v -11 4 -0
v -10 4 -0
v 10 4 -0
v 11 4 -0
v -11 4 -1
v -10 4 -1
v 10 4 -1
v 11 4 -1
v -10 5 1
v -7 5 1
v -6 5 1
v -5 5 1
v -3 5 1
v -2 5 1
v 0 5 1
v 1 5 1
v 3 5 1
v 4 5 1
v 5 5 1
v 6 5 1
v 8 5 1
v 9 5 1
v -12 5 -0
v -11 5 -0
v -10 5 -0
v -7 5 -0
v -6 5 -0
v -5 5 -0
v -3 5 -0
v -2 5 -0
v 0 5 -0
v 1 5 -0
v 3 5 -0
v 4 5 -0
v 5 5 -0
v 6 5 -0
v 8 5 -0
v 9 5 -0
v 11 5 -0
v 12 5 -0
v -12 5 -1
v -11 5 -1
v 11 5 -1
v 12 5 -1
v -4 6 1
v -3 6 1
v -4 6 -0
v -3 6 -0
v -9 7 1
v -7 7 1
v -5 7 1
v -4 7 1
v 4 7 1
v 5 7 1
v -13 7 -0
v -12 7 -0
v -9 7 -0
v -7 7 -0
v -5 7 -0
v -4 7 -0
v 4 7 -0
v 5 7 -0
v 12 7 -0
v 13 7 -0
v -13 7 -1
v -12 7 -1
v 12 7 -1
v 13 7 -1
v 5 8 1
v 6 8 1
v 7 8 1
v 8 8 1
v 9 8 1
v 10 8 1
v 5 8 -0
v 6 8 -0
v 7 8 -0
v 8 8 -0
v 9 8 -0
v 10 8 -0
v -9 9 1
v -7 9 1
v -1 9 1
v 0 9 1
v 1 9 1
v 2 9 1
v 4 9 1
v 5 9 1
v -9 9 -0
v -7 9 -0
v -1 9 -0
v 0 9 -0
v 1 9 -0
v 2 9 -0
v 4 9 -0
v 5 9 -0
v -12 12 1
v 12 12 1
v -12 12 -0
v 12 12 -0
v -4 18 1
v -3 18 1
v -1 18 1
v 0 18 1
v 2 18 1
v 4 18 1
v -4 18 -0
v -3 18 -0
v -1 18 -0
v 0 18 -0
v 2 18 -0
v 4 18 -0
v -2 19 1
v -1 19 1
v 1 19 1
v 2 19 1
v 4 19 1
v 5 19 1
v -2 19 -0
v -1 19 -0
v 1 19 -0
v 2 19 -0
v 4 19 -0
v 5 19 -0
v -3 20 1
v -2 20 1
v -3 20 -0
v -2 20 -0
v 2 22 1
v 4 22 1
v 2 22 -0
v 4 22 -0
v -9 6 1
v -7 6 1
v -9 6 -0
v -7 6 -0
v 5 7 1
v 6 7 1
v 5 7 -0
v 6 7 -0
v -9 8 1
v -7 8 1
v -4 8 1
v -3 8 1
v 4 8 1
v 5 8 1
v 8 8 1
v 9 8 1
v -9 8 -0
v -7 8 -0
v -4 8 -0
v -3 8 -0
v 4 8 -0
v 5 8 -0
v 8 8 -0
v 9 8 -0
v -5 9 1
v -4 9 1
v 5 9 1
v 6 9 1
v -5 9 -0
v -4 9 -0
v 5 9 -0
v 6 9 -0
v -10 10 1
v -7 10 1
v -6 10 1
v -5 10 1
v -3 10 1
v -2 10 1
v -1 10 1
v 2 10 1
v 3 10 1
v 5 10 1
v 7 10 1
v 8 10 1
v 9 10 1
v 10 10 1
v -10 10 -0
v -7 10 -0
v -6 10 -0
v -5 10 -0
v -3 10 -0
v -2 10 -0
v -1 10 -0
v 2 10 -0
v 3 10 -0
v 5 10 -0
v 7 10 -0
v 8 10 -0
v 9 10 -0
v 10 10 -0
v -12 16 1
v 12 16 1
v -12 16 -0
v 12 16 -0
v -13 18 -0
v -12 18 -0
v 12 18 -0
v 13 18 -0
v -13 18 -1
v -12 18 -1
v 12 18 -1
v 13 18 -1
v 2 19 1
v 4 19 1
v 2 19 -0
v 4 19 -0
v -12 20 -0
v -11 20 -0
v 11 20 -0
v 12 20 -0
v -12 20 -1
v -11 20 -1
v 11 20 -1
v 12 20 -1
v -2 21 1
v -1 21 1
v -11 21 -0
v -10 21 -0
v -2 21 -0
v -1 21 -0
v 10 21 -0
v 11 21 -0
v -11 21 -1
v -10 21 -1
v 10 21 -1
v 11 21 -1
v -3 22 1
v -2 22 1
v 1 22 1
v 2 22 1
v 4 22 1
v 5 22 1
v -10 22 -0
v -9 22 -0
v -3 22 -0
v -2 22 -0
v 1 22 -0
v 2 22 -0
v 4 22 -0
v 5 22 -0
v 9 22 -0
v 10 22 -0
v -10 22 -1
v -9 22 -1
v 9 22 -1
v 10 22 -1
v -4 23 1
v -3 23 1
v -1 23 1
v 0 23 1
v 2 23 1
v 4 23 1
v -9 23 -0
v -8 23 -0
v -4 23 -0
v -3 23 -0
v -1 23 -0
v 0 23 -0
v 2 23 -0
v 4 23 -0
v 8 23 -0
v 9 23 -0
v -9 23 -1
v -8 23 -1
v 8 23 -1
v 9 23 -1
v -8 24 -0
v -6 24 -0
v 6 24 -0
v 8 24 -0
v -8 24 -1
v -6 24 -1
v 6 24 -1
v 8 24 -1
v -6 25 -0
v 6 25 -0
v -6 25 -1
v 6 25 -1

# faces
f 3/1/1 2/1/1 1/1/1
f 4/1/1 2/1/1 3/1/1
f 7/1/1 6/1/1 5/1/1
f 8/1/1 6/1/1 7/1/1
f 11/2/1 10/2/1 9/2/1
f 12/2/1 10/2/1 11/2/1
f 15/1/1 14/1/1 13/1/1
f 16/1/1 14/1/1 15/1/1
f 19/1/1 18/1/1 17/1/1
f 20/1/1 18/1/1 19/1/1
f 23/1/1 22/1/1 21/1/1
f 24/1/1 22/1/1 23/1/1
f 27/1/1 26/1/1 25/1/1
f 28/1/1 26/1/1 27/1/1
f 31/2/1 30/2/1 29/2/1
f 32/2/1 30/2/1 31/2/1
f 35/1/1 34/1/1 33/1/1
f 36/1/1 34/1/1 35/1/1
f 39/1/1 38/1/1 37/1/1
f 40/1/1 38/1/1 39/1/1
f 43/1/1 42/1/1 41/1/1
f 44/1/1 42/1/1 43/1/1
f 47/1/1 46/1/1 45/1/1
f 48/1/1 46/1/1 47/1/1
f 51/1/1 50/1/1 49/1/1
f 52/1/1 50/1/1 51/1/1
f 55/1/1 54/1/1 53/1/1
f 56/1/1 54/1/1 55/1/1
f 59/2/1 58/2/1 57/2/1
f 60/2/1 58/2/1 59/2/1
f 63/1/1 62/1/1 61/1/1
f 64/1/1 62/1/1 63/1/1
f 67/2/1 66/2/1 65/2/1
f 68/2/1 66/2/1 67/2/1
f 71/2/1 70/2/1 69/2/1
f 72/2/1 70/2/1 71/2/1
f 75/2/1 74/2/1 73/2/1
f 76/2/1 74/2/1 75/2/1
f 79/2/1 78/2/1 77/2/1
f 80/2/1 78/2/1 79/2/1
f 83/2/1 82/2/1 81/2/1
f 84/2/1 82/2/1 83/2/1
f 87/2/1 86/2/1 85/2/1
f 88/2/1 86/2/1 87/2/1
f 91/2/1 90/2/1 89/2/1
f 92/2/1 90/2/1 91/2/1
f 95/2/1 94/2/1 93/2/1
f 96/2/1 94/2/1 95/2/1
f 99/2/1 98/2/1 97/2/1
f 100/2/1 98/2/1 99/2/1
f 103/2/1 102/2/1 101/2/1
f 104/2/1 102/2/1 103/2/1
f 107/2/1 106/2/1 105/2/1
f 108/2/1 106/2/1 107/2/1
f 111/2/1 110/2/1 109/2/1
f 112/2/1 110/2/1 111/2/1
f 115/2/1 114/2/1 113/2/1
f 116/2/1 114/2/1 115/2/1
f 119/2/1 118/2/1 117/2/1
f 120/2/1 118/2/1 119/2/1
f 123/2/1 122/2/1 121/2/1
f 124/2/1 122/2/1 123/2/1
f 127/2/1 126/2/1 125/2/1
f 128/2/1 126/2/1 127/2/1
f 131/2/1 130/2/1 129/2/1
f 132/2/1 130/2/1 131/2/1
f 135/2/1 134/2/1 133/2/1
f 136/2/1 134/2/1 135/2/1
f 139/2/1 138/2/1 137/2/1
f 140/2/1 138/2/1 139/2/1
f 141/2/2 142/2/2 143/2/2
f 143/2/2 142/2/2 144/2/2
f 145/2/2 146/2/2 147/2/2
f 147/2/2 146/2/2 148/2/2
f 149/2/2 150/2/2 151/2/2
f 151/2/2 150/2/2 152/2/2
f 153/2/2 154/2/2 155/2/2
f 155/2/2 154/2/2 156/2/2
f 157/2/2 158/2/2 159/2/2
f 159/2/2 158/2/2 160/2/2
f 161/2/2 162/2/2 163/2/2
f 163/2/2 162/2/2 164/2/2
f 165/2/2 166/2/2 167/2/2
f 167/2/2 166/2/2 168/2/2
f 169/2/2 170/2/2 171/2/2
f 171/2/2 170/2/2 172/2/2
f 173/2/2 174/2/2 175/2/2
f 175/2/2 174/2/2 176/2/2
f 177/2/2 178/2/2 179/2/2
f 179/2/2 178/2/2 180/2/2
f 181/2/2 182/2/2 183/2/2
f 183/2/2 182/2/2 184/2/2
f 185/2/2 186/2/2 187/2/2
f 187/2/2 186/2/2 188/2/2
f 189/2/2 190/2/2 191/2/2
f 191/2/2 190/2/2 192/2/2
f 193/2/2 194/2/2 195/2/2
f 195/2/2 194/2/2 196/2/2
f 197/2/2 198/2/2 199/2/2
f 199/2/2 198/2/2 200/2/2
f 201/2/2 202/2/2 203/2/2
f 203/2/2 202/2/2 204/2/2
f 205/2/2 206/2/2 207/2/2
f 207/2/2 206/2/2 208/2/2
f 209/2/2 210/2/2 211/2/2
f 211/2/2 210/2/2 212/2/2
f 213/2/2 214/2/2 215/2/2
f 215/2/2 214/2/2 216/2/2
f 217/2/2 218/2/2 219/2/2
f 219/2/2 218/2/2 220/2/2
f 221/2/2 222/2/2 223/2/2
f 223/2/2 222/2/2 224/2/2
f 225/2/2 226/2/2 227/2/2
f 227/2/2 226/2/2 228/2/2
f 229/2/2 230/2/2 231/2/2
f 231/2/2 230/2/2 232/2/2
f 233/1/2 234/1/2 235/1/2
f 235/1/2 234/1/2 236/1/2
f 237/2/2 238/2/2 239/2/2
f 239/2/2 238/2/2 240/2/2
f 241/2/2 242/2/2 243/2/2
f 243/2/2 242/2/2 244/2/2
f 245/1/2 246/1/2 247/1/2
f 247/1/2 246/1/2 248/1/2
f 249/1/2 250/1/2 251/1/2
f 251/1/2 250/1/2 252/1/2
f 253/2/2 254/2/2 255/2/2
f 255/2/2 254/2/2 256/2/2
f 257/1/2 258/1/2 259/1/2
f 259/1/2 258/1/2 260/1/2
f 261/1/2 262/1/2 263/1/2
f 263/1/2 262/1/2 264/1/2
f 265/2/2 266/2/2 267/2/2
f 267/2/2 266/2/2 268/2/2
f 269/1/2 270/1/2 271/1/2
f 271/1/2 270/1/2 272/1/2
f 273/1/2 274/1/2 275/1/2
f 275/1/2 274/1/2 276/1/2
f 277/2/2 278/2/2 279/2/2
f 279/2/2 278/2/2 280/2/2
f 281/1/2 282/1/2 283/1/2
f 283/1/2 282/1/2 284/1/2
f 285/1/2 286/1/2 287/1/2
f 287/1/2 286/1/2 288/1/2
f 289/1/2 290/1/2 291/1/2
f 291/1/2 290/1/2 292/1/2
f 293/1/2 294/1/2 295/1/2
f 295/1/2 294/1/2 296/1/2
f 297/2/2 298/2/2 299/2/2
f 299/2/2 298/2/2 300/2/2
f 301/1/2 302/1/2 303/1/2
f 303/1/2 302/1/2 304/1/2
f 305/1/2 306/1/2 307/1/2
f 307/1/2 306/1/2 308/1/2
f 313/2/3 312/2/3 311/2/3
f 314/2/3 312/2/3 313/2/3
f 315/2/3 312/2/3 314/2/3
f 316/2/3 312/2/3 315/2/3
f 317/2/3 313/2/3 311/2/3
f 318/2/3 313/2/3 317/2/3
f 319/2/3 315/2/3 314/2/3
f 320/2/3 315/2/3 319/2/3
f 321/2/3 312/2/3 316/2/3
f 322/2/3 312/2/3 321/2/3
f 325/2/3 324/2/3 323/2/3
f 326/2/3 324/2/3 325/2/3
f 327/2/3 324/2/3 326/2/3
f 328/2/3 324/2/3 327/2/3
f 330/2/3 327/2/3 326/2/3
f 331/2/3 327/2/3 330/2/3
f 332/2/3 327/2/3 331/2/3
f 336/2/3 331/2/3 330/2/3
f 336/2/3 330/2/3 329/2/3
f 337/2/3 331/2/3 336/2/3
f 339/2/3 334/2/3 333/2/3
f 340/2/3 334/2/3 339/2/3
f 341/2/3 334/2/3 340/2/3
f 342/2/3 334/2/3 341/2/3
f 343/2/3 338/2/3 337/2/3
f 343/2/3 336/2/3 335/2/3
f 343/2/3 337/2/3 336/2/3
f 344/2/3 338/2/3 343/2/3
f 346/2/3 341/2/3 340/2/3
f 347/2/3 341/2/3 346/2/3
f 348/2/3 341/2/3 347/2/3
f 352/2/3 346/2/3 345/2/3
f 352/2/3 347/2/3 346/2/3
f 353/2/3 347/2/3 352/2/3
f 356/2/3 350/2/3 349/2/3
f 357/2/3 353/2/3 352/2/3
f 357/2/3 354/2/3 353/2/3
f 357/2/3 352/2/3 351/2/3
f 358/2/3 354/2/3 357/2/3
f 359/2/3 356/2/3 355/2/3
f 360/2/3 350/2/3 356/2/3
f 360/2/3 356/2/3 359/2/3
f 363/2/3 350/2/3 360/2/3
f 364/2/3 350/2/3 363/2/3
f 366/2/3 362/2/3 361/2/3
f 367/2/3 362/2/3 366/2/3
f 371/2/3 370/2/3 369/2/3
f 372/2/3 370/2/3 371/2/3
f 373/2/3 370/2/3 372/2/3
f 374/2/3 370/2/3 373/2/3
f 375/2/3 366/2/3 365/2/3
f 376/2/3 366/2/3 375/2/3
f 377/2/3 368/2/3 367/2/3
f 378/2/3 368/2/3 377/2/3
f 380/2/3 373/2/3 372/2/3
f 381/2/3 373/2/3 380/2/3
f 382/2/3 370/2/3 374/2/3
f 383/2/3 370/2/3 382/2/3
f 384/2/3 377/2/3 376/2/3
f 385/2/3 377/2/3 384/2/3
f 386/2/3 380/2/3 379/2/3
f 387/2/3 380/2/3 386/2/3
f 388/2/3 382/2/3 381/2/3
f 389/2/3 382/2/3 388/2/3
f 393/2/3 391/2/3 390/2/3
f 394/2/3 391/2/3 393/2/3
f 395/2/3 393/2/3 392/2/3
f 396/2/3 393/2/3 395/2/3
f 398/2/3 397/2/3 396/2/3
f 399/2/3 397/2/3 398/2/3
f 400/2/3 310/2/3 309/2/3
f 401/2/3 310/2/3 400/2/3
f 405/1/3 403/1/3 402/1/3
f 406/1/3 403/1/3 405/1/3
f 407/1/3 403/1/3 406/1/3
f 408/1/3 403/1/3 407/1/3
f 411/1/3 405/1/3 404/1/3
f 411/1/3 406/1/3 405/1/3
f 412/1/3 408/1/3 407/1/3
f 412/1/3 409/1/3 408/1/3
f 415/1/3 411/1/3 410/1/3
f 416/1/3 406/1/3 411/1/3
f 416/1/3 411/1/3 415/1/3
f 417/1/3 406/1/3 416/1/3
f 418/1/3 413/1/3 412/1/3
f 421/1/3 415/1/3 414/1/3
f 421/1/3 416/1/3 415/1/3
f 426/1/3 419/1/3 418/1/3
f 429/1/3 421/1/3 420/1/3
f 430/1/3 427/1/3 426/1/3
f 432/1/3 416/1/3 421/1/3
f 432/1/3 429/1/3 428/1/3
f 432/1/3 421/1/3 429/1/3
f 433/1/3 423/1/3 422/1/3
f 434/1/3 423/1/3 433/1/3
f 435/1/3 425/1/3 424/1/3
f 436/1/3 425/1/3 435/1/3
f 437/1/3 406/1/3 417/1/3
f 439/1/3 436/1/3 435/1/3
f 439/1/3 437/1/3 436/1/3
f 439/1/3 434/1/3 433/1/3
f 439/1/3 432/1/3 428/1/3
f 439/1/3 435/1/3 434/1/3
f 439/1/3 433/1/3 432/1/3
f 440/1/3 437/1/3 439/1/3
f 441/1/3 406/1/3 437/1/3
f 441/1/3 437/1/3 440/1/3
f 442/1/3 431/1/3 430/1/3
f 444/1/3 440/1/3 439/1/3
f 444/1/3 439/1/3 438/1/3
f 447/1/3 406/1/3 441/1/3
f 448/1/3 445/1/3 444/1/3
f 449/1/3 445/1/3 448/1/3
f 451/1/3 447/1/3 446/1/3
f 452/1/3 443/1/3 442/1/3
f 452/1/3 418/1/3 412/1/3
f 452/1/3 412/1/3 407/1/3
f 452/1/3 430/1/3 426/1/3
f 452/1/3 426/1/3 418/1/3
f 452/1/3 442/1/3 430/1/3
f 453/1/3 443/1/3 452/1/3
f 454/1/3 448/1/3 444/1/3
f 454/1/3 444/1/3 438/1/3
f 455/1/3 448/1/3 454/1/3
f 456/1/3 451/1/3 450/1/3
f 457/1/3 447/1/3 451/1/3
f 457/1/3 451/1/3 456/1/3
f 457/1/3 406/1/3 447/1/3
f 458/1/3 452/1/3 407/1/3
f 461/1/3 443/1/3 453/1/3
f 462/1/3 454/1/3 438/1/3
f 463/1/3 406/1/3 457/1/3
f 464/1/3 459/1/3 458/1/3
f 465/1/3 459/1/3 464/1/3
f 467/1/3 461/1/3 460/1/3
f 468/1/3 463/1/3 462/1/3
f 469/1/3 406/1/3 463/1/3
f 469/1/3 463/1/3 468/1/3
f 470/1/3 458/1/3 407/1/3
f 470/1/3 464/1/3 458/1/3
f 471/1/3 464/1/3 470/1/3
f 472/1/3 467/1/3 466/1/3
f 473/1/3 461/1/3 467/1/3
f 473/1/3 467/1/3 472/1/3
f 473/1/3 443/1/3 461/1/3
f 474/1/3 462/1/3 438/1/3
f 474/1/3 468/1/3 462/1/3
f 475/1/3 468/1/3 474/1/3
f 476/1/3 470/1/3 407/1/3
f 477/1/3 443/1/3 473/1/3
f 478/1/3 474/1/3 438/1/3
f 480/1/3 477/1/3 476/1/3
f 481/1/3 477/1/3 480/1/3
f 482/1/3 479/1/3 478/1/3
f 483/1/3 406/1/3 469/1/3
f 484/1/3 476/1/3 407/1/3
f 484/1/3 480/1/3 476/1/3
f 485/1/3 480/1/3 484/1/3
f 486/1/3 477/1/3 481/1/3
f 487/1/3 443/1/3 477/1/3
f 487/1/3 477/1/3 486/1/3
f 488/1/3 483/1/3 482/1/3
f 488/1/3 482/1/3 478/1/3
f 488/1/3 478/1/3 438/1/3
f 489/1/3 406/1/3 483/1/3
f 489/1/3 483/1/3 488/1/3
f 490/1/3 488/1/3 438/1/3
f 494/1/3 484/1/3 407/1/3
f 495/1/3 486/1/3 485/1/3
f 496/1/3 486/1/3 495/1/3
f 497/1/3 443/1/3 487/1/3
f 498/1/3 490/1/3 438/1/3
f 498/1/3 491/1/3 490/1/3
f 499/1/3 491/1/3 498/1/3
f 500/1/3 493/1/3 492/1/3
f 501/1/3 493/1/3 500/1/3
f 502/1/3 406/1/3 489/1/3
f 503/1/3 495/1/3 494/1/3
f 504/1/3 497/1/3 496/1/3
f 505/1/3 498/1/3 438/1/3
f 506/1/3 498/1/3 505/1/3
f 507/1/3 498/1/3 506/1/3
f 508/1/3 500/1/3 499/1/3
f 509/1/3 500/1/3 508/1/3
f 510/1/3 502/1/3 501/1/3
f 511/1/3 504/1/3 503/1/3
f 511/1/3 497/1/3 504/1/3
f 511/1/3 443/1/3 497/1/3
f 512/1/3 443/1/3 511/1/3
f 513/1/3 510/1/3 509/1/3
f 513/1/3 509/1/3 508/1/3
f 513/1/3 507/1/3 506/1/3
f 513/1/3 508/1/3 507/1/3
f 514/1/3 502/1/3 510/1/3
f 514/1/3 510/1/3 513/1/3
f 514/1/3 406/1/3 502/1/3
f 515/1/3 513/1/3 506/1/3
f 516/1/3 513/1/3 515/1/3
f 517/1/3 513/1/3 516/1/3
f 518/1/3 513/1/3 517/1/3
f 519/1/3 406/1/3 514/1/3
f 520/1/3 511/1/3 503/1/3
f 521/1/3 511/1/3 520/1/3
f 522/1/3 517/1/3 516/1/3
f 523/1/3 517/1/3 522/1/3
f 524/1/3 517/1/3 523/1/3
f 525/1/3 519/1/3 518/1/3
f 526/1/3 406/1/3 519/1/3
f 526/1/3 519/1/3 525/1/3
f 527/1/3 520/1/3 503/1/3
f 528/1/3 520/1/3 527/1/3
f 529/1/3 524/1/3 523/1/3
f 529/1/3 525/1/3 524/1/3
f 530/1/3 525/1/3 529/1/3
f 531/1/3 525/1/3 530/1/3
f 532/1/3 406/1/3 526/1/3
f 533/1/3 527/1/3 503/1/3
f 534/1/3 527/1/3 533/1/3
f 535/1/3 531/1/3 530/1/3
f 535/1/3 532/1/3 531/1/3
f 536/1/3 532/1/3 535/1/3
f 537/1/3 533/1/3 503/1/3
f 538/1/3 533/1/3 537/1/3
f 539/1/3 532/1/3 536/1/3
f 540/1/3 532/1/3 539/1/3
f 541/1/3 406/1/3 532/1/3
f 541/1/3 532/1/3 540/1/3
f 542/1/3 503/1/3 494/1/3
f 542/1/3 494/1/3 407/1/3
f 542/1/3 537/1/3 503/1/3
f 543/1/3 537/1/3 542/1/3
f 544/1/3 537/1/3 543/1/3
f 545/1/3 541/1/3 540/1/3
f 545/1/3 543/1/3 542/1/3
f 545/1/3 542/1/3 541/1/3
f 546/1/3 543/1/3 545/1/3
f 547/1/4 548/1/4 550/1/4
f 550/1/4 548/1/4 551/1/4
f 549/1/4 550/1/4 554/1/4
f 551/1/4 552/1/4 554/1/4
f 550/1/4 551/1/4 554/1/4
f 554/1/4 552/1/4 555/1/4
f 553/1/4 554/1/4 558/1/4
f 555/1/4 556/1/4 558/1/4
f 554/1/4 555/1/4 558/1/4
f 558/1/4 556/1/4 559/1/4
f 557/1/4 558/1/4 562/1/4
f 559/1/4 560/1/4 562/1/4
f 558/1/4 559/1/4 562/1/4
f 562/1/4 560/1/4 563/1/4
f 561/1/4 562/1/4 566/1/4
f 563/1/4 564/1/4 566/1/4
f 562/1/4 563/1/4 566/1/4
f 566/1/4 564/1/4 567/1/4
f 565/1/4 566/1/4 570/1/4
f 567/1/4 568/1/4 570/1/4
f 566/1/4 567/1/4 570/1/4
f 570/1/4 568/1/4 571/1/4
f 569/1/4 570/1/4 573/1/4
f 571/1/4 572/1/4 573/1/4
f 570/1/4 571/1/4 573/1/4
f 573/1/4 572/1/4 574/1/4
f 574/1/4 572/1/4 575/1/4
f 575/1/4 572/1/4 576/1/4
f 574/1/4 575/1/4 577/1/4
f 577/1/4 575/1/4 578/1/4
f 578/1/4 575/1/4 579/1/4
f 579/1/4 575/1/4 580/1/4
f 578/1/4 579/1/4 581/1/4
f 581/1/4 579/1/4 582/1/4
f 582/1/4 579/1/4 583/1/4
f 583/1/4 579/1/4 584/1/4
f 582/1/4 583/1/4 585/1/4
f 585/1/4 583/1/4 586/1/4
f 586/1/4 583/1/4 587/1/4
f 587/1/4 583/1/4 588/1/4
f 586/1/4 587/1/4 589/1/4
f 589/1/4 587/1/4 590/1/4
f 590/1/4 587/1/4 591/1/4
f 591/1/4 587/1/4 592/1/4
f 590/1/4 591/1/4 593/1/4
f 593/1/4 591/1/4 594/1/4
f 594/1/4 591/1/4 595/1/4
f 595/1/4 591/1/4 596/1/4
f 594/1/4 595/1/4 597/1/4
f 597/1/4 595/1/4 598/1/4
f 601/1/5 600/1/5 599/1/5
f 602/1/5 600/1/5 601/1/5
f 607/1/5 604/1/5 603/1/5
f 608/1/5 604/1/5 607/1/5
f 609/1/5 606/1/5 605/1/5
f 610/1/5 606/1/5 609/1/5
f 615/1/5 612/1/5 611/1/5
f 616/1/5 612/1/5 615/1/5
f 617/1/5 614/1/5 613/1/5
f 618/1/5 614/1/5 617/1/5
f 623/1/5 620/1/5 619/1/5
f 624/1/5 620/1/5 623/1/5
f 625/1/5 622/1/5 621/1/5
f 626/1/5 622/1/5 625/1/5
f 631/1/5 628/1/5 627/1/5
f 632/1/5 628/1/5 631/1/5
f 633/1/5 630/1/5 629/1/5
f 634/1/5 630/1/5 633/1/5
f 651/2/5 636/2/5 635/2/5
f 652/2/5 636/2/5 651/2/5
f 653/2/5 638/2/5 637/2/5
f 654/2/5 638/2/5 653/2/5
f 655/2/5 640/2/5 639/2/5
f 656/2/5 640/2/5 655/2/5
f 657/2/5 642/2/5 641/2/5
f 658/2/5 642/2/5 657/2/5
f 659/2/5 644/2/5 643/2/5
f 660/2/5 644/2/5 659/2/5
f 661/2/5 646/2/5 645/2/5
f 662/2/5 646/2/5 661/2/5
f 663/2/5 648/2/5 647/2/5
f 664/2/5 648/2/5 663/2/5
f 667/1/5 650/1/5 649/1/5
f 668/1/5 650/1/5 667/1/5
f 669/1/5 666/1/5 665/1/5
f 670/1/5 666/1/5 669/1/5
f 673/2/5 672/2/5 671/2/5
f 674/2/5 672/2/5 673/2/5
f 683/2/5 676/2/5 675/2/5
f 684/2/5 676/2/5 683/2/5
f 685/2/5 678/2/5 677/2/5
f 686/2/5 678/2/5 685/2/5
f 687/2/5 680/2/5 679/2/5
f 688/2/5 680/2/5 687/2/5
f 691/1/5 682/1/5 681/1/5
f 692/1/5 682/1/5 691/1/5
f 693/1/5 690/1/5 689/1/5
f 694/1/5 690/1/5 693/1/5
f 701/2/5 696/2/5 695/2/5
f 702/2/5 696/2/5 701/2/5
f 703/2/5 698/2/5 697/2/5
f 704/2/5 698/2/5 703/2/5
f 705/2/5 700/2/5 699/2/5
f 706/2/5 700/2/5 705/2/5
f 715/2/5 708/2/5 707/2/5
f 716/2/5 708/2/5 715/2/5
f 717/2/5 710/2/5 709/2/5
f 718/2/5 710/2/5 717/2/5
f 719/2/5 712/2/5 711/2/5
f 720/2/5 712/2/5 719/2/5
f 721/2/5 714/2/5 713/2/5
f 722/2/5 714/2/5 721/2/5
f 725/2/5 724/2/5 723/2/5
f 726/2/5 724/2/5 725/2/5
f 733/2/5 728/2/5 727/2/5
f 734/2/5 728/2/5 733/2/5
f 735/2/5 730/2/5 729/2/5
f 736/2/5 730/2/5 735/2/5
f 737/2/5 732/2/5 731/2/5
f 738/2/5 732/2/5 737/2/5
f 745/2/5 740/2/5 739/2/5
f 746/2/5 740/2/5 745/2/5
f 747/2/5 742/2/5 741/2/5
f 748/2/5 742/2/5 747/2/5
f 749/2/5 744/2/5 743/2/5
f 750/2/5 744/2/5 749/2/5
f 753/2/5 752/2/5 751/2/5
f 754/2/5 752/2/5 753/2/5
f 757/2/5 756/2/5 755/2/5
f 758/2/5 756/2/5 757/2/5
f 759/2/6 760/2/6 761/2/6
f 761/2/6 760/2/6 762/2/6
f 763/2/6 764/2/6 765/2/6
f 765/2/6 764/2/6 766/2/6
f 767/2/6 768/2/6 775/2/6
f 775/2/6 768/2/6 776/2/6
f 769/2/6 770/2/6 777/2/6
f 777/2/6 770/2/6 778/2/6
f 771/2/6 772/2/6 779/2/6
f 779/2/6 772/2/6 780/2/6
f 773/2/6 774/2/6 781/2/6
f 781/2/6 774/2/6 782/2/6
f 783/2/6 784/2/6 787/2/6
f 787/2/6 784/2/6 788/2/6
f 785/2/6 786/2/6 789/2/6
f 789/2/6 786/2/6 790/2/6
f 791/2/6 792/2/6 805/2/6
f 805/2/6 792/2/6 806/2/6
f 793/2/6 794/2/6 807/2/6
f 807/2/6 794/2/6 808/2/6
f 795/2/6 796/2/6 809/2/6
f 809/2/6 796/2/6 810/2/6
f 797/2/6 798/2/6 811/2/6
f 811/2/6 798/2/6 812/2/6
f 799/2/6 800/2/6 813/2/6
f 813/2/6 800/2/6 814/2/6
f 801/2/6 802/2/6 815/2/6
f 815/2/6 802/2/6 816/2/6
f 803/2/6 804/2/6 817/2/6
f 817/2/6 804/2/6 818/2/6
f 819/2/6 820/2/6 821/2/6
f 821/2/6 820/2/6 822/2/6
f 823/1/6 824/1/6 827/1/6
f 827/1/6 824/1/6 828/1/6
f 825/1/6 826/1/6 829/1/6
f 829/1/6 826/1/6 830/1/6
f 831/2/6 832/2/6 833/2/6
f 833/2/6 832/2/6 834/2/6
f 835/1/6 836/1/6 839/1/6
f 839/1/6 836/1/6 840/1/6
f 837/1/6 838/1/6 841/1/6
f 841/1/6 838/1/6 842/1/6
f 843/2/6 844/2/6 847/2/6
f 847/2/6 844/2/6 848/2/6
f 845/1/6 846/1/6 851/1/6
f 851/1/6 846/1/6 852/1/6
f 849/1/6 850/1/6 853/1/6
f 853/1/6 850/1/6 854/1/6
f 855/2/6 856/2/6 863/2/6
f 863/2/6 856/2/6 864/2/6
f 857/2/6 858/2/6 865/2/6
f 865/2/6 858/2/6 866/2/6
f 859/2/6 860/2/6 867/2/6
f 867/2/6 860/2/6 868/2/6
f 861/1/6 862/1/6 871/1/6
f 871/1/6 862/1/6 872/1/6
f 869/1/6 870/1/6 873/1/6
f 873/1/6 870/1/6 874/1/6
f 875/2/6 876/2/6 883/2/6
f 883/2/6 876/2/6 884/2/6
f 877/2/6 878/2/6 885/2/6
f 885/2/6 878/2/6 886/2/6
f 879/2/6 880/2/6 887/2/6
f 887/2/6 880/2/6 888/2/6
f 881/1/6 882/1/6 891/1/6
f 891/1/6 882/1/6 892/1/6
f 889/1/6 890/1/6 893/1/6
f 893/1/6 890/1/6 894/1/6
f 895/1/6 896/1/6 899/1/6
f 899/1/6 896/1/6 900/1/6
f 897/1/6 898/1/6 901/1/6
f 901/1/6 898/1/6 902/1/6
f 903/1/6 904/1/6 905/1/6
f 905/1/6 904/1/6 906/1/6
