# MagicaVoxel @ Ephtracy

# material
mtllib SmallDoor.mtl
usemtl palette

# normals
vn -1 0 0
vn 1 0 0
vn 0 0 1
vn 0 0 -1
vn 0 -1 0
vn 0 1 0

# texcoords
vt 0.412109 0.5
vt 0.416016 0.5
vt 0.423828 0.5

# verts
v -5 0 23
v -5 0 22
v -5 12 23
v -5 12 22
v -4 1 22
v -4 1 19
v -4 11 22
v -4 11 19
v -3 5 24
v -3 5 23
v -3 6 24
v -3 6 23
v -2 5 24
v -2 5 23
v -2 6 24
v -2 6 23
v 4 1 22
v 4 1 19
v 4 11 22
v 4 11 19
v 5 0 23
v 5 0 22
v 5 12 23
v 5 12 22
v -3 5 24
v -3 6 24
v -2 5 24
v -2 6 24
v -5 0 23
v -5 12 23
v -4 1 23
v -4 11 23
v -3 2 23
v -3 4 23
v -3 5 23
v -3 6 23
v -3 7 23
v -3 10 23
v -2 5 23
v -2 6 23
v -2 8 23
v -2 9 23
v 2 8 23
v 2 9 23
v 3 2 23
v 3 4 23
v 3 7 23
v 3 10 23
v 4 1 23
v 4 11 23
v 5 0 23
v 5 12 23
v -5 0 22
v -5 12 22
v -4 1 22
v -4 11 22
v 4 1 22
v 4 11 22
v 5 0 22
v 5 12 22
v -4 1 19
v -4 11 19
v 4 1 19
v 4 11 19
v -5 0 23
v 5 0 23
v -5 0 22
v 5 0 22
v -4 1 22
v 4 1 22
v -4 1 19
v 4 1 19
v -3 5 24
v -2 5 24
v -3 5 23
v -2 5 23
v -3 6 24
v -2 6 24
v -3 6 23
v -2 6 23
v -4 11 22
v 4 11 22
v -4 11 19
v 4 11 19
v -5 12 23
v 5 12 23
v -5 12 22
v 5 12 22

# faces
f 3/3/1 2/3/1 1/3/1
f 4/3/1 2/3/1 3/3/1
f 7/1/1 6/1/1 5/1/1
f 8/1/1 6/1/1 7/1/1
f 11/3/1 10/3/1 9/3/1
f 12/3/1 10/3/1 11/3/1
f 13/3/2 14/3/2 15/3/2
f 15/3/2 14/3/2 16/3/2
f 17/1/2 18/1/2 19/1/2
f 19/1/2 18/1/2 20/1/2
f 21/3/2 22/3/2 23/3/2
f 23/3/2 22/3/2 24/3/2
f 27/3/3 26/3/3 25/3/3
f 28/3/3 26/3/3 27/3/3
f 31/3/3 30/3/3 29/3/3
f 32/3/3 30/3/3 31/3/3
f 33/1/3 32/1/3 31/1/3
f 34/1/3 32/1/3 33/1/3
f 35/1/3 32/1/3 34/1/3
f 36/1/3 32/1/3 35/1/3
f 37/1/3 32/1/3 36/1/3
f 38/1/3 32/1/3 37/1/3
f 39/1/3 35/1/3 34/1/3
f 40/1/3 37/1/3 36/1/3
f 41/2/3 38/2/3 37/2/3
f 42/2/3 38/2/3 41/2/3
f 43/2/3 41/2/3 37/2/3
f 43/1/3 42/1/3 41/1/3
f 44/2/3 38/2/3 42/2/3
f 44/1/3 42/1/3 43/1/3
f 45/1/3 33/1/3 31/1/3
f 45/2/3 34/2/3 33/2/3
f 46/1/3 40/1/3 39/1/3
f 46/2/3 34/2/3 45/2/3
f 46/1/3 39/1/3 34/1/3
f 47/2/3 44/2/3 43/2/3
f 47/1/3 40/1/3 46/1/3
f 47/2/3 43/2/3 37/2/3
f 47/1/3 37/1/3 40/1/3
f 48/2/3 38/2/3 44/2/3
f 48/2/3 44/2/3 47/2/3
f 48/1/3 32/1/3 38/1/3
f 49/3/3 31/3/3 29/3/3
f 49/1/3 47/1/3 46/1/3
f 49/1/3 48/1/3 47/1/3
f 49/1/3 45/1/3 31/1/3
f 49/1/3 46/1/3 45/1/3
f 50/1/3 32/1/3 48/1/3
f 50/1/3 48/1/3 49/1/3
f 50/3/3 30/3/3 32/3/3
f 51/3/3 49/3/3 29/3/3
f 51/3/3 50/3/3 49/3/3
f 52/3/3 30/3/3 50/3/3
f 52/3/3 50/3/3 51/3/3
f 53/3/4 54/3/4 55/3/4
f 55/3/4 54/3/4 56/3/4
f 53/3/4 55/3/4 57/3/4
f 56/3/4 54/3/4 58/3/4
f 53/3/4 57/3/4 59/3/4
f 57/3/4 58/3/4 59/3/4
f 58/3/4 54/3/4 60/3/4
f 59/3/4 58/3/4 60/3/4
f 61/1/4 62/1/4 63/1/4
f 63/1/4 62/1/4 64/1/4
f 67/3/5 66/3/5 65/3/5
f 68/3/5 66/3/5 67/3/5
f 71/1/5 70/1/5 69/1/5
f 72/1/5 70/1/5 71/1/5
f 75/3/5 74/3/5 73/3/5
f 76/3/5 74/3/5 75/3/5
f 77/3/6 78/3/6 79/3/6
f 79/3/6 78/3/6 80/3/6
f 81/1/6 82/1/6 83/1/6
f 83/1/6 82/1/6 84/1/6
f 85/3/6 86/3/6 87/3/6
f 87/3/6 86/3/6 88/3/6
