# MagicaVoxel @ Ephtracy

# material
mtllib Art_General_Wall.mtl
usemtl palette

# normals
vn -1 0 0
vn 1 0 0
vn 0 0 1
vn 0 0 -1
vn 0 -1 0
vn 0 1 0

# texcoords
vt 0.416016 0.5
vt 0.419922 0.5
vt 0.423828 0.5
vt 0.427734 0.5

# verts
v -63 0 2
v -63 0 -2
v -63 27 2
v -63 27 -2
v -63 29 2
v -63 29 -2
v -63 40 2
v -63 40 -2
v 63 0 2
v 63 0 -2
v 63 27 2
v 63 27 -2
v 63 29 2
v 63 29 -2
v 63 33 2
v 63 33 1
v 63 34 2
v 63 34 1
v 63 35 2
v 63 35 1
v 63 40 2
v 63 40 1
v 63 40 -2
v -63 0 2
v -63 27 2
v -63 29 2
v -63 40 2
v 56 39 2
v 56 40 2
v 57 39 2
v 57 40 2
v 59 35 2
v 59 37 2
v 59 38 2
v 59 40 2
v 60 35 2
v 60 37 2
v 61 37 2
v 61 38 2
v 62 33 2
v 62 34 2
v 62 35 2
v 62 37 2
v 63 0 2
v 63 27 2
v 63 29 2
v 63 33 2
v 63 34 2
v 63 35 2
v 63 40 2
v -63 0 -2
v -63 27 -2
v -63 29 -2
v -63 40 -2
v 63 0 -2
v 63 27 -2
v 63 29 -2
v 63 40 -2
v -63 0 2
v 63 0 2
v -63 0 -2
v 63 0 -2
v -63 40 2
v 56 40 2
v 57 40 2
v 59 40 2
v 63 40 2
v 56 40 1
v 57 40 1
v 59 40 1
v 63 40 1
v -63 40 -2
v 63 40 -2

# faces
f 3/3/1 2/3/1 1/3/1
f 4/3/1 2/3/1 3/3/1
f 5/2/1 4/2/1 3/2/1
f 6/2/1 4/2/1 5/2/1
f 7/1/1 6/1/1 5/1/1
f 8/1/1 6/1/1 7/1/1
f 9/3/2 10/3/2 11/3/2
f 11/3/2 10/3/2 12/3/2
f 11/2/2 12/2/2 13/2/2
f 13/2/2 12/2/2 14/2/2
f 13/1/2 14/1/2 15/1/2
f 15/1/2 14/1/2 16/1/2
f 15/4/2 16/4/2 17/4/2
f 16/1/2 14/1/2 18/1/2
f 17/4/2 16/4/2 18/4/2
f 17/1/2 18/1/2 19/1/2
f 18/1/2 14/1/2 20/1/2
f 19/1/2 18/1/2 20/1/2
f 19/4/2 20/4/2 21/4/2
f 20/1/2 14/1/2 22/1/2
f 21/4/2 20/4/2 22/4/2
f 22/1/2 14/1/2 23/1/2
f 28/1/3 27/1/3 26/1/3
f 29/1/3 27/1/3 28/1/3
f 30/1/3 28/1/3 26/1/3
f 30/4/3 29/4/3 28/4/3
f 31/4/3 29/4/3 30/4/3
f 32/1/3 30/1/3 26/1/3
f 32/1/3 31/1/3 30/1/3
f 33/1/3 31/1/3 32/1/3
f 34/1/3 31/1/3 33/1/3
f 35/1/3 31/1/3 34/1/3
f 36/1/3 32/1/3 26/1/3
f 36/4/3 33/4/3 32/4/3
f 37/1/3 34/1/3 33/1/3
f 37/4/3 33/4/3 36/4/3
f 38/1/3 37/1/3 36/1/3
f 38/1/3 34/1/3 37/1/3
f 39/4/3 35/4/3 34/4/3
f 39/1/3 34/1/3 38/1/3
f 40/1/3 38/1/3 36/1/3
f 40/1/3 36/1/3 26/1/3
f 41/1/3 38/1/3 40/1/3
f 42/1/3 38/1/3 41/1/3
f 43/4/3 39/4/3 38/4/3
f 43/1/3 38/1/3 42/1/3
f 44/3/3 25/3/3 24/3/3
f 45/2/3 26/2/3 25/2/3
f 45/3/3 25/3/3 44/3/3
f 46/1/3 40/1/3 26/1/3
f 46/2/3 26/2/3 45/2/3
f 47/4/3 41/4/3 40/4/3
f 47/1/3 40/1/3 46/1/3
f 48/1/3 42/1/3 41/1/3
f 48/4/3 41/4/3 47/4/3
f 49/4/3 43/4/3 42/4/3
f 49/1/3 42/1/3 48/1/3
f 50/4/3 39/4/3 43/4/3
f 50/4/3 43/4/3 49/4/3
f 50/4/3 35/4/3 39/4/3
f 51/3/4 52/3/4 55/3/4
f 52/2/4 53/2/4 56/2/4
f 55/3/4 52/3/4 56/3/4
f 53/1/4 54/1/4 57/1/4
f 56/2/4 53/2/4 57/2/4
f 57/1/4 54/1/4 58/1/4
f 61/3/5 60/3/5 59/3/5
f 62/3/5 60/3/5 61/3/5
f 63/1/6 64/1/6 68/1/6
f 64/4/6 65/4/6 68/4/6
f 65/1/6 66/1/6 69/1/6
f 68/4/6 65/4/6 69/4/6
f 66/4/6 67/4/6 70/4/6
f 69/1/6 66/1/6 70/1/6
f 70/4/6 67/4/6 71/4/6
f 68/1/6 69/1/6 72/1/6
f 63/1/6 68/1/6 72/1/6
f 70/1/6 71/1/6 72/1/6
f 69/1/6 70/1/6 72/1/6
f 72/1/6 71/1/6 73/1/6
