# MagicaVoxel @ Ephtracy

# material
mtllib Art_General_Door_v5.mtl
usemtl palette

# normals
vn -1 0 0
vn 1 0 0
vn 0 0 1
vn 0 0 -1
vn 0 -1 0
vn 0 1 0

# texcoords
vt 0.314453 0.5
vt 0.412109 0.5
vt 0.416016 0.5

# verts
v -10 0 1
v -10 0 -0
v -10 24 1
v -10 24 -0
v -7 0 -0
v -7 0 -2
v -7 22 -0
v -7 22 -2
v -5 10 2
v -5 10 1
v -5 10 -0
v -5 11 2
v -5 11 1
v -5 11 -0
v -4 3 -0
v -4 3 -1
v -4 7 -0
v -4 7 -1
v -4 14 -0
v -4 14 -1
v -4 19 -0
v -4 19 -1
v 5 2 -0
v 5 2 -1
v 5 8 -0
v 5 8 -1
v 5 13 -0
v 5 13 -1
v 5 20 -0
v 5 20 -1
v 7 0 1
v 7 0 -0
v 7 22 1
v 7 22 -0
v -7 0 1
v -7 0 -0
v -7 22 1
v -7 22 -0
v -5 2 -0
v -5 2 -1
v -5 8 -0
v -5 8 -1
v -5 13 -0
v -5 13 -1
v -5 20 -0
v -5 20 -1
v -4 10 1
v -4 10 -0
v -4 11 1
v -4 11 -0
v -2 10 2
v -2 10 1
v -2 11 2
v -2 11 1
v 4 3 -0
v 4 3 -1
v 4 7 -0
v 4 7 -1
v 4 14 -0
v 4 14 -1
v 4 19 -0
v 4 19 -1
v 7 0 -0
v 7 0 -2
v 7 22 -0
v 7 22 -2
v 10 0 1
v 10 0 -0
v 10 24 1
v 10 24 -0
v -5 10 2
v -5 11 2
v -2 10 2
v -2 11 2
v -10 0 1
v -10 24 1
v -7 0 1
v -7 22 1
v 7 0 1
v 7 22 1
v 10 0 1
v 10 24 1
v -7 0 -0
v -7 22 -0
v -5 2 -0
v -5 8 -0
v -5 10 -0
v -5 11 -0
v -5 13 -0
v -5 20 -0
v -4 3 -0
v -4 7 -0
v -4 10 -0
v -4 11 -0
v -4 14 -0
v -4 19 -0
v 4 3 -0
v 4 7 -0
v 4 14 -0
v 4 19 -0
v 5 2 -0
v 5 8 -0
v 5 13 -0
v 5 20 -0
v 7 0 -0
v 7 22 -0
v -5 2 -1
v -5 8 -1
v -5 13 -1
v -5 20 -1
v -4 3 -1
v -4 7 -1
v -4 14 -1
v -4 19 -1
v 4 3 -1
v 4 7 -1
v 4 14 -1
v 4 19 -1
v 5 2 -1
v 5 8 -1
v 5 13 -1
v 5 20 -1
v -4 10 1
v -4 11 1
v -2 10 1
v -2 11 1
v -10 0 -0
v -10 24 -0
v -7 0 -0
v -7 22 -0
v 7 0 -0
v 7 22 -0
v 10 0 -0
v 10 24 -0
v -7 0 -2
v -7 22 -2
v 7 0 -2
v 7 22 -2
v -10 0 1
v -7 0 1
v 7 0 1
v 10 0 1
v -10 0 -0
v -7 0 -0
v 7 0 -0
v 10 0 -0
v -7 0 -2
v 7 0 -2
v -4 3 -0
v 4 3 -0
v -4 3 -1
v 4 3 -1
v -5 8 -0
v 5 8 -0
v -5 8 -1
v 5 8 -1
v -5 10 2
v -2 10 2
v -5 10 1
v -4 10 1
v -2 10 1
v -5 10 -0
v -4 10 -0
v -4 14 -0
v 4 14 -0
v -4 14 -1
v 4 14 -1
v -5 20 -0
v 5 20 -0
v -5 20 -1
v 5 20 -1
v -7 22 1
v 7 22 1
v -7 22 -0
v 7 22 -0
v -5 2 -0
v 5 2 -0
v -5 2 -1
v 5 2 -1
v -4 7 -0
v 4 7 -0
v -4 7 -1
v 4 7 -1
v -5 11 2
v -2 11 2
v -5 11 1
v -4 11 1
v -2 11 1
v -5 11 -0
v -4 11 -0
v -5 13 -0
v 5 13 -0
v -5 13 -1
v 5 13 -1
v -4 19 -0
v 4 19 -0
v -4 19 -1
v 4 19 -1
v -7 22 -0
v 7 22 -0
v -7 22 -2
v 7 22 -2
v -10 24 1
v 10 24 1
v -10 24 -0
v 10 24 -0

# faces
f 3/2/1 2/2/1 1/2/1
f 4/2/1 2/2/1 3/2/1
f 7/3/1 6/3/1 5/3/1
f 8/3/1 6/3/1 7/3/1
f 12/2/1 10/2/1 9/2/1
f 13/1/1 11/1/1 10/1/1
f 13/2/1 10/2/1 12/2/1
f 14/1/1 11/1/1 13/1/1
f 17/3/1 16/3/1 15/3/1
f 18/3/1 16/3/1 17/3/1
f 21/3/1 20/3/1 19/3/1
f 22/3/1 20/3/1 21/3/1
f 25/3/1 24/3/1 23/3/1
f 26/3/1 24/3/1 25/3/1
f 29/3/1 28/3/1 27/3/1
f 30/3/1 28/3/1 29/3/1
f 33/2/1 32/2/1 31/2/1
f 34/2/1 32/2/1 33/2/1
f 35/2/2 36/2/2 37/2/2
f 37/2/2 36/2/2 38/2/2
f 39/3/2 40/3/2 41/3/2
f 41/3/2 40/3/2 42/3/2
f 43/3/2 44/3/2 45/3/2
f 45/3/2 44/3/2 46/3/2
f 47/1/2 48/1/2 49/1/2
f 49/1/2 48/1/2 50/1/2
f 51/2/2 52/2/2 53/2/2
f 53/2/2 52/2/2 54/2/2
f 55/3/2 56/3/2 57/3/2
f 57/3/2 56/3/2 58/3/2
f 59/3/2 60/3/2 61/3/2
f 61/3/2 60/3/2 62/3/2
f 63/3/2 64/3/2 65/3/2
f 65/3/2 64/3/2 66/3/2
f 67/2/2 68/2/2 69/2/2
f 69/2/2 68/2/2 70/2/2
f 73/2/3 72/2/3 71/2/3
f 74/2/3 72/2/3 73/2/3
f 77/2/3 76/2/3 75/2/3
f 78/2/3 76/2/3 77/2/3
f 80/2/3 76/2/3 78/2/3
f 81/2/3 80/2/3 79/2/3
f 82/2/3 76/2/3 80/2/3
f 82/2/3 80/2/3 81/2/3
f 85/3/3 84/3/3 83/3/3
f 86/3/3 84/3/3 85/3/3
f 87/3/3 84/3/3 86/3/3
f 88/3/3 84/3/3 87/3/3
f 89/3/3 84/3/3 88/3/3
f 90/3/3 84/3/3 89/3/3
f 93/3/3 87/3/3 86/3/3
f 94/3/3 89/3/3 88/3/3
f 97/3/3 92/3/3 91/3/3
f 98/3/3 92/3/3 97/3/3
f 99/3/3 96/3/3 95/3/3
f 100/3/3 96/3/3 99/3/3
f 101/3/3 85/3/3 83/3/3
f 102/3/3 93/3/3 86/3/3
f 102/3/3 94/3/3 93/3/3
f 103/3/3 89/3/3 94/3/3
f 103/3/3 94/3/3 102/3/3
f 104/3/3 84/3/3 90/3/3
f 105/3/3 103/3/3 102/3/3
f 105/3/3 104/3/3 103/3/3
f 105/3/3 101/3/3 83/3/3
f 105/3/3 102/3/3 101/3/3
f 106/3/3 84/3/3 104/3/3
f 106/3/3 104/3/3 105/3/3
f 111/3/3 108/3/3 107/3/3
f 112/3/3 108/3/3 111/3/3
f 113/3/3 110/3/3 109/3/3
f 114/3/3 110/3/3 113/3/3
f 115/3/3 111/3/3 107/3/3
f 116/3/3 108/3/3 112/3/3
f 117/3/3 113/3/3 109/3/3
f 118/3/3 110/3/3 114/3/3
f 119/3/3 115/3/3 107/3/3
f 119/3/3 116/3/3 115/3/3
f 120/3/3 108/3/3 116/3/3
f 120/3/3 116/3/3 119/3/3
f 121/3/3 118/3/3 117/3/3
f 121/3/3 117/3/3 109/3/3
f 122/3/3 110/3/3 118/3/3
f 122/3/3 118/3/3 121/3/3
f 123/2/4 124/2/4 125/2/4
f 125/2/4 124/2/4 126/2/4
f 127/2/4 128/2/4 129/2/4
f 129/2/4 128/2/4 130/2/4
f 130/2/4 128/2/4 132/2/4
f 131/2/4 132/2/4 133/2/4
f 132/2/4 128/2/4 134/2/4
f 133/2/4 132/2/4 134/2/4
f 135/3/4 136/3/4 137/3/4
f 137/3/4 136/3/4 138/3/4
f 143/2/5 140/2/5 139/2/5
f 144/2/5 140/2/5 143/2/5
f 145/2/5 142/2/5 141/2/5
f 146/2/5 142/2/5 145/2/5
f 147/3/5 145/3/5 144/3/5
f 148/3/5 145/3/5 147/3/5
f 151/3/5 150/3/5 149/3/5
f 152/3/5 150/3/5 151/3/5
f 155/3/5 154/3/5 153/3/5
f 156/3/5 154/3/5 155/3/5
f 159/2/5 158/2/5 157/2/5
f 160/2/5 158/2/5 159/2/5
f 161/2/5 158/2/5 160/2/5
f 162/1/5 160/1/5 159/1/5
f 163/1/5 160/1/5 162/1/5
f 166/3/5 165/3/5 164/3/5
f 167/3/5 165/3/5 166/3/5
f 170/3/5 169/3/5 168/3/5
f 171/3/5 169/3/5 170/3/5
f 174/2/5 173/2/5 172/2/5
f 175/2/5 173/2/5 174/2/5
f 176/3/6 177/3/6 178/3/6
f 178/3/6 177/3/6 179/3/6
f 180/3/6 181/3/6 182/3/6
f 182/3/6 181/3/6 183/3/6
f 184/2/6 185/2/6 186/2/6
f 186/2/6 185/2/6 187/2/6
f 187/2/6 185/2/6 188/2/6
f 186/1/6 187/1/6 189/1/6
f 189/1/6 187/1/6 190/1/6
f 191/3/6 192/3/6 193/3/6
f 193/3/6 192/3/6 194/3/6
f 195/3/6 196/3/6 197/3/6
f 197/3/6 196/3/6 198/3/6
f 199/3/6 200/3/6 201/3/6
f 201/3/6 200/3/6 202/3/6
f 203/2/6 204/2/6 205/2/6
f 205/2/6 204/2/6 206/2/6
