# MagicaVoxel @ Ephtracy

# material
mtllib Scene_TutorialPuzzle_Wall.mtl
usemtl palette

# normals
vn -1 0 0
vn 1 0 0
vn 0 0 1
vn 0 0 -1
vn 0 -1 0
vn 0 1 0

# texcoords
vt 0.0292969 0.5
vt 0.0917969 0.5

# verts
v -63 0 63
v -63 0 5
v -63 0 4
v -63 0 -4
v -63 0 -5
v -63 0 -63
v -63 11 5
v -63 11 4
v -63 11 -4
v -63 11 -5
v -63 12 4
v -63 12 -4
v -63 13 63
v -63 13 -63
v 4 0 63
v 4 0 60
v 4 0 -60
v 4 0 -63
v 4 11 63
v 4 11 60
v 4 11 -60
v 4 11 -63
v 60 0 60
v 60 0 5
v 60 0 4
v 60 0 -4
v 60 0 -5
v 60 0 -60
v 60 11 5
v 60 11 4
v 60 11 -4
v 60 11 -5
v 60 12 4
v 60 12 -4
v 60 13 60
v 60 13 -60
v -60 0 60
v -60 0 5
v -60 0 4
v -60 0 -4
v -60 0 -5
v -60 0 -60
v -60 11 5
v -60 11 4
v -60 11 -4
v -60 11 -5
v -60 12 4
v -60 12 -4
v -60 13 60
v -60 13 -60
v -4 0 63
v -4 0 60
v -4 0 -60
v -4 0 -63
v -4 11 63
v -4 11 60
v -4 11 -60
v -4 11 -63
v 63 0 63
v 63 0 5
v 63 0 4
v 63 0 -4
v 63 0 -5
v 63 0 -63
v 63 11 5
v 63 11 4
v 63 11 -4
v 63 11 -5
v 63 12 4
v 63 12 -4
v 63 13 63
v 63 13 -63
v -63 0 63
v -63 13 63
v -5 0 63
v -5 11 63
v -4 0 63
v -4 11 63
v -4 12 63
v 4 0 63
v 4 11 63
v 4 12 63
v 5 0 63
v 5 11 63
v 63 0 63
v 63 13 63
v -63 0 -4
v -63 11 -4
v -60 0 -4
v -60 11 -4
v 60 0 -4
v 60 11 -4
v 63 0 -4
v 63 11 -4
v -60 0 -60
v -60 13 -60
v -5 0 -60
v -5 11 -60
v -4 0 -60
v -4 11 -60
v -4 12 -60
v 4 0 -60
v 4 11 -60
v 4 12 -60
v 5 0 -60
v 5 11 -60
v 60 0 -60
v 60 13 -60
v -60 0 60
v -60 13 60
v -5 0 60
v -5 11 60
v -4 0 60
v -4 11 60
v -4 12 60
v 4 0 60
v 4 11 60
v 4 12 60
v 5 0 60
v 5 11 60
v 60 0 60
v 60 13 60
v -63 0 4
v -63 11 4
v -60 0 4
v -60 11 4
v 60 0 4
v 60 11 4
v 63 0 4
v 63 11 4
v -63 0 -63
v -63 13 -63
v -5 0 -63
v -5 11 -63
v -4 0 -63
v -4 11 -63
v -4 12 -63
v 4 0 -63
v 4 11 -63
v 4 12 -63
v 5 0 -63
v 5 11 -63
v 63 0 -63
v 63 13 -63
v -63 0 63
v -5 0 63
v -4 0 63
v 4 0 63
v 5 0 63
v 63 0 63
v -60 0 60
v -5 0 60
v -4 0 60
v 4 0 60
v 5 0 60
v 60 0 60
v -63 0 5
v -60 0 5
v 60 0 5
v 63 0 5
v -63 0 4
v -60 0 4
v 60 0 4
v 63 0 4
v -63 0 -4
v -60 0 -4
v 60 0 -4
v 63 0 -4
v -63 0 -5
v -60 0 -5
v 60 0 -5
v 63 0 -5
v -60 0 -60
v -5 0 -60
v -4 0 -60
v 4 0 -60
v 5 0 -60
v 60 0 -60
v -63 0 -63
v -5 0 -63
v -4 0 -63
v 4 0 -63
v 5 0 -63
v 63 0 -63
v -4 11 63
v 4 11 63
v -4 11 60
v 4 11 60
v -63 11 4
v -60 11 4
v 60 11 4
v 63 11 4
v -63 11 -4
v -60 11 -4
v 60 11 -4
v 63 11 -4
v -4 11 -60
v 4 11 -60
v -4 11 -63
v 4 11 -63
v -63 13 63
v 63 13 63
v -60 13 60
v 60 13 60
v -60 13 -60
v 60 13 -60
v -63 13 -63
v 63 13 -63

# faces
f 7/1/1 2/1/1 1/1/1
f 7/2/1 3/2/1 2/2/1
f 8/2/1 3/2/1 7/2/1
f 9/2/1 5/2/1 4/2/1
f 10/1/1 6/1/1 5/1/1
f 10/2/1 5/2/1 9/2/1
f 11/2/1 9/2/1 8/2/1
f 11/1/1 8/1/1 7/1/1
f 12/1/1 10/1/1 9/1/1
f 12/2/1 9/2/1 11/2/1
f 13/1/1 11/1/1 7/1/1
f 13/1/1 7/1/1 1/1/1
f 13/1/1 12/1/1 11/1/1
f 14/1/1 6/1/1 10/1/1
f 14/1/1 12/1/1 13/1/1
f 14/1/1 10/1/1 12/1/1
f 19/2/1 16/2/1 15/2/1
f 20/2/1 16/2/1 19/2/1
f 21/2/1 18/2/1 17/2/1
f 22/2/1 18/2/1 21/2/1
f 29/1/1 24/1/1 23/1/1
f 29/2/1 25/2/1 24/2/1
f 30/2/1 25/2/1 29/2/1
f 31/2/1 27/2/1 26/2/1
f 32/1/1 28/1/1 27/1/1
f 32/2/1 27/2/1 31/2/1
f 33/2/1 31/2/1 30/2/1
f 33/1/1 30/1/1 29/1/1
f 34/1/1 32/1/1 31/1/1
f 34/2/1 31/2/1 33/2/1
f 35/1/1 33/1/1 29/1/1
f 35/1/1 29/1/1 23/1/1
f 35/1/1 34/1/1 33/1/1
f 36/1/1 28/1/1 32/1/1
f 36/1/1 34/1/1 35/1/1
f 36/1/1 32/1/1 34/1/1
f 37/1/2 38/1/2 43/1/2
f 38/2/2 39/2/2 43/2/2
f 43/2/2 39/2/2 44/2/2
f 40/2/2 41/2/2 45/2/2
f 41/1/2 42/1/2 46/1/2
f 45/2/2 41/2/2 46/2/2
f 44/2/2 45/2/2 47/2/2
f 43/1/2 44/1/2 47/1/2
f 45/1/2 46/1/2 48/1/2
f 47/2/2 45/2/2 48/2/2
f 43/1/2 47/1/2 49/1/2
f 37/1/2 43/1/2 49/1/2
f 47/1/2 48/1/2 49/1/2
f 46/1/2 42/1/2 50/1/2
f 49/1/2 48/1/2 50/1/2
f 48/1/2 46/1/2 50/1/2
f 51/2/2 52/2/2 55/2/2
f 55/2/2 52/2/2 56/2/2
f 53/2/2 54/2/2 57/2/2
f 57/2/2 54/2/2 58/2/2
f 59/1/2 60/1/2 65/1/2
f 60/2/2 61/2/2 65/2/2
f 65/2/2 61/2/2 66/2/2
f 62/2/2 63/2/2 67/2/2
f 63/1/2 64/1/2 68/1/2
f 67/2/2 63/2/2 68/2/2
f 66/2/2 67/2/2 69/2/2
f 65/1/2 66/1/2 69/1/2
f 67/1/2 68/1/2 70/1/2
f 69/2/2 67/2/2 70/2/2
f 65/1/2 69/1/2 71/1/2
f 59/1/2 65/1/2 71/1/2
f 69/1/2 70/1/2 71/1/2
f 68/1/2 64/1/2 72/1/2
f 71/1/2 70/1/2 72/1/2
f 70/1/2 68/1/2 72/1/2
f 75/1/3 74/1/3 73/1/3
f 76/1/3 74/1/3 75/1/3
f 77/2/3 76/2/3 75/2/3
f 78/1/3 74/1/3 76/1/3
f 78/2/3 76/2/3 77/2/3
f 79/1/3 74/1/3 78/1/3
f 81/2/3 79/2/3 78/2/3
f 82/1/3 74/1/3 79/1/3
f 82/2/3 79/2/3 81/2/3
f 83/2/3 81/2/3 80/2/3
f 84/1/3 82/1/3 81/1/3
f 84/2/3 81/2/3 83/2/3
f 85/1/3 84/1/3 83/1/3
f 86/1/3 74/1/3 82/1/3
f 86/1/3 84/1/3 85/1/3
f 86/1/3 82/1/3 84/1/3
f 89/2/3 88/2/3 87/2/3
f 90/2/3 88/2/3 89/2/3
f 93/2/3 92/2/3 91/2/3
f 94/2/3 92/2/3 93/2/3
f 97/1/3 96/1/3 95/1/3
f 98/1/3 96/1/3 97/1/3
f 99/2/3 98/2/3 97/2/3
f 100/1/3 96/1/3 98/1/3
f 100/2/3 98/2/3 99/2/3
f 101/1/3 96/1/3 100/1/3
f 103/2/3 101/2/3 100/2/3
f 104/1/3 96/1/3 101/1/3
f 104/2/3 101/2/3 103/2/3
f 105/2/3 103/2/3 102/2/3
f 106/1/3 104/1/3 103/1/3
f 106/2/3 103/2/3 105/2/3
f 107/1/3 106/1/3 105/1/3
f 108/1/3 96/1/3 104/1/3
f 108/1/3 106/1/3 107/1/3
f 108/1/3 104/1/3 106/1/3
f 109/1/4 110/1/4 111/1/4
f 111/1/4 110/1/4 112/1/4
f 111/2/4 112/2/4 113/2/4
f 112/1/4 110/1/4 114/1/4
f 113/2/4 112/2/4 114/2/4
f 114/1/4 110/1/4 115/1/4
f 114/2/4 115/2/4 117/2/4
f 115/1/4 110/1/4 118/1/4
f 117/2/4 115/2/4 118/2/4
f 116/2/4 117/2/4 119/2/4
f 117/1/4 118/1/4 120/1/4
f 119/2/4 117/2/4 120/2/4
f 119/1/4 120/1/4 121/1/4
f 118/1/4 110/1/4 122/1/4
f 121/1/4 120/1/4 122/1/4
f 120/1/4 118/1/4 122/1/4
f 123/2/4 124/2/4 125/2/4
f 125/2/4 124/2/4 126/2/4
f 127/2/4 128/2/4 129/2/4
f 129/2/4 128/2/4 130/2/4
f 131/1/4 132/1/4 133/1/4
f 133/1/4 132/1/4 134/1/4
f 133/2/4 134/2/4 135/2/4
f 134/1/4 132/1/4 136/1/4
f 135/2/4 134/2/4 136/2/4
f 136/1/4 132/1/4 137/1/4
f 136/2/4 137/2/4 139/2/4
f 137/1/4 132/1/4 140/1/4
f 139/2/4 137/2/4 140/2/4
f 138/2/4 139/2/4 141/2/4
f 139/1/4 140/1/4 142/1/4
f 141/2/4 139/2/4 142/2/4
f 141/1/4 142/1/4 143/1/4
f 140/1/4 132/1/4 144/1/4
f 143/1/4 142/1/4 144/1/4
f 142/1/4 140/1/4 144/1/4
f 151/1/5 146/1/5 145/1/5
f 152/2/5 147/2/5 146/2/5
f 152/1/5 146/1/5 151/1/5
f 153/2/5 147/2/5 152/2/5
f 154/2/5 149/2/5 148/2/5
f 155/1/5 150/1/5 149/1/5
f 155/2/5 149/2/5 154/2/5
f 156/1/5 150/1/5 155/1/5
f 157/1/5 151/1/5 145/1/5
f 158/1/5 151/1/5 157/1/5
f 159/1/5 150/1/5 156/1/5
f 160/1/5 150/1/5 159/1/5
f 161/2/5 158/2/5 157/2/5
f 162/2/5 158/2/5 161/2/5
f 163/2/5 160/2/5 159/2/5
f 164/2/5 160/2/5 163/2/5
f 169/2/5 166/2/5 165/2/5
f 170/2/5 166/2/5 169/2/5
f 171/2/5 168/2/5 167/2/5
f 172/2/5 168/2/5 171/2/5
f 173/1/5 170/1/5 169/1/5
f 178/1/5 172/1/5 171/1/5
f 179/1/5 173/1/5 169/1/5
f 179/1/5 174/1/5 173/1/5
f 180/2/5 175/2/5 174/2/5
f 180/1/5 174/1/5 179/1/5
f 181/2/5 175/2/5 180/2/5
f 182/2/5 177/2/5 176/2/5
f 183/1/5 178/1/5 177/1/5
f 183/2/5 177/2/5 182/2/5
f 184/1/5 172/1/5 178/1/5
f 184/1/5 178/1/5 183/1/5
f 187/2/5 186/2/5 185/2/5
f 188/2/5 186/2/5 187/2/5
f 193/2/5 190/2/5 189/2/5
f 194/2/5 190/2/5 193/2/5
f 195/2/5 192/2/5 191/2/5
f 196/2/5 192/2/5 195/2/5
f 199/2/5 198/2/5 197/2/5
f 200/2/5 198/2/5 199/2/5
f 201/1/6 202/1/6 203/1/6
f 203/1/6 202/1/6 204/1/6
f 201/1/6 203/1/6 205/1/6
f 204/1/6 202/1/6 206/1/6
f 201/1/6 205/1/6 207/1/6
f 205/1/6 206/1/6 207/1/6
f 206/1/6 202/1/6 208/1/6
f 207/1/6 206/1/6 208/1/6
