# MagicaVoxel @ Ephtracy

# material
mtllib trash.plastic.mtl
usemtl palette

# normals
vn -1 0 0
vn 1 0 0
vn 0 0 1
vn 0 0 -1
vn 0 -1 0
vn 0 1 0

# texcoords
vt 0.744141 0.5
vt 0.876953 0.5
vt 0.900391 0.5
vt 0.962891 0.5

# verts
v -15 0 -2
v -15 0 -20
v -15 26 -2
v -15 26 -20
v -15 28 -2
v -15 28 -20
v -15 30 -2
v -15 30 -20
v 5 1 -3
v 5 1 -19
v 5 26 -3
v 5 26 -19
v 5 28 -3
v 5 28 -19
v 5 30 -3
v 5 30 -19
v -14 1 -3
v -14 1 -19
v -14 26 -3
v -14 26 -19
v -14 28 -3
v -14 28 -19
v -14 30 -3
v -14 30 -19
v 6 0 -2
v 6 0 -20
v 6 26 -2
v 6 26 -20
v 6 28 -2
v 6 28 -20
v 6 30 -2
v 6 30 -20
v -15 0 -2
v -15 26 -2
v -15 28 -2
v -15 30 -2
v -8 4 -2
v -8 14 -2
v -7 5 -2
v -7 14 -2
v -7 16 -2
v -6 14 -2
v -6 15 -2
v -6 16 -2
v -6 19 -2
v -5 15 -2
v -5 18 -2
v -5 19 -2
v -5 20 -2
v -3 15 -2
v -3 18 -2
v -3 19 -2
v -3 20 -2
v -2 14 -2
v -2 15 -2
v -2 16 -2
v -2 19 -2
v -1 5 -2
v -1 14 -2
v -1 16 -2
v 0 4 -2
v 0 14 -2
v 6 0 -2
v 6 26 -2
v 6 28 -2
v 6 30 -2
v -14 1 -19
v -14 26 -19
v -14 28 -19
v -14 30 -19
v 5 1 -19
v 5 26 -19
v 5 28 -19
v 5 30 -19
v -14 1 -3
v -14 26 -3
v -14 28 -3
v -14 30 -3
v -8 4 -3
v -8 14 -3
v -7 5 -3
v -7 14 -3
v -7 16 -3
v -6 14 -3
v -6 15 -3
v -6 16 -3
v -6 19 -3
v -5 15 -3
v -5 18 -3
v -5 19 -3
v -5 20 -3
v -3 15 -3
v -3 18 -3
v -3 19 -3
v -3 20 -3
v -2 14 -3
v -2 15 -3
v -2 16 -3
v -2 19 -3
v -1 5 -3
v -1 14 -3
v -1 16 -3
v 0 4 -3
v 0 14 -3
v 5 1 -3
v 5 26 -3
v 5 28 -3
v 5 30 -3
v -15 0 -20
v -15 26 -20
v -15 28 -20
v -15 30 -20
v 6 0 -20
v 6 26 -20
v 6 28 -20
v 6 30 -20
v -15 0 -2
v 6 0 -2
v -15 0 -20
v 6 0 -20
v -14 1 -3
v 5 1 -3
v -14 1 -19
v 5 1 -19
v -15 30 -2
v 6 30 -2
v -14 30 -3
v 5 30 -3
v -14 30 -19
v 5 30 -19
v -15 30 -20
v 6 30 -20

# faces
f 3/1/1 2/1/1 1/1/1
f 4/1/1 2/1/1 3/1/1
f 5/2/1 4/2/1 3/2/1
f 6/2/1 4/2/1 5/2/1
f 7/1/1 6/1/1 5/1/1
f 8/1/1 6/1/1 7/1/1
f 11/1/1 10/1/1 9/1/1
f 12/1/1 10/1/1 11/1/1
f 13/2/1 12/2/1 11/2/1
f 14/2/1 12/2/1 13/2/1
f 15/1/1 14/1/1 13/1/1
f 16/1/1 14/1/1 15/1/1
f 17/1/2 18/1/2 19/1/2
f 19/1/2 18/1/2 20/1/2
f 19/2/2 20/2/2 21/2/2
f 21/2/2 20/2/2 22/2/2
f 21/1/2 22/1/2 23/1/2
f 23/1/2 22/1/2 24/1/2
f 25/1/2 26/1/2 27/1/2
f 27/1/2 26/1/2 28/1/2
f 27/2/2 28/2/2 29/2/2
f 29/2/2 28/2/2 30/2/2
f 29/1/2 30/1/2 31/1/2
f 31/1/2 30/1/2 32/1/2
f 37/1/3 34/1/3 33/1/3
f 38/1/3 34/1/3 37/1/3
f 39/4/3 38/4/3 37/4/3
f 40/1/3 34/1/3 38/1/3
f 40/4/3 38/4/3 39/4/3
f 41/1/3 34/1/3 40/1/3
f 42/3/3 40/3/3 39/3/3
f 42/4/3 41/4/3 40/4/3
f 43/4/3 41/4/3 42/4/3
f 44/1/3 34/1/3 41/1/3
f 44/4/3 41/4/3 43/4/3
f 45/1/3 34/1/3 44/1/3
f 46/3/3 43/3/3 42/3/3
f 46/4/3 44/4/3 43/4/3
f 46/4/3 45/4/3 44/4/3
f 47/4/3 45/4/3 46/4/3
f 48/1/3 34/1/3 45/1/3
f 48/4/3 45/4/3 47/4/3
f 49/1/3 34/1/3 48/1/3
f 50/3/3 47/3/3 46/3/3
f 50/3/3 46/3/3 42/3/3
f 51/4/3 48/4/3 47/4/3
f 51/3/3 47/3/3 50/3/3
f 52/3/3 49/3/3 48/3/3
f 52/4/3 48/4/3 51/4/3
f 53/1/3 34/1/3 49/1/3
f 53/3/3 49/3/3 52/3/3
f 54/3/3 42/3/3 39/3/3
f 54/3/3 50/3/3 42/3/3
f 55/4/3 52/4/3 51/4/3
f 55/3/3 50/3/3 54/3/3
f 55/4/3 51/4/3 50/4/3
f 56/4/3 52/4/3 55/4/3
f 57/1/3 53/1/3 52/1/3
f 57/4/3 52/4/3 56/4/3
f 58/4/3 39/4/3 37/4/3
f 58/3/3 54/3/3 39/3/3
f 59/4/3 56/4/3 55/4/3
f 59/3/3 54/3/3 58/3/3
f 59/4/3 55/4/3 54/4/3
f 60/1/3 57/1/3 56/1/3
f 60/4/3 56/4/3 59/4/3
f 61/1/3 37/1/3 33/1/3
f 61/4/3 59/4/3 58/4/3
f 61/4/3 58/4/3 37/4/3
f 62/1/3 60/1/3 59/1/3
f 62/4/3 59/4/3 61/4/3
f 63/1/3 61/1/3 33/1/3
f 63/1/3 62/1/3 61/1/3
f 64/2/3 35/2/3 34/2/3
f 64/1/3 62/1/3 63/1/3
f 64/1/3 57/1/3 60/1/3
f 64/1/3 34/1/3 53/1/3
f 64/1/3 60/1/3 62/1/3
f 64/1/3 53/1/3 57/1/3
f 65/1/3 36/1/3 35/1/3
f 65/2/3 35/2/3 64/2/3
f 66/1/3 36/1/3 65/1/3
f 71/1/3 68/1/3 67/1/3
f 72/2/3 69/2/3 68/2/3
f 72/1/3 68/1/3 71/1/3
f 73/1/3 70/1/3 69/1/3
f 73/2/3 69/2/3 72/2/3
f 74/1/3 70/1/3 73/1/3
f 75/1/4 76/1/4 79/1/4
f 79/1/4 76/1/4 80/1/4
f 79/4/4 80/4/4 81/4/4
f 80/1/4 76/1/4 82/1/4
f 81/4/4 80/4/4 82/4/4
f 82/1/4 76/1/4 83/1/4
f 81/3/4 82/3/4 84/3/4
f 82/4/4 83/4/4 84/4/4
f 84/4/4 83/4/4 85/4/4
f 83/1/4 76/1/4 86/1/4
f 85/4/4 83/4/4 86/4/4
f 86/1/4 76/1/4 87/1/4
f 84/3/4 85/3/4 88/3/4
f 85/4/4 86/4/4 88/4/4
f 86/4/4 87/4/4 88/4/4
f 88/4/4 87/4/4 89/4/4
f 87/1/4 76/1/4 90/1/4
f 89/4/4 87/4/4 90/4/4
f 90/1/4 76/1/4 91/1/4
f 88/3/4 89/3/4 92/3/4
f 84/3/4 88/3/4 92/3/4
f 89/4/4 90/4/4 93/4/4
f 92/3/4 89/3/4 93/3/4
f 90/3/4 91/3/4 94/3/4
f 93/4/4 90/4/4 94/4/4
f 91/1/4 76/1/4 95/1/4
f 94/3/4 91/3/4 95/3/4
f 81/3/4 84/3/4 96/3/4
f 84/3/4 92/3/4 96/3/4
f 93/4/4 94/4/4 97/4/4
f 96/3/4 92/3/4 97/3/4
f 92/4/4 93/4/4 97/4/4
f 97/4/4 94/4/4 98/4/4
f 94/1/4 95/1/4 99/1/4
f 98/4/4 94/4/4 99/4/4
f 79/4/4 81/4/4 100/4/4
f 81/3/4 96/3/4 100/3/4
f 97/4/4 98/4/4 101/4/4
f 100/3/4 96/3/4 101/3/4
f 96/4/4 97/4/4 101/4/4
f 98/1/4 99/1/4 102/1/4
f 101/4/4 98/4/4 102/4/4
f 75/1/4 79/1/4 103/1/4
f 100/4/4 101/4/4 103/4/4
f 79/4/4 100/4/4 103/4/4
f 101/1/4 102/1/4 104/1/4
f 103/4/4 101/4/4 104/4/4
f 75/1/4 103/1/4 105/1/4
f 103/1/4 104/1/4 105/1/4
f 76/2/4 77/2/4 106/2/4
f 105/1/4 104/1/4 106/1/4
f 102/1/4 99/1/4 106/1/4
f 95/1/4 76/1/4 106/1/4
f 104/1/4 102/1/4 106/1/4
f 99/1/4 95/1/4 106/1/4
f 77/1/4 78/1/4 107/1/4
f 106/2/4 77/2/4 107/2/4
f 107/1/4 78/1/4 108/1/4
f 109/1/4 110/1/4 113/1/4
f 110/2/4 111/2/4 114/2/4
f 113/1/4 110/1/4 114/1/4
f 111/1/4 112/1/4 115/1/4
f 114/2/4 111/2/4 115/2/4
f 115/1/4 112/1/4 116/1/4
f 119/1/5 118/1/5 117/1/5
f 120/1/5 118/1/5 119/1/5
f 121/1/6 122/1/6 123/1/6
f 123/1/6 122/1/6 124/1/6
f 125/1/6 126/1/6 127/1/6
f 127/1/6 126/1/6 128/1/6
f 125/1/6 127/1/6 129/1/6
f 128/1/6 126/1/6 130/1/6
f 125/1/6 129/1/6 131/1/6
f 129/1/6 130/1/6 131/1/6
f 130/1/6 126/1/6 132/1/6
f 131/1/6 130/1/6 132/1/6
