# MagicaVoxel @ Ephtracy

# material
mtllib Art_NewWeightRoom_WeightCompartment.mtl
usemtl palette

# normals
vn -1 0 0
vn 1 0 0
vn 0 0 1
vn 0 0 -1
vn 0 -1 0
vn 0 1 0

# texcoords
vt 0.416016 0.5
vt 0.435547 0.5

# verts
v -33 11 58
v -33 11 57
v -33 11 38
v -33 11 37
v -33 14 57
v -33 14 38
v -33 15 57
v -33 15 38
v -33 18 57
v -33 18 38
v -33 19 57
v -33 19 38
v -33 20 58
v -33 20 57
v -33 20 38
v -33 20 37
v -32 12 57
v -32 12 38
v -32 13 57
v -32 13 38
v -32 16 57
v -32 16 38
v -32 17 57
v -32 17 38
v -30 11 58
v -30 11 57
v -30 11 38
v -30 11 37
v -30 12 57
v -30 12 38
v -30 13 57
v -30 13 38
v -30 14 57
v -30 14 38
v -30 15 57
v -30 15 38
v -30 16 57
v -30 16 38
v -30 17 57
v -30 17 38
v -30 18 57
v -30 18 38
v -30 19 57
v -30 19 38
v -30 20 58
v -30 20 57
v -30 20 38
v -30 20 37
v -32 11 58
v -32 11 57
v -32 11 38
v -32 11 37
v -32 12 57
v -32 12 38
v -32 13 57
v -32 13 38
v -32 14 57
v -32 14 38
v -32 15 57
v -32 15 38
v -32 16 57
v -32 16 38
v -32 17 57
v -32 17 38
v -32 18 57
v -32 18 38
v -32 19 57
v -32 19 38
v -32 20 58
v -32 20 57
v -32 20 38
v -32 20 37
v -30 12 57
v -30 12 38
v -30 13 57
v -30 13 38
v -30 16 57
v -30 16 38
v -30 17 57
v -30 17 38
v -29 11 58
v -29 11 57
v -29 11 38
v -29 11 37
v -29 14 57
v -29 14 38
v -29 15 57
v -29 15 38
v -29 18 57
v -29 18 38
v -29 19 57
v -29 19 38
v -29 20 58
v -29 20 57
v -29 20 38
v -29 20 37
v -33 11 58
v -33 20 58
v -32 11 58
v -32 20 58
v -30 11 58
v -30 20 58
v -29 11 58
v -29 20 58
v -32 12 57
v -32 13 57
v -32 16 57
v -32 17 57
v -30 12 57
v -30 13 57
v -30 16 57
v -30 17 57
v -33 11 38
v -33 14 38
v -33 15 38
v -33 18 38
v -33 19 38
v -33 20 38
v -32 11 38
v -32 12 38
v -32 13 38
v -32 14 38
v -32 15 38
v -32 16 38
v -32 17 38
v -32 18 38
v -32 19 38
v -32 20 38
v -30 11 38
v -30 12 38
v -30 13 38
v -30 14 38
v -30 15 38
v -30 16 38
v -30 17 38
v -30 18 38
v -30 19 38
v -30 20 38
v -29 11 38
v -29 14 38
v -29 15 38
v -29 18 38
v -29 19 38
v -29 20 38
v -33 11 57
v -33 14 57
v -33 15 57
v -33 18 57
v -33 19 57
v -33 20 57
v -32 11 57
v -32 12 57
v -32 13 57
v -32 14 57
v -32 15 57
v -32 16 57
v -32 17 57
v -32 18 57
v -32 19 57
v -32 20 57
v -30 11 57
v -30 12 57
v -30 13 57
v -30 14 57
v -30 15 57
v -30 16 57
v -30 17 57
v -30 18 57
v -30 19 57
v -30 20 57
v -29 11 57
v -29 14 57
v -29 15 57
v -29 18 57
v -29 19 57
v -29 20 57
v -32 12 38
v -32 13 38
v -32 16 38
v -32 17 38
v -30 12 38
v -30 13 38
v -30 16 38
v -30 17 38
v -33 11 37
v -33 20 37
v -32 11 37
v -32 20 37
v -30 11 37
v -30 20 37
v -29 11 37
v -29 20 37
v -33 11 58
v -32 11 58
v -30 11 58
v -29 11 58
v -33 11 57
v -32 11 57
v -30 11 57
v -29 11 57
v -33 11 38
v -32 11 38
v -30 11 38
v -29 11 38
v -33 11 37
v -32 11 37
v -30 11 37
v -29 11 37
v -32 12 57
v -30 12 57
v -32 12 38
v -30 12 38
v -33 14 57
v -32 14 57
v -30 14 57
v -29 14 57
v -33 14 38
v -32 14 38
v -30 14 38
v -29 14 38
v -32 16 57
v -30 16 57
v -32 16 38
v -30 16 38
v -33 18 57
v -32 18 57
v -30 18 57
v -29 18 57
v -33 18 38
v -32 18 38
v -30 18 38
v -29 18 38
v -32 13 57
v -30 13 57
v -32 13 38
v -30 13 38
v -33 15 57
v -32 15 57
v -30 15 57
v -29 15 57
v -33 15 38
v -32 15 38
v -30 15 38
v -29 15 38
v -32 17 57
v -30 17 57
v -32 17 38
v -30 17 38
v -33 19 57
v -32 19 57
v -30 19 57
v -29 19 57
v -33 19 38
v -32 19 38
v -30 19 38
v -29 19 38
v -33 20 58
v -32 20 58
v -30 20 58
v -29 20 58
v -33 20 57
v -32 20 57
v -30 20 57
v -29 20 57
v -33 20 38
v -32 20 38
v -30 20 38
v -29 20 38
v -33 20 37
v -32 20 37
v -30 20 37
v -29 20 37

# faces
f 5/1/1 2/1/1 1/1/1
f 6/1/1 4/1/1 3/1/1
f 7/1/1 5/1/1 1/1/1
f 7/1/1 6/1/1 5/1/1
f 8/1/1 4/1/1 6/1/1
f 8/1/1 6/1/1 7/1/1
f 9/1/1 7/1/1 1/1/1
f 10/1/1 4/1/1 8/1/1
f 11/1/1 9/1/1 1/1/1
f 11/1/1 10/1/1 9/1/1
f 12/1/1 4/1/1 10/1/1
f 12/1/1 10/1/1 11/1/1
f 13/1/1 11/1/1 1/1/1
f 14/1/1 11/1/1 13/1/1
f 15/1/1 4/1/1 12/1/1
f 16/1/1 4/1/1 15/1/1
f 19/2/1 18/2/1 17/2/1
f 20/2/1 18/2/1 19/2/1
f 23/2/1 22/2/1 21/2/1
f 24/2/1 22/2/1 23/2/1
f 29/1/1 26/1/1 25/1/1
f 30/1/1 28/1/1 27/1/1
f 31/1/1 29/1/1 25/1/1
f 32/1/1 28/1/1 30/1/1
f 33/1/1 31/1/1 25/1/1
f 34/1/1 28/1/1 32/1/1
f 35/1/1 33/1/1 25/1/1
f 35/1/1 34/1/1 33/1/1
f 36/1/1 28/1/1 34/1/1
f 36/1/1 34/1/1 35/1/1
f 37/1/1 35/1/1 25/1/1
f 38/1/1 28/1/1 36/1/1
f 39/1/1 37/1/1 25/1/1
f 40/1/1 28/1/1 38/1/1
f 41/1/1 39/1/1 25/1/1
f 42/1/1 28/1/1 40/1/1
f 43/1/1 41/1/1 25/1/1
f 43/1/1 42/1/1 41/1/1
f 44/1/1 28/1/1 42/1/1
f 44/1/1 42/1/1 43/1/1
f 45/1/1 43/1/1 25/1/1
f 46/1/1 43/1/1 45/1/1
f 47/1/1 28/1/1 44/1/1
f 48/1/1 28/1/1 47/1/1
f 49/1/2 50/1/2 53/1/2
f 51/1/2 52/1/2 54/1/2
f 49/1/2 53/1/2 55/1/2
f 54/1/2 52/1/2 56/1/2
f 49/1/2 55/1/2 57/1/2
f 56/1/2 52/1/2 58/1/2
f 49/1/2 57/1/2 59/1/2
f 57/1/2 58/1/2 59/1/2
f 58/1/2 52/1/2 60/1/2
f 59/1/2 58/1/2 60/1/2
f 49/1/2 59/1/2 61/1/2
f 60/1/2 52/1/2 62/1/2
f 49/1/2 61/1/2 63/1/2
f 62/1/2 52/1/2 64/1/2
f 49/1/2 63/1/2 65/1/2
f 64/1/2 52/1/2 66/1/2
f 49/1/2 65/1/2 67/1/2
f 65/1/2 66/1/2 67/1/2
f 66/1/2 52/1/2 68/1/2
f 67/1/2 66/1/2 68/1/2
f 49/1/2 67/1/2 69/1/2
f 69/1/2 67/1/2 70/1/2
f 68/1/2 52/1/2 71/1/2
f 71/1/2 52/1/2 72/1/2
f 73/2/2 74/2/2 75/2/2
f 75/2/2 74/2/2 76/2/2
f 77/2/2 78/2/2 79/2/2
f 79/2/2 78/2/2 80/2/2
f 81/1/2 82/1/2 85/1/2
f 83/1/2 84/1/2 86/1/2
f 81/1/2 85/1/2 87/1/2
f 85/1/2 86/1/2 87/1/2
f 86/1/2 84/1/2 88/1/2
f 87/1/2 86/1/2 88/1/2
f 81/1/2 87/1/2 89/1/2
f 88/1/2 84/1/2 90/1/2
f 81/1/2 89/1/2 91/1/2
f 89/1/2 90/1/2 91/1/2
f 90/1/2 84/1/2 92/1/2
f 91/1/2 90/1/2 92/1/2
f 81/1/2 91/1/2 93/1/2
f 93/1/2 91/1/2 94/1/2
f 92/1/2 84/1/2 95/1/2
f 95/1/2 84/1/2 96/1/2
f 99/1/3 98/1/3 97/1/3
f 100/1/3 98/1/3 99/1/3
f 103/1/3 102/1/3 101/1/3
f 104/1/3 102/1/3 103/1/3
f 109/2/3 106/2/3 105/2/3
f 110/2/3 106/2/3 109/2/3
f 111/2/3 108/2/3 107/2/3
f 112/2/3 108/2/3 111/2/3
f 119/1/3 114/1/3 113/1/3
f 120/1/3 114/1/3 119/1/3
f 121/1/3 114/1/3 120/1/3
f 122/1/3 114/1/3 121/1/3
f 123/1/3 116/1/3 115/1/3
f 124/1/3 116/1/3 123/1/3
f 125/1/3 116/1/3 124/1/3
f 126/1/3 116/1/3 125/1/3
f 127/1/3 118/1/3 117/1/3
f 128/1/3 118/1/3 127/1/3
f 139/1/3 130/1/3 129/1/3
f 139/1/3 131/1/3 130/1/3
f 139/1/3 132/1/3 131/1/3
f 140/1/3 132/1/3 139/1/3
f 141/1/3 136/1/3 135/1/3
f 141/1/3 135/1/3 134/1/3
f 141/1/3 134/1/3 133/1/3
f 142/1/3 136/1/3 141/1/3
f 143/1/3 138/1/3 137/1/3
f 144/1/3 138/1/3 143/1/3
f 145/1/4 146/1/4 151/1/4
f 151/1/4 146/1/4 152/1/4
f 152/1/4 146/1/4 153/1/4
f 153/1/4 146/1/4 154/1/4
f 147/1/4 148/1/4 155/1/4
f 155/1/4 148/1/4 156/1/4
f 156/1/4 148/1/4 157/1/4
f 157/1/4 148/1/4 158/1/4
f 149/1/4 150/1/4 159/1/4
f 159/1/4 150/1/4 160/1/4
f 161/1/4 162/1/4 171/1/4
f 162/1/4 163/1/4 171/1/4
f 163/1/4 164/1/4 171/1/4
f 171/1/4 164/1/4 172/1/4
f 167/1/4 168/1/4 173/1/4
f 166/1/4 167/1/4 173/1/4
f 165/1/4 166/1/4 173/1/4
f 173/1/4 168/1/4 174/1/4
f 169/1/4 170/1/4 175/1/4
f 175/1/4 170/1/4 176/1/4
f 177/2/4 178/2/4 181/2/4
f 181/2/4 178/2/4 182/2/4
f 179/2/4 180/2/4 183/2/4
f 183/2/4 180/2/4 184/2/4
f 185/1/4 186/1/4 187/1/4
f 187/1/4 186/1/4 188/1/4
f 189/1/4 190/1/4 191/1/4
f 191/1/4 190/1/4 192/1/4
f 197/1/5 194/1/5 193/1/5
f 198/1/5 194/1/5 197/1/5
f 199/1/5 196/1/5 195/1/5
f 200/1/5 196/1/5 199/1/5
f 205/1/5 202/1/5 201/1/5
f 206/1/5 202/1/5 205/1/5
f 207/1/5 204/1/5 203/1/5
f 208/1/5 204/1/5 207/1/5
f 211/2/5 210/2/5 209/2/5
f 212/2/5 210/2/5 211/2/5
f 217/1/5 214/1/5 213/1/5
f 218/1/5 214/1/5 217/1/5
f 219/1/5 216/1/5 215/1/5
f 220/1/5 216/1/5 219/1/5
f 223/2/5 222/2/5 221/2/5
f 224/2/5 222/2/5 223/2/5
f 229/1/5 226/1/5 225/1/5
f 230/1/5 226/1/5 229/1/5
f 231/1/5 228/1/5 227/1/5
f 232/1/5 228/1/5 231/1/5
f 233/2/6 234/2/6 235/2/6
f 235/2/6 234/2/6 236/2/6
f 237/1/6 238/1/6 241/1/6
f 241/1/6 238/1/6 242/1/6
f 239/1/6 240/1/6 243/1/6
f 243/1/6 240/1/6 244/1/6
f 245/2/6 246/2/6 247/2/6
f 247/2/6 246/2/6 248/2/6
f 249/1/6 250/1/6 253/1/6
f 253/1/6 250/1/6 254/1/6
f 251/1/6 252/1/6 255/1/6
f 255/1/6 252/1/6 256/1/6
f 257/1/6 258/1/6 261/1/6
f 261/1/6 258/1/6 262/1/6
f 259/1/6 260/1/6 263/1/6
f 263/1/6 260/1/6 264/1/6
f 265/1/6 266/1/6 269/1/6
f 269/1/6 266/1/6 270/1/6
f 267/1/6 268/1/6 271/1/6
f 271/1/6 268/1/6 272/1/6
