# MagicaVoxel @ Ephtracy

# material
mtllib Art_NewWeightRoom_LiftWeights.mtl
usemtl palette

# normals
vn -1 0 0
vn 1 0 0
vn 0 0 1
vn 0 0 -1
vn 0 -1 0
vn 0 1 0

# texcoords
vt 0.392578 0.5
vt 0.396484 0.5
vt 0.404297 0.5
vt 0.427734 0.5

# verts
v 49 10 -21
v 49 10 -22
v 49 10 -26
v 49 10 -27
v 49 10 -39
v 49 10 -40
v 49 10 -44
v 49 10 -45
v 49 12 -22
v 49 12 -26
v 49 12 -40
v 49 12 -44
v 49 13 -21
v 49 13 -27
v 49 13 -39
v 49 13 -45
v 49 14 -21
v 49 14 -27
v 49 14 -39
v 49 14 -45
v 54 16 -18
v 54 16 -19
v 54 16 -29
v 54 16 -30
v 54 16 -36
v 54 16 -37
v 54 16 -47
v 54 16 -48
v 54 19 -18
v 54 19 -19
v 54 19 -29
v 54 19 -30
v 54 19 -36
v 54 19 -37
v 54 19 -47
v 54 19 -48
v 55 15 -18
v 55 15 -19
v 55 15 -29
v 55 15 -30
v 55 15 -36
v 55 15 -37
v 55 15 -47
v 55 15 -48
v 55 16 -18
v 55 16 -19
v 55 16 -20
v 55 16 -28
v 55 16 -29
v 55 16 -30
v 55 16 -36
v 55 16 -37
v 55 16 -38
v 55 16 -46
v 55 16 -47
v 55 16 -48
v 55 19 -18
v 55 19 -19
v 55 19 -20
v 55 19 -28
v 55 19 -29
v 55 19 -30
v 55 19 -36
v 55 19 -37
v 55 19 -38
v 55 19 -46
v 55 19 -47
v 55 19 -48
v 55 20 -18
v 55 20 -19
v 55 20 -29
v 55 20 -30
v 55 20 -36
v 55 20 -37
v 55 20 -47
v 55 20 -48
v 56 10 -19
v 56 10 -20
v 56 10 -21
v 56 10 -22
v 56 10 -26
v 56 10 -27
v 56 10 -28
v 56 10 -29
v 56 10 -37
v 56 10 -38
v 56 10 -39
v 56 10 -40
v 56 10 -44
v 56 10 -45
v 56 10 -46
v 56 10 -47
v 56 12 -21
v 56 12 -22
v 56 12 -26
v 56 12 -27
v 56 12 -39
v 56 12 -40
v 56 12 -44
v 56 12 -45
v 56 13 -22
v 56 13 -26
v 56 13 -40
v 56 13 -44
v 56 15 -19
v 56 15 -29
v 56 15 -37
v 56 15 -47
v 56 16 -19
v 56 16 -20
v 56 16 -28
v 56 16 -29
v 56 16 -37
v 56 16 -38
v 56 16 -46
v 56 16 -47
v 56 17 -20
v 56 17 -28
v 56 17 -30
v 56 17 -31
v 56 17 -35
v 56 17 -36
v 56 17 -38
v 56 17 -46
v 56 17 -48
v 56 17 -49
v 56 18 -20
v 56 18 -28
v 56 18 -30
v 56 18 -31
v 56 18 -35
v 56 18 -36
v 56 18 -38
v 56 18 -46
v 56 18 -48
v 56 18 -49
v 50 10 -21
v 50 10 -22
v 50 10 -26
v 50 10 -27
v 50 10 -39
v 50 10 -40
v 50 10 -44
v 50 10 -45
v 50 12 -21
v 50 12 -22
v 50 12 -26
v 50 12 -27
v 50 12 -39
v 50 12 -40
v 50 12 -44
v 50 12 -45
v 50 13 -22
v 50 13 -26
v 50 13 -40
v 50 13 -44
v 57 10 -19
v 57 10 -20
v 57 10 -21
v 57 10 -22
v 57 10 -26
v 57 10 -27
v 57 10 -28
v 57 10 -29
v 57 10 -37
v 57 10 -38
v 57 10 -39
v 57 10 -40
v 57 10 -44
v 57 10 -45
v 57 10 -46
v 57 10 -47
v 57 12 -22
v 57 12 -26
v 57 12 -40
v 57 12 -44
v 57 13 -21
v 57 13 -27
v 57 13 -39
v 57 13 -45
v 57 14 -21
v 57 14 -27
v 57 14 -39
v 57 14 -45
v 57 15 -19
v 57 15 -29
v 57 15 -37
v 57 15 -47
v 57 16 -19
v 57 16 -20
v 57 16 -28
v 57 16 -29
v 57 16 -37
v 57 16 -38
v 57 16 -46
v 57 16 -47
v 57 17 -20
v 57 17 -28
v 57 17 -30
v 57 17 -31
v 57 17 -35
v 57 17 -36
v 57 17 -38
v 57 17 -46
v 57 17 -48
v 57 17 -49
v 57 18 -20
v 57 18 -28
v 57 18 -30
v 57 18 -31
v 57 18 -35
v 57 18 -36
v 57 18 -38
v 57 18 -46
v 57 18 -48
v 57 18 -49
v 58 15 -18
v 58 15 -19
v 58 15 -29
v 58 15 -30
v 58 15 -36
v 58 15 -37
v 58 15 -47
v 58 15 -48
v 58 16 -18
v 58 16 -19
v 58 16 -20
v 58 16 -28
v 58 16 -29
v 58 16 -30
v 58 16 -36
v 58 16 -37
v 58 16 -38
v 58 16 -46
v 58 16 -47
v 58 16 -48
v 58 19 -18
v 58 19 -19
v 58 19 -20
v 58 19 -28
v 58 19 -29
v 58 19 -30
v 58 19 -36
v 58 19 -37
v 58 19 -38
v 58 19 -46
v 58 19 -47
v 58 19 -48
v 58 20 -18
v 58 20 -19
v 58 20 -29
v 58 20 -30
v 58 20 -36
v 58 20 -37
v 58 20 -47
v 58 20 -48
v 59 16 -18
v 59 16 -19
v 59 16 -29
v 59 16 -30
v 59 16 -36
v 59 16 -37
v 59 16 -47
v 59 16 -48
v 59 19 -18
v 59 19 -19
v 59 19 -29
v 59 19 -30
v 59 19 -36
v 59 19 -37
v 59 19 -47
v 59 19 -48
v 54 16 -18
v 54 19 -18
v 55 15 -18
v 55 16 -18
v 55 19 -18
v 55 20 -18
v 58 15 -18
v 58 16 -18
v 58 19 -18
v 58 20 -18
v 59 16 -18
v 59 19 -18
v 56 10 -19
v 56 15 -19
v 57 10 -19
v 57 15 -19
v 49 10 -21
v 49 13 -21
v 49 14 -21
v 50 10 -21
v 50 12 -21
v 56 10 -21
v 56 12 -21
v 57 10 -21
v 57 13 -21
v 57 14 -21
v 49 10 -26
v 49 12 -26
v 50 10 -26
v 50 12 -26
v 50 13 -26
v 56 10 -26
v 56 12 -26
v 56 13 -26
v 57 10 -26
v 57 12 -26
v 55 16 -28
v 55 19 -28
v 56 10 -28
v 56 16 -28
v 56 17 -28
v 56 18 -28
v 57 10 -28
v 57 16 -28
v 57 17 -28
v 57 18 -28
v 58 16 -28
v 58 19 -28
v 54 16 -29
v 54 19 -29
v 55 15 -29
v 55 16 -29
v 55 19 -29
v 55 20 -29
v 56 15 -29
v 56 16 -29
v 57 15 -29
v 57 16 -29
v 58 15 -29
v 58 16 -29
v 58 19 -29
v 58 20 -29
v 59 16 -29
v 59 19 -29
v 56 17 -35
v 56 18 -35
v 57 17 -35
v 57 18 -35
v 54 16 -36
v 54 19 -36
v 55 15 -36
v 55 16 -36
v 55 19 -36
v 55 20 -36
v 56 17 -36
v 56 18 -36
v 57 17 -36
v 57 18 -36
v 58 15 -36
v 58 16 -36
v 58 19 -36
v 58 20 -36
v 59 16 -36
v 59 19 -36
v 56 10 -37
v 56 15 -37
v 57 10 -37
v 57 15 -37
v 49 10 -39
v 49 13 -39
v 49 14 -39
v 50 10 -39
v 50 12 -39
v 56 10 -39
v 56 12 -39
v 57 10 -39
v 57 13 -39
v 57 14 -39
v 49 10 -44
v 49 12 -44
v 50 10 -44
v 50 12 -44
v 50 13 -44
v 56 10 -44
v 56 12 -44
v 56 13 -44
v 57 10 -44
v 57 12 -44
v 55 16 -46
v 55 19 -46
v 56 10 -46
v 56 16 -46
v 56 17 -46
v 56 18 -46
v 57 10 -46
v 57 16 -46
v 57 17 -46
v 57 18 -46
v 58 16 -46
v 58 19 -46
v 54 16 -47
v 54 19 -47
v 55 15 -47
v 55 16 -47
v 55 19 -47
v 55 20 -47
v 56 15 -47
v 56 16 -47
v 57 15 -47
v 57 16 -47
v 58 15 -47
v 58 16 -47
v 58 19 -47
v 58 20 -47
v 59 16 -47
v 59 19 -47
v 54 16 -19
v 54 19 -19
v 55 15 -19
v 55 16 -19
v 55 19 -19
v 55 20 -19
v 56 15 -19
v 56 16 -19
v 57 15 -19
v 57 16 -19
v 58 15 -19
v 58 16 -19
v 58 19 -19
v 58 20 -19
v 59 16 -19
v 59 19 -19
v 55 16 -20
v 55 19 -20
v 56 10 -20
v 56 16 -20
v 56 17 -20
v 56 18 -20
v 57 10 -20
v 57 16 -20
v 57 17 -20
v 57 18 -20
v 58 16 -20
v 58 19 -20
v 49 10 -22
v 49 12 -22
v 50 10 -22
v 50 12 -22
v 50 13 -22
v 56 10 -22
v 56 12 -22
v 56 13 -22
v 57 10 -22
v 57 12 -22
v 49 10 -27
v 49 13 -27
v 49 14 -27
v 50 10 -27
v 50 12 -27
v 56 10 -27
v 56 12 -27
v 57 10 -27
v 57 13 -27
v 57 14 -27
v 56 10 -29
v 56 15 -29
v 57 10 -29
v 57 15 -29
v 54 16 -30
v 54 19 -30
v 55 15 -30
v 55 16 -30
v 55 19 -30
v 55 20 -30
v 56 17 -30
v 56 18 -30
v 57 17 -30
v 57 18 -30
v 58 15 -30
v 58 16 -30
v 58 19 -30
v 58 20 -30
v 59 16 -30
v 59 19 -30
v 56 17 -31
v 56 18 -31
v 57 17 -31
v 57 18 -31
v 54 16 -37
v 54 19 -37
v 55 15 -37
v 55 16 -37
v 55 19 -37
v 55 20 -37
v 56 15 -37
v 56 16 -37
v 57 15 -37
v 57 16 -37
v 58 15 -37
v 58 16 -37
v 58 19 -37
v 58 20 -37
v 59 16 -37
v 59 19 -37
v 55 16 -38
v 55 19 -38
v 56 10 -38
v 56 16 -38
v 56 17 -38
v 56 18 -38
v 57 10 -38
v 57 16 -38
v 57 17 -38
v 57 18 -38
v 58 16 -38
v 58 19 -38
v 49 10 -40
v 49 12 -40
v 50 10 -40
v 50 12 -40
v 50 13 -40
v 56 10 -40
v 56 12 -40
v 56 13 -40
v 57 10 -40
v 57 12 -40
v 49 10 -45
v 49 13 -45
v 49 14 -45
v 50 10 -45
v 50 12 -45
v 56 10 -45
v 56 12 -45
v 57 10 -45
v 57 13 -45
v 57 14 -45
v 56 10 -47
v 56 15 -47
v 57 10 -47
v 57 15 -47
v 54 16 -48
v 54 19 -48
v 55 15 -48
v 55 16 -48
v 55 19 -48
v 55 20 -48
v 56 17 -48
v 56 18 -48
v 57 17 -48
v 57 18 -48
v 58 15 -48
v 58 16 -48
v 58 19 -48
v 58 20 -48
v 59 16 -48
v 59 19 -48
v 56 17 -49
v 56 18 -49
v 57 17 -49
v 57 18 -49
v 56 10 -19
v 57 10 -19
v 56 10 -20
v 57 10 -20
v 49 10 -21
v 50 10 -21
v 56 10 -21
v 57 10 -21
v 49 10 -22
v 50 10 -22
v 56 10 -22
v 57 10 -22
v 49 10 -26
v 50 10 -26
v 56 10 -26
v 57 10 -26
v 49 10 -27
v 50 10 -27
v 56 10 -27
v 57 10 -27
v 56 10 -28
v 57 10 -28
v 56 10 -29
v 57 10 -29
v 56 10 -37
v 57 10 -37
v 56 10 -38
v 57 10 -38
v 49 10 -39
v 50 10 -39
v 56 10 -39
v 57 10 -39
v 49 10 -40
v 50 10 -40
v 56 10 -40
v 57 10 -40
v 49 10 -44
v 50 10 -44
v 56 10 -44
v 57 10 -44
v 49 10 -45
v 50 10 -45
v 56 10 -45
v 57 10 -45
v 56 10 -46
v 57 10 -46
v 56 10 -47
v 57 10 -47
v 50 12 -21
v 56 12 -21
v 49 12 -22
v 50 12 -22
v 56 12 -22
v 57 12 -22
v 49 12 -26
v 50 12 -26
v 56 12 -26
v 57 12 -26
v 50 12 -27
v 56 12 -27
v 50 12 -39
v 56 12 -39
v 49 12 -40
v 50 12 -40
v 56 12 -40
v 57 12 -40
v 49 12 -44
v 50 12 -44
v 56 12 -44
v 57 12 -44
v 50 12 -45
v 56 12 -45
v 50 13 -22
v 56 13 -22
v 50 13 -26
v 56 13 -26
v 50 13 -40
v 56 13 -40
v 50 13 -44
v 56 13 -44
v 55 15 -18
v 58 15 -18
v 55 15 -19
v 56 15 -19
v 57 15 -19
v 58 15 -19
v 55 15 -29
v 56 15 -29
v 57 15 -29
v 58 15 -29
v 55 15 -30
v 58 15 -30
v 55 15 -36
v 58 15 -36
v 55 15 -37
v 56 15 -37
v 57 15 -37
v 58 15 -37
v 55 15 -47
v 56 15 -47
v 57 15 -47
v 58 15 -47
v 55 15 -48
v 58 15 -48
v 54 16 -18
v 55 16 -18
v 58 16 -18
v 59 16 -18
v 54 16 -19
v 55 16 -19
v 56 16 -19
v 57 16 -19
v 58 16 -19
v 59 16 -19
v 55 16 -20
v 56 16 -20
v 57 16 -20
v 58 16 -20
v 55 16 -28
v 56 16 -28
v 57 16 -28
v 58 16 -28
v 54 16 -29
v 55 16 -29
v 56 16 -29
v 57 16 -29
v 58 16 -29
v 59 16 -29
v 54 16 -30
v 55 16 -30
v 58 16 -30
v 59 16 -30
v 54 16 -36
v 55 16 -36
v 58 16 -36
v 59 16 -36
v 54 16 -37
v 55 16 -37
v 56 16 -37
v 57 16 -37
v 58 16 -37
v 59 16 -37
v 55 16 -38
v 56 16 -38
v 57 16 -38
v 58 16 -38
v 55 16 -46
v 56 16 -46
v 57 16 -46
v 58 16 -46
v 54 16 -47
v 55 16 -47
v 56 16 -47
v 57 16 -47
v 58 16 -47
v 59 16 -47
v 54 16 -48
v 55 16 -48
v 58 16 -48
v 59 16 -48
v 56 17 -20
v 57 17 -20
v 56 17 -28
v 57 17 -28
v 56 17 -30
v 57 17 -30
v 56 17 -31
v 57 17 -31
v 56 17 -35
v 57 17 -35
v 56 17 -36
v 57 17 -36
v 56 17 -38
v 57 17 -38
v 56 17 -46
v 57 17 -46
v 56 17 -48
v 57 17 -48
v 56 17 -49
v 57 17 -49
v 49 14 -21
v 57 14 -21
v 49 14 -27
v 57 14 -27
v 49 14 -39
v 57 14 -39
v 49 14 -45
v 57 14 -45
v 56 18 -20
v 57 18 -20
v 56 18 -28
v 57 18 -28
v 56 18 -30
v 57 18 -30
v 56 18 -31
v 57 18 -31
v 56 18 -35
v 57 18 -35
v 56 18 -36
v 57 18 -36
v 56 18 -38
v 57 18 -38
v 56 18 -46
v 57 18 -46
v 56 18 -48
v 57 18 -48
v 56 18 -49
v 57 18 -49
v 54 19 -18
v 55 19 -18
v 58 19 -18
v 59 19 -18
v 54 19 -19
v 55 19 -19
v 58 19 -19
v 59 19 -19
v 55 19 -20
v 58 19 -20
v 55 19 -28
v 58 19 -28
v 54 19 -29
v 55 19 -29
v 58 19 -29
v 59 19 -29
v 54 19 -30
v 55 19 -30
v 58 19 -30
v 59 19 -30
v 54 19 -36
v 55 19 -36
v 58 19 -36
v 59 19 -36
v 54 19 -37
v 55 19 -37
v 58 19 -37
v 59 19 -37
v 55 19 -38
v 58 19 -38
v 55 19 -46
v 58 19 -46
v 54 19 -47
v 55 19 -47
v 58 19 -47
v 59 19 -47
v 54 19 -48
v 55 19 -48
v 58 19 -48
v 59 19 -48
v 55 20 -18
v 58 20 -18
v 55 20 -19
v 58 20 -19
v 55 20 -29
v 58 20 -29
v 55 20 -30
v 58 20 -30
v 55 20 -36
v 58 20 -36
v 55 20 -37
v 58 20 -37
v 55 20 -47
v 58 20 -47
v 55 20 -48
v 58 20 -48

# faces
f 9/1/1 2/1/1 1/1/1
f 10/1/1 4/1/1 3/1/1
f 11/1/1 6/1/1 5/1/1
f 12/1/1 8/1/1 7/1/1
f 13/1/1 9/1/1 1/1/1
f 13/1/1 10/1/1 9/1/1
f 14/1/1 4/1/1 10/1/1
f 14/1/1 10/1/1 13/1/1
f 15/1/1 11/1/1 5/1/1
f 15/1/1 12/1/1 11/1/1
f 16/1/1 8/1/1 12/1/1
f 16/1/1 12/1/1 15/1/1
f 17/3/1 14/3/1 13/3/1
f 18/3/1 14/3/1 17/3/1
f 19/4/1 16/4/1 15/4/1
f 20/4/1 16/4/1 19/4/1
f 29/2/1 22/2/1 21/2/1
f 30/2/1 22/2/1 29/2/1
f 31/2/1 24/2/1 23/2/1
f 32/2/1 24/2/1 31/2/1
f 33/2/1 26/2/1 25/2/1
f 34/2/1 26/2/1 33/2/1
f 35/2/1 28/2/1 27/2/1
f 36/2/1 28/2/1 35/2/1
f 45/2/1 38/2/1 37/2/1
f 46/2/1 38/2/1 45/2/1
f 49/2/1 40/2/1 39/2/1
f 50/2/1 40/2/1 49/2/1
f 51/2/1 42/2/1 41/2/1
f 52/2/1 42/2/1 51/2/1
f 55/2/1 44/2/1 43/2/1
f 56/2/1 44/2/1 55/2/1
f 58/1/1 47/1/1 46/1/1
f 59/1/1 47/1/1 58/1/1
f 60/1/1 49/1/1 48/1/1
f 61/1/1 49/1/1 60/1/1
f 64/1/1 53/1/1 52/1/1
f 65/1/1 53/1/1 64/1/1
f 66/1/1 55/1/1 54/1/1
f 67/1/1 55/1/1 66/1/1
f 69/2/1 58/2/1 57/2/1
f 70/2/1 58/2/1 69/2/1
f 71/2/1 62/2/1 61/2/1
f 72/2/1 62/2/1 71/2/1
f 73/2/1 64/2/1 63/2/1
f 74/2/1 64/2/1 73/2/1
f 75/2/1 68/2/1 67/2/1
f 76/2/1 68/2/1 75/2/1
f 93/1/1 80/1/1 79/1/1
f 94/1/1 80/1/1 93/1/1
f 95/1/1 82/1/1 81/1/1
f 96/1/1 82/1/1 95/1/1
f 97/1/1 88/1/1 87/1/1
f 98/1/1 88/1/1 97/1/1
f 99/1/1 90/1/1 89/1/1
f 100/1/1 90/1/1 99/1/1
f 101/1/1 95/1/1 94/1/1
f 102/1/1 95/1/1 101/1/1
f 103/1/1 99/1/1 98/1/1
f 104/1/1 99/1/1 103/1/1
f 105/1/1 78/1/1 77/1/1
f 106/1/1 84/1/1 83/1/1
f 107/1/1 86/1/1 85/1/1
f 108/1/1 92/1/1 91/1/1
f 109/1/1 78/1/1 105/1/1
f 110/1/1 78/1/1 109/1/1
f 111/1/1 106/1/1 83/1/1
f 112/1/1 106/1/1 111/1/1
f 113/1/1 86/1/1 107/1/1
f 114/1/1 86/1/1 113/1/1
f 115/1/1 108/1/1 91/1/1
f 116/1/1 108/1/1 115/1/1
f 127/1/1 118/1/1 117/1/1
f 128/1/1 118/1/1 127/1/1
f 129/1/1 120/1/1 119/1/1
f 130/1/1 120/1/1 129/1/1
f 131/1/1 122/1/1 121/1/1
f 132/1/1 122/1/1 131/1/1
f 133/1/1 124/1/1 123/1/1
f 134/1/1 124/1/1 133/1/1
f 135/1/1 126/1/1 125/1/1
f 136/1/1 126/1/1 135/1/1
f 137/1/2 138/1/2 145/1/2
f 145/1/2 138/1/2 146/1/2
f 139/1/2 140/1/2 147/1/2
f 147/1/2 140/1/2 148/1/2
f 141/1/2 142/1/2 149/1/2
f 149/1/2 142/1/2 150/1/2
f 143/1/2 144/1/2 151/1/2
f 151/1/2 144/1/2 152/1/2
f 146/1/2 147/1/2 153/1/2
f 153/1/2 147/1/2 154/1/2
f 150/1/2 151/1/2 155/1/2
f 155/1/2 151/1/2 156/1/2
f 159/1/2 160/1/2 173/1/2
f 161/1/2 162/1/2 174/1/2
f 167/1/2 168/1/2 175/1/2
f 169/1/2 170/1/2 176/1/2
f 159/1/2 173/1/2 177/1/2
f 173/1/2 174/1/2 177/1/2
f 174/1/2 162/1/2 178/1/2
f 177/1/2 174/1/2 178/1/2
f 175/1/2 176/1/2 179/1/2
f 167/1/2 175/1/2 179/1/2
f 176/1/2 170/1/2 180/1/2
f 179/1/2 176/1/2 180/1/2
f 177/3/2 178/3/2 181/3/2
f 181/3/2 178/3/2 182/3/2
f 179/4/2 180/4/2 183/4/2
f 183/4/2 180/4/2 184/4/2
f 157/1/2 158/1/2 185/1/2
f 163/1/2 164/1/2 186/1/2
f 165/1/2 166/1/2 187/1/2
f 171/1/2 172/1/2 188/1/2
f 185/1/2 158/1/2 189/1/2
f 189/1/2 158/1/2 190/1/2
f 163/1/2 186/1/2 191/1/2
f 191/1/2 186/1/2 192/1/2
f 187/1/2 166/1/2 193/1/2
f 193/1/2 166/1/2 194/1/2
f 171/1/2 188/1/2 195/1/2
f 195/1/2 188/1/2 196/1/2
f 197/1/2 198/1/2 207/1/2
f 207/1/2 198/1/2 208/1/2
f 199/1/2 200/1/2 209/1/2
f 209/1/2 200/1/2 210/1/2
f 201/1/2 202/1/2 211/1/2
f 211/1/2 202/1/2 212/1/2
f 203/1/2 204/1/2 213/1/2
f 213/1/2 204/1/2 214/1/2
f 205/1/2 206/1/2 215/1/2
f 215/1/2 206/1/2 216/1/2
f 217/2/2 218/2/2 225/2/2
f 225/2/2 218/2/2 226/2/2
f 219/2/2 220/2/2 229/2/2
f 229/2/2 220/2/2 230/2/2
f 221/2/2 222/2/2 231/2/2
f 231/2/2 222/2/2 232/2/2
f 223/2/2 224/2/2 235/2/2
f 235/2/2 224/2/2 236/2/2
f 226/1/2 227/1/2 238/1/2
f 238/1/2 227/1/2 239/1/2
f 228/1/2 229/1/2 240/1/2
f 240/1/2 229/1/2 241/1/2
f 232/1/2 233/1/2 244/1/2
f 244/1/2 233/1/2 245/1/2
f 234/1/2 235/1/2 246/1/2
f 246/1/2 235/1/2 247/1/2
f 237/2/2 238/2/2 249/2/2
f 249/2/2 238/2/2 250/2/2
f 241/2/2 242/2/2 251/2/2
f 251/2/2 242/2/2 252/2/2
f 243/2/2 244/2/2 253/2/2
f 253/2/2 244/2/2 254/2/2
f 247/2/2 248/2/2 255/2/2
f 255/2/2 248/2/2 256/2/2
f 257/2/2 258/2/2 265/2/2
f 265/2/2 258/2/2 266/2/2
f 259/2/2 260/2/2 267/2/2
f 267/2/2 260/2/2 268/2/2
f 261/2/2 262/2/2 269/2/2
f 269/2/2 262/2/2 270/2/2
f 263/2/2 264/2/2 271/2/2
f 271/2/2 264/2/2 272/2/2
f 276/2/3 274/2/3 273/2/3
f 277/2/3 274/2/3 276/2/3
f 279/2/3 276/2/3 275/2/3
f 279/2/3 278/2/3 277/2/3
f 279/2/3 277/2/3 276/2/3
f 280/2/3 278/2/3 279/2/3
f 281/2/3 278/2/3 280/2/3
f 282/2/3 278/2/3 281/2/3
f 283/2/3 281/2/3 280/2/3
f 284/2/3 281/2/3 283/2/3
f 287/1/3 286/1/3 285/1/3
f 288/1/3 286/1/3 287/1/3
f 292/1/3 290/1/3 289/1/3
f 293/1/3 290/1/3 292/1/3
f 295/1/3 290/1/3 293/1/3
f 296/1/3 295/1/3 294/1/3
f 297/3/3 291/3/3 290/3/3
f 297/1/3 295/1/3 296/1/3
f 297/1/3 290/1/3 295/1/3
f 298/3/3 291/3/3 297/3/3
f 301/1/3 300/1/3 299/1/3
f 302/1/3 300/1/3 301/1/3
f 305/1/3 303/1/3 302/1/3
f 306/1/3 303/1/3 305/1/3
f 307/1/3 305/1/3 304/1/3
f 308/1/3 305/1/3 307/1/3
f 312/1/3 310/1/3 309/1/3
f 313/1/3 310/1/3 312/1/3
f 314/1/3 310/1/3 313/1/3
f 315/1/3 312/1/3 311/1/3
f 315/1/3 313/1/3 312/1/3
f 316/1/3 313/1/3 315/1/3
f 317/1/3 313/1/3 316/1/3
f 318/1/3 310/1/3 314/1/3
f 319/1/3 317/1/3 316/1/3
f 319/1/3 318/1/3 317/1/3
f 320/1/3 310/1/3 318/1/3
f 320/1/3 318/1/3 319/1/3
f 324/2/3 322/2/3 321/2/3
f 325/2/3 322/2/3 324/2/3
f 327/2/3 324/2/3 323/2/3
f 328/2/3 324/2/3 327/2/3
f 331/2/3 330/2/3 329/2/3
f 332/2/3 330/2/3 331/2/3
f 333/2/3 326/2/3 325/2/3
f 334/2/3 326/2/3 333/2/3
f 335/2/3 333/2/3 332/2/3
f 336/2/3 333/2/3 335/2/3
f 339/1/3 338/1/3 337/1/3
f 340/1/3 338/1/3 339/1/3
f 344/2/3 342/2/3 341/2/3
f 345/2/3 342/2/3 344/2/3
f 347/2/3 344/2/3 343/2/3
f 347/2/3 346/2/3 345/2/3
f 347/2/3 345/2/3 344/2/3
f 348/2/3 346/2/3 347/2/3
f 349/2/3 347/2/3 343/2/3
f 350/2/3 346/2/3 348/2/3
f 351/2/3 349/2/3 343/2/3
f 351/2/3 350/2/3 349/2/3
f 352/2/3 350/2/3 351/2/3
f 353/2/3 346/2/3 350/2/3
f 353/2/3 350/2/3 352/2/3
f 354/2/3 346/2/3 353/2/3
f 355/2/3 353/2/3 352/2/3
f 356/2/3 353/2/3 355/2/3
f 359/1/3 358/1/3 357/1/3
f 360/1/3 358/1/3 359/1/3
f 364/1/3 362/1/3 361/1/3
f 365/1/3 362/1/3 364/1/3
f 367/1/3 362/1/3 365/1/3
f 368/1/3 367/1/3 366/1/3
f 369/4/3 363/4/3 362/4/3
f 369/1/3 367/1/3 368/1/3
f 369/1/3 362/1/3 367/1/3
f 370/4/3 363/4/3 369/4/3
f 373/1/3 372/1/3 371/1/3
f 374/1/3 372/1/3 373/1/3
f 377/1/3 375/1/3 374/1/3
f 378/1/3 375/1/3 377/1/3
f 379/1/3 377/1/3 376/1/3
f 380/1/3 377/1/3 379/1/3
f 384/1/3 382/1/3 381/1/3
f 385/1/3 382/1/3 384/1/3
f 386/1/3 382/1/3 385/1/3
f 387/1/3 384/1/3 383/1/3
f 387/1/3 385/1/3 384/1/3
f 388/1/3 385/1/3 387/1/3
f 389/1/3 385/1/3 388/1/3
f 390/1/3 382/1/3 386/1/3
f 391/1/3 389/1/3 388/1/3
f 391/1/3 390/1/3 389/1/3
f 392/1/3 382/1/3 390/1/3
f 392/1/3 390/1/3 391/1/3
f 396/2/3 394/2/3 393/2/3
f 397/2/3 394/2/3 396/2/3
f 399/2/3 396/2/3 395/2/3
f 400/2/3 396/2/3 399/2/3
f 403/2/3 402/2/3 401/2/3
f 404/2/3 402/2/3 403/2/3
f 405/2/3 398/2/3 397/2/3
f 406/2/3 398/2/3 405/2/3
f 407/2/3 405/2/3 404/2/3
f 408/2/3 405/2/3 407/2/3
f 409/2/4 410/2/4 412/2/4
f 412/2/4 410/2/4 413/2/4
f 411/2/4 412/2/4 415/2/4
f 415/2/4 412/2/4 416/2/4
f 417/2/4 418/2/4 419/2/4
f 419/2/4 418/2/4 420/2/4
f 413/2/4 414/2/4 421/2/4
f 421/2/4 414/2/4 422/2/4
f 420/2/4 421/2/4 423/2/4
f 423/2/4 421/2/4 424/2/4
f 425/1/4 426/1/4 428/1/4
f 428/1/4 426/1/4 429/1/4
f 429/1/4 426/1/4 430/1/4
f 427/1/4 428/1/4 431/1/4
f 428/1/4 429/1/4 431/1/4
f 431/1/4 429/1/4 432/1/4
f 432/1/4 429/1/4 433/1/4
f 430/1/4 426/1/4 434/1/4
f 432/1/4 433/1/4 435/1/4
f 433/1/4 434/1/4 435/1/4
f 434/1/4 426/1/4 436/1/4
f 435/1/4 434/1/4 436/1/4
f 437/1/4 438/1/4 439/1/4
f 439/1/4 438/1/4 440/1/4
f 440/1/4 441/1/4 443/1/4
f 443/1/4 441/1/4 444/1/4
f 442/1/4 443/1/4 445/1/4
f 445/1/4 443/1/4 446/1/4
f 447/1/4 448/1/4 450/1/4
f 450/1/4 448/1/4 451/1/4
f 451/1/4 448/1/4 453/1/4
f 452/1/4 453/1/4 454/1/4
f 448/3/4 449/3/4 455/3/4
f 454/1/4 453/1/4 455/1/4
f 453/1/4 448/1/4 455/1/4
f 455/3/4 449/3/4 456/3/4
f 457/1/4 458/1/4 459/1/4
f 459/1/4 458/1/4 460/1/4
f 461/2/4 462/2/4 464/2/4
f 464/2/4 462/2/4 465/2/4
f 463/2/4 464/2/4 467/2/4
f 465/2/4 466/2/4 467/2/4
f 464/2/4 465/2/4 467/2/4
f 467/2/4 466/2/4 468/2/4
f 463/2/4 467/2/4 469/2/4
f 468/2/4 466/2/4 470/2/4
f 463/2/4 469/2/4 471/2/4
f 469/2/4 470/2/4 471/2/4
f 471/2/4 470/2/4 472/2/4
f 470/2/4 466/2/4 473/2/4
f 472/2/4 470/2/4 473/2/4
f 473/2/4 466/2/4 474/2/4
f 472/2/4 473/2/4 475/2/4
f 475/2/4 473/2/4 476/2/4
f 477/1/4 478/1/4 479/1/4
f 479/1/4 478/1/4 480/1/4
f 481/2/4 482/2/4 484/2/4
f 484/2/4 482/2/4 485/2/4
f 483/2/4 484/2/4 487/2/4
f 487/2/4 484/2/4 488/2/4
f 489/2/4 490/2/4 491/2/4
f 491/2/4 490/2/4 492/2/4
f 485/2/4 486/2/4 493/2/4
f 493/2/4 486/2/4 494/2/4
f 492/2/4 493/2/4 495/2/4
f 495/2/4 493/2/4 496/2/4
f 497/1/4 498/1/4 500/1/4
f 500/1/4 498/1/4 501/1/4
f 501/1/4 498/1/4 502/1/4
f 499/1/4 500/1/4 503/1/4
f 500/1/4 501/1/4 503/1/4
f 503/1/4 501/1/4 504/1/4
f 504/1/4 501/1/4 505/1/4
f 502/1/4 498/1/4 506/1/4
f 504/1/4 505/1/4 507/1/4
f 505/1/4 506/1/4 507/1/4
f 506/1/4 498/1/4 508/1/4
f 507/1/4 506/1/4 508/1/4
f 509/1/4 510/1/4 511/1/4
f 511/1/4 510/1/4 512/1/4
f 512/1/4 513/1/4 515/1/4
f 515/1/4 513/1/4 516/1/4
f 514/1/4 515/1/4 517/1/4
f 517/1/4 515/1/4 518/1/4
f 519/1/4 520/1/4 522/1/4
f 522/1/4 520/1/4 523/1/4
f 523/1/4 520/1/4 525/1/4
f 524/1/4 525/1/4 526/1/4
f 520/4/4 521/4/4 527/4/4
f 526/1/4 525/1/4 527/1/4
f 525/1/4 520/1/4 527/1/4
f 527/4/4 521/4/4 528/4/4
f 529/1/4 530/1/4 531/1/4
f 531/1/4 530/1/4 532/1/4
f 533/2/4 534/2/4 536/2/4
f 536/2/4 534/2/4 537/2/4
f 535/2/4 536/2/4 539/2/4
f 537/2/4 538/2/4 539/2/4
f 536/2/4 537/2/4 539/2/4
f 539/2/4 538/2/4 540/2/4
f 535/2/4 539/2/4 541/2/4
f 540/2/4 538/2/4 542/2/4
f 535/2/4 541/2/4 543/2/4
f 541/2/4 542/2/4 543/2/4
f 543/2/4 542/2/4 544/2/4
f 542/2/4 538/2/4 545/2/4
f 544/2/4 542/2/4 545/2/4
f 545/2/4 538/2/4 546/2/4
f 544/2/4 545/2/4 547/2/4
f 547/2/4 545/2/4 548/2/4
f 549/1/4 550/1/4 551/1/4
f 551/1/4 550/1/4 552/1/4
f 555/1/5 554/1/5 553/1/5
f 556/1/5 554/1/5 555/1/5
f 561/1/5 558/1/5 557/1/5
f 562/1/5 558/1/5 561/1/5
f 563/1/5 560/1/5 559/1/5
f 564/1/5 560/1/5 563/1/5
f 569/1/5 566/1/5 565/1/5
f 570/1/5 566/1/5 569/1/5
f 571/1/5 568/1/5 567/1/5
f 572/1/5 568/1/5 571/1/5
f 575/1/5 574/1/5 573/1/5
f 576/1/5 574/1/5 575/1/5
f 579/1/5 578/1/5 577/1/5
f 580/1/5 578/1/5 579/1/5
f 585/1/5 582/1/5 581/1/5
f 586/1/5 582/1/5 585/1/5
f 587/1/5 584/1/5 583/1/5
f 588/1/5 584/1/5 587/1/5
f 593/1/5 590/1/5 589/1/5
f 594/1/5 590/1/5 593/1/5
f 595/1/5 592/1/5 591/1/5
f 596/1/5 592/1/5 595/1/5
f 599/1/5 598/1/5 597/1/5
f 600/1/5 598/1/5 599/1/5
f 604/1/5 602/1/5 601/1/5
f 605/1/5 602/1/5 604/1/5
f 607/1/5 604/1/5 603/1/5
f 608/1/5 604/1/5 607/1/5
f 609/1/5 606/1/5 605/1/5
f 610/1/5 606/1/5 609/1/5
f 611/1/5 609/1/5 608/1/5
f 612/1/5 609/1/5 611/1/5
f 616/1/5 614/1/5 613/1/5
f 617/1/5 614/1/5 616/1/5
f 619/1/5 616/1/5 615/1/5
f 620/1/5 616/1/5 619/1/5
f 621/1/5 618/1/5 617/1/5
f 622/1/5 618/1/5 621/1/5
f 623/1/5 621/1/5 620/1/5
f 624/1/5 621/1/5 623/1/5
f 627/3/5 626/3/5 625/3/5
f 628/3/5 626/3/5 627/3/5
f 631/4/5 630/4/5 629/4/5
f 632/4/5 630/4/5 631/4/5
f 635/2/5 634/2/5 633/2/5
f 636/2/5 634/2/5 635/2/5
f 637/2/5 634/2/5 636/2/5
f 638/2/5 634/2/5 637/2/5
f 643/2/5 640/2/5 639/2/5
f 643/2/5 642/2/5 641/2/5
f 643/2/5 641/2/5 640/2/5
f 644/2/5 642/2/5 643/2/5
f 647/2/5 646/2/5 645/2/5
f 648/2/5 646/2/5 647/2/5
f 649/2/5 646/2/5 648/2/5
f 650/2/5 646/2/5 649/2/5
f 655/2/5 652/2/5 651/2/5
f 655/2/5 654/2/5 653/2/5
f 655/2/5 653/2/5 652/2/5
f 656/2/5 654/2/5 655/2/5
f 661/2/5 658/2/5 657/2/5
f 662/2/5 658/2/5 661/2/5
f 665/2/5 660/2/5 659/2/5
f 666/2/5 660/2/5 665/2/5
f 667/1/5 663/1/5 662/1/5
f 668/1/5 663/1/5 667/1/5
f 669/1/5 665/1/5 664/1/5
f 670/1/5 665/1/5 669/1/5
f 676/1/5 672/1/5 671/1/5
f 677/1/5 672/1/5 676/1/5
f 678/1/5 674/1/5 673/1/5
f 679/1/5 674/1/5 678/1/5
f 681/2/5 676/2/5 675/2/5
f 682/2/5 676/2/5 681/2/5
f 683/2/5 680/2/5 679/2/5
f 684/2/5 680/2/5 683/2/5
f 689/2/5 686/2/5 685/2/5
f 690/2/5 686/2/5 689/2/5
f 693/2/5 688/2/5 687/2/5
f 694/2/5 688/2/5 693/2/5
f 695/1/5 691/1/5 690/1/5
f 696/1/5 691/1/5 695/1/5
f 697/1/5 693/1/5 692/1/5
f 698/1/5 693/1/5 697/1/5
f 704/1/5 700/1/5 699/1/5
f 705/1/5 700/1/5 704/1/5
f 706/1/5 702/1/5 701/1/5
f 707/1/5 702/1/5 706/1/5
f 709/2/5 704/2/5 703/2/5
f 710/2/5 704/2/5 709/2/5
f 711/2/5 708/2/5 707/2/5
f 712/2/5 708/2/5 711/2/5
f 715/1/5 714/1/5 713/1/5
f 716/1/5 714/1/5 715/1/5
f 719/1/5 718/1/5 717/1/5
f 720/1/5 718/1/5 719/1/5
f 723/1/5 722/1/5 721/1/5
f 724/1/5 722/1/5 723/1/5
f 727/1/5 726/1/5 725/1/5
f 728/1/5 726/1/5 727/1/5
f 731/1/5 730/1/5 729/1/5
f 732/1/5 730/1/5 731/1/5
f 733/3/6 734/3/6 735/3/6
f 735/3/6 734/3/6 736/3/6
f 737/4/6 738/4/6 739/4/6
f 739/4/6 738/4/6 740/4/6
f 741/1/6 742/1/6 743/1/6
f 743/1/6 742/1/6 744/1/6
f 745/1/6 746/1/6 747/1/6
f 747/1/6 746/1/6 748/1/6
f 749/1/6 750/1/6 751/1/6
f 751/1/6 750/1/6 752/1/6
f 753/1/6 754/1/6 755/1/6
f 755/1/6 754/1/6 756/1/6
f 757/1/6 758/1/6 759/1/6
f 759/1/6 758/1/6 760/1/6
f 761/2/6 762/2/6 765/2/6
f 765/2/6 762/2/6 766/2/6
f 763/2/6 764/2/6 767/2/6
f 767/2/6 764/2/6 768/2/6
f 766/1/6 767/1/6 769/1/6
f 769/1/6 767/1/6 770/1/6
f 771/1/6 772/1/6 774/1/6
f 774/1/6 772/1/6 775/1/6
f 773/2/6 774/2/6 777/2/6
f 777/2/6 774/2/6 778/2/6
f 775/2/6 776/2/6 779/2/6
f 779/2/6 776/2/6 780/2/6
f 781/2/6 782/2/6 785/2/6
f 785/2/6 782/2/6 786/2/6
f 783/2/6 784/2/6 787/2/6
f 787/2/6 784/2/6 788/2/6
f 786/1/6 787/1/6 789/1/6
f 789/1/6 787/1/6 790/1/6
f 791/1/6 792/1/6 794/1/6
f 794/1/6 792/1/6 795/1/6
f 793/2/6 794/2/6 797/2/6
f 797/2/6 794/2/6 798/2/6
f 795/2/6 796/2/6 799/2/6
f 799/2/6 796/2/6 800/2/6
f 801/2/6 802/2/6 803/2/6
f 803/2/6 802/2/6 804/2/6
f 805/2/6 806/2/6 807/2/6
f 807/2/6 806/2/6 808/2/6
f 809/2/6 810/2/6 811/2/6
f 811/2/6 810/2/6 812/2/6
f 813/2/6 814/2/6 815/2/6
f 815/2/6 814/2/6 816/2/6
